<svg width="13" height="13" viewBox="0 0 13 13" fill="none" xmlns="http://www.w3.org/2000/svg">
<path d="M11.0641 9.40309C11.0641 9.58347 11.024 9.76886 10.9389 9.94925C10.8537 10.1296 10.7434 10.3 10.5981 10.4603C10.3526 10.7309 10.082 10.9263 9.77638 11.0516C9.47574 11.1769 9.15005 11.242 8.79931 11.242C8.28822 11.242 7.74206 11.1217 7.16584 10.8762C6.58961 10.6307 6.01339 10.3 5.44217 9.88411C4.86595 9.46321 4.31979 8.99722 3.79868 8.48113C3.28259 7.96002 2.8166 7.41386 2.40071 6.84265C1.98984 6.27143 1.65914 5.70022 1.41863 5.13402C1.17812 4.5628 1.05786 4.01664 1.05786 3.49554C1.05786 3.15481 1.11799 2.82912 1.23824 2.52848C1.3585 2.22283 1.5489 1.94224 1.81447 1.6917C2.13515 1.37603 2.48589 1.2207 2.85668 1.2207C2.99698 1.2207 3.13728 1.25077 3.26254 1.31089C3.39282 1.37102 3.50807 1.46121 3.59826 1.59149L4.76073 3.22997C4.85092 3.35524 4.91606 3.47048 4.96115 3.58072C5.00625 3.68594 5.0313 3.79116 5.0313 3.88637C5.0313 4.00662 4.99623 4.12688 4.92608 4.24212C4.86094 4.35737 4.76574 4.47762 4.64548 4.59788L4.26467 4.99372C4.20956 5.04884 4.1845 5.11397 4.1845 5.19414C4.1845 5.23423 4.18951 5.2693 4.19954 5.30939C4.21457 5.34947 4.2296 5.37954 4.23962 5.4096C4.32981 5.57495 4.48514 5.79041 4.70561 6.05096C4.93109 6.31152 5.1716 6.57708 5.43215 6.84265C5.70273 7.10821 5.96328 7.35373 6.22885 7.57921C6.4894 7.79968 6.70486 7.95 6.87522 8.04019C6.90027 8.05021 6.93034 8.06524 6.96541 8.08027C7.0055 8.09531 7.04558 8.10032 7.09068 8.10032C7.17586 8.10032 7.241 8.07025 7.29611 8.01514L7.67692 7.63934C7.80219 7.51407 7.92244 7.41887 8.03769 7.35874C8.15293 7.28859 8.26818 7.25352 8.39344 7.25352C8.48865 7.25352 8.58886 7.27356 8.69909 7.31866C8.80933 7.36375 8.92457 7.42889 9.04984 7.51407L10.7084 8.69157C10.8386 8.78177 10.9288 8.88699 10.9839 9.01225C11.0341 9.13752 11.0641 9.26279 11.0641 9.40309Z" stroke="#7685FA" stroke-width="0.751597" stroke-miterlimit="10"/>
</svg>
