<svg width="33" height="33" viewBox="0 0 33 33" fill="none" xmlns="http://www.w3.org/2000/svg">
<path d="M16.4038 2.72522C13.4656 2.72869 10.6489 3.89739 8.57128 5.97496C6.49371 8.05253 5.32501 10.8693 5.32154 13.8075C5.31803 16.2085 6.10232 18.5444 7.55411 20.4568C7.55411 20.4568 7.85635 20.8547 7.90572 20.9122L16.4038 30.9345L24.9059 20.9071C24.9502 20.8537 25.2534 20.4568 25.2534 20.4568L25.2544 20.4538C26.7055 18.5422 27.4895 16.2074 27.486 13.8075C27.4825 10.8693 26.3138 8.05253 24.2363 5.97496C22.1587 3.89739 19.3419 2.72869 16.4038 2.72522ZM16.4038 17.8374C15.6067 17.8374 14.8276 17.601 14.1649 17.1582C13.5022 16.7154 12.9856 16.086 12.6806 15.3496C12.3756 14.6133 12.2958 13.803 12.4513 13.0213C12.6068 12.2395 12.9906 11.5215 13.5542 10.9579C14.1178 10.3943 14.8359 10.0105 15.6176 9.85498C16.3993 9.69949 17.2096 9.77929 17.946 10.0843C18.6823 10.3893 19.3117 10.9058 19.7545 11.5686C20.1973 12.2313 20.4337 13.0104 20.4337 13.8075C20.4323 14.8758 20.0073 15.9001 19.2519 16.6556C18.4964 17.411 17.4722 17.836 16.4038 17.8374Z" fill="#F46F3B"/>
</svg>
