<svg width="19" height="19" viewBox="0 0 19 19" fill="none" xmlns="http://www.w3.org/2000/svg">
<path d="M9.62146 9.82799C10.0367 9.82799 10.3733 9.49139 10.3733 9.07616C10.3733 8.66094 10.0367 8.32433 9.62146 8.32433C9.20623 8.32433 8.86963 8.66094 8.86963 9.07616C8.86963 9.49139 9.20623 9.82799 9.62146 9.82799Z" fill="#71748C"/>
<path d="M9.62146 4.56518C10.0367 4.56518 10.3733 4.22858 10.3733 3.81335C10.3733 3.39813 10.0367 3.06152 9.62146 3.06152C9.20623 3.06152 8.86963 3.39813 8.86963 3.81335C8.86963 4.22858 9.20623 4.56518 9.62146 4.56518Z" fill="#71748C"/>
<path d="M9.62146 15.0908C10.0367 15.0908 10.3733 14.7542 10.3733 14.339C10.3733 13.9238 10.0367 13.5871 9.62146 13.5871C9.20623 13.5871 8.86963 13.9238 8.86963 14.339C8.86963 14.7542 9.20623 15.0908 9.62146 15.0908Z" fill="#71748C"/>
<path d="M9.62146 9.82799C10.0367 9.82799 10.3733 9.49139 10.3733 9.07616C10.3733 8.66094 10.0367 8.32433 9.62146 8.32433C9.20623 8.32433 8.86963 8.66094 8.86963 9.07616C8.86963 9.49139 9.20623 9.82799 9.62146 9.82799Z" stroke="#71748C" stroke-width="1.20293" stroke-linecap="round" stroke-linejoin="round"/>
<path d="M9.62146 4.56518C10.0367 4.56518 10.3733 4.22858 10.3733 3.81335C10.3733 3.39813 10.0367 3.06152 9.62146 3.06152C9.20623 3.06152 8.86963 3.39813 8.86963 3.81335C8.86963 4.22858 9.20623 4.56518 9.62146 4.56518Z" stroke="#71748C" stroke-width="1.20293" stroke-linecap="round" stroke-linejoin="round"/>
<path d="M9.62146 15.0908C10.0367 15.0908 10.3733 14.7542 10.3733 14.339C10.3733 13.9238 10.0367 13.5871 9.62146 13.5871C9.20623 13.5871 8.86963 13.9238 8.86963 14.339C8.86963 14.7542 9.20623 15.0908 9.62146 15.0908Z" stroke="#71748C" stroke-width="1.20293" stroke-linecap="round" stroke-linejoin="round"/>
</svg>
