<svg width="38" height="38" viewBox="0 0 38 38" fill="none" xmlns="http://www.w3.org/2000/svg">
<path d="M21.4672 18.7067L28.1241 12.0653C28.4156 11.7737 28.5794 11.3784 28.5794 10.9661C28.5794 10.5538 28.4156 10.1584 28.1241 9.86691C27.8326 9.57539 27.4372 9.41162 27.0249 9.41162C26.6127 9.41162 26.2173 9.57539 25.9258 9.86691L19.2843 16.5239L12.6428 9.86691C12.3513 9.57539 11.9559 9.41162 11.5437 9.41162C11.1314 9.41162 10.736 9.57539 10.4445 9.86691C10.153 10.1584 9.98921 10.5538 9.98921 10.9661C9.98921 11.3784 10.153 11.7737 10.4445 12.0653L17.1014 18.7067L10.4445 25.3482C10.2994 25.4921 10.1842 25.6633 10.1056 25.852C10.027 26.0406 9.98657 26.243 9.98657 26.4473C9.98657 26.6517 10.027 26.8541 10.1056 27.0427C10.1842 27.2314 10.2994 27.4026 10.4445 27.5465C10.5884 27.6916 10.7596 27.8068 10.9483 27.8854C11.137 27.964 11.3393 28.0044 11.5437 28.0044C11.748 28.0044 11.9504 27.964 12.139 27.8854C12.3277 27.8068 12.4989 27.6916 12.6428 27.5465L19.2843 20.8896L25.9258 27.5465C26.0697 27.6916 26.2409 27.8068 26.4296 27.8854C26.6182 27.964 26.8206 28.0044 27.0249 28.0044C27.2293 28.0044 27.4317 27.964 27.6203 27.8854C27.809 27.8068 27.9802 27.6916 28.1241 27.5465C28.2692 27.4026 28.3844 27.2314 28.463 27.0427C28.5416 26.8541 28.582 26.6517 28.582 26.4473C28.582 26.243 28.5416 26.0406 28.463 25.852C28.3844 25.6633 28.2692 25.4921 28.1241 25.3482L21.4672 18.7067Z" fill="#828282"/>
</svg>
