<svg width="110" height="40" viewBox="0 0 110 40" fill="none" xmlns="http://www.w3.org/2000/svg">
<path d="M105.718 38.8704C107.682 38.8704 109.154 36.9815 109.154 34.8036V5.1485C109.154 2.96964 107.668 1.08172 105.718 1.08172H4.52279C2.5734 1.08172 1.08709 2.96964 1.08709 5.1485V34.8036C1.08709 36.9993 2.57423 38.8704 4.52279 38.8704H105.718Z" fill="#020838" stroke="#A6A6A6" stroke-width="0.68032"/>
<path d="M39.0521 11.1669C39.0521 11.8337 38.8549 12.3704 38.4605 12.7607C38.0003 13.2324 37.4086 13.4763 36.6855 13.4763C35.9952 13.4763 35.3871 13.2324 34.9105 12.7607C34.4174 12.2728 34.1709 11.6873 34.1709 10.9717C34.1709 10.2561 34.4174 9.67064 34.9105 9.199C35.4035 8.72735 35.9952 8.4834 36.6855 8.4834C37.0306 8.4834 37.3593 8.54845 37.6716 8.67856C37.9838 8.80867 38.2468 8.98757 38.4276 9.21526L38.0003 9.63811C37.6716 9.26405 37.2443 9.06888 36.669 9.06888C36.1595 9.06888 35.7158 9.24779 35.3542 9.60558C34.9762 9.96338 34.7954 10.4188 34.7954 10.988C34.7954 11.5572 34.9762 12.0126 35.3542 12.3704C35.7322 12.7282 36.176 12.9071 36.669 12.9071C37.2114 12.9071 37.6551 12.7282 38.0167 12.3704C38.2468 12.1427 38.3947 11.8174 38.4276 11.3946H36.669V10.8254H39.0028C39.0521 10.9229 39.0521 11.0368 39.0521 11.1669Z" fill="white" stroke="white" stroke-width="0.169492" stroke-miterlimit="10"/>
<path d="M42.7648 9.16279H40.5625V10.6753H42.5512V11.2445H40.5625V12.757H42.7648V13.3425H39.938V8.56104H42.7648C42.7648 8.5773 42.7648 9.16279 42.7648 9.16279Z" fill="white" stroke="white" stroke-width="0.169492" stroke-miterlimit="10"/>
<path d="M45.3985 13.3621H44.7739V9.16606H43.4263V8.58057H46.7462V9.16606H45.3985V13.3621Z" fill="white" stroke="white" stroke-width="0.169492" stroke-miterlimit="10"/>
<path d="M49.1411 13.3621V8.58057H49.7657V13.3621H49.1411Z" fill="white" stroke="white" stroke-width="0.169492" stroke-miterlimit="10"/>
<path d="M52.5289 13.3621H51.9043V9.16606H50.5566V8.58057H53.8765V9.16606H52.5289V13.3621Z" fill="white" stroke="white" stroke-width="0.169492" stroke-miterlimit="10"/>
<path d="M60.1703 12.7451C59.6937 13.233 59.102 13.477 58.3953 13.477C57.6886 13.477 57.0969 13.233 56.6203 12.7451C56.1437 12.2572 55.9136 11.6717 55.9136 10.9724C55.9136 10.273 56.1437 9.67128 56.6203 9.19964C57.0969 8.71173 57.6886 8.46777 58.3953 8.46777C59.102 8.46777 59.6937 8.71173 60.1703 9.19964C60.6469 9.68755 60.8934 10.273 60.8934 10.9724C60.877 11.6717 60.6469 12.2572 60.1703 12.7451ZM57.0805 12.3385C57.442 12.6963 57.8694 12.8752 58.3953 12.8752C58.9048 12.8752 59.3485 12.6963 59.7101 12.3385C60.0717 11.9807 60.2525 11.5253 60.2525 10.9561C60.2525 10.3869 60.0717 9.9315 59.7101 9.5737C59.3485 9.2159 58.9212 9.037 58.3953 9.037C57.8694 9.037 57.442 9.2159 57.0805 9.5737C56.7189 9.9315 56.5381 10.3869 56.5381 10.9561C56.5381 11.5253 56.7189 11.9807 57.0805 12.3385Z" fill="white" stroke="white" stroke-width="0.169492" stroke-miterlimit="10"/>
<path d="M61.75 13.3621V8.58057H62.506L64.8562 12.3049H64.8891L64.8562 11.3779V8.58057H65.4808V13.3621H64.8398L62.3745 9.4588H62.3417L62.3745 10.3858V13.3621H61.75Z" fill="white" stroke="white" stroke-width="0.169492" stroke-miterlimit="10"/>
<path d="M55.748 20.3393C53.858 20.3393 52.3131 21.7704 52.3131 23.7383C52.3131 25.69 53.858 27.1374 55.748 27.1374C57.6381 27.1374 59.1994 25.69 59.1994 23.7383C59.1994 21.7704 57.6545 20.3393 55.748 20.3393ZM55.748 25.7875C54.7126 25.7875 53.8087 24.9418 53.8087 23.7383C53.8087 22.5186 54.6962 21.6891 55.748 21.6891C56.7999 21.6891 57.6874 22.5186 57.6874 23.7383C57.6874 24.9418 56.7835 25.7875 55.748 25.7875ZM48.2536 20.3393C46.3636 20.3393 44.8187 21.7704 44.8187 23.7383C44.8187 25.69 46.3636 27.1374 48.2536 27.1374C50.1437 27.1374 51.6886 25.69 51.6886 23.7383C51.6886 21.7704 50.1437 20.3393 48.2536 20.3393ZM48.2536 25.7875C47.2182 25.7875 46.3143 24.9418 46.3143 23.7383C46.3143 22.5186 47.2182 21.6891 48.2536 21.6891C49.289 21.6891 50.193 22.5186 50.193 23.7383C50.1765 24.9418 49.289 25.7875 48.2536 25.7875ZM39.3129 21.3801V22.8276H42.7972C42.6986 23.6408 42.4192 24.2262 42.0083 24.6328C41.4988 25.137 40.7099 25.69 39.3129 25.69C37.1764 25.69 35.5 23.9823 35.5 21.868C35.5 19.7538 37.1764 18.0461 39.3129 18.0461C40.4634 18.0461 41.318 18.5015 41.9425 19.0707L42.9615 18.0624C42.0905 17.2329 40.94 16.6149 39.3129 16.6149C36.371 16.6149 33.9058 18.9731 33.9058 21.8843C33.9058 24.7955 36.371 27.1537 39.3129 27.1537C40.9071 27.1537 42.0905 26.6333 43.0273 25.6737C43.9805 24.7304 44.2928 23.3805 44.2928 22.3071C44.2928 21.9656 44.2599 21.6566 44.2106 21.4126C44.2106 21.3801 39.3129 21.3801 39.3129 21.3801ZM75.8318 22.5023C75.5524 21.7379 74.6813 20.3393 72.8899 20.3393C71.1313 20.3393 69.6522 21.7217 69.6522 23.7383C69.6522 25.6412 71.0985 27.1374 73.0542 27.1374C74.632 27.1374 75.5359 26.1941 75.914 25.6412L74.7471 24.8768C74.3526 25.446 73.8267 25.8201 73.0542 25.8201C72.2982 25.8201 71.7394 25.4785 71.3943 24.7955L75.9797 22.9252C75.9961 22.8764 75.8318 22.5023 75.8318 22.5023ZM71.1642 23.6245C71.1313 22.3234 72.1832 21.6403 72.9556 21.6403C73.5473 21.6403 74.0568 21.9331 74.2376 22.3559C74.2211 22.3722 71.1642 23.6245 71.1642 23.6245ZM67.4334 26.926H68.9455V16.9564H67.4334V26.926ZM64.9682 21.0874H64.9188C64.5737 20.6971 63.9327 20.3393 63.111 20.3393C61.4017 20.3393 59.824 21.8355 59.824 23.7383C59.824 25.6412 61.4017 27.1212 63.111 27.1212C63.9327 27.1212 64.5737 26.7634 64.9188 26.3568H64.9682V26.8447C64.9682 28.1458 64.2614 28.8451 63.1439 28.8451C62.2235 28.8451 61.6483 28.1946 61.4182 27.6416L60.1034 28.1783C60.4814 29.0728 61.4839 30.1787 63.1439 30.1787C64.9189 30.1787 66.398 29.1541 66.398 26.6495V20.5507H64.9682V21.0874ZM63.2425 25.7875C62.2071 25.7875 61.336 24.9256 61.336 23.7383C61.336 22.5348 62.2071 21.6729 63.2425 21.6729C64.2614 21.6729 65.0668 22.5511 65.0668 23.7383C65.0668 24.9256 64.2614 25.7875 63.2425 25.7875ZM82.8989 16.9402H79.2996V26.9097H80.7952V23.1366H82.8989C84.5753 23.1366 86.2023 21.9331 86.2023 20.0465C86.2023 18.1437 84.5588 16.9402 82.8989 16.9402ZM82.9318 21.7542H80.7952V18.3388H82.9318C84.0493 18.3388 84.6903 19.2659 84.6903 20.0465C84.6903 20.8109 84.0493 21.7542 82.9318 21.7542ZM92.234 20.323C91.1493 20.323 90.0153 20.7946 89.5551 21.8518L90.8864 22.4047C91.1658 21.8518 91.7081 21.6729 92.2669 21.6729C93.0394 21.6729 93.8447 22.1445 93.8447 22.9577V23.0553C93.5653 22.8926 92.9901 22.6649 92.2669 22.6649C90.837 22.6649 89.3579 23.4456 89.3579 24.9093C89.3579 26.2429 90.5412 27.1049 91.856 27.1049C92.875 27.1049 93.4338 26.6495 93.7789 26.1291H93.8282V26.8935H95.2745V23.0715C95.291 21.3151 93.9597 20.323 92.234 20.323ZM92.0532 25.7875C91.5602 25.7875 90.8699 25.5436 90.8699 24.9418C90.8699 24.1775 91.7245 23.8684 92.4641 23.8684C93.1215 23.8684 93.4338 24.0148 93.8447 24.21C93.7132 25.137 92.9243 25.7875 92.0532 25.7875ZM100.583 20.5344L98.8574 24.8605H98.8081L97.0167 20.5344H95.3896L98.0685 26.5682L96.54 29.9348H98.1178L102.259 20.5344H100.583ZM87.0241 26.926H88.5361V16.9564H87.0241V26.926Z" fill="white"/>
<path d="M9.24178 9.0042C9.01169 9.24815 8.86377 9.63848 8.86377 10.1264V27.7724C8.86377 28.2603 8.99525 28.6506 9.24178 28.8946L9.30752 28.9434L19.3001 19.0551V18.8274L9.30752 8.93914L9.24178 9.0042Z" fill="url(#paint0_linear_10_16041)"/>
<path d="M22.6168 22.3569L19.2969 19.0554V18.8277L22.6332 15.5262L22.7154 15.575L26.6598 17.8031C27.7774 18.4374 27.7774 19.4783 26.6598 20.1126L22.7154 22.3244C22.6989 22.3081 22.6168 22.3569 22.6168 22.3569Z" fill="url(#paint1_linear_10_16041)"/>
<path d="M22.6983 22.3065L19.2963 18.94L9.25439 28.877C9.6324 29.2674 10.2405 29.3161 10.9308 28.9258L22.6983 22.3065Z" fill="url(#paint2_linear_10_16041)"/>
<path d="M22.7001 15.5729L10.9161 8.95361C10.2259 8.56328 9.61775 8.61207 9.23975 9.0024L19.2816 18.9395L22.7001 15.5729Z" fill="url(#paint3_linear_10_16041)"/>
<defs>
<linearGradient id="paint0_linear_10_16041" x1="18.4041" y1="27.9491" x2="1.82962" y2="11.002" gradientUnits="userSpaceOnUse">
<stop stop-color="#00A0FF"/>
<stop offset="0.0066" stop-color="#00A1FF"/>
<stop offset="0.2601" stop-color="#00BEFF"/>
<stop offset="0.5122" stop-color="#00D2FF"/>
<stop offset="0.7604" stop-color="#00DFFF"/>
<stop offset="1" stop-color="#00E3FF"/>
</linearGradient>
<linearGradient id="paint1_linear_10_16041" x1="28.1031" y1="18.9427" x2="3.6627" y2="18.9427" gradientUnits="userSpaceOnUse">
<stop stop-color="#FFE000"/>
<stop offset="0.4087" stop-color="#FFBD00"/>
<stop offset="0.7754" stop-color="#FFA500"/>
<stop offset="1" stop-color="#FF9C00"/>
</linearGradient>
<linearGradient id="paint2_linear_10_16041" x1="14.1147" y1="23.7657" x2="-8.3616" y2="0.784133" gradientUnits="userSpaceOnUse">
<stop stop-color="#FF3A44"/>
<stop offset="1" stop-color="#C31162"/>
</linearGradient>
<linearGradient id="paint3_linear_10_16041" x1="-0.0127925" y1="28.099" x2="10.0239" y2="17.8368" gradientUnits="userSpaceOnUse">
<stop stop-color="#32A071"/>
<stop offset="0.0685" stop-color="#2DA771"/>
<stop offset="0.4762" stop-color="#15CF74"/>
<stop offset="0.8009" stop-color="#06E775"/>
<stop offset="1" stop-color="#00F076"/>
</linearGradient>
</defs>
</svg>
