<svg width="31" height="31" viewBox="0 0 31 31" fill="none" xmlns="http://www.w3.org/2000/svg">
<circle cx="15.6098" cy="15.173" r="15.0319" fill="#F6F7FF"/>
<path d="M10.6822 10.5548H8.40806C8.28094 10.5548 8.16625 10.4782 8.11758 10.3607C8.06891 10.2431 8.09578 10.108 8.18575 10.018L10.4599 7.74408C10.5498 7.65395 10.6849 7.62709 10.8025 7.67591C10.92 7.72458 10.9966 7.83927 10.9966 7.96639V10.2403C10.9966 10.414 10.8558 10.5548 10.6822 10.5548ZM9.16727 9.92591H10.3677V8.72545L9.16727 9.92591Z" fill="#5466F9"/>
<path d="M21.6725 12.5053C21.5921 12.5053 21.5116 12.4746 21.4502 12.4131L19.6789 10.642C19.62 10.5831 19.5868 10.5031 19.5868 10.4197C19.5868 10.3363 19.62 10.2563 19.6789 10.1974L20.7859 9.09043C21.0232 8.85307 21.4365 8.85353 21.6734 9.09058L23.0018 10.4188C23.2465 10.6634 23.2465 11.0616 23.0018 11.3062L21.8948 12.4131C21.8334 12.4746 21.753 12.5053 21.6725 12.5053ZM20.3457 10.4195L21.6725 11.7462L22.5572 10.8616L21.2287 9.53505L20.3457 10.4195Z" fill="#5466F9"/>
<path d="M14.3866 19.7905C14.3062 19.7905 14.2257 19.7598 14.1643 19.6984L12.393 17.9273C12.3341 17.8683 12.3009 17.7883 12.3009 17.705C12.3009 17.6216 12.3341 17.5416 12.393 17.4827L19.6805 10.1951C19.8034 10.0723 20.0023 10.0723 20.1252 10.1951L21.8964 11.9663C21.9554 12.0252 21.9886 12.1052 21.9886 12.1886C21.9886 12.272 21.9554 12.352 21.8964 12.4109L14.6089 19.6984C14.5475 19.7598 14.4671 19.7905 14.3866 19.7905ZM13.06 17.705L14.3866 19.0315L21.2295 12.1886L19.9028 10.8621L13.06 17.705Z" fill="#5466F9"/>
<path d="M11.4877 20.9194C11.4058 20.9194 11.3254 20.8873 11.2654 20.8272C11.1775 20.7394 11.1496 20.608 11.1941 20.4921L12.3011 17.6138C12.3169 17.5727 12.3411 17.5354 12.3723 17.5044C12.4948 17.3817 12.7132 17.3627 12.8357 17.4856L14.607 19.2568C14.6659 19.3157 14.6991 19.3957 14.6991 19.4791C14.6991 19.5625 14.6659 19.6424 14.607 19.7014C14.5759 19.7326 14.5199 19.7756 14.4788 19.7912L11.6005 20.8983C11.5638 20.9125 11.5256 20.9194 11.4877 20.9194ZM12.7248 18.264L12.0352 20.0574L13.8286 19.3676L12.7248 18.264Z" fill="#5466F9"/>
<path d="M18.1145 22.6838H8.72111C8.37505 22.6838 8.09363 22.4022 8.09363 22.0562V10.2404C8.09363 10.157 8.12679 10.077 8.18575 10.0181L10.4599 7.74397C10.5188 7.68502 10.5988 7.65186 10.6822 7.65186H18.1145C18.4605 7.65186 18.7419 7.93343 18.7419 8.27949V11.8947C18.7419 11.9781 18.7088 12.058 18.6498 12.117L12.8652 17.9016L12.0363 20.0572L14.1919 19.2281L18.2052 15.2148C18.2952 15.1248 18.43 15.0978 18.5479 15.1466C18.6653 15.1953 18.7419 15.31 18.7419 15.4371V22.0562C18.7419 22.4022 18.4605 22.6838 18.1145 22.6838ZM8.72249 10.3706V22.0562L18.1145 22.0549L18.1132 16.196L14.5894 19.7199C14.5584 19.751 14.5211 19.7753 14.4799 19.791L11.6017 20.8981C11.4857 20.9427 11.3543 20.915 11.2665 20.827C11.1787 20.7392 11.1507 20.6077 11.1953 20.4918L12.3022 17.6136C12.318 17.5724 12.3423 17.5351 12.3735 17.5041L18.1131 11.7645V8.27949L10.8124 8.28072L8.72249 10.3706ZM14.3671 19.4976H14.3701H14.3671Z" fill="#5466F9"/>
<path d="M13.5006 18.9115C13.4201 18.9115 13.3397 18.8808 13.2783 18.8194C13.1555 18.6965 13.1555 18.4976 13.2783 18.3747L20.5656 11.0872C20.6885 10.9644 20.8874 10.9644 21.0103 11.0872C21.1331 11.2101 21.1331 11.409 21.0103 11.5319L13.7229 18.8194C13.6615 18.8808 13.581 18.9115 13.5006 18.9115Z" fill="#5466F9"/>
<path d="M13.442 14.0131H9.73838C9.56474 14.0131 9.42395 13.8724 9.42395 13.6987C9.42395 13.5251 9.56474 13.3843 9.73838 13.3843H13.442C13.6157 13.3843 13.7564 13.5251 13.7564 13.6987C13.7564 13.8724 13.6157 14.0131 13.442 14.0131Z" fill="#5466F9"/>
<path d="M12.1843 15.5878H9.73838C9.56474 15.5878 9.42395 15.4471 9.42395 15.2734C9.42395 15.0998 9.56474 14.959 9.73838 14.959H12.1843C12.3579 14.959 12.4987 15.0998 12.4987 15.2734C12.4987 15.4471 12.3579 15.5878 12.1843 15.5878Z" fill="#5466F9"/>
<path d="M16.8563 20.9248H11.5128C11.3392 20.9248 11.1984 20.784 11.1984 20.6103C11.1984 20.4367 11.3392 20.2959 11.5128 20.2959H16.8563C17.0299 20.2959 17.1707 20.4367 17.1707 20.6103C17.1707 20.784 17.0299 20.9248 16.8563 20.9248Z" fill="#5466F9"/>
<path d="M13.4421 12.4423H9.7385C9.56486 12.4423 9.42407 12.3016 9.42407 12.1279C9.42407 11.9543 9.56486 11.8135 9.7385 11.8135H13.4421C13.6158 11.8135 13.7566 11.9543 13.7566 12.1279C13.7566 12.3016 13.6158 12.4423 13.4421 12.4423Z" fill="#5466F9"/>
<path d="M16.2957 10.5576H12.592C12.4184 10.5576 12.2776 10.4168 12.2776 10.2431C12.2776 10.0695 12.4184 9.92871 12.592 9.92871H16.2957C16.4693 9.92871 16.6101 10.0695 16.6101 10.2431C16.6101 10.4168 16.4693 10.5576 16.2957 10.5576Z" fill="#5466F9"/>
</svg>
