<svg width="11" height="10" viewBox="0 0 11 10" fill="none" xmlns="http://www.w3.org/2000/svg">
<g clip-path="url(#clip0_9_10048)">
<path d="M5.662 0.418457C4.73454 0.418457 3.8279 0.693482 3.05674 1.20875C2.28558 1.72402 1.68454 2.4564 1.32961 3.31326C0.974688 4.17013 0.881823 5.113 1.06276 6.02264C1.2437 6.93228 1.69032 7.76785 2.34613 8.42366C3.00195 9.07948 3.83751 9.52609 4.74715 9.70703C5.6568 9.88797 6.59967 9.79511 7.45653 9.44018C8.3134 9.08526 9.04577 8.48421 9.56104 7.71306C10.0763 6.9419 10.3513 6.03526 10.3513 5.1078C10.3513 3.86411 9.85729 2.67136 8.97786 1.79193C8.09844 0.912511 6.90569 0.418457 5.662 0.418457V0.418457ZM1.91053 5.1078C1.91237 4.27515 2.19118 3.46677 2.70303 2.81002L7.95978 8.06677C7.40553 8.49623 6.74203 8.76177 6.04453 8.83327C5.34703 8.90476 4.64345 8.77935 4.01361 8.47127C3.38376 8.16318 2.85287 7.68475 2.48114 7.09024C2.10941 6.49574 1.91173 5.80895 1.91053 5.1078ZM8.62097 7.40557L3.36422 2.14882C4.08646 1.5999 4.98314 1.33127 5.88822 1.39268C6.7933 1.4541 7.64548 1.8414 8.28694 2.48286C8.9284 3.12432 9.3157 3.97649 9.37711 4.88157C9.43853 5.78666 9.1699 6.68334 8.62097 7.40557Z" fill="#F46F3B"/>
</g>
<defs>
<clipPath id="clip0_9_10048">
<rect width="9.37868" height="9.37868" fill="white" transform="translate(0.972656 0.418457)"/>
</clipPath>
</defs>
</svg>
