<svg width="12" height="11" viewBox="0 0 12 11" fill="none" xmlns="http://www.w3.org/2000/svg">
<circle cx="6.14648" cy="5.6416" r="5.35938" fill="#F2F6FB"/>
<path d="M6.93179 3.97394C7.39571 3.97394 7.77179 3.59786 7.77179 3.13394C7.77179 2.67002 7.39571 2.29395 6.93179 2.29395C6.46788 2.29395 6.0918 2.67002 6.0918 3.13394C6.0918 3.59786 6.46788 3.97394 6.93179 3.97394Z" fill="#139AB7"/>
<path d="M7.79012 7.38269C7.76692 7.36708 7.74083 7.35626 7.71339 7.35087C7.68594 7.34548 7.6577 7.34562 7.63031 7.3513C7.60293 7.35697 7.57695 7.36805 7.55391 7.3839C7.53086 7.39975 7.51122 7.42004 7.49612 7.44359C7.29312 7.74423 7.04442 8.01134 6.75903 8.23528C6.68973 8.28778 6.43143 8.48728 6.32223 8.44528C6.24663 8.42218 6.29073 8.27308 6.30543 8.21008L6.41673 7.88038C6.46293 7.74599 7.26722 5.36039 7.35542 5.08739C7.48562 4.6884 7.42892 4.2957 6.83463 4.3902C6.67293 4.407 5.03283 4.6191 5.00343 4.6212C4.97586 4.62299 4.9489 4.6302 4.92411 4.64241C4.89932 4.65462 4.87717 4.67159 4.85894 4.69236C4.84071 4.71312 4.82674 4.73728 4.81785 4.76344C4.80895 4.78961 4.80529 4.81727 4.80708 4.84485C4.80888 4.87242 4.81608 4.89938 4.82829 4.92417C4.8405 4.94896 4.85748 4.97111 4.87824 4.98934C4.89901 5.00757 4.92317 5.02154 4.94933 5.03043C4.97549 5.03933 5.00316 5.04299 5.03073 5.0412C5.03073 5.0412 5.66073 4.9593 5.73003 4.953C5.76553 4.94953 5.80127 4.95641 5.83294 4.97281C5.86461 4.9892 5.89087 5.01441 5.90853 5.0454C5.94658 5.16302 5.94137 5.29037 5.89383 5.40449C5.83923 5.61449 4.97613 8.04628 4.94883 8.18698C4.91955 8.30472 4.92768 8.42866 4.97209 8.54157C5.0165 8.65447 5.09499 8.75074 5.19663 8.81698C5.38742 8.94414 5.61458 9.00536 5.84343 8.99128C6.06594 8.98856 6.28599 8.94441 6.49233 8.86108C7.01523 8.65108 7.56122 8.09248 7.84892 7.65359C7.8737 7.60899 7.88139 7.55691 7.87057 7.50706C7.85975 7.4572 7.83115 7.413 7.79012 7.38269Z" fill="#139AB7"/>
</svg>
