<svg width="27" height="7" viewBox="0 0 27 7" fill="none" xmlns="http://www.w3.org/2000/svg">
<path d="M4.01064 4.02058C4.00862 4.02289 4.00659 4.02521 4.00486 4.02723C4.00254 4.02578 4.00052 4.02434 3.99821 4.02289C3.95049 3.99252 3.90161 3.961 3.85476 3.93092C3.76048 3.8699 3.66272 3.80685 3.5641 3.74756C3.55716 3.74352 3.55051 3.73918 3.54357 3.73513C3.51002 3.71488 3.47647 3.69435 3.44292 3.6741C3.40938 3.65386 3.37583 3.63362 3.34228 3.61308C3.28155 3.57635 3.2211 3.53962 3.16037 3.50289C2.57443 3.14861 1.96911 2.78189 1.36929 2.42732C1.12202 2.28127 0.856523 2.27838 0.622263 2.4198C0.547358 2.46492 0.482575 2.51756 0.427625 2.57713C0.427336 2.51553 0.427047 2.45422 0.426758 2.39377C0.427915 2.29197 0.42965 2.19017 0.432253 2.08895C0.437459 1.88245 0.543309 1.70661 0.730139 1.59382C0.942129 1.46599 1.13677 1.52788 1.26257 1.60221C1.86124 1.95591 2.46597 2.32205 3.05105 2.67633C3.18582 2.75789 3.32059 2.83945 3.45536 2.921C3.55109 2.97885 3.64768 3.04102 3.74081 3.10118C3.78824 3.13184 3.83712 3.16336 3.8857 3.19402C3.90566 3.20645 3.92446 3.22033 3.9421 3.23537C3.969 3.25793 3.99358 3.2828 4.01556 3.30999C4.03783 3.33718 4.05721 3.36667 4.07398 3.39762C4.10377 3.45344 4.1243 3.51475 4.13414 3.57953C4.15843 3.73947 4.11331 3.90027 4.01064 4.02058Z" fill="#5466F9"/>
<path d="M0.432418 4.91641C0.432418 4.9141 0.432418 4.91149 0.432418 4.90918V4.91641C0.432418 4.97917 0.432418 5.04193 0.432418 5.10469V5.27763C0.432129 5.26982 0.432129 5.26173 0.432129 5.25392C0.432418 5.1417 0.432418 5.02891 0.432418 4.91641Z" fill="#5466F9"/>
<path d="M0.432356 4.42305C0.432356 4.53035 0.432356 4.63823 0.432356 4.74639C0.432356 4.79151 0.432356 4.83691 0.432356 4.88203V4.57315H0.428307C0.428018 4.45342 0.42744 4.33311 0.426861 4.21598C0.425415 3.93284 0.423969 3.64248 0.42744 3.35356C0.428597 3.27171 0.430043 3.19015 0.432067 3.10889C0.432067 3.154 0.432067 3.19912 0.432067 3.24424C0.432067 3.46982 0.432067 3.69974 0.432067 3.93024V4.09856C0.432356 4.20586 0.432356 4.31431 0.432356 4.42305Z" fill="#5466F9"/>
<path d="M0.428583 2.57789C0.428005 2.57876 0.427137 2.57963 0.42627 2.5802C0.426559 2.51831 0.427137 2.45642 0.427716 2.39453C0.428005 2.45527 0.428294 2.51658 0.428583 2.57789Z" fill="#5466F9"/>
<path d="M0.432457 4.09872V3.9304C0.432457 3.8445 0.432457 3.7589 0.432457 3.673V3.5686H0.428408C0.428119 3.49687 0.428119 3.42515 0.42754 3.354C0.42407 3.64292 0.425227 3.93329 0.426962 4.21643C0.42754 4.33356 0.428119 4.45387 0.428408 4.5736H0.432168V4.88248C0.432168 4.83736 0.432168 4.79195 0.432168 4.74684C0.432168 4.63867 0.432168 4.5308 0.432168 4.4235C0.432457 4.31447 0.432457 4.20602 0.432457 4.09872Z" fill="#5466F9"/>
<path d="M0.432356 4.09563C0.432356 4.20293 0.432356 4.31109 0.432356 4.42013C0.432356 4.52742 0.432356 4.6353 0.432356 4.74346C0.432356 4.74346 0.432356 4.74346 0.432356 4.74317V4.57023H0.428307C0.428018 4.45049 0.42744 4.33018 0.426861 4.21305C0.425415 3.92992 0.423969 3.63955 0.42744 3.35063C0.428597 3.26878 0.430043 3.18722 0.432067 3.10596C0.432067 3.15107 0.432067 3.19619 0.432067 3.24131C0.432067 3.46689 0.432067 3.69681 0.432067 3.92731V4.09563H0.432356Z" fill="#5466F9"/>
<path d="M0.428583 2.57496C0.428005 2.57583 0.427137 2.5767 0.42627 2.57727C0.426559 2.51538 0.427137 2.45349 0.427716 2.3916C0.428005 2.45234 0.428294 2.51365 0.428583 2.57496Z" fill="#5466F9"/>
<path d="M4.07456 3.07198C4.05055 3.05203 4.0251 3.03352 3.99821 3.01646C3.95049 2.98609 3.90161 2.95456 3.85476 2.9242C3.76048 2.86317 3.66272 2.80013 3.5641 2.74084C3.42933 2.65928 3.29456 2.57772 3.16008 2.49617C2.57472 2.14189 1.96911 1.77546 1.36958 1.42118C1.12231 1.27484 0.856812 1.27223 0.622553 1.41366C0.547358 1.45906 0.481708 1.51228 0.426758 1.57214C0.427915 1.45906 0.42965 1.34598 0.432542 1.23348C0.437748 1.02698 0.543598 0.851144 0.730428 0.738352C0.942418 0.610521 1.13706 0.672412 1.26286 0.746739C1.86124 1.10044 2.46597 1.46658 3.05104 1.82086C3.18582 1.90242 3.32059 1.98398 3.45565 2.06553C3.55138 2.12338 3.64797 2.18556 3.7411 2.24571C3.78853 2.27637 3.83741 2.30789 3.88599 2.33855C4.0199 2.42358 4.11042 2.56384 4.13442 2.72406C4.15293 2.84582 4.13124 2.96758 4.07456 3.07198Z" fill="#5466F9"/>
<path d="M0.431878 4.39787C0.432168 4.25934 0.432168 4.12023 0.432168 3.98112V3.92964C0.432168 3.69914 0.432168 3.46922 0.432168 3.24363C0.432168 3.19852 0.432168 3.1534 0.432168 3.10828C0.430143 3.18955 0.428697 3.27111 0.42754 3.35295C0.42407 3.64187 0.425227 3.93224 0.426962 4.21538C0.42754 4.33251 0.428119 4.45282 0.428408 4.57255H0.432168V4.88143C0.432168 4.83631 0.432168 4.7909 0.432168 4.74579C0.432168 4.63762 0.432168 4.52975 0.432168 4.42245C0.432168 4.41435 0.431878 4.40625 0.431878 4.39787ZM0.432168 4.91468V4.90745C0.432168 4.90977 0.432168 4.91208 0.432168 4.91468ZM0.427251 2.39307C0.426673 2.45496 0.426094 2.51685 0.425805 2.57874C0.426673 2.57787 0.427251 2.57729 0.428119 2.57643C0.427829 2.51482 0.42754 2.45351 0.427251 2.39307Z" fill="#5466F9"/>
<path d="M0.432168 4.09563V3.92731C0.432168 3.69681 0.432168 3.46689 0.432168 3.24131C0.432168 3.19619 0.432168 3.15107 0.432168 3.10596C0.430143 3.18722 0.428697 3.26878 0.42754 3.35063C0.42407 3.63955 0.425227 3.92991 0.426962 4.21305C0.42754 4.33018 0.428119 4.45049 0.428408 4.57022H0.432168V4.8791C0.432168 4.83398 0.432168 4.78858 0.432168 4.74346C0.432168 4.6353 0.432168 4.52742 0.432168 4.42013C0.432168 4.31138 0.432168 4.20293 0.432168 4.09563ZM0.431878 4.91236C0.431878 5.02515 0.431589 5.13765 0.431589 5.24987C0.431589 5.25768 0.431878 5.26577 0.431878 5.27358V5.10064C0.432168 5.03788 0.431878 4.97512 0.431878 4.91236V4.90513C0.431878 4.90744 0.431878 4.90976 0.431878 4.91236Z" fill="#5466F9"/>
<path d="M0.43193 4.91348C0.43193 5.02627 0.431641 5.13877 0.431641 5.25099C0.431641 5.2588 0.43193 5.26689 0.43193 5.2747V5.10176C0.432219 5.039 0.43193 4.97624 0.43193 4.91348V4.90625C0.43193 4.90856 0.43193 4.91088 0.43193 4.91348Z" fill="#5466F9"/>
<path d="M4.01061 5.02224C3.9681 5.07228 3.92067 5.11392 3.87381 5.14255C2.87604 5.75539 2.05729 6.25601 1.29667 6.71817C1.02741 6.88186 0.694823 6.80927 0.522455 6.54956C0.461142 6.45701 0.431354 6.3607 0.431643 6.25456C0.431932 6.09261 0.431932 5.9292 0.431932 5.76638C0.431932 5.70998 0.431932 5.65388 0.431932 5.59777C0.431932 5.48932 0.431932 5.38086 0.431932 5.27356V5.10062C0.431932 5.03786 0.431932 4.9751 0.431932 4.91234V4.90135C0.431932 4.89412 0.431932 4.8866 0.431932 4.87937C0.431932 4.83426 0.431932 4.78885 0.431932 4.74373C0.431932 4.63557 0.431932 4.52769 0.431932 4.4204C0.431932 4.31136 0.431932 4.2032 0.431932 4.0959V3.92758C0.431932 3.69708 0.431932 3.46716 0.431932 3.24158C0.431932 3.19646 0.431932 3.15135 0.431932 3.10623C0.431932 3.10102 0.432221 3.09582 0.432221 3.0909C0.437427 2.88441 0.543278 2.70857 0.730107 2.59577C0.942098 2.46794 1.13674 2.52983 1.26254 2.60416C1.86121 2.95815 2.46623 3.32429 3.05159 3.67857C3.08138 3.69651 3.11117 3.71473 3.14125 3.73266C3.1748 3.7529 3.20834 3.77344 3.24189 3.79368C3.27544 3.81392 3.30899 3.83446 3.34254 3.8547C3.38013 3.87755 3.41773 3.90011 3.45533 3.92296C3.55106 3.9808 3.64765 4.04327 3.74078 4.10313C3.77086 4.1228 3.8018 4.14247 3.83275 4.16242C3.85039 4.1737 3.86774 4.18498 3.88538 4.19597C3.90013 4.20551 3.91459 4.21535 3.92819 4.22634C3.95653 4.24832 3.98256 4.27348 4.00598 4.30037C4.07308 4.37846 4.11791 4.47564 4.13381 4.5812C4.1584 4.74113 4.11328 4.90164 4.01061 5.02224Z" fill="#5466F9"/>
<path d="M12.2009 5.38172C12.3585 5.45894 12.5112 5.53385 12.6726 5.61309C12.5731 5.8433 12.4317 6.02782 12.2446 6.1756C11.9132 6.43763 11.5352 6.5617 11.1109 6.56546C10.6976 6.56922 10.3228 6.46308 9.98703 6.22361C9.61684 5.95927 9.37361 5.60673 9.23855 5.17176C9.1729 4.96063 9.14629 4.74431 9.14803 4.53029C9.15179 4.0476 9.29668 3.60511 9.60267 3.22277C9.88696 2.86733 10.2424 2.62093 10.6973 2.5466C11.3732 2.43583 11.9554 2.61312 12.4025 3.14845C12.5668 3.3454 12.6648 3.58168 12.731 3.82838C12.7993 4.08288 12.8285 4.34317 12.8175 4.60722C12.8161 4.64221 12.8086 4.67692 12.8025 4.72261C12.7527 4.72753 12.7091 4.73534 12.6654 4.73534C12.1211 4.73621 11.5771 4.73679 11.0328 4.73476C10.97 4.73447 10.9058 4.72522 10.8451 4.71018C10.6363 4.6587 10.5197 4.45914 10.5709 4.2246C10.8419 4.2165 11.1173 4.22228 11.3926 4.22113C11.6682 4.21997 11.9438 4.22084 12.2272 4.22084C12.2356 4.11643 12.2087 4.03054 12.185 3.94609C12.1049 3.6589 11.9565 3.41712 11.7107 3.23868C11.5866 3.14874 11.4487 3.09436 11.3018 3.06429C10.9371 2.98938 10.5955 3.05012 10.3005 3.28148C9.94683 3.55884 9.75074 3.92555 9.74033 4.37932C9.73512 4.60491 9.73194 4.83049 9.7921 5.05318C9.93526 5.58417 10.4385 6.04315 11.058 6.04054C11.3232 6.03939 11.5699 5.9908 11.7943 5.84446C11.9025 5.77389 11.993 5.688 12.0664 5.58272C12.1092 5.51939 12.1512 5.45576 12.2009 5.38172Z" fill="#41415A"/>
<path d="M22.6691 4.61416C22.6515 4.26769 22.7221 3.93828 22.8849 3.63258C23.1588 3.11837 23.5755 2.77219 24.1461 2.63915C24.9279 2.45666 25.6009 2.66431 26.1324 3.26731C26.3947 3.56462 26.5451 3.92208 26.5952 4.32061C26.6675 4.8973 26.5307 5.41874 26.1804 5.87772C25.884 6.26613 25.4918 6.50704 25.0028 6.59409C24.5432 6.67565 24.1091 6.61838 23.7016 6.3954C23.1527 6.09491 22.8172 5.63305 22.6946 5.01877C22.6848 4.97018 22.6726 4.9213 22.6703 4.87185C22.6663 4.78624 22.6691 4.70006 22.6691 4.61416ZM26.0173 4.61821C26.0196 4.32553 25.9499 4.05049 25.801 3.80148C25.5132 3.32024 25.0988 3.06458 24.5212 3.1042C24.077 3.13485 23.7334 3.33904 23.5003 3.70836C23.1793 4.2165 23.1582 4.75703 23.404 5.30075C23.5715 5.67151 23.8474 5.93643 24.2474 6.05269C24.4174 6.10214 24.5912 6.11313 24.7694 6.09896C24.9831 6.08219 25.1789 6.02001 25.3524 5.8997C25.7993 5.59024 26.0046 5.15325 26.0173 4.61821Z" fill="#41415A"/>
<path d="M13.8809 6.55109C13.8809 5.25341 13.8809 3.96064 13.8809 2.66903C13.9803 2.63751 14.2632 2.63288 14.4136 2.66122C14.4431 2.7636 14.4243 2.87206 14.4275 2.97878C14.4306 3.08549 14.428 3.19221 14.428 3.32814C14.4789 3.2622 14.5128 3.22142 14.5429 3.17833C14.7575 2.8709 15.0481 2.66643 15.416 2.60454C15.8212 2.53628 16.2194 2.56665 16.5769 2.80756C16.8331 2.97993 16.9881 3.22605 17.087 3.50861C17.1544 3.70122 17.179 3.9028 17.1778 4.1093C17.1735 4.87454 17.1761 5.63979 17.1761 6.40504C17.1761 6.44958 17.1761 6.49412 17.1761 6.53895C17.0711 6.58638 16.9873 6.54878 16.91 6.50482C16.6856 6.37728 16.6032 6.16934 16.6015 5.92351C16.5988 5.56575 16.6009 5.208 16.6006 4.85025C16.6003 4.61917 16.6009 4.38838 16.5989 4.1573C16.5971 3.96903 16.5549 3.79088 16.4661 3.62313C16.3096 3.32727 16.0658 3.17081 15.7338 3.13148C15.573 3.11239 15.4166 3.11441 15.2644 3.16011C14.828 3.29199 14.5819 3.60173 14.4804 4.03381C14.457 4.13388 14.4515 4.23973 14.4509 4.34327C14.448 4.87773 14.448 5.4119 14.4503 5.94635C14.4512 6.16095 14.3714 6.3339 14.203 6.46491C14.1119 6.53576 14.0098 6.57799 13.8809 6.55109Z" fill="#41415A"/>
<path d="M21.4319 5.16939C21.604 5.22839 21.766 5.28363 21.9418 5.34407C21.9314 5.39642 21.9303 5.44125 21.9135 5.47942C21.6627 6.0509 21.2362 6.4289 20.63 6.57466C20.121 6.69728 19.6212 6.63944 19.1611 6.3725C18.6283 6.06334 18.3362 5.58701 18.2307 4.99037C18.1616 4.59936 18.1899 4.2124 18.3371 3.84336C18.5838 3.22532 19.024 2.80886 19.6753 2.63881C20.2089 2.49941 20.7173 2.57721 21.1905 2.85976C21.5604 3.08072 21.8429 3.45351 21.9253 3.83006C21.8912 3.84192 21.8559 3.86187 21.8189 3.86592C21.6052 3.88877 21.4149 3.83816 21.2613 3.6788C21.1612 3.57498 21.0684 3.46132 20.9559 3.37282C20.3497 2.89505 19.3788 3.05122 18.9786 3.81213C18.8623 4.03309 18.7897 4.26735 18.7874 4.51231C18.7819 5.06846 18.9488 5.5552 19.4263 5.89126C19.6033 6.01591 19.8014 6.08503 20.0212 6.09775C20.2167 6.10903 20.4073 6.09891 20.597 6.04598C20.8425 5.97773 21.0158 5.81548 21.1586 5.6194C21.2486 5.4962 21.3157 5.35651 21.3932 5.22434C21.4024 5.2093 21.4137 5.19542 21.4319 5.16939Z" fill="#41415A"/>
<path d="M5.63059 0.838867C5.98843 0.86577 6.20857 1.10674 6.22448 1.4799C6.22621 1.52069 6.22506 1.56148 6.22506 1.60198C6.22506 3.00063 6.22506 4.39957 6.22506 5.79822C6.22506 5.85202 6.22506 5.90612 6.22506 5.97815C6.28609 5.98075 6.33816 5.9848 6.39023 5.9848C7.15653 5.98509 7.92282 5.98509 8.68911 5.98509C8.74205 5.98509 8.79499 5.98509 8.86383 5.98509C8.86817 6.18614 8.86817 6.36809 8.86383 6.55786C7.77153 6.55786 6.69918 6.55786 5.62886 6.55786C5.59212 6.43723 5.59357 0.952553 5.63059 0.838867Z" fill="#41415A"/>
</svg>
