<svg width="27" height="7" viewBox="0 0 27 7" fill="none" xmlns="http://www.w3.org/2000/svg">
<path d="M4.02021 3.5134C4.01818 3.51571 4.01615 3.51803 4.01441 3.52005C4.0121 3.51861 4.01007 3.51716 4.00776 3.51571C3.95999 3.48531 3.91106 3.45376 3.86416 3.42365C3.76978 3.36256 3.67193 3.29945 3.5732 3.2401C3.56626 3.23605 3.5596 3.2317 3.55265 3.22765C3.51907 3.20739 3.48548 3.18683 3.4519 3.16657C3.41832 3.1463 3.38473 3.12603 3.35115 3.10548C3.29035 3.06871 3.22985 3.03194 3.16905 2.99518C2.58251 2.64053 1.97657 2.27343 1.37613 1.91849C1.1286 1.77229 0.862827 1.7694 0.628325 1.91097C0.553342 1.95613 0.488492 2.00882 0.433486 2.06846C0.433196 2.00679 0.432907 1.94542 0.432617 1.88491C0.433775 1.783 0.435512 1.6811 0.438118 1.57977C0.443329 1.37306 0.549289 1.19704 0.736311 1.08413C0.948521 0.956169 1.14336 1.01812 1.2693 1.09253C1.86858 1.4466 2.47394 1.81311 3.05962 2.16776C3.19453 2.2494 3.32944 2.33104 3.46435 2.41269C3.56018 2.47059 3.65687 2.53283 3.75009 2.59305C3.79757 2.62374 3.8465 2.65529 3.89514 2.68598C3.91511 2.69843 3.93393 2.71233 3.95159 2.72738C3.97852 2.74996 4.00312 2.77486 4.02513 2.80207C4.04742 2.82929 4.06682 2.85882 4.08361 2.88979C4.11343 2.94567 4.13398 3.00705 4.14383 3.0719C4.16814 3.23199 4.12298 3.39296 4.02021 3.5134Z" fill="#5466F9"/>
<path d="M0.43779 4.40958C0.43779 4.40727 0.43779 4.40466 0.43779 4.40234V4.40958C0.43779 4.4724 0.43779 4.53523 0.43779 4.59805V4.77118C0.4375 4.76336 0.4375 4.75525 0.4375 4.74744C0.43779 4.63511 0.43779 4.5222 0.43779 4.40958Z" fill="#5466F9"/>
<path d="M0.437735 3.91562C0.437735 4.02303 0.437735 4.13102 0.437735 4.23929C0.437735 4.28446 0.437735 4.32991 0.437735 4.37507V4.06588H0.433682C0.433392 3.94602 0.432813 3.82559 0.432234 3.70834C0.430787 3.42491 0.429339 3.13424 0.432813 2.84502C0.433971 2.76309 0.435419 2.68145 0.437445 2.6001C0.437445 2.64526 0.437445 2.69042 0.437445 2.73559C0.437445 2.9614 0.437445 3.19156 0.437445 3.4223V3.5908C0.437735 3.6982 0.437735 3.80677 0.437735 3.91562Z" fill="#5466F9"/>
<path d="M0.43298 2.0688C0.432401 2.06967 0.431533 2.07054 0.430664 2.07112C0.430954 2.00916 0.431533 1.94721 0.432112 1.88525C0.432401 1.94605 0.432691 2.00743 0.43298 2.0688Z" fill="#5466F9"/>
<path d="M0.437835 3.59168V3.42318C0.437835 3.3372 0.437835 3.2515 0.437835 3.16552V3.06101H0.433782C0.433493 2.98921 0.433493 2.91741 0.432914 2.84619C0.42944 3.13541 0.430598 3.42608 0.432335 3.70951C0.432914 3.82676 0.433493 3.94719 0.433782 4.06705H0.437546V4.37624C0.437546 4.33108 0.437546 4.28563 0.437546 4.24046C0.437546 4.13219 0.437546 4.0242 0.437546 3.91679C0.437835 3.80765 0.437835 3.69908 0.437835 3.59168Z" fill="#5466F9"/>
<path d="M0.437735 3.59177C0.437735 3.69918 0.437735 3.80746 0.437735 3.9166C0.437735 4.02401 0.437735 4.13199 0.437735 4.24027C0.437735 4.24027 0.437735 4.24027 0.437735 4.23998V4.06686H0.433682C0.433392 3.947 0.432813 3.82656 0.432234 3.70931C0.430787 3.42588 0.429339 3.13522 0.432813 2.846C0.433971 2.76407 0.435419 2.68243 0.437445 2.60107C0.437445 2.64624 0.437445 2.6914 0.437445 2.73656C0.437445 2.96238 0.437445 3.19254 0.437445 3.42328V3.59177H0.437735Z" fill="#5466F9"/>
<path d="M0.433957 2.0688C0.433378 2.06967 0.432509 2.07054 0.431641 2.07112C0.43193 2.00916 0.432509 1.94721 0.433088 1.88525C0.433378 1.94605 0.433667 2.00743 0.433957 2.0688Z" fill="#5466F9"/>
<path d="M4.08321 2.56568C4.05918 2.54571 4.0337 2.52718 4.00678 2.5101C3.95901 2.4797 3.91008 2.44814 3.86318 2.41774C3.7688 2.35666 3.67095 2.29354 3.57223 2.2342C3.43732 2.15255 3.30241 2.07091 3.16778 1.98927C2.58182 1.63462 1.97559 1.26782 1.37544 0.913168C1.12791 0.766677 0.86214 0.764072 0.627638 0.905641C0.552366 0.951094 0.486647 1.00436 0.431641 1.06429C0.432799 0.951094 0.434536 0.837896 0.437431 0.725277C0.442642 0.518569 0.548602 0.342547 0.735624 0.229639C0.947834 0.101676 1.14267 0.163631 1.26861 0.238035C1.8676 0.592104 2.47296 0.958621 3.05864 1.31327C3.19355 1.39491 3.32846 1.47655 3.46366 1.55819C3.55949 1.61609 3.65618 1.67834 3.74941 1.73856C3.79689 1.76924 3.84581 1.8008 3.89445 1.83149C4.02849 1.9166 4.11911 2.05702 4.14314 2.2174C4.16167 2.33929 4.13995 2.46117 4.08321 2.56568Z" fill="#5466F9"/>
<path d="M0.437256 3.8931C0.437546 3.75443 0.437546 3.61517 0.437546 3.47592V3.42439C0.437546 3.19365 0.437546 2.96349 0.437546 2.73767C0.437546 2.69251 0.437546 2.64735 0.437546 2.60218C0.435519 2.68354 0.434072 2.76518 0.432914 2.84711C0.42944 3.13633 0.430598 3.42699 0.432335 3.71042C0.432914 3.82767 0.433493 3.94811 0.433782 4.06797H0.437546V4.37716C0.437546 4.332 0.437546 4.28654 0.437546 4.24138C0.437546 4.13311 0.437546 4.02512 0.437546 3.91771C0.437546 3.9096 0.437256 3.9015 0.437256 3.8931ZM0.437546 4.41045V4.40322C0.437546 4.40553 0.437546 4.40785 0.437546 4.41045ZM0.432624 1.88623C0.432045 1.94819 0.431466 2.01014 0.431177 2.07209C0.432045 2.07123 0.432624 2.07065 0.433493 2.06978C0.433203 2.00811 0.432914 1.94674 0.432624 1.88623Z" fill="#5466F9"/>
<path d="M0.437546 3.59324V3.42474C0.437546 3.194 0.437546 2.96385 0.437546 2.73803C0.437546 2.69287 0.437546 2.6477 0.437546 2.60254C0.435519 2.68389 0.434072 2.76553 0.432914 2.84746C0.42944 3.13668 0.430598 3.42735 0.432335 3.71078C0.432914 3.82803 0.433493 3.94846 0.433782 4.06832H0.437546V4.37751C0.437546 4.33235 0.437546 4.2869 0.437546 4.24174C0.437546 4.13346 0.437546 4.02547 0.437546 3.91806C0.437546 3.80921 0.437546 3.70064 0.437546 3.59324ZM0.437256 4.41081C0.437256 4.52372 0.436967 4.63634 0.436967 4.74866C0.436967 4.75648 0.437256 4.76459 0.437256 4.7724V4.59928C0.437546 4.53645 0.437256 4.47363 0.437256 4.41081V4.40357C0.437256 4.40589 0.437256 4.4082 0.437256 4.41081Z" fill="#5466F9"/>
<path d="M0.436813 4.41105C0.436813 4.52395 0.436523 4.63657 0.436523 4.7489C0.436523 4.75672 0.436813 4.76483 0.436813 4.77264V4.59952C0.437102 4.53669 0.436813 4.47387 0.436813 4.41105V4.40381C0.436813 4.40612 0.436813 4.40844 0.436813 4.41105Z" fill="#5466F9"/>
<path d="M4.01919 4.52092C3.97663 4.571 3.92915 4.61269 3.88225 4.64135C2.88345 5.25482 2.06385 5.75596 1.30245 6.2186C1.03291 6.38246 0.699978 6.30979 0.527431 6.04981C0.466055 5.95717 0.436236 5.86076 0.436526 5.75451C0.436815 5.59239 0.436815 5.42882 0.436815 5.26582C0.436815 5.20937 0.436815 5.15321 0.436815 5.09704C0.436815 4.98848 0.436815 4.87991 0.436815 4.7725V4.59938C0.436815 4.53655 0.436815 4.47373 0.436815 4.41091V4.3999C0.436815 4.39267 0.436815 4.38514 0.436815 4.3779C0.436815 4.33274 0.436815 4.28729 0.436815 4.24212C0.436815 4.13385 0.436815 4.02586 0.436815 3.91845C0.436815 3.80931 0.436815 3.70103 0.436815 3.59362V3.42513C0.436815 3.19439 0.436815 2.96423 0.436815 2.73842C0.436815 2.69325 0.436815 2.64809 0.436815 2.60293C0.436815 2.59771 0.437105 2.5925 0.437105 2.58758C0.442316 2.38087 0.548276 2.20485 0.735298 2.09194C0.947508 1.96398 1.14235 2.02594 1.26828 2.10034C1.86757 2.4547 2.47322 2.82122 3.05918 3.17586C3.089 3.19381 3.11882 3.21205 3.14893 3.23C3.18251 3.25027 3.2161 3.27082 3.24968 3.29109C3.28326 3.31135 3.31684 3.33191 3.35043 3.35217C3.38806 3.37505 3.4257 3.39763 3.46334 3.4205C3.55916 3.4784 3.65586 3.54093 3.74908 3.60086C3.77919 3.62055 3.81017 3.64023 3.84114 3.66021C3.8588 3.6715 3.87617 3.68279 3.89383 3.69379C3.9086 3.70335 3.92308 3.71319 3.93668 3.72419C3.96505 3.74619 3.99111 3.77138 4.01456 3.79831C4.08173 3.87647 4.1266 3.97375 4.14252 4.07942C4.16713 4.23952 4.12197 4.40019 4.01919 4.52092Z" fill="#5466F9"/>
<path d="M12.2158 4.87687C12.3736 4.95417 12.5264 5.02915 12.688 5.10848C12.5884 5.33893 12.4468 5.52363 12.2595 5.67157C11.9277 5.93387 11.5494 6.05807 11.1246 6.06183C10.7109 6.06559 10.3357 5.95934 9.99961 5.71963C9.62904 5.45502 9.38556 5.10211 9.25036 4.66669C9.18465 4.45535 9.15801 4.2388 9.15975 4.02456C9.16351 3.54137 9.30855 3.09842 9.61485 2.71569C9.89944 2.35989 10.2552 2.11323 10.7106 2.03882C11.3872 1.92794 11.97 2.10541 12.4176 2.64129C12.582 2.83844 12.6802 3.07497 12.7465 3.32192C12.8148 3.57669 12.844 3.83725 12.833 4.10157C12.8316 4.1366 12.8241 4.17134 12.818 4.21708C12.7682 4.222 12.7245 4.22982 12.6807 4.22982C12.1359 4.23069 11.5913 4.23127 11.0465 4.22924C10.9837 4.22895 10.9194 4.21969 10.8586 4.20463C10.6496 4.1531 10.5329 3.95334 10.5841 3.71855C10.8554 3.71044 11.131 3.71623 11.4066 3.71508C11.6825 3.71392 11.9584 3.71479 12.2421 3.71479C12.2505 3.61027 12.2236 3.52429 12.1999 3.43975C12.1197 3.15227 11.9712 2.91024 11.7251 2.73162C11.6009 2.64158 11.4628 2.58715 11.3157 2.55704C10.9506 2.48206 10.6087 2.54286 10.3134 2.77446C9.95937 3.0521 9.76308 3.4192 9.75266 3.87344C9.74745 4.09925 9.74427 4.32507 9.80448 4.54799C9.94779 5.07953 10.4515 5.53898 11.0717 5.53637C11.3371 5.53521 11.5841 5.48658 11.8087 5.34009C11.917 5.26945 12.0076 5.18346 12.0812 5.07808C12.124 5.01468 12.166 4.95099 12.2158 4.87687Z" fill="#41415A"/>
<path d="M22.6921 4.10699C22.6744 3.76016 22.7451 3.43041 22.9081 3.1244C23.1822 2.60965 23.5994 2.26311 24.1706 2.12994C24.9532 1.94726 25.6268 2.15513 26.159 2.75875C26.4215 3.05637 26.5721 3.4142 26.6222 3.81314C26.6946 4.39042 26.5576 4.9124 26.207 5.37185C25.9103 5.76066 25.5177 6.00182 25.0281 6.08897C24.5681 6.17061 24.1336 6.11328 23.7256 5.89007C23.1762 5.58927 22.8403 5.12693 22.7176 4.51201C22.7077 4.46338 22.6956 4.41445 22.6933 4.36494C22.6892 4.27925 22.6921 4.19298 22.6921 4.10699ZM26.0437 4.11104C26.0461 3.81806 25.9763 3.54274 25.8272 3.29347C25.5391 2.81173 25.1243 2.55581 24.5461 2.59547C24.1014 2.62616 23.7575 2.83055 23.5241 3.20025C23.2028 3.70892 23.1817 4.25001 23.4277 4.79428C23.5954 5.16543 23.8716 5.43062 24.2719 5.54701C24.4422 5.59651 24.6162 5.60751 24.7945 5.59333C25.0085 5.57654 25.2045 5.51429 25.3782 5.39386C25.8254 5.08408 26.031 4.64663 26.0437 4.11104Z" fill="#41415A"/>
<path d="M13.897 6.04739C13.897 4.74837 13.897 3.45426 13.897 2.16132C13.9966 2.12976 14.2797 2.12513 14.4302 2.1535C14.4598 2.25599 14.441 2.36455 14.4441 2.47138C14.4473 2.57821 14.4447 2.68504 14.4447 2.82111C14.4957 2.7551 14.5295 2.71428 14.5597 2.67114C14.7745 2.3634 15.0654 2.15871 15.4337 2.09676C15.8393 2.02843 16.2379 2.05883 16.5958 2.29999C16.8523 2.47254 17.0075 2.71891 17.1065 3.00176C17.1739 3.19457 17.1985 3.39636 17.1974 3.60307C17.193 4.36911 17.1956 5.13515 17.1956 5.90119C17.1956 5.94577 17.1956 5.99036 17.1956 6.03523C17.0905 6.08271 17.0066 6.04507 16.9293 6.00107C16.7046 5.8734 16.6221 5.66524 16.6204 5.41916C16.6178 5.06103 16.6198 4.70291 16.6195 4.34479C16.6192 4.11347 16.6198 3.88245 16.6178 3.65113C16.616 3.46266 16.5738 3.28432 16.4849 3.11641C16.3283 2.82024 16.0842 2.66362 15.7519 2.62424C15.5909 2.60514 15.4343 2.60716 15.282 2.6529C14.8451 2.78492 14.5987 3.09498 14.4971 3.52751C14.4737 3.62768 14.4682 3.73364 14.4676 3.83728C14.4647 4.37229 14.4647 4.90702 14.467 5.44203C14.4679 5.65684 14.388 5.82997 14.2195 5.96112C14.1283 6.03205 14.0261 6.07431 13.897 6.04739Z" fill="#41415A"/>
<path d="M21.4553 4.6628C21.6276 4.72186 21.7897 4.77715 21.9657 4.83766C21.9553 4.89006 21.9541 4.93494 21.9373 4.97315C21.6863 5.54522 21.2593 5.92361 20.6525 6.06952C20.143 6.19227 19.6427 6.13437 19.1821 5.86715C18.6488 5.55767 18.3564 5.08085 18.2507 4.48359C18.1816 4.09218 18.2099 3.70481 18.3573 3.3354C18.6042 2.71672 19.0449 2.29983 19.6968 2.1296C20.231 1.99006 20.7399 2.06793 21.2136 2.35078C21.5839 2.57197 21.8667 2.94514 21.9492 3.32208C21.9151 3.33395 21.8797 3.35393 21.8427 3.35798C21.6287 3.38085 21.4382 3.33019 21.2845 3.17067C21.1843 3.06674 21.0914 2.95296 20.9788 2.86437C20.372 2.3861 19.4001 2.54244 18.9994 3.30413C18.883 3.52532 18.8104 3.75982 18.808 4.00503C18.8025 4.56176 18.9696 5.049 19.4476 5.38541C19.6247 5.51019 19.8231 5.57938 20.0431 5.59212C20.2388 5.60341 20.4296 5.59328 20.6195 5.5403C20.8653 5.47197 21.0387 5.30956 21.1817 5.11327C21.2718 4.98994 21.3389 4.85011 21.4165 4.7178C21.4258 4.70275 21.4371 4.68885 21.4553 4.6628Z" fill="#41415A"/>
<path d="M5.64038 0.327637C5.9985 0.354561 6.21882 0.595721 6.23474 0.969187C6.23648 1.01001 6.23532 1.05083 6.23532 1.09136C6.23532 2.49113 6.23532 3.89119 6.23532 5.29097C6.23532 5.34482 6.23532 5.39895 6.23532 5.47104C6.29641 5.47365 6.34852 5.4777 6.40063 5.4777C7.16754 5.47799 7.93445 5.47799 8.70135 5.47799C8.75433 5.47799 8.80731 5.47799 8.87622 5.47799C8.88056 5.6792 8.88056 5.8613 8.87622 6.05122C7.78303 6.05122 6.70983 6.05122 5.63865 6.05122C5.60188 5.93049 5.60332 0.441414 5.64038 0.327637Z" fill="#41415A"/>
</svg>
