<svg width="16" height="16" viewBox="0 0 16 16" fill="none" xmlns="http://www.w3.org/2000/svg">
<path d="M8.853 4.671L11.7521 7.57009C11.7971 7.61497 11.8328 7.66829 11.8571 7.72699C11.8815 7.78569 11.894 7.84862 11.894 7.91218C11.894 7.97573 11.8815 8.03866 11.8571 8.09737C11.8328 8.15607 11.7971 8.20939 11.7521 8.25427L8.853 11.1534C8.76227 11.2441 8.63922 11.2951 8.51091 11.2951C8.3826 11.2951 8.25954 11.2441 8.16882 11.1534C8.07809 11.0626 8.02712 10.9396 8.02712 10.8113C8.02712 10.683 8.07809 10.5599 8.16882 10.4692L10.2436 8.39536L4.64546 8.39536C4.51731 8.39536 4.39441 8.34445 4.30379 8.25384C4.21318 8.16323 4.16227 8.04033 4.16227 7.91218C4.16227 7.78403 4.21318 7.66113 4.30379 7.57052C4.39441 7.4799 4.51731 7.429 4.64546 7.429L10.2436 7.429L8.16882 5.35518C8.07809 5.26445 8.02712 5.1414 8.02712 5.01309C8.02712 4.88478 8.07809 4.76172 8.16882 4.671C8.25954 4.58027 8.3826 4.5293 8.51091 4.5293C8.63922 4.5293 8.76227 4.58027 8.853 4.671Z" fill="white"/>
<path d="M15.7573 7.90864C15.7573 5.85828 14.9428 3.89189 13.493 2.44206C12.0432 0.992238 10.0768 0.177734 8.02642 0.177734C5.97606 0.177734 4.00967 0.992238 2.55984 2.44206C1.11002 3.89189 0.295514 5.85828 0.295514 7.90864C0.295514 9.959 1.11002 11.9254 2.55984 13.3752C4.00967 14.825 5.97605 15.6395 8.02642 15.6395C10.0768 15.6395 12.0432 14.825 13.493 13.3752C14.9428 11.9254 15.7573 9.959 15.7573 7.90864ZM8.02642 1.1441C8.91475 1.1441 9.79438 1.31907 10.6151 1.65902C11.4358 1.99897 12.1815 2.49724 12.8097 3.12539C13.4378 3.75353 13.9361 4.49925 14.276 5.31996C14.616 6.14067 14.791 7.02031 14.791 7.90864C14.791 8.79697 14.616 9.67661 14.276 10.4973C13.9361 11.318 13.4378 12.0637 12.8097 12.6919C12.1815 13.32 11.4358 13.8183 10.6151 14.1583C9.79438 14.4982 8.91475 14.6732 8.02642 14.6732C6.23235 14.6732 4.51176 13.9605 3.24317 12.6919C1.97457 11.4233 1.26188 9.70271 1.26188 7.90864C1.26188 6.11457 1.97457 4.39398 3.24317 3.12539C4.51176 1.85679 6.23235 1.1441 8.02642 1.1441Z" fill="white"/>
</svg>
