<svg width="67" height="17" viewBox="0 0 67 17" fill="none" xmlns="http://www.w3.org/2000/svg">
<path d="M9.66909 8.99934C9.66399 9.00516 9.6589 9.01098 9.65453 9.01608C9.64871 9.01244 9.64361 9.0088 9.63779 9.00516C9.51767 8.92872 9.39464 8.84937 9.27671 8.77366C9.03939 8.62006 8.79333 8.46136 8.54509 8.31212C8.52762 8.30193 8.51087 8.29101 8.4934 8.28082C8.40895 8.22986 8.32451 8.17817 8.24006 8.12721C8.15562 8.07626 8.07117 8.0253 7.98673 7.97361C7.83385 7.88116 7.6817 7.7887 7.52883 7.69625C6.05394 6.80447 4.53027 5.88139 3.02044 4.98889C2.39802 4.62126 1.72973 4.61398 1.14006 4.96996C0.951517 5.08352 0.78845 5.21602 0.650133 5.36598C0.649405 5.21092 0.648677 5.05659 0.647949 4.90444C0.650861 4.64819 0.655229 4.39194 0.661781 4.13715C0.674885 3.61737 0.941326 3.17476 1.4116 2.89085C1.94521 2.56908 2.43514 2.72487 2.75181 2.91196C4.25874 3.80228 5.78094 4.7239 7.25365 5.61568C7.59289 5.82097 7.93213 6.02626 8.27137 6.23155C8.51233 6.37715 8.75547 6.53366 8.98988 6.68508C9.10927 6.76225 9.2323 6.8416 9.3546 6.91877C9.40483 6.95007 9.45215 6.98501 9.49656 7.02287C9.56426 7.07965 9.62614 7.14226 9.68147 7.21069C9.73752 7.27912 9.78629 7.35337 9.82852 7.43126C9.9035 7.57176 9.95519 7.7261 9.97994 7.88916C10.0411 8.29174 9.92752 8.6965 9.66909 8.99934Z" fill="#5466F9"/>
<path d="M0.658443 11.2506C0.658443 11.2448 0.658443 11.2382 0.658443 11.2324V11.2506C0.658443 11.4086 0.658443 11.5666 0.658443 11.7245V12.1599C0.657715 12.1402 0.657715 12.1198 0.657715 12.1002C0.658443 11.8177 0.658443 11.5338 0.658443 11.2506Z" fill="#5466F9"/>
<path d="M0.661823 10.013C0.661823 10.2831 0.661823 10.5546 0.661823 10.8269C0.661823 10.9405 0.661823 11.0548 0.661823 11.1683V10.3908H0.651631C0.650903 10.0895 0.649447 9.78662 0.647991 9.49179C0.644351 8.7791 0.640711 8.0482 0.649447 7.32095C0.652359 7.11493 0.655999 6.90964 0.661095 6.70508C0.661095 6.81864 0.661095 6.93221 0.661095 7.04577C0.661095 7.6136 0.661095 8.19234 0.661095 8.77254V9.19623C0.661823 9.46631 0.661823 9.7393 0.661823 10.013Z" fill="#5466F9"/>
<path d="M0.649867 5.36584C0.648411 5.36802 0.646227 5.3702 0.644043 5.37166C0.644771 5.21587 0.646227 5.06008 0.647683 4.9043C0.648411 5.05717 0.649139 5.2115 0.649867 5.36584Z" fill="#5466F9"/>
<path d="M0.660122 9.19682V8.77313C0.660122 8.55692 0.660122 8.34144 0.660122 8.12523V7.86243H0.649931C0.649203 7.68189 0.649203 7.50135 0.647747 7.32227C0.639011 8.04952 0.641923 8.78041 0.646291 9.49311C0.647747 9.78794 0.649203 10.0908 0.649931 10.3922H0.659394V11.1696C0.659394 11.0561 0.659394 10.9418 0.659394 10.8282C0.659394 10.556 0.659394 10.2844 0.659394 10.0143C0.660122 9.73989 0.660122 9.4669 0.660122 9.19682Z" fill="#5466F9"/>
<path d="M0.65987 9.19232C0.65987 9.4624 0.65987 9.73467 0.65987 10.0091C0.65987 10.2792 0.65987 10.5507 0.65987 10.823C0.65987 10.823 0.65987 10.823 0.65987 10.8223V10.3869H0.649678C0.64895 10.0856 0.647494 9.78272 0.646038 9.48788C0.642398 8.77519 0.638758 8.0443 0.647494 7.31704C0.650406 7.11103 0.654046 6.90573 0.659142 6.70117C0.659142 6.81474 0.659142 6.9283 0.659142 7.04187C0.659142 7.60969 0.659142 8.18844 0.659142 8.76864V9.19232H0.65987Z" fill="#5466F9"/>
<path d="M0.649867 5.36193C0.648411 5.36411 0.646227 5.3663 0.644043 5.36775C0.644771 5.21197 0.646227 5.05618 0.647683 4.90039C0.648411 5.05327 0.649139 5.2076 0.649867 5.36193Z" fill="#5466F9"/>
<path d="M9.82802 6.61258C9.7676 6.56235 9.70354 6.51576 9.63583 6.47281C9.51572 6.39637 9.39269 6.31702 9.27476 6.24058C9.03743 6.08698 8.79138 5.92828 8.54313 5.77904C8.2039 5.57375 7.86466 5.36846 7.52615 5.16317C6.05271 4.27139 4.52832 3.34904 3.01921 2.45727C2.39679 2.08891 1.7285 2.08236 1.13884 2.43834C0.949564 2.55263 0.784313 2.68658 0.645996 2.83727C0.648908 2.55263 0.653276 2.26799 0.660556 1.98481C0.673659 1.46503 0.9401 1.02241 1.41038 0.738502C1.94399 0.416735 2.43392 0.572523 2.75059 0.759614C4.25678 1.64993 5.77899 2.57156 7.2517 3.46334C7.59094 3.66863 7.93017 3.87392 8.27014 4.07921C8.5111 4.2248 8.75425 4.38132 8.98866 4.53274C9.10805 4.60991 9.23108 4.68926 9.35338 4.76642C9.69043 4.98045 9.91829 5.33352 9.97871 5.73682C10.0253 6.0433 9.97071 6.34978 9.82802 6.61258Z" fill="#5466F9"/>
<path d="M0.658666 9.95066C0.659394 9.60196 0.659394 9.2518 0.659394 8.90164V8.77206C0.659394 8.19186 0.659394 7.61311 0.659394 7.04529C0.659394 6.93172 0.659394 6.81816 0.659394 6.70459C0.654298 6.90916 0.650659 7.11445 0.647747 7.32047C0.639011 8.04772 0.641923 8.77861 0.646291 9.49131C0.647747 9.78614 0.649203 10.089 0.649931 10.3904H0.659394V11.1678C0.659394 11.0543 0.659394 10.94 0.659394 10.8264C0.659394 10.5542 0.659394 10.2826 0.659394 10.0125C0.659394 9.99216 0.658666 9.97177 0.658666 9.95066ZM0.659394 11.2516V11.2334C0.659394 11.2392 0.659394 11.245 0.659394 11.2516ZM0.647019 4.9043C0.645563 5.06008 0.644107 5.21587 0.643379 5.37166C0.645563 5.36948 0.647019 5.36802 0.649203 5.36584C0.648475 5.21078 0.647747 5.05644 0.647019 4.9043Z" fill="#5466F9"/>
<path d="M0.661347 9.19232V8.76864C0.661347 8.18844 0.661347 7.60969 0.661347 7.04187C0.661347 6.9283 0.661347 6.81474 0.661347 6.70117C0.656252 6.90573 0.652612 7.11103 0.6497 7.31704C0.640964 8.0443 0.643876 8.77519 0.648244 9.48788C0.6497 9.78272 0.651156 10.0856 0.651884 10.3869H0.661347V11.1644C0.661347 11.0509 0.661347 10.9366 0.661347 10.823C0.661347 10.5507 0.661347 10.2792 0.661347 10.0091C0.661347 9.7354 0.661347 9.4624 0.661347 9.19232ZM0.660619 11.2481C0.660619 11.5321 0.659892 11.8152 0.659892 12.0977C0.659892 12.1174 0.660619 12.1377 0.660619 12.1574V11.7221C0.661347 11.5641 0.660619 11.4061 0.660619 11.2481V11.2299C0.660619 11.2358 0.660619 11.2416 0.660619 11.2481Z" fill="#5466F9"/>
<path d="M0.658443 11.2467C0.658443 11.5306 0.657715 11.8138 0.657715 12.0963C0.657715 12.1159 0.658443 12.1363 0.658443 12.156V11.7206C0.659171 11.5627 0.658443 11.4047 0.658443 11.2467V11.2285C0.658443 11.2343 0.658443 11.2402 0.658443 11.2467Z" fill="#5466F9"/>
<path d="M9.66649 11.526C9.55947 11.6519 9.44008 11.7567 9.32215 11.8288C6.81062 13.3714 4.7497 14.6315 2.83511 15.7948C2.15736 16.2069 1.32018 16.0241 0.886306 15.3704C0.731974 15.1375 0.656992 14.895 0.65772 14.6279C0.658448 14.2202 0.658448 13.8089 0.658448 13.399C0.658448 13.2571 0.658448 13.1159 0.658448 12.9746C0.658448 12.7016 0.658448 12.4286 0.658448 12.1586V11.7232C0.658448 11.5653 0.658448 11.4073 0.658448 11.2493V11.2217C0.658448 11.2035 0.658448 11.1845 0.658448 11.1663C0.658448 11.0528 0.658448 10.9385 0.658448 10.8249C0.658448 10.5526 0.658448 10.2811 0.658448 10.011C0.658448 9.73657 0.658448 9.46431 0.658448 9.19423V8.77054C0.658448 8.19034 0.658448 7.6116 0.658448 7.04377C0.658448 6.93021 0.658448 6.81664 0.658448 6.70308C0.658448 6.68997 0.659176 6.67687 0.659176 6.66449C0.67228 6.14472 0.938721 5.7021 1.409 5.41819C1.94261 5.09642 2.43254 5.25221 2.74921 5.4393C4.25613 6.33035 5.77907 7.25197 7.2525 8.14375C7.32748 8.18889 7.40247 8.23475 7.47818 8.27988C7.56262 8.33084 7.64707 8.38253 7.73151 8.43349C7.81596 8.48445 7.9004 8.53613 7.98485 8.58709C8.07949 8.6446 8.17413 8.70139 8.26876 8.7589C8.50972 8.90449 8.75287 9.06174 8.98728 9.21243C9.06299 9.26193 9.14088 9.31143 9.21878 9.36166C9.26318 9.39006 9.30686 9.41845 9.35127 9.44611C9.3884 9.47013 9.4248 9.49488 9.45901 9.52255C9.53035 9.57787 9.59587 9.64121 9.65484 9.70891C9.82373 9.90547 9.93657 10.1501 9.97661 10.4158C10.0385 10.8184 9.92492 11.2224 9.66649 11.526Z" fill="#5466F9"/>
<path d="M30.278 12.4285C30.6748 12.6229 31.0592 12.8114 31.4654 13.0109C31.2149 13.5903 30.859 14.0548 30.388 14.4268C29.5537 15.0864 28.6022 15.3987 27.5343 15.4081C26.494 15.4176 25.5505 15.1504 24.7053 14.5476C23.7735 13.8823 23.1613 12.9949 22.8213 11.9C22.6561 11.3685 22.5891 10.824 22.5935 10.2853C22.6029 9.07031 22.9676 7.9565 23.7378 6.99411C24.4535 6.09942 25.3481 5.47918 26.4933 5.29209C28.1945 5.01328 29.66 5.45953 30.7854 6.80702C31.1989 7.30278 31.4457 7.89754 31.6124 8.5185C31.7842 9.15913 31.8577 9.81431 31.8301 10.479C31.8264 10.567 31.8075 10.6544 31.7922 10.7694C31.667 10.7818 31.5571 10.8015 31.4472 10.8015C30.0771 10.8036 28.7078 10.8051 27.3377 10.8C27.1797 10.7993 27.0181 10.776 26.8653 10.7381C26.3397 10.6085 26.0463 10.1062 26.1751 9.51584C26.8572 9.49545 27.5503 9.51002 28.2433 9.5071C28.9371 9.50419 29.6309 9.50637 30.3443 9.50637C30.3654 9.24357 30.2977 9.02736 30.238 8.81479C30.0363 8.09191 29.6629 7.48332 29.0441 7.03415C28.7318 6.80775 28.3846 6.67089 28.0147 6.59518C27.0968 6.40663 26.237 6.55951 25.4945 7.14189C24.6041 7.84003 24.1106 8.76311 24.0844 9.90531C24.0713 10.4731 24.0633 11.041 24.2147 11.6015C24.575 12.9381 25.8417 14.0934 27.401 14.0868C28.0686 14.0839 28.6896 13.9616 29.2545 13.5933C29.5268 13.4156 29.7546 13.1994 29.9395 12.9344C30.0473 12.775 30.1528 12.6149 30.278 12.4285Z" fill="#41415A"/>
<path d="M56.6214 10.4937C56.577 9.62157 56.7546 8.7924 57.1645 8.02292C57.8539 6.72857 58.9029 5.85718 60.3392 5.52231C62.3069 5.06295 64.0009 5.58564 65.339 7.10348C65.9993 7.85185 66.3778 8.75163 66.5037 9.75479C66.6857 11.2064 66.3414 12.5189 65.4598 13.6742C64.7136 14.6519 63.7265 15.2583 62.4955 15.4775C61.3387 15.6827 60.246 15.5386 59.2203 14.9773C57.8386 14.221 56.9941 13.0584 56.6855 11.5121C56.6607 11.3898 56.6301 11.2668 56.6243 11.1423C56.6141 10.9268 56.6214 10.7099 56.6214 10.4937ZM65.0492 10.5039C65.0551 9.76717 64.8796 9.07486 64.5047 8.44807C63.7804 7.23671 62.7372 6.59317 61.2834 6.6929C60.1652 6.77007 59.3004 7.28402 58.7136 8.21366C57.9056 9.49272 57.8524 10.8533 58.4712 12.2219C58.8927 13.1552 59.5872 13.822 60.594 14.1147C61.022 14.2392 61.4596 14.2668 61.908 14.2311C62.446 14.1889 62.9388 14.0324 63.3756 13.7296C64.5003 12.9506 65.0172 11.8506 65.0492 10.5039Z" fill="#41415A"/>
<path d="M34.5073 15.3676C34.5073 12.1011 34.5073 8.84702 34.5073 5.59586C34.7577 5.51651 35.4697 5.50486 35.8483 5.57621C35.9225 5.83391 35.8752 6.1069 35.8832 6.37553C35.8912 6.64415 35.8847 6.91278 35.8847 7.25493C36.0128 7.08895 36.098 6.9863 36.1737 6.87784C36.7138 6.10399 37.4455 5.58931 38.3714 5.43352C39.3913 5.26172 40.3938 5.33816 41.2936 5.94456C41.9386 6.37844 42.3288 6.99795 42.5777 7.70919C42.7473 8.19403 42.8092 8.70143 42.8063 9.22121C42.7954 11.1474 42.8019 13.0737 42.8019 14.9999C42.8019 15.112 42.8019 15.2241 42.8019 15.337C42.5377 15.4564 42.3266 15.3617 42.1322 15.2511C41.5673 14.93 41.3598 14.4066 41.3554 13.7878C41.3489 12.8873 41.354 11.9868 41.3533 11.0863C41.3525 10.5046 41.354 9.92371 41.3489 9.34205C41.3445 8.86814 41.2382 8.4197 41.0147 7.99747C40.6209 7.25275 40.0072 6.85891 39.1715 6.7599C38.7667 6.71186 38.3729 6.71695 37.99 6.83197C36.8915 7.16393 36.272 7.9436 36.0164 9.0312C35.9575 9.28309 35.9436 9.54953 35.9422 9.81014C35.9349 11.1555 35.9349 12.5 35.9407 13.8453C35.9429 14.3855 35.742 14.8208 35.3183 15.1506C35.089 15.329 34.832 15.4353 34.5073 15.3676Z" fill="#41415A"/>
<path d="M53.5091 11.8933C53.9423 12.0418 54.3499 12.1809 54.7926 12.333C54.7664 12.4648 54.7634 12.5776 54.7212 12.6737C54.0901 14.1122 53.0163 15.0637 51.4904 15.4306C50.2092 15.7392 48.9512 15.5936 47.793 14.9217C46.4521 14.1435 45.7168 12.9445 45.4511 11.4427C45.2771 10.4585 45.3485 9.48441 45.719 8.55551C46.34 6.99981 47.448 5.95152 49.0874 5.52347C50.4305 5.17258 51.7103 5.36841 52.9013 6.07964C53.8324 6.63582 54.5436 7.57419 54.7511 8.52202C54.6652 8.55187 54.5764 8.6021 54.4832 8.61229C53.9452 8.6698 53.4662 8.5424 53.0796 8.14129C52.8277 7.87994 52.5941 7.59384 52.3109 7.37108C50.785 6.16846 48.3412 6.56157 47.3337 8.47689C47.041 9.03306 46.8583 9.62273 46.8525 10.2393C46.8386 11.6392 47.2587 12.8644 48.4606 13.7103C48.9061 14.0241 49.4048 14.1981 49.958 14.2301C50.4502 14.2585 50.9299 14.233 51.4074 14.0998C52.0255 13.928 52.4616 13.5196 52.8212 13.026C53.0476 12.7159 53.2165 12.3643 53.4116 12.0316C53.4349 11.9938 53.4633 11.9588 53.5091 11.8933Z" fill="#41415A"/>
<path d="M13.7432 0.990234C14.6437 1.05794 15.1977 1.66434 15.2378 2.60344C15.2421 2.70609 15.2392 2.80873 15.2392 2.91065C15.2392 6.43044 15.2392 9.95095 15.2392 13.4707C15.2392 13.6061 15.2392 13.7423 15.2392 13.9235C15.3928 13.9301 15.5239 13.9403 15.6549 13.9403C17.5833 13.941 19.5117 13.941 21.4402 13.941C21.5734 13.941 21.7066 13.941 21.8799 13.941C21.8908 14.447 21.8908 14.9049 21.8799 15.3824C19.131 15.3824 16.4324 15.3824 13.7388 15.3824C13.6464 15.0789 13.65 1.27633 13.7432 0.990234Z" fill="#41415A"/>
</svg>
