<svg width="47" height="51" viewBox="0 0 47 51" fill="none" xmlns="http://www.w3.org/2000/svg">
<g opacity="0.58" filter="url(#filter0_f_9_8662)">
<path d="M21.3281 18.7984L14.6404 17.1393L9.9019 36.2407L16.5897 37.8997L21.3281 18.7984Z" fill="#FCB5A4"/>
<path d="M29.1729 17.7222L22.4851 16.0632L17.0405 38.0112L23.7282 39.6702L29.1729 17.7222Z" fill="#F26F43"/>
<path d="M37.1624 16.0699L30.4746 14.4108L24.1805 39.783L30.8683 41.4421L37.1624 16.0699Z" fill="#F26F43"/>
</g>
<path d="M16.3669 8.57198L5.37598 9.26242L6.64452 29.456L17.6354 28.7656L16.3669 8.57198Z" fill="#FCB5A4"/>
<path d="M27.9098 4.82589L16.9189 5.51633L18.3765 28.7193L29.3674 28.0289L27.9098 4.82589Z" fill="#F39373"/>
<path d="M39.4147 0.468465L28.4238 1.15891L30.1088 27.9819L41.0997 27.2915L39.4147 0.468465Z" fill="#F26F43"/>
<defs>
<filter id="filter0_f_9_8662" x="0.647262" y="5.15623" width="45.7697" height="45.5404" filterUnits="userSpaceOnUse" color-interpolation-filters="sRGB">
<feFlood flood-opacity="0" result="BackgroundImageFix"/>
<feBlend mode="normal" in="SourceGraphic" in2="BackgroundImageFix" result="shape"/>
<feGaussianBlur stdDeviation="4.6273" result="effect1_foregroundBlur_9_8662"/>
</filter>
</defs>
</svg>
