<svg width="31" height="31" viewBox="0 0 31 31" fill="none" xmlns="http://www.w3.org/2000/svg">
<circle cx="15.6101" cy="15.239" r="15.0319" fill="#F6F7FF"/>
<path d="M23.2771 22.7548H8.40324C7.81739 22.7548 7.34082 22.2782 7.34082 21.6924V12.2226C7.34082 11.6367 7.81739 11.1602 8.40324 11.1602H13.1238V12.5342H18.5528V11.1602H23.2771C23.863 11.1602 24.3395 11.6367 24.3395 12.2226V21.6924C24.3395 22.2782 23.863 22.7548 23.2771 22.7548ZM8.40324 11.8684C8.20801 11.8684 8.0491 12.0272 8.0491 12.2226V21.6924C8.0491 21.8878 8.20801 22.0465 8.40324 22.0465H23.2771C23.4724 22.0465 23.6313 21.8878 23.6313 21.6924V12.2226C23.6313 12.0272 23.4724 11.8684 23.2771 11.8684H19.2611V13.2425H12.4155V11.8684H8.40324Z" fill="#5466F9"/>
<path d="M18.9073 13.2418H12.77C12.5745 13.2418 12.4159 13.0834 12.4159 12.8876V10.6106C12.4159 10.2202 12.7335 9.90234 13.1242 9.90234H18.5532C18.9438 9.90234 19.2614 10.2202 19.2614 10.6106V12.8876C19.2614 13.0834 19.1029 13.2418 18.9073 13.2418ZM13.1242 12.5335H18.5532V10.6106C18.5532 10.6099 18.5532 10.6096 18.5532 10.6096L13.1242 10.6106V12.5335Z" fill="#5466F9"/>
<path d="M15.8403 10.6121C15.0436 10.6121 14.3955 9.96404 14.3955 9.16723C14.3955 8.37076 15.0436 7.72266 15.8403 7.72266C16.6369 7.72266 17.285 8.37076 17.285 9.16723C17.285 9.96404 16.6369 10.6121 15.8403 10.6121ZM15.8403 8.43094C15.4342 8.43094 15.1038 8.76121 15.1038 9.16723C15.1038 9.57325 15.4342 9.90387 15.8403 9.90387C16.2463 9.90387 16.5767 9.57325 16.5767 9.16723C16.5767 8.76121 16.2463 8.43094 15.8403 8.43094Z" fill="#5466F9"/>
<path d="M11.7027 17.63C10.9216 17.63 10.2861 16.9947 10.2861 16.2134C10.2861 15.4322 10.9216 14.7969 11.7027 14.7969C12.4838 14.7969 13.1193 15.4322 13.1193 16.2134C13.1193 16.9947 12.4838 17.63 11.7027 17.63ZM11.7027 15.5052C11.3121 15.5052 10.9944 15.823 10.9944 16.2134C10.9944 16.6039 11.3121 16.9217 11.7027 16.9217C12.0933 16.9217 12.411 16.6039 12.411 16.2134C12.411 15.823 12.0933 15.5052 11.7027 15.5052Z" fill="#5466F9"/>
<path d="M13.5862 20.4959H9.81961C9.42898 20.4959 9.11133 20.1781 9.11133 19.7876V18.6965C9.11133 17.7202 9.90572 16.9258 10.882 16.9258H12.5237C13.5 16.9258 14.2944 17.7202 14.2944 18.6965V19.7876C14.2944 20.1781 13.9768 20.4959 13.5862 20.4959ZM10.882 17.6341C10.2962 17.6341 9.81961 18.1106 9.81961 18.6965V19.7876H13.5862V18.6965C13.5862 18.1106 13.1096 17.6341 12.5237 17.6341H10.882Z" fill="#5466F9"/>
<path d="M22.215 20.1262H15.9616C15.766 20.1262 15.6074 19.9679 15.6074 19.7721C15.6074 19.5764 15.766 19.418 15.9616 19.418H22.215C22.4106 19.418 22.5692 19.5764 22.5692 19.7721C22.5692 19.9679 22.4106 20.1262 22.215 20.1262Z" fill="#5466F9"/>
<path d="M22.215 17.9973H15.9616C15.766 17.9973 15.6074 17.8389 15.6074 17.6432C15.6074 17.4475 15.766 17.2891 15.9616 17.2891H22.215C22.4106 17.2891 22.5692 17.4475 22.5692 17.6432C22.5692 17.8389 22.4106 17.9973 22.215 17.9973Z" fill="#5466F9"/>
<path d="M22.215 15.8723H15.9616C15.766 15.8723 15.6074 15.7139 15.6074 15.5182C15.6074 15.3225 15.766 15.1641 15.9616 15.1641H22.215C22.4106 15.1641 22.5692 15.3225 22.5692 15.5182C22.5692 15.7139 22.4106 15.8723 22.215 15.8723Z" fill="#5466F9"/>
</svg>
