<svg width="7" height="7" viewBox="0 0 7 7" fill="none" xmlns="http://www.w3.org/2000/svg">
<path d="M3.42773 6.18848C1.73632 6.18848 0.365234 4.8174 0.365234 3.12598C0.365234 1.43456 1.73632 0.0634766 3.42773 0.0634766C5.11915 0.0634766 6.49023 1.43456 6.49023 3.12598C6.49023 4.8174 5.11915 6.18848 3.42773 6.18848ZM3.42773 4.35098C3.75262 4.35098 4.06421 4.22191 4.29394 3.99218C4.52367 3.76245 4.65273 3.45087 4.65273 3.12598C4.65273 2.80109 4.52367 2.4895 4.29394 2.25977C4.06421 2.03004 3.75262 1.90098 3.42773 1.90098C3.10284 1.90098 2.79126 2.03004 2.56153 2.25977C2.3318 2.4895 2.20273 2.80109 2.20273 3.12598C2.20273 3.45087 2.3318 3.76245 2.56153 3.99218C2.79126 4.22191 3.10284 4.35098 3.42773 4.35098Z" fill="#5466F9"/>
<circle cx="3.42773" cy="3.12598" r="2.29688" fill="white"/>
</svg>
