<svg width="31" height="31" viewBox="0 0 31 31" fill="none" xmlns="http://www.w3.org/2000/svg">
<circle cx="15.7725" cy="15.8824" r="15.0469" fill="#F6F7FF"/>
<path d="M16.1302 22.8341H16.6318V22.3325V21.2577V20.7562H16.1302H15.0555H14.5539V21.2577V22.3325V22.8341H15.0555H16.1302ZM11.3296 20.1829V20.6845H11.8311H19.3546H19.8562V20.1829V9.43513V9.15762C19.9027 9.24182 19.9278 9.33718 19.9278 9.43513V22.3325C19.9278 22.4845 19.8674 22.6303 19.7599 22.7378C19.6524 22.8453 19.5066 22.9057 19.3546 22.9057H11.8311C11.6791 22.9057 11.5333 22.8453 11.4258 22.7378L11.0744 23.0892L11.4258 22.7378C11.3183 22.6303 11.2579 22.4845 11.2579 22.3325V9.43513C11.2579 9.33719 11.283 9.24182 11.3296 9.15762V9.43513V20.1829ZM11.5536 8.93357C11.6378 8.88698 11.7332 8.86192 11.8311 8.86192H19.3546C19.4525 8.86192 19.5479 8.88698 19.6321 8.93357H19.3546H11.8311H11.5536Z" stroke="#5466F9" stroke-width="1.00313"/>
</svg>
