<svg width="46" height="31" viewBox="0 0 46 31" fill="none" xmlns="http://www.w3.org/2000/svg">
<path opacity="0.5" d="M30.4762 30.8024C27.5199 30.8028 24.6299 29.9266 22.1716 28.2846C19.7134 26.6426 17.7972 24.3084 16.6655 21.5774C15.5338 18.8463 15.2373 15.841 15.8136 12.9415C16.3899 10.0419 17.8131 7.37838 19.9032 5.28768C21.9933 3.19698 24.6564 1.77302 27.5557 1.19585C30.4551 0.61868 33.4605 0.914235 36.1919 2.04514C38.9233 3.17604 41.258 5.0915 42.9008 7.5493C44.5436 10.0071 45.4206 12.8968 45.4211 15.8531V15.8553C45.4169 19.8179 43.8411 23.617 41.0394 26.4192C38.2376 29.2213 34.4387 30.7977 30.4762 30.8024Z" fill="black"/>
<path d="M15.931 30.8024C12.9747 30.8024 10.0849 29.9258 7.62683 28.2834C5.16879 26.641 3.25298 24.3065 2.12167 21.5753C0.990363 18.8441 0.694361 15.8387 1.2711 12.9393C1.84783 10.0398 3.27141 7.3765 5.3618 5.28611C7.45219 3.19572 10.1155 1.77215 13.015 1.19541C15.9144 0.618677 18.9198 0.91468 21.651 2.04599C24.3822 3.1773 26.7166 5.09311 28.359 7.55114C30.0015 10.0092 30.8781 12.899 30.8781 15.8553C30.874 19.8183 29.2979 23.6177 26.4956 26.42C23.6934 29.2222 19.8939 30.7983 15.931 30.8024Z" fill="black"/>
</svg>
