<svg width="63" height="63" viewBox="0 0 63 63" fill="none" xmlns="http://www.w3.org/2000/svg">
<circle cx="31.7102" cy="31.6443" r="30.9236" fill="#F6F7FF"/>
<g clip-path="url(#clip0_10_15973)">
<path d="M34.7243 8.2228C33.7966 7.91357 32.8689 7.68164 31.8639 7.68164H31.6319C30.5496 7.68164 29.5446 7.83626 28.5396 8.2228L11.6089 14.021V34.8944C11.6089 42.0842 15.397 48.6554 21.5818 52.289C23.1279 53.2167 24.7514 53.8351 26.4522 54.299C28.153 54.7629 29.8538 54.9948 31.6319 54.9948C31.7092 54.9948 31.7865 54.9948 31.8639 54.9948C35.2655 54.9948 38.5897 54.0671 41.6048 52.289C44.6972 50.5109 47.171 47.9597 48.9492 44.9446C50.65 41.9296 51.655 38.528 51.655 34.8944V14.021L34.7243 8.2228ZM48.6399 34.8944C48.6399 40.9245 45.3929 46.6454 40.1359 49.6605C39.8267 49.8151 39.4401 50.047 39.1309 50.2016C38.8217 50.3562 38.5124 50.5109 38.2032 50.6655C37.9713 50.7428 37.7393 50.8201 37.4301 50.9747C37.3528 50.9747 37.1982 50.9747 37.1209 51.052C36.9663 51.1293 36.7343 51.2066 36.5797 51.2066C36.4251 51.2839 36.2705 51.2839 36.1159 51.3613C35.8066 51.4386 35.4201 51.5159 35.1108 51.5932C34.9562 51.5932 34.8789 51.6705 34.7243 51.6705C34.647 51.6705 34.5697 51.6705 34.4924 51.6705C34.3377 51.7478 34.1831 51.7478 34.0285 51.7478C33.8739 51.7478 33.7966 51.8251 33.642 51.8251C33.5647 51.8251 33.4873 51.8251 33.41 51.8251C33.2554 51.8251 33.1008 51.8251 32.9462 51.8251C32.7916 51.8251 32.5596 51.8251 32.405 51.8251C32.2504 51.8251 32.0185 51.8251 31.8639 51.8251C31.7865 51.8251 31.7092 51.8251 31.6319 51.8251C28.6169 51.8251 25.6791 51.052 23.1279 49.5058C17.8709 46.4908 14.6239 40.8472 14.6239 34.7398V16.1856L29.5446 11.0059C30.3177 10.774 31.0908 10.6194 31.8639 10.6194H31.9412C32.0185 10.6194 32.0958 10.6194 32.1731 10.6194C32.2504 10.6194 32.3277 10.6194 32.405 10.6194C32.4823 10.6194 32.5596 10.6194 32.6369 10.6967C33.0235 10.774 33.3327 10.8513 33.7193 10.9286L48.6399 16.1856V34.8944Z" fill="#5466F9"/>
<path d="M47.8658 16.7277V34.8953C47.8658 40.6935 44.6188 46.1052 39.3618 48.9656C38.7433 49.3521 38.0476 49.5841 37.4291 49.8933C37.2745 49.9706 37.1198 50.0479 36.9652 50.0479C36.8106 50.1252 36.5787 50.2025 36.4241 50.2025C36.2694 50.2798 36.1148 50.2798 35.9602 50.3572C35.7283 50.4345 35.419 50.5118 35.1871 50.5891C35.0325 50.5891 34.8779 50.6664 34.7233 50.6664C34.5686 50.6664 34.414 50.7437 34.3367 50.7437C34.1821 50.7437 34.1048 50.821 33.9502 50.821C33.8729 50.821 33.7956 50.821 33.7182 50.8983C33.6409 50.8983 33.4863 50.8983 33.409 50.9756C33.3317 50.9756 33.1771 50.9756 33.0998 51.0529C32.9452 51.0529 32.7905 51.0529 32.6359 51.1302C32.4813 51.1302 32.3267 51.1302 32.1721 51.1302C32.0948 51.1302 32.0174 51.1302 31.9401 51.1302C31.8628 51.1302 31.7855 51.1302 31.7082 51.1302C31.5536 51.1302 31.399 51.1302 31.2444 51.1302H31.167C30.7805 51.1302 30.394 51.1302 29.9301 51.0529C27.6881 50.821 25.5235 50.1252 23.5134 48.9656C18.4884 46.1052 15.396 40.6935 15.396 34.8953V16.7277L29.7755 11.7799C29.7755 11.7799 29.8528 11.7799 29.8528 11.7026C30.0074 11.6253 30.2393 11.6253 30.394 11.548C30.6259 11.4707 30.8578 11.4707 31.0897 11.4707C31.167 11.4707 31.2444 11.4707 31.2444 11.4707C31.2444 11.4707 31.3217 11.4707 31.399 11.4707C31.4763 11.4707 31.4763 11.4707 31.5536 11.4707C31.6309 11.4707 31.7082 11.4707 31.8628 11.548C31.9401 11.548 31.9401 11.548 32.0174 11.548C32.1721 11.548 32.2494 11.6253 32.404 11.6253C32.5586 11.6253 32.6359 11.7026 32.7905 11.7799L33.409 12.0119L47.8658 16.7277Z" fill="#5466F9"/>
<path d="M31.8641 11.4707V11.548C31.7868 11.548 31.6322 11.548 31.5548 11.4707C31.4775 11.4707 31.4775 11.4707 31.4002 11.4707C31.3229 11.4707 31.3229 11.4707 31.2456 11.4707C31.4775 11.4707 31.7095 11.4707 31.8641 11.4707Z" fill="#5466F9"/>
<path d="M48.6407 16.187V34.8958C48.6407 36.8285 48.3314 38.684 47.713 40.3848C48.3314 38.6066 48.6407 36.7512 48.6407 34.8958V16.187ZM33.1789 10.8527C33.3335 10.93 33.5654 10.93 33.72 11.0073L48.6407 16.187L33.72 11.0073C33.5654 10.93 33.4108 10.93 33.1789 10.8527ZM43.1517 46.4149C42.6879 46.956 42.1467 47.3426 41.5282 47.8064C42.0694 47.3426 42.6106 46.8787 43.1517 46.4149ZM35.4208 50.7442C35.4981 50.7442 35.6527 50.6669 35.7301 50.6669C35.962 50.5896 36.2712 50.5122 36.5031 50.4349C36.2712 50.5122 36.0393 50.5896 35.7301 50.6669C35.6527 50.6669 35.4981 50.6669 35.4208 50.7442ZM34.4931 50.8988H34.5704C34.6477 50.8988 34.725 50.8215 34.8797 50.8215C34.8023 50.8215 34.725 50.8215 34.5704 50.8988H34.4931ZM32.7923 51.1307C32.6377 51.1307 32.5604 51.1307 32.4058 51.1307C32.5604 51.1307 32.6377 51.1307 32.7923 51.1307C32.9469 51.1307 33.1015 51.1307 33.2562 51.1307C33.3335 51.1307 33.4108 51.1307 33.4881 51.1307C33.4108 51.1307 33.3335 51.1307 33.2562 51.1307C33.1015 51.1307 32.9469 51.1307 32.7923 51.1307ZM33.1789 10.8527C33.0242 10.7754 32.8696 10.7754 32.6377 10.7754C32.5604 10.7754 32.5604 10.7754 32.4831 10.7754C32.5604 10.7754 32.5604 10.7754 32.6377 10.7754C32.8696 10.7754 33.0242 10.7754 33.1789 10.8527Z" fill="white"/>
<path d="M33.719 11.0073C33.5644 10.93 33.4098 10.8527 33.1779 10.8527C33.0233 10.7754 32.8686 10.7754 32.6367 10.7754C32.6367 10.7754 32.5594 10.7754 32.4821 10.7754C32.4048 10.7754 32.4048 10.7754 32.3275 10.7754C32.2502 10.7754 32.1729 10.7754 32.0955 10.7754C32.0182 10.7754 31.9409 10.7754 31.8636 10.7754H31.7863C31.0132 10.7754 30.1628 10.8527 29.467 11.1619L14.5464 16.187V34.8958C14.5464 41.0032 17.7934 46.6468 23.0504 49.6618C25.6016 51.1307 28.6166 51.9811 31.5544 51.9811H31.7863C31.9409 51.9811 32.1729 51.9811 32.3275 51.9811C32.4048 51.9811 32.4821 51.9811 32.6367 51.9811C32.714 51.9811 32.7913 51.9811 32.8686 51.9811C33.0233 51.9811 33.1779 51.9811 33.3325 51.9038C33.4098 51.9038 33.4871 51.9038 33.5644 51.9038C33.719 51.9038 33.8736 51.9038 33.951 51.8265C34.1056 51.8265 34.2602 51.8265 34.4148 51.7492C34.4921 51.7492 34.5694 51.7492 34.6467 51.7492C34.8014 51.7492 34.8787 51.6719 34.956 51.6719C35.3425 51.5946 35.6518 51.5173 35.961 51.44C36.1156 51.44 36.2702 51.3626 36.4248 51.2853C36.5795 51.208 36.8114 51.1307 36.966 51.1307C37.1206 51.0534 37.1979 51.0534 37.3526 50.9761C37.5845 50.8988 37.8164 50.8215 38.0483 50.6669C38.3576 50.5122 38.6668 50.3576 38.976 50.203C39.2853 50.0484 39.6718 49.8938 39.9811 49.6618C41.2953 48.8888 42.455 47.961 43.5373 46.956C45.3927 45.1006 46.7843 42.8587 47.5574 40.4621C48.1758 38.684 48.4851 36.8285 48.4851 34.9731V16.187L33.719 11.0073ZM47.8666 34.8958C47.8666 35.2824 47.8666 35.6689 47.7893 36.0555C47.7893 36.5193 47.712 37.0605 47.6347 37.5243C47.6347 37.6016 47.6347 37.6016 47.6347 37.6789C47.5574 37.9882 47.5574 38.2201 47.48 38.5293C47.3254 39.2251 47.0935 39.9982 46.8616 40.694C46.707 41.1579 46.475 41.699 46.2431 42.1629C45.47 43.709 44.465 45.1779 43.228 46.4149C42.7642 46.956 42.223 47.3426 41.6046 47.8064C41.0634 48.2703 40.4449 48.6568 39.8264 49.0434C39.208 49.3526 38.5895 49.6618 37.971 49.9711C37.8164 50.0484 37.6618 50.1257 37.5845 50.1257C37.4299 50.203 37.1979 50.2803 37.0433 50.3576C36.8887 50.4349 36.7341 50.4349 36.5795 50.5122C36.3475 50.5896 36.1156 50.6669 35.8064 50.7442C35.7291 50.7442 35.5744 50.8215 35.4971 50.8215H35.4198C35.2652 50.8215 35.1879 50.8988 35.0333 50.8988C35.0333 50.8988 35.0333 50.8988 34.956 50.8988C34.8787 50.8988 34.8014 50.8988 34.6467 50.9761H34.5694H34.4921C34.4148 50.9761 34.2602 50.9761 34.1829 51.0534C34.1056 51.0534 33.951 51.0534 33.8736 51.1307C33.7963 51.1307 33.719 51.1307 33.6417 51.1307C33.5644 51.1307 33.4871 51.1307 33.4098 51.1307C33.2552 51.1307 33.1006 51.1307 32.9459 51.1307C32.7913 51.1307 32.714 51.1307 32.5594 51.1307C32.4048 51.1307 32.1729 51.1307 32.0182 51.1307H31.7863C28.9259 51.1307 26.1427 50.3576 23.6689 48.9661C18.4891 46.1056 15.3968 40.694 15.3968 34.8958V16.7282L29.7763 11.7804C30.0082 11.7031 30.1628 11.6258 30.3947 11.5485C30.8586 11.4712 31.3225 11.3939 31.8636 11.3939C31.9409 11.3939 32.0955 11.3939 32.1729 11.3939C32.2502 11.3939 32.2502 11.3939 32.3275 11.3939C32.4048 11.3939 32.4821 11.3939 32.6367 11.4712H32.7913C32.8686 11.4712 33.0233 11.5485 33.1006 11.5485C33.2552 11.5485 33.3325 11.6258 33.4871 11.7031L47.8666 16.6509V34.8958Z" fill="white"/>
<path d="M32.4059 51.9043C32.4832 51.9043 32.5605 51.9043 32.7151 51.9043H32.4059C32.2513 51.9043 32.0194 51.9043 31.8647 51.9043C32.0194 51.9816 32.2513 51.9816 32.4059 51.9043Z" fill="white"/>
<path d="M37.4302 50.901C37.6621 50.8237 37.8941 50.7464 38.126 50.5918C37.9714 50.7464 37.7394 50.8237 37.4302 50.901C37.2756 50.9783 37.1983 50.9783 37.0437 51.0557C36.889 51.133 36.6571 51.2103 36.5025 51.2103C36.3479 51.2876 36.1933 51.2876 36.0386 51.3649C35.7294 51.4422 35.3429 51.5195 35.0336 51.5968C34.879 51.5968 34.8017 51.6741 34.6471 51.6741C34.5698 51.6741 34.4925 51.6741 34.4152 51.6741C34.3378 51.7514 34.1832 51.7514 34.0286 51.7514C33.874 51.7514 33.7967 51.8287 33.6421 51.8287C33.5648 51.8287 33.4874 51.8287 33.4101 51.8287C33.2555 51.8287 33.1009 51.8287 32.9463 51.8287C32.869 51.8287 32.7917 51.8287 32.7144 51.8287C32.7917 51.8287 32.869 51.8287 32.9463 51.8287C33.1009 51.8287 33.2555 51.8287 33.4101 51.7514C33.4874 51.7514 33.5648 51.7514 33.6421 51.7514C33.7967 51.7514 33.9513 51.7514 34.0286 51.6741C34.1832 51.6741 34.3378 51.6741 34.4925 51.5968C34.5698 51.5968 34.6471 51.5968 34.7244 51.5968C34.879 51.5968 34.9563 51.5195 35.0336 51.5195C35.4202 51.4422 35.7294 51.3649 36.0386 51.2876C36.1933 51.2876 36.3479 51.2103 36.5025 51.133C36.6571 51.0557 36.889 50.9783 37.0437 50.9783C37.1983 50.9783 37.3529 50.9783 37.4302 50.901Z" fill="white"/>
<path d="M40.1373 49.6609C41.4516 48.8878 42.6112 47.9601 43.6935 46.9551C42.6885 47.9601 41.4516 48.8878 40.1373 49.6609C39.8281 49.8928 39.5188 50.0474 39.1323 50.2021C38.8231 50.3567 38.5138 50.5113 38.2046 50.5886C38.5138 50.434 38.8231 50.2794 39.1323 50.1248C39.5188 50.0474 39.8281 49.8928 40.1373 49.6609Z" fill="white"/>
<path d="M46.1675 42.0841C46.3994 41.6203 46.6313 41.1564 46.786 40.6152C46.6313 41.1564 46.3994 41.6203 46.1675 42.0841Z" fill="white"/>
<path d="M47.6362 37.5255C47.7135 37.0617 47.7908 36.5205 47.7908 36.0566C47.7908 36.5205 47.7135 37.0617 47.6362 37.5255Z" fill="white"/>
<path d="M33.4878 11.7793L47.8673 16.7271L33.4878 11.7793Z" fill="white"/>
</g>
<path d="M36.9283 30.6767H35.962V27.7776C35.962 25.6516 34.2225 23.9121 32.0965 23.9121C29.9705 23.9121 28.2311 25.6516 28.2311 27.7776V30.6767H27.2647C26.7815 30.6767 26.2983 31.1598 26.2983 31.643V38.4076C26.2983 38.8907 26.7815 39.3739 27.2647 39.3739H36.9283C37.4115 39.3739 37.8947 38.8907 37.8947 38.4076V31.643C37.8947 31.1598 37.4115 30.6767 36.9283 30.6767ZM33.0629 37.4412H31.1302L31.5167 35.3152C31.0335 35.1219 30.647 34.5421 30.647 34.0589C30.647 33.2858 31.3234 32.6094 32.0965 32.6094C32.8696 32.6094 33.5461 33.2858 33.5461 34.0589C33.5461 34.6387 33.2562 35.1219 32.6763 35.3152L33.0629 37.4412ZM34.0292 30.6767H30.1638V27.7776C30.1638 26.7146 31.0335 25.8448 32.0965 25.8448C33.1595 25.8448 34.0292 26.7146 34.0292 27.7776V30.6767Z" fill="white"/>
<defs>
<clipPath id="clip0_10_15973">
<rect width="40.2007" height="47.9316" fill="white" transform="translate(11.6089 7.68164)"/>
</clipPath>
</defs>
</svg>
