<svg width="31" height="31" viewBox="0 0 31 31" fill="none" xmlns="http://www.w3.org/2000/svg">
<circle cx="15.6101" cy="15.2316" r="15.0319" fill="#F6F7FF"/>
<path d="M20.9252 22.7473H12.5171C11.9914 22.7473 11.5637 22.3196 11.5637 21.7937V20.4739H19.2782C19.4585 20.4739 19.6052 20.3271 19.6052 20.1468V11.2559H20.9252C21.4509 11.2559 21.8786 11.6836 21.8786 12.2093V21.7937C21.8786 22.3196 21.4509 22.7473 20.9252 22.7473ZM12.1901 21.1002V21.7937C12.1901 21.9741 12.3368 22.1209 12.5171 22.1209H20.9252C21.1055 22.1209 21.2523 21.9741 21.2523 21.7937V12.2093C21.2523 12.029 21.1055 11.8822 20.9252 11.8822H20.2316V20.1468C20.2316 20.6725 19.8039 21.1002 19.2782 21.1002H12.1901Z" fill="#5466F9"/>
<path d="M19.279 21.1049H10.5507C10.025 21.1049 9.59729 20.6772 9.59729 20.1515V10.2469C9.59729 9.72115 10.025 9.29346 10.5507 9.29346H19.279C19.8047 9.29346 20.2324 9.72115 20.2324 10.2469V20.1515C20.2324 20.6772 19.8047 21.1049 19.279 21.1049ZM10.5507 9.91979C10.3704 9.91979 10.2236 10.0666 10.2236 10.2469V20.1515C10.2236 20.3318 10.3704 20.4786 10.5507 20.4786H19.279C19.4592 20.4786 19.606 20.3318 19.606 20.1515V10.2469C19.606 10.0666 19.4592 9.91979 19.279 9.91979H10.5507Z" fill="#5466F9"/>
<path d="M12.7364 13.0661C12.1299 13.0661 11.6365 12.5727 11.6365 11.9661V8.81865C11.6365 8.2122 12.1299 7.71875 12.7364 7.71875C13.343 7.71875 13.8364 8.2122 13.8364 8.81865V9.60554C13.8364 9.77848 13.6962 9.91871 13.5233 9.91871C13.3503 9.91871 13.2101 9.77848 13.2101 9.60554V8.81865C13.2101 8.55748 12.9976 8.34508 12.7364 8.34508C12.4752 8.34508 12.2628 8.55748 12.2628 8.81865V11.9661C12.2628 12.2272 12.4752 12.4398 12.7364 12.4398C12.9976 12.4398 13.2101 12.2272 13.2101 11.9661V11.0905C13.2101 10.9175 13.3503 10.7773 13.5233 10.7773C13.6962 10.7773 13.8364 10.9175 13.8364 11.0905V11.9661C13.8364 12.5727 13.343 13.0661 12.7364 13.0661Z" fill="#5466F9"/>
<path d="M17.8824 15.1874H11.9446C11.7717 15.1874 11.6315 15.0471 11.6315 14.8742C11.6315 14.7013 11.7717 14.561 11.9446 14.561H17.8824C18.0553 14.561 18.1956 14.7013 18.1956 14.8742C18.1956 15.0471 18.0553 15.1874 17.8824 15.1874Z" fill="#5466F9"/>
<path d="M17.8824 17.0687H11.9446C11.7717 17.0687 11.6315 16.9285 11.6315 16.7555C11.6315 16.5826 11.7717 16.4424 11.9446 16.4424H17.8824C18.0553 16.4424 18.1956 16.5826 18.1956 16.7555C18.1956 16.9285 18.0553 17.0687 17.8824 17.0687Z" fill="#5466F9"/>
<path d="M17.8824 18.9457H11.9446C11.7717 18.9457 11.6315 18.8054 11.6315 18.6325C11.6315 18.4596 11.7717 18.3193 11.9446 18.3193H17.8824C18.0553 18.3193 18.1956 18.4596 18.1956 18.6325C18.1956 18.8054 18.0553 18.9457 17.8824 18.9457Z" fill="#5466F9"/>
</svg>
