<svg width="255" height="162" viewBox="0 0 255 162" fill="none" xmlns="http://www.w3.org/2000/svg">
<g filter="url(#filter0_ddd_10_15922)">
<rect x="19.4077" y="7.16992" width="216.465" height="123.694" rx="6.18472" fill="white"/>
</g>
<path d="M185.384 79.9555C186.226 95.4736 155.887 127.028 118.492 115.349C101.1 109.916 102.573 100.9 89.3481 89.0166C81.4654 81.9343 70.1393 76.5786 66.9893 66.2838C64.2681 57.3977 65.9369 47.8467 70.6546 41.6343C81.265 27.663 102.685 18.0958 123.791 40.109C144.897 62.1219 183.207 39.9334 185.384 79.9555Z" fill="#F6F7FF"/>
<path d="M176.482 45.2687C173.641 50.3393 167.419 51.0361 157.45 50.0726C149.953 49.3464 143.116 48.7846 135.618 44.6967C130.369 41.8375 126.215 37.969 123.183 34.2116C119.898 30.1414 115.312 25.4961 117.56 20.881C120.649 14.5413 138.516 9.20205 155.865 17.9334C174.923 27.528 179.262 40.3129 176.482 45.2687Z" fill="#F6F7FF"/>
<path d="M101.163 111.981C93.768 101.635 86.1944 90.6394 76.2788 85.2236C66.0515 79.6346 64.1653 83.0792 63.4573 88.5555C62.7493 94.0317 65.9048 107.007 79.8624 114.39C93.8236 121.774 108.083 121.664 101.163 111.981Z" fill="#F6F7FF"/>
<path d="M186.951 47.092C185.324 44.0899 187.127 39.9629 187.127 39.9629C187.127 39.9629 191.567 40.7053 193.191 43.7089C194.818 46.7107 193.017 50.8362 193.017 50.8362C193.017 50.8362 188.577 50.0939 186.951 47.092Z" fill="#F6F7FF"/>
<path d="M101.803 22.5754C105.3 24.9846 110.644 23.3006 110.644 23.3006C110.644 23.3006 110.313 17.711 106.813 15.3041C103.315 12.895 97.9741 14.5769 97.9741 14.5769C97.9741 14.5769 98.3048 20.1663 101.803 22.5754Z" fill="#F6F7FF"/>
<path d="M156.362 34.2885C160.154 38.1478 167.245 37.3342 167.245 37.3342C167.245 37.3342 168.183 30.2631 164.387 26.4063C160.596 22.547 153.509 23.3581 153.509 23.3581C153.509 23.3581 152.57 30.4292 156.362 34.2885Z" fill="#F6F7FF"/>
<path d="M172.678 84.1309C171.121 84.1309 169.859 85.3376 169.859 86.8262C169.859 88.3148 171.121 89.5215 172.678 89.5215C174.234 89.5215 175.496 88.3148 175.496 86.8262C175.496 85.3376 174.234 84.1309 172.678 84.1309Z" fill="#F6F7FF"/>
<path d="M130.203 104.322C128.552 104.322 127.214 105.66 127.214 107.31C127.214 108.961 128.552 110.299 130.203 110.299C131.853 110.299 133.191 108.961 133.191 107.31C133.191 105.66 131.853 104.322 130.203 104.322Z" fill="#F6F7FF"/>
<path d="M81.3792 97.7838C79.2816 97.7838 77.5812 99.4293 77.5812 101.459C77.5812 103.489 79.2816 105.135 81.3792 105.135C83.4768 105.135 85.1772 103.489 85.1772 101.459C85.1772 99.4293 83.4768 97.7838 81.3792 97.7838Z" fill="#F6F7FF"/>
<path d="M71.476 56.6858C70.7316 56.6858 70.1282 56.0824 70.1282 55.338C70.1282 54.5937 70.7316 53.9902 71.476 53.9902C72.2203 53.9902 72.8237 54.5937 72.8237 55.338C72.8237 56.0824 72.2203 56.6858 71.476 56.6858Z" fill="#F6F7FF"/>
<path d="M138.257 28.7808C136.836 28.7808 135.684 27.6288 135.684 26.2078C135.684 24.7867 136.836 23.6348 138.257 23.6348C139.678 23.6348 140.83 24.7867 140.83 26.2078C140.83 27.6288 139.678 28.7808 138.257 28.7808Z" fill="#F6F7FF"/>
<path d="M169.493 112.801C168.072 112.801 166.92 111.704 166.92 110.351C166.92 108.998 168.072 107.9 169.493 107.9C170.914 107.9 172.066 108.998 172.066 110.351C172.066 111.704 170.914 112.801 169.493 112.801Z" fill="#F6F7FF"/>
<path d="M58.437 80.5826C56.9484 80.5826 55.7417 79.4855 55.7417 78.1321C55.7417 76.7788 56.9484 75.6816 58.437 75.6816C59.9256 75.6816 61.1323 76.7788 61.1323 78.1321C61.1323 79.4855 59.9256 80.5826 58.437 80.5826Z" fill="#F6F7FF"/>
<path d="M91.0464 112.924C90.0507 112.924 89.2436 112.117 89.2436 111.121C89.2436 110.125 90.0507 109.318 91.0464 109.318C92.042 109.318 92.8491 110.125 92.8491 111.121C92.8491 112.117 92.042 112.924 91.0464 112.924Z" fill="#F6F7FF"/>
<path d="M153.932 27.2845C153.256 27.2845 152.707 26.7359 152.707 26.0592C152.707 25.3825 153.256 24.834 153.932 24.834C154.609 24.834 155.158 25.3825 155.158 26.0592C155.158 26.7359 154.609 27.2845 153.932 27.2845Z" fill="#F6F7FF"/>
<path d="M76.8628 68.8707C77.0339 69.5095 76.6549 70.1661 76.0161 70.3372C75.3774 70.5084 74.7208 70.1293 74.5496 69.4905C74.3785 68.8518 74.7576 68.1952 75.3963 68.0241C76.0351 67.8529 76.6916 68.232 76.8628 68.8707Z" fill="#F6F7FF"/>
<path d="M77.1118 43.6993C76.2321 43.6993 75.5189 42.9862 75.5189 42.1065C75.5189 41.2268 76.2321 40.5137 77.1118 40.5137C77.9915 40.5137 78.7046 41.2268 78.7046 42.1065C78.7046 42.9862 77.9915 43.6993 77.1118 43.6993Z" fill="#F6F7FF"/>
<path d="M174.516 71.392C173.84 71.392 173.291 70.9532 173.291 70.4118C173.291 69.8705 173.84 69.4316 174.516 69.4316C175.193 69.4316 175.742 69.8705 175.742 70.4118C175.742 70.9532 175.193 71.392 174.516 71.392Z" fill="#F6F7FF"/>
<path d="M124.967 15.6174C125.292 16.8286 124.573 18.0736 123.362 18.3981C122.151 18.7227 120.906 18.0039 120.581 16.7927C120.257 15.5815 120.976 14.3365 122.187 14.012C123.398 13.6874 124.643 14.4062 124.967 15.6174Z" fill="#F6F7FF"/>
<path d="M192.141 69.9222H192.173C192.363 72.6113 194.363 72.6526 194.363 72.6526C194.363 72.6526 192.158 72.6957 192.158 75.8029C192.158 72.6957 189.952 72.6526 189.952 72.6526C189.952 72.6526 191.951 72.6113 192.141 69.9222ZM189.954 84.1518H189.979C190.128 86.2716 191.705 86.3042 191.705 86.3042C191.705 86.3042 189.966 86.3381 189.966 88.7876C189.966 86.3381 188.228 86.3042 188.228 86.3042C188.228 86.3042 189.804 86.2716 189.954 84.1518ZM61.0896 31.1074H61.1314C61.3792 34.6746 63.9901 34.7296 63.9901 34.7296C63.9901 34.7296 61.111 34.7867 61.111 38.9087C61.111 34.7867 58.2319 34.7296 58.2319 34.7296C58.2319 34.7296 60.8418 34.6746 61.0896 31.1074Z" fill="#F6F7FF"/>
<path d="M199.683 124.833H165.721L162.903 117.254C161.905 114.57 159.863 112.411 157.252 111.23C154.792 110.119 151.481 108.1 148.273 104.501C142.028 97.4969 138.714 89.984 138.714 89.984L159.762 89.8806C159.762 89.8806 157.868 78.1165 168.329 62.4928C169.446 60.819 169.959 58.814 169.783 56.8091L168.792 45.414C168.792 45.414 161.683 37.4758 166.044 27.6285C166.044 27.6285 170.214 21.8588 171.869 23.9706C171.869 23.9706 184.467 53.9462 185.614 58.4031C186.761 62.8601 188.29 65.662 186.761 79.6697C186.356 83.3783 186.21 86.4704 186.215 89.0137C186.226 93.8956 187.316 98.7147 189.406 103.127L199.683 124.833Z" fill="#EB996E"/>
<path d="M65.4097 86.3031V41.2839C65.4097 37.9314 68.1249 35.2129 71.4757 35.2129H163.409C166.786 35.2129 169.475 37.96 169.475 41.2839V86.3031C169.475 89.6546 166.761 92.3738 163.409 92.3738H71.4747C68.0945 92.3738 65.4097 89.6232 65.4097 86.3031Z" fill="#5466F9"/>
<path fill-rule="evenodd" clip-rule="evenodd" d="M97.5368 71.0107V72.1791C97.5368 72.8244 97.02 73.3479 96.3835 73.3479H82.5454C81.9088 73.3479 81.3921 72.8244 81.3921 72.1791V70.992C81.3921 67.4559 85.3799 65.1586 89.4643 65.1586C93.549 65.1586 97.5368 67.4572 97.5368 70.992V71.0107ZM92.3598 54.8926C93.9589 56.4917 93.9589 59.0842 92.3598 60.6832C90.7608 62.2825 88.1681 62.2825 86.569 60.6832C84.97 59.0842 84.97 56.4917 86.569 54.8926C88.1681 53.2936 90.7608 53.2936 92.3598 54.8926Z" fill="white"/>
<path d="M157.904 53.6465H105.897C104.973 53.6465 104.224 54.3954 104.224 55.3192C104.224 56.2431 104.973 56.992 105.897 56.992H157.904C158.828 56.992 159.577 56.2431 159.577 55.3192C159.577 54.3954 158.828 53.6465 157.904 53.6465Z" fill="white"/>
<path d="M157.904 61.8574H105.897C104.973 61.8574 104.224 62.6063 104.224 63.5302C104.224 64.454 104.973 65.203 105.897 65.203H157.904C158.828 65.203 159.577 64.454 159.577 63.5302C159.577 62.6063 158.828 61.8574 157.904 61.8574Z" fill="white"/>
<path d="M157.904 70.0645H105.897C104.973 70.0645 104.224 70.8134 104.224 71.7372C104.224 72.6611 104.973 73.41 105.897 73.41H157.904C158.828 73.41 159.577 72.6611 159.577 71.7372C159.577 70.8134 158.828 70.0645 157.904 70.0645Z" fill="white"/>
<path d="M170.405 52.2935C170.405 52.2935 170.134 53.3011 169.52 53.7979L168.791 45.4172C168.791 45.4172 163.562 39.5776 164.825 31.7029C165.258 29.0068 166.6 26.5259 168.652 24.7232C169.824 23.6942 171.111 23.0066 171.869 23.9748C171.869 23.9748 177.794 38.0709 181.886 48.3675L170.405 52.2935Z" fill="#EB996E"/>
<defs>
<filter id="filter0_ddd_10_15922" x="0.853542" y="0.985198" width="253.574" height="160.803" filterUnits="userSpaceOnUse" color-interpolation-filters="sRGB">
<feFlood flood-opacity="0" result="BackgroundImageFix"/>
<feColorMatrix in="SourceAlpha" type="matrix" values="0 0 0 0 0 0 0 0 0 0 0 0 0 0 0 0 0 0 127 0" result="hardAlpha"/>
<feOffset/>
<feGaussianBlur stdDeviation="0.386545"/>
<feColorMatrix type="matrix" values="0 0 0 0 0 0 0 0 0 0 0 0 0 0 0 0 0 0 0.04 0"/>
<feBlend mode="normal" in2="BackgroundImageFix" result="effect1_dropShadow_10_15922"/>
<feColorMatrix in="SourceAlpha" type="matrix" values="0 0 0 0 0 0 0 0 0 0 0 0 0 0 0 0 0 0 127 0" result="hardAlpha"/>
<feOffset dy="1.54618"/>
<feGaussianBlur stdDeviation="2.31927"/>
<feColorMatrix type="matrix" values="0 0 0 0 0 0 0 0 0 0 0 0 0 0 0 0 0 0 0.04 0"/>
<feBlend mode="normal" in2="effect1_dropShadow_10_15922" result="effect2_dropShadow_10_15922"/>
<feColorMatrix in="SourceAlpha" type="matrix" values="0 0 0 0 0 0 0 0 0 0 0 0 0 0 0 0 0 0 127 0" result="hardAlpha"/>
<feOffset dy="12.3694"/>
<feGaussianBlur stdDeviation="9.27709"/>
<feColorMatrix type="matrix" values="0 0 0 0 0 0 0 0 0 0 0 0 0 0 0 0 0 0 0.06 0"/>
<feBlend mode="normal" in2="effect2_dropShadow_10_15922" result="effect3_dropShadow_10_15922"/>
<feBlend mode="normal" in="SourceGraphic" in2="effect3_dropShadow_10_15922" result="shape"/>
</filter>
</defs>
</svg>
