<svg width="110" height="40" viewBox="0 0 110 40" fill="none" xmlns="http://www.w3.org/2000/svg">
<path d="M105.777 38.8704C107.741 38.8704 109.213 36.9815 109.213 34.8036V5.1485C109.213 2.96964 107.727 1.08172 105.777 1.08172H4.58187C2.63248 1.08172 1.14617 2.96964 1.14617 5.1485V34.8036C1.14617 36.9993 2.63331 38.8704 4.58187 38.8704H105.777Z" fill="#020838" stroke="#A6A6A6" stroke-width="0.68032"/>
<path d="M25.0699 18.8672C25.0436 16.2669 27.1948 14.9931 27.2997 14.9405C26.0799 13.1676 24.1911 12.9181 23.5221 12.905C21.935 12.7342 20.4003 13.8505 19.5871 13.8505C18.7607 13.8505 17.5146 12.9181 16.1767 12.9444C14.4453 12.9706 12.832 13.9687 11.9531 15.5315C10.1299 18.6964 11.4941 23.3585 13.2386 25.9194C14.1174 27.1801 15.1405 28.5722 16.4784 28.5196C17.7901 28.4671 18.2754 27.6792 19.8625 27.6792C21.4234 27.6792 21.8956 28.5196 23.2598 28.4802C24.6633 28.454 25.5552 27.2195 26.3947 25.9588C27.4047 24.5273 27.8113 23.109 27.8244 23.0302C27.7982 23.0171 25.0961 21.9796 25.0699 18.8672Z" fill="white"/>
<path d="M22.4852 11.2108C23.1935 10.331 23.6788 9.12275 23.5345 7.91455C22.5114 7.95395 21.2391 8.62371 20.5046 9.49046C19.8487 10.2522 19.2716 11.4998 19.429 12.6686C20.5833 12.7473 21.7507 12.0776 22.4852 11.2108Z" fill="white"/>
<path d="M44.0626 28.324H42.2263L41.2294 25.1722H37.7272L36.7697 28.324H34.9858L38.4355 17.5815H40.5736L44.0626 28.324ZM40.9146 23.8458L40.0095 21.0354C39.9177 20.7465 39.7341 20.0767 39.4718 19.013H39.4455C39.3406 19.4726 39.1701 20.1424 38.934 21.0354L38.042 23.8458H40.9146Z" fill="white"/>
<path d="M52.9313 24.3568C52.9313 25.6701 52.5771 26.7207 51.8557 27.4824C51.213 28.1653 50.4128 28.5067 49.4684 28.5067C48.4453 28.5067 47.7108 28.139 47.2648 27.4036V31.4747H45.5465V23.1355C45.5465 22.3081 45.5203 21.4545 45.481 20.5878H46.9894L47.0812 21.8222H47.1074C47.6846 20.903 48.5503 20.4302 49.7177 20.4302C50.6358 20.4302 51.3966 20.7848 52 21.5202C52.6164 22.2293 52.9313 23.1749 52.9313 24.3568ZM51.1736 24.4225C51.1736 23.6739 51.0031 23.0436 50.6621 22.5577C50.2948 22.0455 49.7964 21.796 49.1668 21.796C48.747 21.796 48.3535 21.9404 48.0125 22.2162C47.6714 22.5051 47.4353 22.8728 47.3304 23.3194C47.2779 23.5295 47.2517 23.7002 47.2517 23.8447V25.1317C47.2517 25.6964 47.4222 26.1691 47.7633 26.5631C48.1043 26.9571 48.5634 27.1409 49.1143 27.1409C49.757 27.1409 50.2686 26.8914 50.6227 26.3924C50.99 25.8933 51.1736 25.2367 51.1736 24.4225Z" fill="white"/>
<path d="M61.8219 24.3568C61.8219 25.6701 61.4677 26.7207 60.7463 27.4824C60.1036 28.1653 59.3035 28.5067 58.3591 28.5067C57.336 28.5067 56.6014 28.139 56.1555 27.4036V31.4747H54.4372V23.1355C54.4372 22.3081 54.4109 21.4545 54.3716 20.5878H55.88L55.9718 21.8222H55.9981C56.5752 20.903 57.4409 20.4302 58.6083 20.4302C59.5265 20.4302 60.2872 20.7848 60.8906 21.5202C61.5202 22.2293 61.8219 23.1749 61.8219 24.3568ZM60.0774 24.4225C60.0774 23.6739 59.9068 23.0436 59.5658 22.5577C59.1985 22.0455 58.7001 21.796 58.0705 21.796C57.6508 21.796 57.2573 21.9404 56.9162 22.2162C56.5752 22.5051 56.3522 22.8728 56.2342 23.3194C56.1817 23.5295 56.1555 23.7002 56.1555 23.8447V25.1317C56.1555 25.6964 56.326 26.1691 56.667 26.5631C57.008 26.944 57.4671 27.1409 58.018 27.1409C58.6608 27.1409 59.1723 26.8914 59.5265 26.3924C59.8937 25.8933 60.0774 25.2367 60.0774 24.4225Z" fill="white"/>
<path d="M71.778 25.3171C71.778 26.2364 71.4632 26.9718 70.8205 27.5497C70.1253 28.18 69.1416 28.4952 67.8955 28.4952C66.7412 28.4952 65.8099 28.272 65.1147 27.8254L65.5082 26.394C66.2559 26.8405 67.0954 27.0638 67.9873 27.0638C68.63 27.0638 69.1416 26.9193 69.4957 26.6304C69.8499 26.3415 70.0335 25.9475 70.0335 25.4616C70.0335 25.0282 69.8892 24.6605 69.5876 24.3584C69.2859 24.0564 68.8005 23.7806 68.1054 23.5311C66.2297 22.8351 65.2853 21.7976 65.2853 20.458C65.2853 19.5782 65.6132 18.8559 66.2821 18.2912C66.9511 17.7265 67.8299 17.4507 68.9186 17.4507C69.8892 17.4507 70.7156 17.6214 71.3583 17.9629L70.9255 19.368C70.3221 19.0397 69.6269 18.869 68.8661 18.869C68.2628 18.869 67.7774 19.0135 67.4495 19.3155C67.161 19.5782 67.0167 19.9065 67.0167 20.2873C67.0167 20.7076 67.1872 21.0621 67.5151 21.3379C67.8037 21.5875 68.3152 21.8632 69.076 22.1653C69.9942 22.533 70.6762 22.9664 71.1091 23.4654C71.5682 23.9513 71.778 24.5686 71.778 25.3171Z" fill="white"/>
<path d="M77.4847 21.8772H75.5828V25.6331C75.5828 26.5918 75.9107 27.0645 76.5797 27.0645C76.8813 27.0645 77.1437 27.0383 77.3404 26.9857L77.3929 28.299C77.0519 28.4303 76.6059 28.496 76.055 28.496C75.3729 28.496 74.8483 28.2859 74.4679 27.8788C74.0875 27.4585 73.8907 26.7625 73.8907 25.7907V21.8772H72.7627V20.5902H73.8907V19.1718L75.5828 18.6597V20.5902H77.4847C77.4847 20.577 77.4847 21.8772 77.4847 21.8772Z" fill="white"/>
<path d="M86.0239 24.3962C86.0239 25.5913 85.6828 26.5631 85.0008 27.3248C84.2924 28.1128 83.348 28.5067 82.1675 28.5067C81.0264 28.5067 80.1213 28.1259 79.4524 27.3773C78.7834 26.6288 78.4424 25.6701 78.4424 24.5275C78.4424 23.3325 78.7965 22.3475 79.4917 21.5727C80.1869 20.811 81.1313 20.4302 82.2987 20.4302C83.4399 20.4302 84.3449 20.811 85.0401 21.5596C85.6828 22.2819 86.0239 23.2274 86.0239 24.3962ZM84.24 24.4356C84.24 23.7265 84.0826 23.1224 83.7809 22.6102C83.4267 21.993 82.9021 21.6909 82.2331 21.6909C81.5379 21.6909 81.0133 21.993 80.6591 22.6102C80.3574 23.1224 80.2 23.7396 80.2 24.475C80.2 25.1842 80.3574 25.8014 80.6591 26.3005C81.0264 26.9177 81.551 27.2197 82.22 27.2197C82.8758 27.2197 83.3874 26.9046 83.7678 26.2873C84.0695 25.7489 84.24 25.1448 84.24 24.4356Z" fill="white"/>
<path d="M91.6107 22.1004C91.4402 22.0741 91.2565 22.0479 91.0729 22.0479C90.4695 22.0479 89.9973 22.2711 89.6694 22.7308C89.3809 23.1379 89.2366 23.6501 89.2366 24.2673V28.3384H87.5183V23.0328C87.5183 22.1398 87.5052 21.3256 87.4658 20.5902H88.9611L89.0267 22.0741H89.0792C89.2628 21.562 89.5514 21.1549 89.9449 20.8397C90.3253 20.5639 90.745 20.4194 91.191 20.4194C91.3484 20.4194 91.4926 20.4326 91.6238 20.4457L91.6107 22.1004Z" fill="white"/>
<path d="M99.298 24.0843C99.298 24.3863 99.2718 24.649 99.2324 24.8591H94.0775C94.0906 25.6208 94.353 26.2117 94.8252 26.6188C95.258 26.9734 95.822 27.1573 96.5172 27.1573C97.278 27.1573 97.9732 27.0391 98.6028 26.7896L98.8783 27.9846C98.1437 28.2998 97.278 28.4574 96.2811 28.4574C95.0875 28.4574 94.1431 28.1028 93.4479 27.3937C92.7658 26.6845 92.4248 25.739 92.4248 24.5439C92.4248 23.3751 92.7396 22.4033 93.3823 21.6285C94.0513 20.8011 94.9563 20.3809 96.0844 20.3809C97.1993 20.3809 98.0388 20.8011 98.6159 21.6285C99.075 22.3114 99.298 23.1256 99.298 24.0843ZM97.6584 23.6377C97.6715 23.1256 97.5535 22.6922 97.3305 22.3114C97.0288 21.8254 96.5697 21.5891 95.9663 21.5891C95.4023 21.5891 94.9432 21.8254 94.6022 22.2851C94.3136 22.6528 94.1431 23.0993 94.0906 23.6246L97.6584 23.6377Z" fill="white"/>
<path d="M40.0895 13.731H39.1844L38.686 12.1813H36.9677L36.4955 13.731H35.6167L37.3088 8.45166H38.3581L40.0895 13.731ZM38.5548 11.5378L38.1089 10.1589C38.0564 10.0144 37.9777 9.68612 37.8465 9.16082H37.8334C37.781 9.38407 37.7023 9.71239 37.5842 10.1589L37.1514 11.5378H38.5548Z" fill="white"/>
<path d="M44.3393 9.92188L42.8964 13.7303H42.0701L40.6797 9.92188H41.5847L42.2406 11.9312C42.3455 12.2726 42.4373 12.5878 42.516 12.8898H42.5423C42.6078 12.6141 42.6997 12.2989 42.8177 11.9312L43.4604 9.92188C43.4473 9.92187 44.3393 9.92188 44.3393 9.92188Z" fill="white"/>
<path d="M47.4083 13.7335L47.3427 13.3002H47.3165C47.0542 13.6548 46.6869 13.8255 46.2016 13.8255C45.5195 13.8255 45.0342 13.3527 45.0342 12.7092C45.0342 11.7637 45.8474 11.2777 47.2509 11.2777V11.2121C47.2509 10.713 46.9886 10.4635 46.4639 10.4635C46.0835 10.4635 45.7556 10.5555 45.467 10.7524L45.2965 10.2009C45.6507 9.97762 46.0835 9.87256 46.6082 9.87256C47.6051 9.87256 48.1035 10.3979 48.1035 11.4485V12.8537C48.1035 13.2345 48.1166 13.5366 48.156 13.7598L47.4083 13.7335ZM47.2903 11.8425C46.3458 11.8425 45.8868 12.0657 45.8868 12.6041C45.8868 12.9981 46.136 13.1951 46.4639 13.1951C46.8968 13.1951 47.2903 12.8668 47.2903 12.4203C47.2903 12.4334 47.2903 11.8425 47.2903 11.8425Z" fill="white"/>
<path d="M49.9926 9.29344C49.7171 9.29344 49.4941 9.07018 49.4941 8.78127C49.4941 8.49235 49.7171 8.28223 50.0057 8.28223C50.2943 8.28223 50.5303 8.49235 50.5172 8.78127C50.5303 9.09645 50.3074 9.29344 49.9926 9.29344ZM50.4254 13.7323H49.586V9.9238H50.4254V13.7323Z" fill="white"/>
<path d="M52.7745 13.7314H51.9351V8.17627H52.7745V13.7314Z" fill="white"/>
<path d="M56.3658 13.7335L56.3003 13.3002H56.274C56.0117 13.6548 55.6444 13.8255 55.1591 13.8255C54.477 13.8255 53.9917 13.3527 53.9917 12.7092C53.9917 11.7637 54.8049 11.2777 56.2084 11.2777V11.2121C56.2084 10.713 55.9461 10.4635 55.4214 10.4635C55.041 10.4635 54.7131 10.5555 54.4246 10.7524L54.254 10.2009C54.6082 9.97762 55.041 9.87256 55.5657 9.87256C56.5626 9.87256 57.061 10.3979 57.061 11.4485V12.8537C57.061 13.2345 57.0741 13.5366 57.1135 13.7598H56.3658V13.7335ZM56.2478 11.8425C55.3034 11.8425 54.8443 12.0657 54.8443 12.6041C54.8443 12.9981 55.0935 13.1951 55.4214 13.1951C55.8543 13.1951 56.2478 12.8668 56.2478 12.4203V11.8425Z" fill="white"/>
<path d="M60.4982 13.8243C59.9604 13.8243 59.5538 13.6011 59.3046 13.1546H59.2915L59.239 13.7455H58.5176C58.5438 13.4435 58.5438 13.0889 58.5438 12.7212V8.19043H59.3964V10.4886H59.4095C59.6587 10.0684 60.0654 9.85827 60.6163 9.85827C61.5344 9.85827 62.1771 10.6462 62.1771 11.7888C62.1771 12.9576 61.4688 13.8243 60.4982 13.8243ZM60.3277 10.5149C59.8424 10.5149 59.3964 10.9351 59.3964 11.5261V12.1959C59.3964 12.7212 59.7899 13.1546 60.3146 13.1546C60.9442 13.1546 61.3246 12.6424 61.3246 11.815C61.3246 11.0402 60.9311 10.5149 60.3277 10.5149Z" fill="white"/>
<path d="M64.275 13.7314H63.4355V8.17627H64.275V13.7314Z" fill="white"/>
<path d="M68.8819 12.0374H66.3503C66.3635 12.7597 66.8488 13.1668 67.544 13.1668C67.9244 13.1668 68.2654 13.1011 68.5671 12.9829L68.6982 13.5739C68.3441 13.7315 67.9112 13.8103 67.4259 13.8103C66.2323 13.8103 65.5371 13.0617 65.5371 11.8929C65.5371 10.7241 66.2585 9.84424 67.3341 9.84424C68.3047 9.84424 68.9212 10.5665 68.9212 11.6565C68.9081 11.801 68.9081 11.9323 68.8819 12.0374ZM68.108 11.4333C68.108 10.8423 67.8063 10.4352 67.2685 10.4352C66.7832 10.4352 66.4028 10.8555 66.3503 11.4333H68.108Z" fill="white"/>
<path d="M74.0092 13.821C72.8943 13.821 72.1729 12.9937 72.1729 11.8643C72.1729 10.6823 72.9074 9.85498 74.0748 9.85498C75.1635 9.85498 75.9111 10.6429 75.9111 11.8117C75.898 12.9937 75.1372 13.821 74.0092 13.821ZM74.0354 10.4591C73.4189 10.4591 73.0386 11.0369 73.0386 11.8249C73.0386 12.6128 73.4321 13.1775 74.0354 13.1775C74.6388 13.1775 75.0323 12.5603 75.0323 11.8117C75.0192 11.05 74.6257 10.4591 74.0354 10.4591Z" fill="white"/>
<path d="M80.4357 13.7315H79.5962V11.5383C79.5962 10.8686 79.3339 10.5271 78.8355 10.5271C78.337 10.5271 77.9829 10.9605 77.9829 11.4596V13.7315H77.1434V11.013C77.1434 10.6716 77.1303 10.317 77.1172 9.92303H77.8648L77.9042 10.514H77.9304C78.1534 10.1069 78.6256 9.84424 79.1372 9.84424C79.9373 9.84424 80.462 10.4615 80.462 11.4464L80.4357 13.7315Z" fill="white"/>
<path d="M85.9707 10.5676H85.0394V12.4193C85.0394 12.892 85.1968 13.1284 85.5379 13.1284C85.6821 13.1284 85.8133 13.1153 85.9182 13.089L85.9445 13.7325C85.774 13.7982 85.5641 13.8245 85.2886 13.8245C84.6197 13.8245 84.2262 13.4567 84.2262 12.4981V10.5807H83.6753V9.92406H84.2262V9.22803L85.0525 8.97852V9.92406H85.9838V10.5676H85.9707Z" fill="white"/>
<path d="M90.4426 13.7314H89.59V11.5645C89.59 10.8816 89.3277 10.5401 88.8293 10.5401C88.3964 10.5401 87.9898 10.8422 87.9898 11.4463V13.7314H87.1372V8.17627H87.9898V10.4613H88.0029C88.2653 10.0411 88.6588 9.84411 89.1441 9.84411C89.9442 9.84411 90.4426 10.4745 90.4426 11.4726V13.7314Z" fill="white"/>
<path d="M94.7714 12.0374H92.2268C92.2399 12.7597 92.7252 13.1668 93.4204 13.1668C93.8008 13.1668 94.1418 13.1011 94.4435 12.9829L94.5747 13.5739C94.2205 13.7315 93.7877 13.8103 93.3024 13.8103C92.1088 13.8103 91.4136 13.0617 91.4136 11.8929C91.4136 10.7241 92.135 9.84424 93.2106 9.84424C94.1812 9.84424 94.7977 10.5665 94.7977 11.6565C94.7977 11.801 94.7846 11.9323 94.7714 12.0374ZM93.9976 11.4333C93.9976 10.8423 93.6959 10.4352 93.1581 10.4352C92.6728 10.4352 92.2924 10.8555 92.2399 11.4333H93.9976Z" fill="white"/>
</svg>
