<svg width="254" height="161" viewBox="0 0 254 161" fill="none" xmlns="http://www.w3.org/2000/svg">
<g filter="url(#filter0_ddd_10_15898)">
<rect x="18.9722" y="6.37695" width="216.465" height="123.694" rx="6.18472" fill="white"/>
</g>
<path d="M95.7022 27.6302C119.185 26.3003 143.805 33.2278 140.186 43.2697C136.567 53.3117 159.535 39.7029 168.7 43.3235C175.226 45.901 172.617 53.7479 175.774 56.9097C183.012 64.159 190.415 55.0302 199.627 60.5077C208.839 65.9851 189.978 117.106 180.355 117.392L70.5882 116.741L62.7112 116.05C62.7112 116.05 40.9219 104.421 56.5086 93.694C67.0477 86.4407 59.4646 81.1732 58.3183 77.8527C57.0023 74.04 53.9316 67.3811 67.3113 62.4947C80.6909 57.6082 77.2364 46.9753 76.9074 44.774C76.5785 42.5715 72.2198 28.9604 95.7022 27.6302Z" fill="#F6F7FF"/>
<path d="M166.485 114.652C167.014 115.962 166.05 117.392 164.637 117.392H86.2366C85.4231 117.392 84.6912 116.897 84.3877 116.142L61.1098 58.2618C60.5831 56.9523 61.5472 55.5254 62.9586 55.5254H141.245C142.057 55.5254 142.788 56.0184 143.093 56.7715L166.485 114.652Z" fill="#666AF6"/>
<path d="M84.0229 114.9H193.236V116.395C193.236 116.945 192.79 117.391 192.239 117.391H85.0193C84.4691 117.391 84.0229 116.945 84.0229 116.395V114.9Z" fill="#666AF6"/>
<path d="M103.121 86.3023C102.06 82.577 104.199 79.5566 107.891 79.5566C111.582 79.5566 115.429 82.577 116.49 86.3023C117.551 90.0278 115.412 93.0481 111.72 93.0481C108.029 93.0481 104.182 90.0278 103.121 86.3023Z" fill="white"/>
<path d="M105.196 26.2195C104.096 26.2195 103.203 27.1117 103.203 28.2123C103.203 29.3129 104.096 30.2051 105.196 30.2051C106.297 30.2051 107.189 29.3129 107.189 28.2123C107.189 27.1117 106.297 26.2195 105.196 26.2195Z" fill="#E1E4E5"/>
<path d="M65.4654 42.4142C64.7087 42.4142 64.0954 43.0276 64.0954 43.7842C64.0954 44.5409 64.7087 45.1543 65.4654 45.1543C66.2221 45.1543 66.8354 44.5409 66.8354 43.7842C66.8354 43.0276 66.2221 42.4142 65.4654 42.4142Z" fill="#E1E4E5"/>
<path d="M204.587 106.056C204.587 107.776 203.192 109.169 201.47 109.169C199.747 109.169 198.359 107.77 198.359 106.056C198.359 104.335 199.754 102.942 201.477 102.942C203.199 102.942 204.587 104.335 204.587 106.056ZM57.6179 85.505C57.6179 87.4323 56.0003 88.9924 54.002 88.9924C52.0037 88.9924 50.394 87.4245 50.394 85.505C50.394 83.5777 52.0117 82.0176 54.01 82.0176C56.0083 82.0176 57.6179 83.5777 57.6179 85.505Z" stroke="#E1E4E5" stroke-width="1.2455" stroke-miterlimit="10"/>
<path d="M180.574 83.5196L169.732 94.3614C169.337 94.7561 169.337 95.3962 169.732 95.7909L169.732 95.7911C170.127 96.1859 170.767 96.1859 171.162 95.7911L182.003 84.9493C182.398 84.5546 182.398 83.9145 182.003 83.5198L182.003 83.5196C181.608 83.1248 180.968 83.1248 180.574 83.5196Z" fill="#E1E4E5"/>
<path d="M179.513 91.2814L176.386 94.4083C175.991 94.803 175.991 95.4431 176.386 95.8378L176.386 95.838C176.781 96.2328 177.421 96.2328 177.816 95.838L180.943 92.7112C181.337 92.3164 181.337 91.6764 180.943 91.2816L180.943 91.2814C180.548 90.8867 179.908 90.8867 179.513 91.2814Z" fill="#E1E4E5"/>
<path d="M98.9173 35.4865L89.7852 44.6187C89.4527 44.9512 89.4527 45.4902 89.7852 45.8228L89.7853 45.8229C90.1178 46.1554 90.6569 46.1554 90.9894 45.8229L100.122 36.6908C100.454 36.3583 100.454 35.8192 100.122 35.4867L100.121 35.4865C99.7889 35.154 99.2498 35.154 98.9173 35.4865Z" fill="#E1E4E5"/>
<path d="M98.0244 42.0239L95.3906 44.6577C95.0581 44.9902 95.0581 45.5293 95.3906 45.8618L95.3908 45.862C95.7233 46.1945 96.2624 46.1945 96.5949 45.862L99.2287 43.2282C99.5612 42.8957 99.5612 42.3566 99.2287 42.0241L99.2285 42.0239C98.896 41.6914 98.3569 41.6914 98.0244 42.0239Z" fill="#E1E4E5"/>
<path d="M181.481 35.2956L175.226 41.5505C174.999 41.7783 174.999 42.1475 175.226 42.3752L175.226 42.3754C175.454 42.6031 175.823 42.6031 176.051 42.3754L182.306 36.1205C182.534 35.8928 182.534 35.5235 182.306 35.2958L182.306 35.2956C182.078 35.0679 181.709 35.0679 181.481 35.2956Z" fill="#E1E4E5"/>
<path d="M180.87 39.7739L179.066 41.5779C178.838 41.8056 178.838 42.1748 179.066 42.4026L179.066 42.4028C179.294 42.6305 179.663 42.6305 179.891 42.4028L181.695 40.5987C181.923 40.371 181.923 40.0018 181.695 39.774L181.695 39.7739C181.467 39.5461 181.098 39.5461 180.87 39.7739Z" fill="#E1E4E5"/>
<path d="M202.947 66.2435L194.844 74.3466C194.549 74.6417 194.549 75.12 194.844 75.4151C195.139 75.7101 195.618 75.7102 195.913 75.4151L204.016 67.3119C204.311 67.0169 204.311 66.5385 204.016 66.2435C203.721 65.9484 203.242 65.9484 202.947 66.2435Z" fill="#E1E4E5"/>
<path d="M202.156 72.0487L199.819 74.3857C199.524 74.6807 199.524 75.1591 199.819 75.4542C200.114 75.7492 200.592 75.7492 200.887 75.4542L203.224 73.1171C203.519 72.8221 203.519 72.3437 203.224 72.0487C202.929 71.7536 202.451 71.7536 202.156 72.0487Z" fill="#E1E4E5"/>
<path d="M69.7943 103.901L60.6621 113.033C60.3296 113.365 60.3296 113.904 60.6621 114.237L60.6623 114.237C60.9948 114.569 61.5339 114.569 61.8664 114.237L70.9985 105.105C71.331 104.772 71.331 104.233 70.9985 103.901L70.9984 103.901C70.6659 103.568 70.1268 103.568 69.7943 103.901Z" fill="#E1E4E5"/>
<path d="M68.8994 110.438L66.2656 113.072C65.9331 113.404 65.9331 113.943 66.2656 114.276L66.2658 114.276C66.5983 114.609 67.1374 114.609 67.4699 114.276L70.1037 111.642C70.4362 111.31 70.4362 110.771 70.1037 110.438L70.1035 110.438C69.771 110.105 69.2319 110.105 68.8994 110.438Z" fill="#E1E4E5"/>
<path d="M163.313 63.7346V69.3825L158.214 75.4595H179.632C186.106 75.4595 191.357 70.2083 191.357 63.7346C191.357 57.2608 186.106 52.0098 179.632 52.0098H175.038C168.56 52.0098 163.313 57.2608 163.313 63.7346Z" fill="#E1E4E5"/>
<path d="M172.348 63.7151C172.348 64.2678 172.128 64.7979 171.737 65.1887C171.346 65.5796 170.816 65.7993 170.264 65.7995C169.711 65.7993 169.181 65.5797 168.79 65.1888C168.399 64.7979 168.179 64.2678 168.179 63.7151C168.179 62.5647 169.113 61.6309 170.264 61.6309C171.414 61.6309 172.348 62.5647 172.348 63.7151ZM179.431 63.7151C179.431 64.2678 179.211 64.7979 178.82 65.1887C178.429 65.5796 177.899 65.7993 177.347 65.7995C176.794 65.7993 176.264 65.5796 175.873 65.1887C175.482 64.7979 175.262 64.2678 175.262 63.7151C175.262 62.5647 176.196 61.6309 177.347 61.6309C178.497 61.6309 179.431 62.5647 179.431 63.7151ZM186.514 63.7151C186.514 64.8657 185.58 65.7995 184.43 65.7995C183.877 65.7993 183.347 65.5797 182.956 65.1888C182.565 64.7979 182.345 64.2678 182.345 63.7151C182.345 62.5647 183.279 61.6309 184.43 61.6309C184.982 61.6311 185.512 61.8507 185.903 62.2415C186.294 62.6324 186.514 63.1624 186.514 63.7151Z" fill="#F6F7FF"/>
<path d="M145.439 37.6298C145.497 37.7701 145.578 37.8995 145.679 38.0122C145.862 38.2174 146.105 38.3608 146.373 38.4227C146.641 38.4845 146.922 38.4617 147.177 38.3575M145.439 37.6298L147.177 38.3575M145.439 37.6298L141.356 27.6753L145.439 37.6298ZM147.177 38.3575L147.13 38.2422L147.129 38.2422L147.177 38.3575ZM142.128 26.0533L159.424 18.959C159.72 18.8377 160.051 18.8386 160.346 18.9615C160.642 19.0844 160.876 19.3192 160.998 19.6145L165.083 29.5729L165.083 29.5729C165.205 29.8693 165.204 30.2018 165.08 30.4974C164.957 30.7929 164.721 31.0274 164.425 31.1491L142.128 26.0533ZM142.128 26.0533L142.081 25.9381L142.128 26.0533L142.128 26.0533ZM57.8058 54.9133C57.3522 55.0285 56.751 55.251 56.1495 55.6807C55.1636 56.3851 54.1925 57.6351 53.8555 59.8416C53.5184 57.6351 52.5473 56.3851 51.5614 55.6807C50.96 55.251 50.3589 55.0286 49.9053 54.9134C50.3152 54.8087 50.8455 54.6163 51.3876 54.2624C52.4312 53.5809 53.503 52.3108 53.8563 49.9586C54.2096 52.3108 55.2809 53.5809 56.3242 54.2624C56.866 54.6163 57.396 54.8087 57.8058 54.9133ZM154.207 46.9422C153.754 47.0573 153.153 47.2798 152.551 47.7095C151.565 48.4139 150.594 49.6639 150.257 51.8704C149.92 49.6639 148.949 48.4139 147.963 47.7095C147.362 47.2798 146.76 47.0574 146.307 46.9422C146.717 46.8375 147.247 46.6451 147.789 46.2912C148.833 45.6097 149.905 44.3396 150.258 41.9874C150.611 44.3396 151.683 45.6097 152.726 46.2912C153.268 46.6451 153.798 46.8375 154.207 46.9422Z" fill="#E1E4E5" stroke="#F6F7FF" stroke-width="0.2491"/>
<path d="M165.219 30.2706L154.264 29.0645L146.417 37.988C146.552 38.0718 146.705 38.1224 146.864 38.1356C147.022 38.1488 147.181 38.1243 147.328 38.0639L164.622 30.9696L165.219 30.2706V30.2706ZM165.219 30.2706C165.182 30.4261 165.108 30.5706 165.005 30.6922C164.901 30.8137 164.77 30.9088 164.622 30.9696L165.219 30.2706Z" stroke="#F6F7FF" stroke-width="0.652392"/>
<path d="M141.935 27.5571V27.5569C141.884 27.4349 141.859 27.3042 141.859 27.1723C141.859 27.0404 141.885 26.9098 141.936 26.788C141.987 26.6663 142.061 26.5557 142.155 26.4627C142.248 26.3697 142.359 26.296 142.481 26.2459L159.777 19.1513H159.777C159.998 19.0609 160.243 19.0518 160.47 19.1256C160.697 19.1994 160.89 19.3513 161.015 19.5543L154.337 30.0317L142.076 27.9004L141.935 27.5571V27.5571Z" stroke="#F6F7FF" stroke-width="0.652392"/>
<defs>
<filter id="filter0_ddd_10_15898" x="0.417995" y="0.192229" width="253.574" height="160.803" filterUnits="userSpaceOnUse" color-interpolation-filters="sRGB">
<feFlood flood-opacity="0" result="BackgroundImageFix"/>
<feColorMatrix in="SourceAlpha" type="matrix" values="0 0 0 0 0 0 0 0 0 0 0 0 0 0 0 0 0 0 127 0" result="hardAlpha"/>
<feOffset/>
<feGaussianBlur stdDeviation="0.386545"/>
<feColorMatrix type="matrix" values="0 0 0 0 0 0 0 0 0 0 0 0 0 0 0 0 0 0 0.04 0"/>
<feBlend mode="normal" in2="BackgroundImageFix" result="effect1_dropShadow_10_15898"/>
<feColorMatrix in="SourceAlpha" type="matrix" values="0 0 0 0 0 0 0 0 0 0 0 0 0 0 0 0 0 0 127 0" result="hardAlpha"/>
<feOffset dy="1.54618"/>
<feGaussianBlur stdDeviation="2.31927"/>
<feColorMatrix type="matrix" values="0 0 0 0 0 0 0 0 0 0 0 0 0 0 0 0 0 0 0.04 0"/>
<feBlend mode="normal" in2="effect1_dropShadow_10_15898" result="effect2_dropShadow_10_15898"/>
<feColorMatrix in="SourceAlpha" type="matrix" values="0 0 0 0 0 0 0 0 0 0 0 0 0 0 0 0 0 0 127 0" result="hardAlpha"/>
<feOffset dy="12.3694"/>
<feGaussianBlur stdDeviation="9.27709"/>
<feColorMatrix type="matrix" values="0 0 0 0 0 0 0 0 0 0 0 0 0 0 0 0 0 0 0.06 0"/>
<feBlend mode="normal" in2="effect2_dropShadow_10_15898" result="effect3_dropShadow_10_15898"/>
<feBlend mode="normal" in="SourceGraphic" in2="effect3_dropShadow_10_15898" result="shape"/>
</filter>
</defs>
</svg>
