<svg width="55" height="54" viewBox="0 0 55 54" fill="none" xmlns="http://www.w3.org/2000/svg">
<g opacity="0.7" filter="url(#filter0_f_9_8703)">
<path d="M23.1936 41.475L31.0807 33.9817L27.817 31.0793L24.3721 35.6703L23.1936 41.475Z" fill="#FCB5A4"/>
<path d="M22.6956 32.028L23.1942 41.4738L26.5031 33.9805L41.416 16.6192L43.1838 12.4504L38.9683 14.9306L23.3755 28.9673L22.6956 32.028Z" fill="#CA471B"/>
<path d="M26.5032 33.9805L37.5632 41.0516L43.1838 12.4504L26.5032 33.9805Z" fill="#F26F43"/>
<path d="M22.6959 32.028L43.1841 12.4504L12.4065 27.1732L22.6959 32.028Z" fill="#F26F43"/>
</g>
<path d="M34.389 5.72554L32.7512 5.8903L32.5081 3.47453L23.5411 4.37659L23.7841 6.79236L22.1463 6.95712L21.7385 2.90353L33.9812 1.67195L34.389 5.72554Z" fill="#FCB5A4"/>
<path d="M45.9764 4.14682L10.4768 7.71799L13.01 32.8994L48.5096 29.3282L45.9764 4.14682Z" fill="#F26F43"/>
<path d="M10.4768 7.71799L16.678 17.5582L41.8594 15.025L45.9764 4.14682L10.4768 7.71799Z" fill="#CA471B"/>
<path d="M22.9814 14.8558L23.2821 17.8448C23.3439 18.459 22.902 18.9998 22.2878 19.0616L22.0831 19.0822C21.4689 19.144 20.9281 18.702 20.8664 18.0879L20.5657 15.0988L22.9814 14.8558Z" fill="#FCB5A4"/>
<path d="M37.7217 13.3734L38.0224 16.3624C38.0842 16.9766 37.6422 17.5174 37.0281 17.5792L36.8233 17.5997C36.2092 17.6615 35.6684 17.2196 35.6066 16.6054L35.3059 13.6164L37.7217 13.3734Z" fill="#FCB5A4"/>
<defs>
<filter id="filter0_f_9_8703" x="0.628471" y="0.672356" width="54.3336" height="52.5806" filterUnits="userSpaceOnUse" color-interpolation-filters="sRGB">
<feFlood flood-opacity="0" result="BackgroundImageFix"/>
<feBlend mode="normal" in="SourceGraphic" in2="BackgroundImageFix" result="shape"/>
<feGaussianBlur stdDeviation="5.88901" result="effect1_foregroundBlur_9_8703"/>
</filter>
</defs>
</svg>
