<svg width="31" height="31" viewBox="0 0 31 31" fill="none" xmlns="http://www.w3.org/2000/svg">
<circle cx="15.7808" cy="15.377" r="15.0469" fill="#F6F7FF"/>
<path d="M15.7806 12.8003L15.1098 13.9664C14.9593 14.2235 15.0847 14.4366 15.3794 14.4366H16.1756C16.4766 14.4366 16.5957 14.6498 16.4452 14.9069L15.7806 16.073" stroke="#5466F9" stroke-width="1.00313" stroke-linecap="round" stroke-linejoin="round"/>
<path d="M13.4609 19.1639V18.4366C12.0189 17.5652 10.834 15.8661 10.834 14.0605C10.834 10.9571 13.6866 8.52447 16.9092 9.22666C18.3261 9.54014 19.5675 10.4806 20.2132 11.7784C21.5236 14.4116 20.1443 17.2078 18.1192 18.4304V19.1576C18.1192 19.3395 18.1882 19.7595 17.5173 19.7595H14.0628C13.3732 19.7658 13.4609 19.4962 13.4609 19.1639Z" stroke="#5466F9" stroke-width="1.00313" stroke-linecap="round" stroke-linejoin="round"/>
<path d="M13.5864 21.6465C15.0222 21.2389 16.5394 21.2389 17.9751 21.6465" stroke="#5466F9" stroke-width="1.00313" stroke-linecap="round" stroke-linejoin="round"/>
</svg>
