<svg width="39" height="54" viewBox="0 0 39 54" fill="none" xmlns="http://www.w3.org/2000/svg">
<g filter="url(#filter0_f_9_8649)">
<path d="M19.4432 15.756C17.6766 15.756 15.9825 17.0971 14.7333 19.4843C13.4842 21.8715 12.7825 25.1093 12.7825 28.4853C12.7825 31.8613 13.4842 35.0991 14.7333 37.4863C15.9825 39.8735 17.6766 41.2146 19.4432 41.2146H26.1038V28.4853C26.1038 25.1093 25.4021 21.8715 24.153 19.4843C22.9038 17.0971 21.2097 15.756 19.4432 15.756V15.756Z" fill="#F26F43"/>
<path d="M26.7532 25.9205C26.7532 25.9205 26.1033 26.8829 21.3629 26.1751C20.674 26.0807 19.9895 25.894 19.3143 25.6162C18.5475 25.3058 17.269 25.1847 17.5273 28.2459C17.6147 29.2511 17.8247 30.2029 18.1402 31.0243C18.4557 31.8457 18.868 32.5138 19.3436 32.9744C20.5798 34.1945 22.8428 35.4302 26.7532 34.9521V25.9205Z" fill="#FCB5A4"/>
</g>
<path d="M21.7263 29.3064C29.0248 27.855 33.7647 20.7618 32.3133 13.4633C30.8619 6.1648 23.7687 1.42482 16.4702 2.87624C9.17172 4.32766 4.43174 11.4209 5.88316 18.7194C7.33458 26.0178 14.4278 30.7578 21.7263 29.3064Z" fill="#F26F43"/>
<path d="M30.2996 23.5783L19.0969 16.0922L11.6108 27.2948L22.8135 34.7809L30.2996 23.5783Z" fill="#F26F43"/>
<path d="M20.0597 20.9253C22.7299 20.3943 24.4641 17.7992 23.933 15.129C23.402 12.4588 20.807 10.7247 18.1368 11.2557C15.4666 11.7867 13.7325 14.3818 14.2635 17.0519C14.7945 19.7221 17.3896 21.4563 20.0597 20.9253Z" fill="#FCB5A4"/>
<defs>
<filter id="filter0_f_9_8649" x="0.66107" y="3.63461" width="38.2135" height="49.7014" filterUnits="userSpaceOnUse" color-interpolation-filters="sRGB">
<feFlood flood-opacity="0" result="BackgroundImageFix"/>
<feBlend mode="normal" in="SourceGraphic" in2="BackgroundImageFix" result="shape"/>
<feGaussianBlur stdDeviation="6.0607" result="effect1_foregroundBlur_9_8649"/>
</filter>
</defs>
</svg>
