<svg width="7" height="8" viewBox="0 0 7 8" fill="none" xmlns="http://www.w3.org/2000/svg">
<path d="M3.66211 7.09473C1.97069 7.09473 0.599609 5.72365 0.599609 4.03223C0.599609 2.34081 1.97069 0.969727 3.66211 0.969727C5.35353 0.969727 6.72461 2.34081 6.72461 4.03223C6.72461 5.72365 5.35353 7.09473 3.66211 7.09473ZM3.66211 5.25723C3.987 5.25723 4.29858 5.12816 4.52832 4.89843C4.75805 4.6687 4.88711 4.35712 4.88711 4.03223C4.88711 3.70734 4.75805 3.39575 4.52832 3.16602C4.29858 2.93629 3.987 2.80723 3.66211 2.80723C3.33722 2.80723 3.02564 2.93629 2.7959 3.16602C2.56617 3.39575 2.43711 3.70734 2.43711 4.03223C2.43711 4.35712 2.56617 4.6687 2.7959 4.89843C3.02564 5.12816 3.33722 5.25723 3.66211 5.25723Z" fill="#5466F9"/>
<circle cx="3.66211" cy="4.03223" r="2.29688" fill="white"/>
</svg>
