<svg width="32" height="31" viewBox="0 0 32 31" fill="none" xmlns="http://www.w3.org/2000/svg">
<rect x="0.817871" y="0.0998764" width="30.7253" height="30.7253" rx="2.04835" fill="#FEF8F5"/>
<path d="M16.2853 13.6088L28.052 18.3443L22.8182 20.5419L11.0515 15.8065L16.2853 13.6088Z" fill="#FAB89E"/>
<path d="M28.0494 18.3424L28.0476 19.4737L22.8169 21.6997V20.5425L28.0494 18.3424Z" fill="#F46F3B"/>
<path d="M18.0372 14.6711C18.0292 14.6748 18.0205 14.6785 18.0125 14.6822C17.6402 14.8428 17.0418 14.9249 16.4404 14.8953C15.91 14.8693 15.374 14.7631 14.8887 14.5884L14.9165 14.5754C15.2499 14.6958 15.7853 14.8459 16.4453 14.878C17.0332 14.907 17.6186 14.8273 17.9816 14.6699C17.9897 14.6662 17.9977 14.6631 18.0051 14.6594L18.0372 14.6711Z" fill="#D9460C"/>
<path d="M25.4352 17.648L25.4636 17.6603C25.455 17.6634 25.447 17.6671 25.4389 17.6702C25.0647 17.8234 24.8832 18.0648 24.9666 18.3062C25.0586 18.5767 25.4352 18.7934 25.7353 18.928L25.7045 18.9398C25.2691 18.744 24.9993 18.5261 24.9252 18.3087C24.8412 18.0623 25.0265 17.8147 25.4099 17.6579C25.4179 17.6554 25.4266 17.6517 25.4352 17.648Z" fill="#D9460C"/>
<path d="M22.7914 19.6816C22.8636 19.7106 22.8649 19.7588 22.7939 19.7884C22.7229 19.818 22.6074 19.8187 22.5351 19.7896L22.4777 19.7668L22.4357 19.7847C22.4129 19.794 22.3746 19.7933 22.3499 19.7835C22.3252 19.7736 22.3233 19.7575 22.3462 19.7483L22.3888 19.731L22.2659 19.6816C22.2412 19.6717 22.2412 19.6556 22.2653 19.6451C22.2894 19.6353 22.3283 19.6346 22.353 19.6445L22.4759 19.6945L22.5574 19.6606L22.5012 19.6377C22.4289 19.6087 22.4283 19.5606 22.4987 19.5309L22.5086 19.5266C22.5796 19.497 22.6951 19.497 22.7673 19.5254L22.8247 19.5488L22.8667 19.5309C22.889 19.5216 22.9272 19.5217 22.9526 19.5321C22.9773 19.542 22.9785 19.5581 22.9563 19.5673L22.9143 19.5853L23.0371 19.6346C23.0618 19.6445 23.0618 19.6612 23.0378 19.6711C23.0137 19.6816 22.9735 19.6816 22.9489 19.6717L22.8266 19.6217L22.7352 19.66L22.7914 19.6816ZM22.6457 19.6229L22.7364 19.5853L22.6802 19.5624C22.6574 19.5531 22.6204 19.5531 22.5981 19.5624L22.5882 19.5667C22.5654 19.576 22.5666 19.5908 22.5889 19.6007L22.6457 19.6229ZM22.6216 19.7526C22.6444 19.7619 22.6815 19.7619 22.7037 19.7526C22.7259 19.7433 22.7259 19.7279 22.7031 19.7186L22.6469 19.6958L22.5654 19.7297L22.6216 19.7526Z" fill="#D9460C"/>
<path d="M16.2954 13.964L27.1872 18.3475L22.8068 20.187L11.915 15.8035L16.2954 13.964ZM22.8062 20.1586L27.1199 18.3475L25.4385 17.6707L25.4348 17.6485C25.4261 17.6522 25.4175 17.6553 25.4088 17.659L18.0127 14.6821C18.0213 14.6784 18.0293 14.6747 18.0374 14.671L18.0059 14.6593L16.2967 13.9912L11.983 15.8023L21.0951 19.4695L21.105 19.4905L22.8062 20.1586Z" fill="#D9460C"/>
<path d="M16.28 14.3788C16.2225 14.4029 16.212 14.4393 16.2491 14.4671C16.2577 14.4739 16.2688 14.4795 16.2824 14.485L16.3386 14.5079L16.2571 14.5418L16.1348 14.4924C16.1256 14.4887 16.1139 14.4863 16.1021 14.4857C16.0984 14.485 16.0941 14.485 16.0904 14.485C16.0787 14.485 16.0663 14.4863 16.0564 14.4894C16.0527 14.4906 16.0496 14.4912 16.0465 14.4924C16.0225 14.5029 16.0225 14.519 16.0472 14.5289L16.1694 14.5789L16.1274 14.5962C16.1244 14.5974 16.1219 14.5987 16.12 14.5999C16.1058 14.6092 16.1095 14.6227 16.1318 14.6314C16.1565 14.6413 16.1947 14.6419 16.217 14.632L16.259 14.6141L16.3152 14.6369C16.3331 14.6443 16.3541 14.6499 16.3763 14.653C16.3825 14.6542 16.3886 14.6548 16.3948 14.6555C16.4053 14.6567 16.4158 14.6573 16.4269 14.6579C16.4275 14.6579 16.4275 14.6579 16.4282 14.6579C16.4399 14.6585 16.4516 14.6585 16.4627 14.6579C16.4683 14.6579 16.4745 14.6573 16.48 14.6567C16.4918 14.6555 16.5029 14.6542 16.514 14.6524C16.5195 14.6511 16.5251 14.6505 16.53 14.6493C16.5405 14.6468 16.551 14.6443 16.5603 14.6406C16.5652 14.6388 16.5696 14.6376 16.5739 14.6357C16.6048 14.6227 16.622 14.6061 16.6257 14.5894C16.6264 14.5869 16.6264 14.5845 16.6264 14.582C16.6264 14.5746 16.6233 14.5678 16.6183 14.5604C16.6097 14.5486 16.5943 14.5375 16.5714 14.5289L16.5152 14.506L16.606 14.4684L16.7289 14.5178C16.7381 14.5215 16.7492 14.5239 16.7616 14.5246C16.7653 14.5246 16.7696 14.5252 16.7733 14.5252C16.7894 14.5252 16.8054 14.5227 16.8172 14.5178C16.827 14.5134 16.8326 14.5085 16.8345 14.5036C16.8369 14.4974 16.8338 14.4906 16.8252 14.485C16.8227 14.4838 16.8203 14.4826 16.8172 14.4807L16.6943 14.4313L16.7363 14.4134C16.7406 14.4116 16.7437 14.4097 16.7462 14.4072C16.7567 14.398 16.7523 14.3862 16.732 14.3782C16.7097 14.3696 16.6782 14.3683 16.656 14.3745C16.6529 14.3751 16.6498 14.3764 16.6467 14.3776L16.6041 14.3949L16.5479 14.372C16.5387 14.3683 16.5294 14.3652 16.5189 14.3628C16.514 14.3615 16.5084 14.3603 16.5035 14.3591C16.493 14.3566 16.4819 14.3547 16.4701 14.3535C16.4417 14.3504 16.4115 14.3498 16.3831 14.3523C16.3602 14.3541 16.3374 14.3578 16.3176 14.3634C16.3077 14.3659 16.2979 14.3696 16.2892 14.3733L16.28 14.3788ZM16.3695 14.4153L16.3794 14.4109C16.4016 14.4017 16.438 14.4017 16.4609 14.4103H16.4615L16.5177 14.4332L16.4263 14.4715L16.3701 14.4486C16.3473 14.44 16.3466 14.4245 16.3695 14.4153ZM16.4275 14.5449L16.4843 14.5678C16.5072 14.577 16.5072 14.5919 16.485 14.6017C16.4627 14.611 16.4263 14.611 16.4035 14.6024H16.4028L16.3466 14.5795L16.4275 14.5449Z" fill="#D9460C"/>
<path d="M13.3515 15.8832C13.4237 15.9122 13.4249 15.9604 13.3539 15.99C13.2829 16.0197 13.1674 16.0203 13.0952 15.9913L13.0378 15.9684L12.9958 15.9863C12.9736 15.9956 12.9347 15.995 12.91 15.9851C12.8853 15.9752 12.8834 15.9592 12.9062 15.9499L12.9489 15.9326L12.826 15.8832C12.8013 15.8733 12.8013 15.8573 12.8254 15.8468C12.8494 15.8369 12.8883 15.8363 12.913 15.8462L13.0359 15.8962L13.1174 15.8622L13.0612 15.8394C12.989 15.8104 12.9884 15.7622 13.0588 15.7326L13.0686 15.7282C13.1397 15.6986 13.2551 15.698 13.3274 15.727L13.3848 15.7498L13.4274 15.7326C13.4496 15.7233 13.4879 15.7233 13.5132 15.7338C13.5379 15.7437 13.5392 15.7597 13.5169 15.769L13.4749 15.7869L13.5978 15.8363C13.6225 15.8462 13.6225 15.8628 13.5984 15.8727C13.5744 15.8832 13.5342 15.8832 13.5095 15.8733L13.3873 15.8233L13.2959 15.8616L13.3515 15.8832ZM13.2057 15.8246L13.2965 15.7869L13.2403 15.764C13.2175 15.7548 13.1804 15.7548 13.1582 15.764L13.1483 15.7684C13.1255 15.7776 13.1261 15.7925 13.1489 15.8023L13.2057 15.8246ZM13.1823 15.9542C13.2051 15.9635 13.2422 15.9635 13.2644 15.9542C13.2866 15.945 13.2866 15.9295 13.2638 15.9203L13.2076 15.8974L13.1267 15.9314L13.1823 15.9542Z" fill="#D9460C"/>
<path d="M13.4079 15.21C13.8433 15.4051 14.1131 15.6237 14.1878 15.841C14.2724 16.088 14.0853 16.3363 13.7 16.4931C13.6926 16.4962 13.6852 16.4993 13.6772 16.5024L13.6481 16.4894C13.6556 16.4863 13.6623 16.4838 13.6698 16.4808C14.047 16.3282 14.2286 16.0856 14.1464 15.8435C14.0538 15.5731 13.6772 15.3557 13.3777 15.2217L13.4079 15.21Z" fill="#D9460C"/>
<path d="M26.0096 18.3294C26.0819 18.3584 26.0831 18.4066 26.0121 18.4362C25.9417 18.4658 25.825 18.4658 25.7528 18.4368L25.6966 18.414L25.6546 18.4319C25.6317 18.4411 25.5941 18.4411 25.5694 18.4313C25.5434 18.4208 25.5422 18.4053 25.5644 18.3955L25.6064 18.3782L25.4842 18.3282C25.4595 18.3183 25.4589 18.3022 25.4836 18.2917C25.5076 18.2818 25.5472 18.2812 25.5718 18.2917L25.6941 18.3411L25.7756 18.3072L25.7194 18.2843C25.6472 18.2553 25.6466 18.2071 25.717 18.1775L25.7268 18.1732C25.7978 18.1435 25.9139 18.1435 25.9862 18.1725L26.0424 18.1954L26.0844 18.1775C26.1066 18.1682 26.1449 18.1682 26.169 18.1781C26.1949 18.1886 26.1961 18.204 26.1739 18.2133L26.1319 18.2312L26.2548 18.2806C26.2789 18.2905 26.2795 18.3072 26.2548 18.317C26.2307 18.3269 26.1906 18.3269 26.1665 18.317L26.0436 18.2676L25.9528 18.3053L26.0096 18.3294ZM25.8645 18.2707L25.9559 18.2324L25.8997 18.2096H25.8991C25.8763 18.2003 25.8398 18.201 25.8176 18.2102L25.8077 18.2145C25.7849 18.2238 25.7855 18.2392 25.8083 18.2485L25.8645 18.2707ZM25.8417 18.4004C25.8645 18.4097 25.901 18.409 25.9232 18.3998C25.9454 18.3905 25.9454 18.3751 25.9226 18.3658L25.8664 18.343L25.7849 18.3769L25.8411 18.3998C25.8411 18.4004 25.8417 18.4004 25.8417 18.4004Z" fill="#D9460C"/>
<path d="M24.2213 19.5626L24.1935 19.5756C23.8601 19.4551 23.3241 19.3051 22.6646 19.273C22.0737 19.244 21.4877 19.3242 21.124 19.4823C21.1172 19.4854 21.1104 19.4885 21.1036 19.491L21.0728 19.4792C21.0795 19.4761 21.087 19.4731 21.0944 19.47C21.4661 19.3082 22.0663 19.2261 22.6696 19.2557C23.2006 19.281 23.7372 19.3872 24.2213 19.5626Z" fill="#D9460C"/>
<path d="M22.8168 20.5414L22.8155 21.6992L11.0488 16.9637L11.0507 15.8066L22.8168 20.5414Z" fill="#D9460C"/>
<path d="M21.546 17.3255C21.4337 17.4607 21.2219 17.5922 20.9168 17.7163C20.3938 17.9287 19.772 18.022 19.2521 17.967C19.0434 17.9448 18.8557 17.9003 18.684 17.8553C18.4346 17.7898 18.24 17.7287 18.0832 17.6657C18.0054 17.6342 17.9362 17.6027 17.8745 17.5694C17.2675 17.2439 17.2187 16.9025 17.7399 16.6333C18.2339 16.3776 18.8754 16.2146 19.4559 16.1961C19.8739 16.1831 20.2574 16.2418 20.5963 16.3696C20.6538 16.3912 20.7118 16.4141 20.768 16.4363C21.3546 16.6722 21.848 16.9599 21.546 17.3255ZM20.8785 17.7003C21.178 17.5786 21.3855 17.4502 21.4948 17.318C21.7881 16.9642 21.3046 16.6833 20.7297 16.4517C20.6735 16.4289 20.6167 16.4073 20.5599 16.3857C20.232 16.2615 19.8615 16.2053 19.459 16.2177C18.8933 16.2356 18.266 16.3955 17.7813 16.6462C17.2762 16.9074 17.3249 17.2384 17.9159 17.5552C17.9764 17.5873 18.0431 17.6188 18.119 17.649C18.274 17.7114 18.4648 17.7713 18.7118 17.8361C18.8798 17.88 19.0638 17.9232 19.2644 17.9448C19.7658 17.9985 20.3691 17.9071 20.8785 17.7003Z" fill="#D9460C"/>
<path d="M17.6561 18.4644V19.6351L16.1902 19.0454L16.2137 17.8852L17.6561 18.4644Z" fill="#873B1D"/>
<path d="M22.8843 16.2642L17.6561 18.4642L16.2136 17.8851L21.4499 15.6874L22.8843 16.2642Z" fill="#FA6F4F"/>
<path d="M16.2853 12.3436L28.052 17.0791L22.8182 19.2767L11.0515 14.5412L16.2853 12.3436Z" fill="#FAB89E"/>
<path d="M28.0494 17.0774L28.0476 18.2092L22.8169 20.4346V19.2775L28.0494 17.0774Z" fill="#F46F3B"/>
<path d="M18.0372 13.4056C18.0292 13.4093 18.0205 13.413 18.0125 13.4167C17.6402 13.5773 17.0418 13.6594 16.4404 13.6297C15.91 13.6038 15.374 13.4976 14.8887 13.3229L14.9165 13.3099C15.2499 13.4303 15.7853 13.5803 16.4453 13.6124C17.0332 13.6415 17.6186 13.5618 17.9816 13.4044C17.9897 13.4007 17.9977 13.3976 18.0051 13.3939L18.0372 13.4056Z" fill="#D9460C"/>
<path d="M25.4357 16.3833L25.4641 16.3957C25.4555 16.3988 25.4475 16.4025 25.4394 16.4056C25.0652 16.5587 24.8837 16.8001 24.9671 17.0416C25.0591 17.312 25.4357 17.5288 25.7358 17.6634L25.7049 17.6751C25.2696 17.4794 24.9998 17.2614 24.9257 17.0441C24.8417 16.7977 25.027 16.5501 25.4104 16.3932C25.4178 16.3901 25.4265 16.3864 25.4357 16.3833Z" fill="#D9460C"/>
<path d="M22.7914 18.4163C22.8636 18.4453 22.8649 18.4935 22.7939 18.5231C22.7229 18.5528 22.6074 18.5534 22.5351 18.5244L22.4777 18.5015L22.4357 18.5194C22.4129 18.5287 22.3746 18.5281 22.3499 18.5182C22.3252 18.5083 22.3233 18.4922 22.3462 18.483L22.3888 18.4657L22.2659 18.4163C22.2412 18.4064 22.2412 18.3904 22.2653 18.3799C22.2894 18.37 22.3283 18.3694 22.353 18.3792L22.4759 18.4293L22.5574 18.3953L22.5012 18.3725C22.4289 18.3434 22.4283 18.2953 22.4987 18.2656L22.508 18.2613C22.579 18.2317 22.6944 18.2311 22.7667 18.2601L22.8241 18.2835L22.8661 18.2656C22.8883 18.2564 22.9266 18.2564 22.9519 18.2669C22.9766 18.2767 22.9779 18.2928 22.9556 18.3021L22.9137 18.32L23.0365 18.3694C23.0612 18.3792 23.0612 18.3959 23.0371 18.4058C23.0131 18.4163 22.9729 18.4163 22.9482 18.4064L22.826 18.3564L22.7346 18.3947L22.7914 18.4163ZM22.6457 18.3576L22.7364 18.32L22.6802 18.2971C22.6574 18.2879 22.6204 18.2879 22.5981 18.2971L22.5882 18.3014C22.5654 18.3107 22.5666 18.3255 22.5889 18.3354L22.6457 18.3576ZM22.6222 18.4873C22.6451 18.4966 22.6821 18.4966 22.7043 18.4873C22.7266 18.478 22.7266 18.4626 22.7037 18.4533L22.6475 18.4305L22.566 18.4645L22.6222 18.4873Z" fill="#D9460C"/>
<path d="M16.2967 12.6989L27.1884 17.0824L22.808 18.9212L11.9163 14.5377L16.2967 12.6989ZM22.8074 18.8941L27.1211 17.083L25.4397 16.4062L25.436 16.384C25.4273 16.3877 25.4187 16.3908 25.4101 16.3945L18.0139 13.4176C18.0225 13.4139 18.0305 13.4102 18.0386 13.4065L18.0071 13.3948L16.2979 12.7267L11.9842 14.5377L21.0963 18.2049L21.1062 18.2259L22.8074 18.8941Z" fill="#D9460C"/>
<path d="M16.28 13.1141C16.2225 13.1382 16.212 13.1746 16.2491 13.2024C16.2577 13.2092 16.2688 13.2154 16.2824 13.2203L16.3386 13.2432L16.2571 13.2771L16.1348 13.2278C16.1256 13.224 16.1139 13.2216 16.1021 13.221C16.0984 13.2203 16.0941 13.2203 16.0904 13.2203C16.0787 13.2203 16.0663 13.2216 16.0564 13.2247C16.0527 13.2259 16.0496 13.2265 16.0465 13.2278C16.0225 13.2382 16.0225 13.2543 16.0472 13.2642L16.1694 13.3142L16.1274 13.3315C16.1244 13.3327 16.1219 13.334 16.12 13.3352C16.1058 13.3445 16.1095 13.358 16.1318 13.3667C16.1565 13.3766 16.1947 13.3772 16.217 13.3673L16.259 13.3494L16.3152 13.3722C16.3331 13.3797 16.3541 13.3852 16.3763 13.3883C16.3825 13.3895 16.3886 13.3901 16.3948 13.3908C16.4053 13.392 16.4158 13.3926 16.4269 13.3932C16.4275 13.3932 16.4275 13.3932 16.4282 13.3932C16.4399 13.3939 16.4516 13.3939 16.4633 13.3932C16.4689 13.3932 16.4751 13.3926 16.4806 13.392C16.4924 13.3908 16.5035 13.3895 16.5146 13.3877C16.5202 13.3864 16.5257 13.3858 16.5307 13.3846C16.5412 13.3821 16.5516 13.3797 16.5609 13.3759C16.5658 13.3741 16.5702 13.3729 16.5745 13.371C16.6054 13.358 16.6227 13.3414 16.6264 13.3247C16.627 13.3222 16.627 13.3198 16.627 13.3173C16.627 13.3099 16.6239 13.3031 16.619 13.2957C16.6103 13.2839 16.5949 13.2728 16.572 13.2642L16.5158 13.2413L16.6066 13.2037L16.7295 13.2531C16.7387 13.2568 16.7499 13.2592 16.7622 13.2599C16.7659 13.2599 16.7702 13.2605 16.7739 13.2605C16.79 13.2605 16.806 13.258 16.8178 13.2531C16.8277 13.2487 16.8332 13.2438 16.8351 13.2389C16.8375 13.2327 16.8345 13.2259 16.8258 13.2203C16.8233 13.2191 16.8209 13.2179 16.8178 13.216L16.6949 13.1666L16.7369 13.1487C16.7412 13.1469 16.7443 13.145 16.7468 13.1425C16.7573 13.1333 16.7529 13.1215 16.7326 13.1135C16.7103 13.1049 16.6788 13.1036 16.6566 13.1098C16.6535 13.1104 16.6504 13.1117 16.6474 13.1129L16.6048 13.1302L16.5486 13.1073C16.5393 13.1036 16.53 13.1006 16.5195 13.0981C16.5146 13.0968 16.509 13.0956 16.5041 13.0944C16.4936 13.0919 16.4825 13.0901 16.4708 13.0888C16.4424 13.0857 16.4121 13.0851 16.3837 13.0876C16.3608 13.0894 16.338 13.0931 16.3182 13.0987C16.3084 13.1018 16.2985 13.1049 16.2898 13.1086L16.28 13.1141ZM16.3695 13.1506L16.3794 13.1462C16.4016 13.137 16.438 13.137 16.4609 13.1456H16.4615L16.5177 13.1685L16.4263 13.2068L16.3701 13.1839C16.3473 13.1746 16.3473 13.1598 16.3695 13.1506ZM16.4275 13.2796L16.4843 13.3025C16.5072 13.3117 16.5072 13.3265 16.485 13.3364C16.4627 13.3457 16.4263 13.3457 16.4035 13.337H16.4028L16.3466 13.3142L16.4275 13.2796Z" fill="#D9460C"/>
<path d="M13.3515 14.6178C13.4237 14.6468 13.4249 14.695 13.3539 14.7246C13.2829 14.7542 13.1674 14.7549 13.0952 14.7258L13.0378 14.703L12.9958 14.7209C12.9736 14.7302 12.9347 14.7295 12.91 14.7197C12.8853 14.7098 12.8834 14.6937 12.9062 14.6845L12.9489 14.6672L12.826 14.6178C12.8013 14.6079 12.8013 14.5919 12.8254 14.5814C12.8494 14.5715 12.8883 14.5709 12.913 14.5807L13.0359 14.6308L13.1174 14.5968L13.0612 14.5739C12.989 14.5449 12.9884 14.4968 13.0588 14.4671L13.0686 14.4628C13.1397 14.4332 13.2551 14.4325 13.3274 14.4616L13.3848 14.4844L13.4274 14.4671C13.4496 14.4579 13.4879 14.4579 13.5132 14.4684C13.5379 14.4782 13.5392 14.4943 13.5169 14.5036L13.4749 14.5215L13.5978 14.5709C13.6225 14.5807 13.6225 14.5974 13.5984 14.6073C13.5744 14.6178 13.5342 14.6178 13.5095 14.6079L13.3873 14.5579L13.2959 14.5962L13.3515 14.6178ZM13.2057 14.5591L13.2965 14.5215L13.2403 14.4986C13.2175 14.4894 13.1804 14.4894 13.1582 14.4986L13.1483 14.5029C13.1255 14.5122 13.1261 14.527 13.1489 14.5369L13.2057 14.5591ZM13.1823 14.6888C13.2051 14.6981 13.2422 14.6981 13.2644 14.6888C13.2866 14.6795 13.2866 14.6641 13.2638 14.6548L13.2076 14.632L13.1267 14.6659L13.1823 14.6888Z" fill="#D9460C"/>
<path d="M13.4079 13.9453C13.8433 14.1404 14.1131 14.359 14.1878 14.5764C14.2724 14.8233 14.0853 15.0716 13.7 15.2284C13.6926 15.2315 13.6852 15.2346 13.6772 15.2377L13.6481 15.2247C13.6556 15.2216 13.6623 15.2192 13.6698 15.2161C14.047 15.0635 14.2286 14.8209 14.1464 14.5788C14.0538 14.3084 13.6772 14.091 13.3777 13.957L13.4079 13.9453Z" fill="#D9460C"/>
<path d="M26.0109 17.065C26.0831 17.094 26.0843 17.1422 26.0133 17.1719C25.9429 17.2015 25.8262 17.2015 25.754 17.1725L25.6978 17.1496L25.6558 17.1675C25.633 17.1768 25.5953 17.1768 25.5706 17.1669C25.5447 17.1564 25.5434 17.141 25.5657 17.1311L25.6076 17.1138L25.4854 17.0638C25.4607 17.0539 25.4601 17.0379 25.4848 17.0274C25.5089 17.0175 25.5484 17.0169 25.5731 17.0274L25.6953 17.0768L25.7768 17.0428L25.7206 17.02C25.6484 16.9909 25.6478 16.9428 25.7182 16.9131L25.7281 16.9088C25.7991 16.8792 25.9152 16.8792 25.9874 16.9082L26.0436 16.931L26.0856 16.9131C26.1078 16.9039 26.1461 16.9039 26.1702 16.9137C26.1961 16.9242 26.1973 16.9397 26.1751 16.9489L26.1331 16.9668L26.256 17.0162C26.2801 17.0261 26.2807 17.0428 26.256 17.0527C26.2319 17.0626 26.1918 17.0626 26.1677 17.0527L26.0448 17.0033L25.9547 17.0422L26.0109 17.065ZM25.8651 17.0057L25.9565 16.9675L25.9003 16.9446H25.8997C25.8769 16.9354 25.8404 16.936 25.8182 16.9452L25.8083 16.9496C25.7855 16.9588 25.7861 16.9743 25.8089 16.9835L25.8651 17.0057ZM25.8423 17.136C25.8651 17.1453 25.9016 17.1447 25.9238 17.1354C25.946 17.1262 25.946 17.1107 25.9232 17.1015L25.867 17.0786L25.7855 17.1126L25.8417 17.1354C25.8417 17.1354 25.8423 17.1354 25.8423 17.136Z" fill="#D9460C"/>
<path d="M24.2213 18.2974L24.1935 18.3103C23.8601 18.1899 23.3241 18.0399 22.6646 18.0078C22.0737 17.9787 21.4877 18.059 21.124 18.2171C21.1172 18.2202 21.1104 18.2233 21.1036 18.2257L21.0728 18.214C21.0795 18.2109 21.087 18.2078 21.0944 18.2047C21.4661 18.043 22.0663 17.9608 22.6696 17.9905C23.2006 18.0164 23.7372 18.1226 24.2213 18.2974Z" fill="#D9460C"/>
<path d="M22.8174 19.2769L22.8155 20.4347L11.0488 15.6992L11.0507 14.5414L22.8174 19.2769Z" fill="#D9460C"/>
<path d="M21.546 16.0601C21.4337 16.1953 21.2219 16.3268 20.9168 16.451C20.3938 16.6634 19.772 16.7566 19.2521 16.7017C19.0434 16.6794 18.8557 16.635 18.684 16.5899C18.4346 16.5244 18.24 16.4633 18.0832 16.4003C18.0054 16.3688 17.9362 16.3373 17.8745 16.304C17.2675 15.9786 17.2187 15.6371 17.7399 15.3679C18.2339 15.1123 18.8754 14.9492 19.4559 14.9307C19.8739 14.9178 20.2574 14.9764 20.5963 15.1042C20.6538 15.1258 20.7118 15.1487 20.768 15.1709C21.3546 15.4074 21.848 15.6952 21.546 16.0601ZM20.8785 16.4349C21.178 16.3133 21.3855 16.1848 21.4948 16.0527C21.7881 15.6989 21.3046 15.4179 20.7297 15.1864C20.6735 15.1635 20.6167 15.1419 20.5599 15.1203C20.232 14.9962 19.8615 14.94 19.459 14.9523C18.8933 14.9702 18.266 15.1302 17.7813 15.3809C17.2762 15.6421 17.3249 15.973 17.9159 16.2904C17.9764 16.3225 18.0431 16.354 18.119 16.3843C18.274 16.4466 18.4648 16.5065 18.7118 16.5714C18.8798 16.6152 19.0638 16.6584 19.2644 16.68C19.7658 16.7338 20.3691 16.6424 20.8785 16.4349Z" fill="#D9460C"/>
<path d="M17.6561 17.1997V18.371L16.1902 17.7807L16.2143 16.6211L17.6561 17.1997Z" fill="#873B1D"/>
<path d="M22.8846 14.9998L17.6564 17.1999L16.2146 16.6213L21.4508 14.4237L22.8846 14.9998Z" fill="#FA6F4F"/>
<path d="M16.3268 11.0848L28.0935 15.8203L22.8597 18.0179L11.093 13.2824L16.3268 11.0848Z" fill="#FAB89E"/>
<path d="M28.0906 15.8193L28.0893 16.9505L22.8586 19.1759V18.0187L28.0906 15.8193Z" fill="#F46F3B"/>
<path d="M18.0797 12.1477C18.0717 12.1514 18.063 12.1551 18.055 12.1588C17.6826 12.3194 17.0843 12.4015 16.4829 12.3719C15.9525 12.3459 15.4165 12.2397 14.9312 12.065L14.9589 12.052C15.2924 12.1724 15.8277 12.3225 16.4878 12.3546C17.0757 12.3836 17.661 12.3039 18.0241 12.1465C18.0321 12.1428 18.0402 12.1397 18.0476 12.136L18.0797 12.1477Z" fill="#D9460C"/>
<path d="M25.4775 15.1246L25.5059 15.1369C25.4972 15.14 25.4892 15.1437 25.4812 15.1468C25.107 15.2999 24.9254 15.5414 25.0088 15.7828C25.1008 16.0533 25.4775 16.27 25.7776 16.4046L25.7467 16.4163C25.3114 16.2206 25.0415 16.0026 24.9674 15.7853C24.8835 15.5389 25.0687 15.2913 25.4522 15.1345C25.4602 15.1314 25.4688 15.1283 25.4775 15.1246Z" fill="#D9460C"/>
<path d="M22.8331 17.1582C22.9054 17.1872 22.9066 17.2354 22.8356 17.265C22.7646 17.2947 22.6491 17.2953 22.5769 17.2663L22.5194 17.2434L22.4775 17.2613C22.4546 17.2706 22.4163 17.27 22.3916 17.2601C22.3669 17.2502 22.3651 17.2342 22.3879 17.2249L22.4305 17.2076L22.3077 17.1582C22.283 17.1483 22.2823 17.1323 22.307 17.1218C22.3311 17.1119 22.37 17.1113 22.3947 17.1212L22.5176 17.1712L22.5991 17.1372L22.5429 17.1144C22.4707 17.0853 22.47 17.0372 22.5404 17.0075L22.5503 17.0032C22.6213 16.9736 22.7368 16.973 22.809 17.002L22.8665 17.0254L22.9085 17.0075C22.9307 16.9983 22.969 16.9983 22.9943 17.0088C23.019 17.0187 23.0202 17.0347 22.998 17.044L22.956 17.0613L23.0789 17.1107C23.1036 17.1205 23.1036 17.1372 23.0795 17.1471C23.0554 17.1576 23.0153 17.1576 22.9906 17.1477L22.8683 17.0977L22.7769 17.136L22.8331 17.1582ZM22.6874 17.0989L22.7782 17.0613L22.722 17.0384C22.6991 17.0292 22.6621 17.0292 22.6399 17.0384L22.63 17.0427C22.6071 17.052 22.6084 17.0668 22.6306 17.0767L22.6874 17.0989ZM22.6633 17.2286C22.6862 17.2379 22.7232 17.2379 22.7454 17.2286C22.7677 17.2193 22.7677 17.2039 22.7448 17.1946L22.6886 17.1718L22.6071 17.2058L22.6633 17.2286Z" fill="#D9460C"/>
<path d="M16.3382 11.4405L27.2299 15.824L22.8495 17.6628L11.9578 13.2794L16.3382 11.4405ZM22.8489 17.6351L27.1626 15.824L25.4812 15.1472L25.4775 15.125C25.4688 15.1287 25.4602 15.1318 25.4516 15.1355L18.0554 12.1586C18.064 12.1549 18.0721 12.1512 18.0801 12.1475L18.0486 12.1358L16.3394 11.4677L12.0257 13.2787L21.1378 16.946L21.1477 16.9669L22.8489 17.6351Z" fill="#D9460C"/>
<path d="M16.321 11.8556C16.2635 11.8797 16.253 11.9161 16.2901 11.9439C16.2987 11.9507 16.3099 11.9562 16.3234 11.9618L16.3796 11.9847L16.2981 12.0186L16.1759 11.9692C16.1666 11.9655 16.1549 11.963 16.1431 11.9624C16.1394 11.9624 16.1351 11.9618 16.1314 11.9618C16.1197 11.9618 16.1073 11.963 16.0974 11.9661C16.0937 11.9674 16.0907 11.968 16.0876 11.9692C16.0635 11.9797 16.0635 11.9958 16.0882 12.0056L16.2104 12.0557L16.1685 12.073C16.1654 12.0742 16.1629 12.0754 16.161 12.0767C16.1468 12.0859 16.1505 12.0995 16.1728 12.1081C16.1975 12.118 16.2358 12.1186 16.258 12.1088L16.3 12.0909L16.3562 12.1137C16.3741 12.1211 16.3951 12.1267 16.4173 12.1298C16.4235 12.131 16.4296 12.1316 16.4358 12.1322C16.4463 12.1335 16.4568 12.1341 16.4679 12.1347C16.4686 12.1347 16.4685 12.1347 16.4692 12.1347C16.4809 12.1353 16.4926 12.1353 16.5044 12.1347C16.5099 12.1347 16.5161 12.1341 16.5217 12.1335C16.5334 12.1322 16.5445 12.131 16.5556 12.1291C16.5612 12.1279 16.5667 12.1273 16.5717 12.1261C16.5822 12.1236 16.5927 12.1211 16.6019 12.1174C16.6069 12.1156 16.6112 12.1143 16.6155 12.1125C16.6464 12.0995 16.6637 12.0828 16.6674 12.0662C16.668 12.0637 16.668 12.0612 16.668 12.0587C16.668 12.0513 16.6649 12.0445 16.66 12.0371C16.6513 12.0254 16.6359 12.0143 16.613 12.0056L16.5569 11.9828L16.6476 11.9451L16.7705 11.9945C16.7798 11.9982 16.7909 12.0007 16.8032 12.0013C16.8069 12.0013 16.8113 12.0019 16.815 12.0019C16.831 12.0019 16.8471 11.9995 16.8588 11.9945C16.8687 11.9902 16.8742 11.9853 16.8761 11.9803C16.8786 11.9742 16.8755 11.9674 16.8668 11.9618C16.8644 11.9606 16.8619 11.9593 16.8588 11.9575L16.7359 11.9081L16.7779 11.8902C16.7822 11.8883 16.7853 11.8865 16.7878 11.884C16.7983 11.8747 16.794 11.863 16.7736 11.855C16.7514 11.8463 16.7199 11.8451 16.6976 11.8513C16.6945 11.8519 16.6915 11.8531 16.6884 11.8544L16.6458 11.8717L16.5896 11.8488C16.5803 11.8451 16.5711 11.842 16.5606 11.8395C16.5556 11.8383 16.5501 11.8371 16.5451 11.8358C16.5346 11.8334 16.5235 11.8315 16.5118 11.8303C16.4834 11.8272 16.4531 11.8266 16.4247 11.829C16.4019 11.8309 16.379 11.8346 16.3593 11.8402C16.3494 11.8426 16.3395 11.8463 16.3309 11.85L16.321 11.8556ZM16.4105 11.892L16.4204 11.8877C16.4426 11.8784 16.479 11.8784 16.5019 11.8871H16.5025L16.5587 11.9099L16.4673 11.9482L16.4111 11.9254C16.3883 11.9167 16.3877 11.9013 16.4105 11.892ZM16.4686 12.0217L16.5254 12.0445C16.5482 12.0538 16.5482 12.0686 16.526 12.0785C16.5037 12.0878 16.4673 12.0878 16.4445 12.0791H16.4439L16.3877 12.0563L16.4686 12.0217Z" fill="#D9460C"/>
<path d="M13.393 13.3598C13.4652 13.3888 13.4664 13.437 13.3954 13.4666C13.3244 13.4963 13.2089 13.4969 13.1367 13.4679L13.0793 13.445L13.0373 13.4629C13.0151 13.4722 12.9762 13.4716 12.9515 13.4617C12.9268 13.4518 12.9249 13.4358 12.9478 13.4265L12.9904 13.4092L12.8675 13.3598C12.8428 13.3499 12.8428 13.3339 12.8669 13.3234C12.8909 13.3135 12.9298 13.3129 12.9545 13.3228L13.0774 13.3728L13.1589 13.3388L13.1027 13.316C13.0305 13.287 13.0299 13.2388 13.1003 13.2091L13.1101 13.2048C13.1812 13.1752 13.2966 13.1746 13.3689 13.2036L13.4263 13.2264L13.4689 13.2091C13.4911 13.1999 13.5294 13.1999 13.5547 13.2104C13.5794 13.2203 13.5807 13.2363 13.5584 13.2456L13.5165 13.2629L13.6393 13.3123C13.664 13.3221 13.664 13.3388 13.6399 13.3487C13.6159 13.3592 13.5757 13.3592 13.551 13.3493L13.4288 13.2993L13.3374 13.3376L13.393 13.3598ZM13.2472 13.3005L13.338 13.2629L13.2818 13.24C13.259 13.2308 13.2219 13.2308 13.1997 13.24L13.1898 13.2443C13.167 13.2536 13.1676 13.2684 13.1904 13.2783L13.2472 13.3005ZM13.2238 13.4302C13.2466 13.4395 13.2837 13.4395 13.3059 13.4302C13.3281 13.4209 13.3281 13.4055 13.3053 13.3962L13.2491 13.3734L13.1682 13.4074L13.2238 13.4302Z" fill="#D9460C"/>
<path d="M13.449 12.6865C13.8849 12.8816 14.1541 13.1002 14.2288 13.3176C14.3134 13.5646 14.1263 13.8128 13.741 13.9696C13.7336 13.9727 13.7262 13.9758 13.7182 13.9789L13.6892 13.9659C13.6966 13.9628 13.7034 13.9604 13.7108 13.9573C14.088 13.8048 14.2696 13.5621 14.1875 13.32C14.0948 13.0496 13.7182 12.8322 13.4187 12.6982L13.449 12.6865Z" fill="#D9460C"/>
<path d="M26.0518 15.8063C26.124 15.8353 26.1252 15.8835 26.0542 15.9131C25.9838 15.9427 25.8671 15.9427 25.7949 15.9137L25.7387 15.8909L25.6967 15.9082C25.6739 15.9174 25.6362 15.9174 25.6115 15.9075C25.5856 15.8971 25.5843 15.8816 25.6072 15.8717L25.6492 15.8544L25.5269 15.8044C25.5022 15.7946 25.5022 15.7785 25.5263 15.768C25.5504 15.7581 25.5899 15.7575 25.6146 15.768L25.7368 15.8174L25.8184 15.7834L25.7622 15.7606C25.6899 15.7316 25.6893 15.6834 25.7597 15.6538L25.7696 15.6494C25.8406 15.6198 25.9567 15.6198 26.0289 15.6488L26.0851 15.6717L26.1271 15.6538C26.1493 15.6445 26.1876 15.6445 26.2123 15.6544C26.2382 15.6649 26.2395 15.6803 26.2172 15.6896L26.1753 15.7075L26.2981 15.7569C26.3222 15.7668 26.3228 15.7834 26.2981 15.7933C26.2741 15.8032 26.2339 15.8032 26.2098 15.7933L26.087 15.7439L25.9962 15.7816L26.0518 15.8063ZM25.9067 15.7476L25.998 15.7093L25.9419 15.6865H25.9412C25.9184 15.6772 25.882 15.6778 25.8597 15.6871L25.8498 15.6914C25.827 15.7007 25.8276 15.7161 25.8505 15.7254L25.9067 15.7476ZM25.8838 15.8773C25.9067 15.8866 25.9431 15.8859 25.9653 15.8767C25.9875 15.8674 25.9875 15.852 25.9647 15.8427L25.9085 15.8199L25.827 15.8538L25.8832 15.8767C25.8832 15.8773 25.8838 15.8773 25.8838 15.8773Z" fill="#D9460C"/>
<path d="M24.2628 17.0388L24.235 17.0518C23.9016 16.9313 23.3656 16.7813 22.7061 16.7492C22.1152 16.7202 21.5292 16.8004 21.1655 16.9585C21.1587 16.9616 21.1519 16.9647 21.1451 16.9672L21.1143 16.9554C21.1211 16.9523 21.1285 16.9493 21.1359 16.9462C21.5076 16.7844 22.1078 16.7023 22.7111 16.7319C23.2421 16.7578 23.7787 16.864 24.2628 17.0388Z" fill="#D9460C"/>
<path d="M22.8595 18.018L22.8583 19.1758L11.0916 14.4403L11.0934 13.2832L22.8595 18.018Z" fill="#D9460C"/>
<path d="M21.5885 14.8023C21.4761 14.9375 21.2643 15.069 20.9593 15.1931C20.4363 15.4056 19.8145 15.4988 19.2946 15.4438C19.0859 15.4216 18.8982 15.3772 18.7265 15.3321C18.477 15.2666 18.2825 15.2055 18.1257 15.1425C18.0479 15.111 17.9787 15.0795 17.917 15.0462C17.31 14.7208 17.2612 14.3793 17.7824 14.1101C18.2764 13.8544 18.9179 13.6914 19.4983 13.6729C19.9164 13.6599 20.2998 13.7186 20.6388 13.8464C20.6963 13.868 20.7543 13.8909 20.8105 13.9131C21.3971 14.149 21.8905 14.4367 21.5885 14.8023ZM20.921 15.1771C21.2205 15.0554 21.428 14.927 21.5373 14.7949C21.8306 14.4411 21.3471 14.1601 20.7722 13.9285C20.716 13.9057 20.6592 13.8841 20.6024 13.8625C20.2745 13.7384 19.904 13.6822 19.5014 13.6945C18.9358 13.7124 18.3085 13.8724 17.8237 14.123C17.3186 14.3842 17.3674 14.7152 17.9583 15.032C18.0189 15.0641 18.0856 15.0956 18.1615 15.1258C18.3165 15.1882 18.5073 15.2481 18.7543 15.3129C18.9222 15.3568 19.1062 15.4 19.3069 15.4216C19.8083 15.4753 20.4116 15.3839 20.921 15.1771Z" fill="#D9460C"/>
<path d="M17.6971 15.9411V17.1118L16.2312 16.5221L16.2547 15.3619L17.6971 15.9411Z" fill="#873B1D"/>
<path d="M22.9248 13.7408L17.6966 15.9409L16.2542 15.3617L21.4904 13.1641L22.9248 13.7408Z" fill="#FA6F4F"/>
<path d="M16.3656 9.82627L28.1323 14.5617L22.8985 16.7593L11.1318 12.0239L16.3656 9.82627Z" fill="#FAB89E"/>
<path d="M28.1285 14.5597L28.1273 15.6916L22.8966 17.917L22.896 16.7598L28.1285 14.5597Z" fill="#F46F3B"/>
<path d="M18.1178 10.8887C18.1097 10.8924 18.1011 10.8961 18.0931 10.8998C17.7207 11.0603 17.1224 11.1424 16.521 11.1128C15.9906 11.0869 15.4546 10.9807 14.9692 10.8059L14.997 10.793C15.3305 10.9134 15.8658 11.0634 16.5259 11.0955C17.1137 11.1245 17.6991 11.0449 18.0622 10.8874C18.0702 10.8837 18.0783 10.8806 18.0857 10.8769L18.1178 10.8887Z" fill="#D9460C"/>
<path d="M25.5151 13.8658L25.5435 13.8781C25.5348 13.8812 25.5268 13.8849 25.5188 13.888C25.1446 14.0411 24.963 14.2826 25.0464 14.524C25.1384 14.7944 25.5151 15.0112 25.8152 15.1458L25.7843 15.1575C25.349 14.9618 25.0791 14.7438 25.005 14.5265C24.9211 14.2801 25.1063 14.0325 25.4898 13.8756C25.4978 13.8725 25.5064 13.8688 25.5151 13.8658Z" fill="#D9460C"/>
<path d="M22.8707 15.8993C22.943 15.9283 22.9442 15.9765 22.8732 16.0061C22.8022 16.0357 22.6867 16.0364 22.6145 16.0073L22.557 15.9845L22.5151 16.0024C22.4922 16.0117 22.4539 16.011 22.4292 16.0012C22.4045 15.9913 22.4027 15.9752 22.4255 15.966L22.4681 15.9487L22.3453 15.8993C22.3206 15.8894 22.3199 15.8733 22.3446 15.8628C22.3687 15.853 22.4076 15.8524 22.4323 15.8622L22.5552 15.9122L22.6367 15.8783L22.5805 15.8554C22.5083 15.8264 22.5076 15.7783 22.578 15.7486L22.5879 15.7443C22.6589 15.7147 22.7744 15.714 22.8466 15.7431L22.9041 15.7665L22.9461 15.7486C22.9683 15.7394 23.0066 15.7394 23.0319 15.7499C23.0566 15.7597 23.0578 15.7758 23.0356 15.785L22.9936 15.803L23.1165 15.8524C23.1412 15.8622 23.1412 15.8789 23.1171 15.8888C23.093 15.8993 23.0529 15.8993 23.0282 15.8894L22.9059 15.8394L22.8145 15.8777L22.8707 15.8993ZM22.7256 15.8406L22.8164 15.803L22.7602 15.7801C22.7374 15.7708 22.7003 15.7708 22.6781 15.7801L22.6682 15.7844C22.6453 15.7937 22.6466 15.8085 22.6688 15.8184L22.7256 15.8406ZM22.7015 15.9703C22.7244 15.9796 22.7614 15.9796 22.7837 15.9703C22.8059 15.961 22.8059 15.9456 22.783 15.9363L22.7269 15.9135L22.6453 15.9474L22.7015 15.9703Z" fill="#D9460C"/>
<path d="M16.3758 10.1815L27.2675 14.565L22.8871 16.4038L11.9954 12.0203L16.3758 10.1815ZM22.8865 16.376L27.2002 14.565L25.5188 13.8882L25.5151 13.866C25.5064 13.8697 25.4978 13.8728 25.4892 13.8765L18.093 10.8996C18.1016 10.8959 18.1097 10.8922 18.1177 10.8885L18.0862 10.8768L16.377 10.2086L12.0633 12.0197L21.1754 15.6869L21.1853 15.7079L22.8865 16.376Z" fill="#D9460C"/>
<path d="M16.3598 10.5972C16.3024 10.6213 16.2919 10.6577 16.3289 10.6855C16.3376 10.6923 16.3487 10.6978 16.3623 10.7034L16.4185 10.7262L16.3369 10.7602L16.2147 10.7108C16.2054 10.7071 16.1937 10.7046 16.182 10.704C16.1783 10.7034 16.1739 10.7034 16.1702 10.7034C16.1585 10.7034 16.1461 10.7046 16.1363 10.7077C16.1326 10.7089 16.1295 10.7096 16.1264 10.7108C16.1023 10.7213 16.1023 10.7373 16.127 10.7472L16.2493 10.7972L16.2073 10.8145C16.2042 10.8158 16.2017 10.817 16.1999 10.8182C16.1857 10.8275 16.1894 10.8411 16.2116 10.8497C16.2363 10.8596 16.2746 10.8602 16.2968 10.8503L16.3388 10.8331L16.395 10.8559C16.4129 10.8633 16.4339 10.8689 16.4561 10.872C16.4623 10.8732 16.4685 10.8738 16.4746 10.8744C16.4851 10.8757 16.4956 10.8763 16.5068 10.8769C16.5074 10.8769 16.5074 10.8769 16.508 10.8769C16.5197 10.8775 16.5315 10.8775 16.5432 10.8769C16.5487 10.8769 16.5549 10.8763 16.5605 10.8757C16.5722 10.8744 16.5833 10.8732 16.5944 10.8713C16.6 10.8701 16.6055 10.8695 16.6105 10.8682C16.621 10.8658 16.6315 10.8633 16.6407 10.8596C16.6457 10.8578 16.65 10.8565 16.6543 10.8547C16.6852 10.8417 16.7025 10.825 16.7062 10.8084C16.7068 10.8059 16.7068 10.8034 16.7068 10.8009C16.7068 10.7935 16.7037 10.7867 16.6988 10.7793C16.6901 10.7676 16.6747 10.7565 16.6519 10.7478L16.5957 10.725L16.6864 10.6873L16.8093 10.7367C16.8186 10.7404 16.8297 10.7429 16.842 10.7435C16.8457 10.7435 16.8501 10.7441 16.8538 10.7441C16.8698 10.7441 16.8859 10.7417 16.8976 10.7367C16.9075 10.7324 16.9131 10.7275 16.9149 10.7225C16.9174 10.7163 16.9143 10.7096 16.9056 10.704C16.9032 10.7028 16.9007 10.7015 16.8976 10.6997L16.7747 10.6503L16.8167 10.6324C16.821 10.6305 16.8241 10.6287 16.8266 10.6262C16.8371 10.6169 16.8328 10.6052 16.8124 10.5972C16.7902 10.5885 16.7587 10.5873 16.7365 10.5935C16.7334 10.5941 16.7303 10.5953 16.7272 10.5966L16.6846 10.6138L16.6284 10.591C16.6191 10.5873 16.6099 10.5842 16.5994 10.5817C16.5944 10.5805 16.5889 10.5793 16.5839 10.578C16.5734 10.5756 16.5623 10.5737 16.5506 10.5725C16.5222 10.5694 16.4919 10.5688 16.4635 10.5712C16.4407 10.5731 16.4178 10.5768 16.3981 10.5824C16.3882 10.5848 16.3783 10.5885 16.3697 10.5922L16.3598 10.5972ZM16.4493 10.6336L16.4592 10.6293C16.4814 10.62 16.5179 10.62 16.5407 10.6287H16.5413L16.5975 10.6515L16.5061 10.6898L16.4499 10.667C16.4271 10.6577 16.4265 10.6423 16.4493 10.6336ZM16.5074 10.7627L16.5642 10.7855C16.587 10.7948 16.587 10.8096 16.5648 10.8195C16.5426 10.8287 16.5061 10.8287 16.4833 10.8201H16.4827L16.4265 10.7972L16.5074 10.7627Z" fill="#D9460C"/>
<path d="M13.432 12.1007C13.5043 12.1297 13.5055 12.1779 13.4345 12.2075C13.3635 12.2371 13.248 12.2378 13.1758 12.2087L13.1183 12.1859L13.0763 12.2038C13.0541 12.2131 13.0152 12.2124 12.9905 12.2026C12.9658 12.1927 12.964 12.1766 12.9868 12.1674L13.0294 12.1501L12.9065 12.1007C12.8818 12.0908 12.8818 12.0747 12.9059 12.0642C12.93 12.0544 12.9689 12.0538 12.9936 12.0636L13.1165 12.1136L13.198 12.0797L13.1418 12.0568C13.0696 12.0278 13.0689 11.9797 13.1393 11.95L13.1492 11.9457C13.2202 11.9161 13.3357 11.9154 13.4079 11.9445L13.4654 11.9673L13.508 11.95C13.5302 11.9408 13.5685 11.9408 13.5938 11.9513C13.6185 11.9611 13.6197 11.9772 13.5975 11.9864L13.5555 12.0044L13.6784 12.0538C13.7031 12.0636 13.7031 12.0803 13.679 12.0902C13.6549 12.1007 13.6148 12.1007 13.5901 12.0908L13.4678 12.0408L13.3764 12.0791L13.432 12.1007ZM13.2863 12.042L13.3771 12.0044L13.3209 11.9815C13.298 11.9722 13.261 11.9722 13.2387 11.9815L13.2289 11.9858C13.206 11.9951 13.2066 12.0099 13.2295 12.0198L13.2863 12.042ZM13.2622 12.1717C13.2851 12.181 13.3221 12.181 13.3443 12.1717C13.3666 12.1624 13.3666 12.147 13.3437 12.1377L13.2875 12.1149L13.2066 12.1488L13.2622 12.1717Z" fill="#D9460C"/>
<path d="M13.4868 11.4278C13.9221 11.6229 14.192 11.8415 14.2667 12.0588C14.3513 12.3058 14.1642 12.554 13.7789 12.7109C13.7715 12.714 13.764 12.7171 13.756 12.7201L13.727 12.7072C13.7344 12.7041 13.7412 12.7016 13.7486 12.6985C14.1259 12.546 14.3074 12.3033 14.2253 12.0613C14.1327 11.7908 13.756 11.5735 13.4565 11.4395L13.4868 11.4278Z" fill="#D9460C"/>
<path d="M26.09 14.548C26.1622 14.577 26.1634 14.6252 26.0924 14.6548C26.022 14.6845 25.9053 14.6845 25.8331 14.6555L25.7769 14.6326L25.7349 14.6505C25.7121 14.6598 25.6744 14.6598 25.6497 14.6499C25.6238 14.6394 25.6225 14.624 25.6448 14.6141L25.6868 14.5968L25.5645 14.5468C25.5398 14.5369 25.5392 14.5208 25.5639 14.5103C25.588 14.5005 25.6275 14.4999 25.6522 14.5103L25.7744 14.5597L25.8559 14.5258L25.7998 14.5029C25.7275 14.4739 25.7269 14.4258 25.7973 14.3961L25.8072 14.3918C25.8782 14.3622 25.9943 14.3622 26.0665 14.3912L26.1227 14.414L26.1647 14.3967C26.1869 14.3875 26.2252 14.3875 26.2499 14.3973C26.2758 14.4078 26.2771 14.4233 26.2548 14.4325L26.2128 14.4505L26.3357 14.4999C26.3598 14.5097 26.3604 14.5264 26.3357 14.5363C26.3116 14.5462 26.2715 14.5462 26.2474 14.5363L26.1245 14.4869L26.0338 14.5245L26.09 14.548ZM25.9442 14.4887L26.0356 14.4505L25.9794 14.4276H25.9788C25.956 14.4183 25.9195 14.419 25.8973 14.4282L25.8874 14.4325C25.8646 14.4418 25.8652 14.4572 25.888 14.4665L25.9442 14.4887ZM25.922 14.6184C25.9449 14.6277 25.9813 14.6271 26.0035 14.6178C26.0257 14.6085 26.0257 14.5931 26.0029 14.5838L25.9467 14.561L25.8652 14.5949L25.9214 14.6178C25.9214 14.6184 25.9214 14.6184 25.922 14.6184Z" fill="#D9460C"/>
<path d="M24.3019 15.7802L24.2741 15.7931C23.9406 15.6727 23.4047 15.5227 22.7452 15.4906C22.1543 15.4615 21.5683 15.5418 21.2046 15.6999C21.1978 15.703 21.191 15.7061 21.1842 15.7085L21.1533 15.6968C21.1601 15.6937 21.1675 15.6906 21.1749 15.6875C21.5467 15.5258 22.1468 15.4436 22.7501 15.4733C23.2812 15.4992 23.8171 15.6054 24.3019 15.7802Z" fill="#D9460C"/>
<path d="M22.8971 16.7596L22.8959 17.9167L11.1292 13.1819L11.1304 12.0241L22.8971 16.7596Z" fill="#D9460C"/>
<path d="M21.6259 13.5428C21.5135 13.678 21.3017 13.8095 20.9967 13.9336C20.4737 14.146 19.8518 14.2393 19.3319 14.1843C19.1232 14.1621 18.9355 14.1176 18.7638 14.0726C18.5144 14.0071 18.3199 13.946 18.163 13.883C18.0852 13.8515 18.0161 13.82 17.9543 13.7867C17.3473 13.4613 17.2986 13.1198 17.8197 12.8506C18.3137 12.5949 18.9553 12.4319 19.5357 12.4134C19.9537 12.4004 20.3372 12.4591 20.6762 12.5869C20.7336 12.6085 20.7917 12.6314 20.8478 12.6536C21.4345 12.8895 21.9284 13.1778 21.6259 13.5428ZM20.959 13.9176C21.2585 13.7959 21.4659 13.6675 21.5752 13.5354C21.8685 13.1815 21.3851 12.9006 20.8102 12.669C20.754 12.6462 20.6972 12.6246 20.6404 12.603C20.3125 12.4788 19.942 12.4227 19.5394 12.435C18.9738 12.4529 18.3464 12.6128 17.8617 12.8635C17.3566 13.1247 17.4054 13.4557 17.9963 13.7725C18.0568 13.8046 18.1235 13.8361 18.1995 13.8663C18.3545 13.9287 18.5453 13.9886 18.7923 14.0534C18.9602 14.0973 19.1442 14.1405 19.3449 14.1621C19.8463 14.2164 20.4496 14.1244 20.959 13.9176Z" fill="#D9460C"/>
<path d="M17.7364 14.6823V15.8537L16.2705 15.2634L16.294 14.1031L17.7364 14.6823Z" fill="#873B1D"/>
<path d="M22.9635 12.4824L17.7359 14.6825L16.2935 14.1033L21.5297 11.9056L22.9635 12.4824Z" fill="#FA6F4F"/>
<path d="M16.3754 8.57455L28.1421 13.31L22.9083 15.5076L11.1416 10.7722L16.3754 8.57455Z" fill="#FAB89E"/>
<path d="M28.1389 13.3087L28.1377 14.4399L22.907 16.6659V15.5087L28.1389 13.3087Z" fill="#F46F3B"/>
<path d="M18.1275 9.63682C18.1195 9.64052 18.1109 9.64423 18.1028 9.64793C17.7305 9.80848 17.1322 9.8906 16.5307 9.86096C16.0003 9.83503 15.4643 9.72882 14.979 9.55407L15.0068 9.54111C15.3402 9.66152 15.8756 9.81156 16.5357 9.84367C17.1235 9.87269 17.7089 9.79304 18.072 9.63558C18.08 9.63188 18.088 9.62879 18.0954 9.62508L18.1275 9.63682Z" fill="#D9460C"/>
<path d="M25.5253 12.6141L25.5537 12.6265C25.5451 12.6295 25.5371 12.6333 25.529 12.6363C25.1548 12.7895 24.9733 13.0309 25.0567 13.2723C25.1487 13.5428 25.5253 13.7595 25.8254 13.8941L25.7945 13.9059C25.3592 13.7101 25.0894 13.4922 25.0153 13.2748C24.9313 13.0284 25.1166 12.7808 25.5 12.624C25.508 12.6215 25.5167 12.6178 25.5253 12.6141Z" fill="#D9460C"/>
<path d="M22.881 14.6482C22.9532 14.6772 22.9545 14.7253 22.8835 14.755C22.8124 14.7846 22.697 14.7852 22.6247 14.7562L22.5673 14.7334L22.5253 14.7513C22.5025 14.7605 22.4642 14.7599 22.4395 14.75C22.4148 14.7402 22.4129 14.7241 22.4358 14.7148L22.4784 14.6975L22.3555 14.6482C22.3308 14.6383 22.3302 14.6222 22.3549 14.6117C22.379 14.6018 22.4179 14.6012 22.4426 14.6111L22.5654 14.6611L22.647 14.6272L22.5908 14.6043C22.5185 14.5753 22.5179 14.5271 22.5883 14.4975L22.5982 14.4932C22.6692 14.4635 22.7847 14.4629 22.8569 14.4919L22.9143 14.5154L22.9563 14.4975C22.9785 14.4882 23.0168 14.4882 23.0421 14.4987C23.0668 14.5086 23.0681 14.5247 23.0458 14.5339L23.0039 14.5518L23.1267 14.6012C23.1514 14.6111 23.1514 14.6278 23.1274 14.6377C23.1033 14.6482 23.0631 14.6482 23.0384 14.6383L22.9162 14.5883L22.8248 14.6265L22.881 14.6482ZM22.7359 14.5895L22.8266 14.5518L22.7705 14.529C22.7476 14.5197 22.7106 14.5197 22.6883 14.529L22.6784 14.5333C22.6556 14.5426 22.6568 14.5574 22.6791 14.5673L22.7359 14.5895ZM22.7118 14.7192C22.7346 14.7284 22.7717 14.7284 22.7939 14.7192C22.8161 14.7099 22.8161 14.6945 22.7933 14.6852L22.7371 14.6624L22.6556 14.6963L22.7118 14.7192Z" fill="#D9460C"/>
<path d="M16.3861 8.93002L27.2779 13.3135L22.8975 15.1524L12.0063 10.7689L16.3861 8.93002ZM22.8968 15.1246L27.2106 13.3135L25.5292 12.6367L25.5255 12.6145C25.5168 12.6182 25.5082 12.6213 25.4995 12.625L18.1033 9.64815C18.112 9.64444 18.12 9.64074 18.128 9.63703L18.0966 9.6253L16.3874 8.95718L12.0737 10.7683L21.1858 14.4355L21.1957 14.4565L22.8968 15.1246Z" fill="#D9460C"/>
<path d="M16.37 9.34514C16.3126 9.36922 16.3021 9.40565 16.3392 9.43344C16.3478 9.44023 16.3589 9.44641 16.3725 9.45135L16.4287 9.47419L16.3472 9.50815L16.2249 9.45875C16.2157 9.45505 16.2039 9.45258 16.1922 9.45196C16.1885 9.45135 16.1842 9.45135 16.1805 9.45135C16.1687 9.45135 16.1564 9.45258 16.1465 9.45567C16.1428 9.4569 16.1397 9.45752 16.1366 9.45875C16.1126 9.46925 16.1126 9.48531 16.1373 9.49519L16.2595 9.5452L16.2175 9.56249C16.2144 9.56373 16.212 9.56496 16.2101 9.5662C16.1959 9.57546 16.1996 9.58904 16.2218 9.59769C16.2465 9.60757 16.2848 9.60819 16.3071 9.59831L16.3491 9.58102L16.4052 9.60386C16.4231 9.61127 16.4441 9.61683 16.4664 9.61992C16.4725 9.62115 16.4787 9.62177 16.4849 9.62239C16.4954 9.62362 16.5059 9.62424 16.517 9.62486C16.5176 9.62486 16.5176 9.62486 16.5182 9.62486C16.53 9.62547 16.5417 9.62547 16.5534 9.62486C16.559 9.62486 16.5652 9.62424 16.5707 9.62362C16.5825 9.62239 16.5936 9.62115 16.6047 9.6193C16.6102 9.61806 16.6158 9.61745 16.6207 9.61621C16.6312 9.61374 16.6417 9.61127 16.651 9.60757C16.6559 9.60572 16.6603 9.60448 16.6646 9.60263C16.6955 9.58966 16.7127 9.57299 16.7165 9.55632C16.7171 9.55385 16.7171 9.55138 16.7171 9.54891C16.7171 9.5415 16.714 9.5347 16.709 9.52729C16.7004 9.51556 16.685 9.50445 16.6621 9.4958L16.6059 9.47296L16.6967 9.43529L16.8196 9.48469C16.8288 9.48839 16.8399 9.49086 16.8523 9.49148C16.856 9.49148 16.8603 9.4921 16.864 9.4921C16.8801 9.4921 16.8961 9.48963 16.9079 9.48469C16.9178 9.48037 16.9233 9.47543 16.9252 9.47049C16.9276 9.46431 16.9245 9.45752 16.9159 9.45196C16.9134 9.45073 16.911 9.44949 16.9079 9.44764L16.785 9.39824L16.827 9.38034C16.8313 9.37848 16.8344 9.37663 16.8369 9.37416C16.8474 9.3649 16.843 9.35317 16.8227 9.34514C16.8004 9.33649 16.7689 9.33526 16.7467 9.34143C16.7436 9.34205 16.7405 9.34329 16.7374 9.34452L16.6948 9.36181L16.6386 9.33896C16.6294 9.33526 16.6201 9.33217 16.6096 9.3297C16.6047 9.32847 16.5991 9.32723 16.5942 9.326C16.5837 9.32353 16.5726 9.32167 16.5608 9.32044C16.5324 9.31735 16.5022 9.31673 16.4738 9.3192C16.4509 9.32106 16.4281 9.32476 16.4083 9.33032C16.3985 9.33279 16.3886 9.33649 16.3799 9.3402L16.37 9.34514ZM16.4596 9.38157L16.4695 9.37725C16.4917 9.36799 16.5281 9.36799 16.551 9.37663H16.5516L16.6078 9.39948L16.5164 9.43776L16.4602 9.41491C16.4374 9.40627 16.4367 9.39083 16.4596 9.38157ZM16.5176 9.51124L16.5744 9.53409C16.5973 9.54335 16.5973 9.55817 16.575 9.56805C16.5528 9.57731 16.5164 9.57731 16.4935 9.56867H16.4929L16.4367 9.54582L16.5176 9.51124Z" fill="#D9460C"/>
<path d="M13.442 10.8496C13.5143 10.8786 13.5155 10.9268 13.4445 10.9564C13.3735 10.9861 13.258 10.9867 13.1858 10.9577L13.1283 10.9348L13.0864 10.9527C13.0641 10.962 13.0252 10.9614 13.0005 10.9515C12.9758 10.9416 12.974 10.9256 12.9968 10.9163L13.0394 10.899L12.9166 10.8496C12.8919 10.8397 12.8919 10.8237 12.9159 10.8132C12.94 10.8033 12.9789 10.8027 13.0036 10.8126L13.1265 10.8626L13.208 10.8286L13.1518 10.8058C13.0796 10.7767 13.0789 10.7286 13.1493 10.6989L13.1592 10.6946C13.2302 10.665 13.3457 10.6644 13.4179 10.6934L13.4754 10.7162L13.518 10.6989C13.5402 10.6897 13.5785 10.6897 13.6038 10.7002C13.6285 10.7101 13.6297 10.7261 13.6075 10.7354L13.5655 10.7533L13.6884 10.8027C13.7131 10.8126 13.7131 10.8292 13.689 10.8391C13.6649 10.8496 13.6248 10.8496 13.6001 10.8397L13.4778 10.7897L13.3865 10.828L13.442 10.8496ZM13.2963 10.7909L13.3871 10.7533L13.3309 10.7304C13.308 10.7212 13.271 10.7212 13.2488 10.7304L13.2389 10.7348C13.216 10.744 13.2173 10.7588 13.2395 10.7687L13.2963 10.7909ZM13.2722 10.9206C13.2951 10.9299 13.3321 10.9299 13.3543 10.9206C13.3766 10.9114 13.3766 10.8959 13.3537 10.8867L13.2975 10.8638L13.2166 10.8978L13.2722 10.9206Z" fill="#D9460C"/>
<path d="M13.4975 10.1763C13.9335 10.3714 14.2027 10.59 14.2774 10.8073C14.362 11.0543 14.1749 11.3026 13.7896 11.4594C13.7822 11.4625 13.7748 11.4656 13.7668 11.4687L13.7377 11.4557C13.7452 11.4526 13.7519 11.4501 13.7594 11.4471C14.1366 11.2945 14.3182 11.0519 14.236 10.8098C14.1434 10.5394 13.7668 10.322 13.4673 10.188L13.4975 10.1763Z" fill="#D9460C"/>
<path d="M26.101 13.2957C26.1732 13.3247 26.1744 13.3729 26.1034 13.4025C26.033 13.4321 25.9163 13.4321 25.8441 13.4031L25.7879 13.3803L25.7459 13.3982C25.7231 13.4074 25.6854 13.4074 25.6607 13.3976C25.6348 13.3871 25.6335 13.3716 25.6558 13.3617L25.6977 13.3445L25.5755 13.2944C25.5508 13.2846 25.5502 13.2685 25.5749 13.258C25.5989 13.2481 25.6385 13.2475 25.6632 13.258L25.7854 13.3074L25.8669 13.2734L25.8107 13.2506C25.7385 13.2216 25.7379 13.1734 25.8083 13.1438L25.8181 13.1394C25.8892 13.1098 26.0052 13.1098 26.0775 13.1388L26.1337 13.1617L26.1757 13.1444C26.1979 13.1351 26.2362 13.1351 26.2609 13.145C26.2868 13.1555 26.2881 13.1709 26.2658 13.1802L26.2238 13.1981L26.3467 13.2475C26.3708 13.2574 26.3714 13.2741 26.3467 13.2839C26.3226 13.2938 26.2825 13.2938 26.2584 13.2839L26.1355 13.2345L26.0448 13.2722L26.101 13.2957ZM25.9552 13.237L26.0466 13.1987L25.9904 13.1759H25.9898C25.967 13.1666 25.9305 13.1672 25.9083 13.1765L25.8984 13.1808C25.8756 13.1901 25.8762 13.2055 25.899 13.2148L25.9552 13.237ZM25.933 13.3667C25.9558 13.3759 25.9923 13.3753 26.0145 13.3661C26.0367 13.3568 26.0367 13.3414 26.0139 13.3321L25.9577 13.3093L25.8762 13.3432L25.9324 13.3661C25.9324 13.3667 25.9324 13.3667 25.933 13.3667Z" fill="#D9460C"/>
<path d="M24.3116 14.5286L24.2838 14.5415C23.9504 14.4211 23.4144 14.2711 22.7549 14.239C22.164 14.21 21.578 14.2902 21.2143 14.4483C21.2075 14.4514 21.2008 14.4545 21.194 14.457L21.1631 14.4452C21.1699 14.4421 21.1773 14.439 21.1847 14.436C21.5564 14.2742 22.1566 14.1921 22.7599 14.2217C23.2909 14.247 23.8275 14.3532 24.3116 14.5286Z" fill="#D9460C"/>
<path d="M22.9073 15.5071L22.9061 16.6649L11.1394 11.9295L11.1406 10.7723L22.9073 15.5071Z" fill="#D9460C"/>
<path d="M21.6356 12.2917C21.5233 12.4269 21.3115 12.5584 21.0064 12.6825C20.4834 12.8949 19.8616 12.9882 19.3417 12.9332C19.133 12.911 18.9453 12.8665 18.7736 12.8215C18.5242 12.756 18.3296 12.6949 18.1728 12.6319C18.095 12.6004 18.0258 12.5689 17.9641 12.5356C17.3571 12.2102 17.3083 11.8687 17.8295 11.5995C18.3235 11.3438 18.965 11.1808 19.5455 11.1623C19.9635 11.1493 20.347 11.208 20.686 11.3358C20.7434 11.3574 20.8014 11.3803 20.8576 11.4025C21.4442 11.6384 21.9382 11.9261 21.6356 12.2917ZM20.9688 12.6665C21.2682 12.5448 21.4757 12.4164 21.585 12.2843C21.8783 11.9304 21.3948 11.6495 20.8199 11.4179C20.7638 11.3951 20.7069 11.3735 20.6501 11.3519C20.3223 11.2278 19.9518 11.1716 19.5492 11.1839C18.9836 11.2018 18.3562 11.3617 17.8715 11.6124C17.3664 11.8736 17.4152 12.2046 18.0061 12.5214C18.0666 12.5535 18.1333 12.585 18.2092 12.6152C18.3642 12.6776 18.555 12.7375 18.802 12.8023C18.97 12.8462 19.154 12.8894 19.3547 12.911C19.8561 12.9647 20.4593 12.8733 20.9688 12.6665Z" fill="#D9460C"/>
<path d="M17.7454 13.4306V14.6014L16.2795 14.0117L16.303 12.8514L17.7454 13.4306Z" fill="#873B1D"/>
<path d="M22.9745 11.2309L17.7469 13.431L16.3044 12.8518L21.5407 10.6541L22.9745 11.2309Z" fill="#FA6F4F"/>
<path d="M16.4064 7.2691L28.1731 12.0046L22.9393 14.2022L11.1726 9.46672L16.4064 7.2691Z" fill="#FAB89E"/>
<path d="M28.1698 12.0026L28.1679 13.1344L22.9373 15.3598V14.2027L28.1698 12.0026Z" fill="#F46F3B"/>
<path d="M18.1583 8.33125C18.1503 8.33496 18.1416 8.33866 18.1336 8.34237C17.7613 8.50291 17.1629 8.58504 16.5615 8.5554C16.0311 8.52946 15.4951 8.42326 15.0098 8.24851L15.0376 8.23554C15.371 8.35595 15.9063 8.506 16.5664 8.53811C17.1543 8.56713 17.7396 8.48747 18.1027 8.33002C18.1108 8.32631 18.1188 8.32322 18.1262 8.31952L18.1583 8.33125Z" fill="#D9460C"/>
<path d="M25.5568 11.3085L25.5852 11.3209C25.5766 11.324 25.5686 11.3277 25.5605 11.3308C25.1863 11.4839 25.0048 11.7253 25.0881 11.9668C25.1802 12.2372 25.5568 12.454 25.8569 12.5886L25.826 12.6003C25.3907 12.4046 25.1209 12.1866 25.0468 11.9692C24.9628 11.7229 25.148 11.4753 25.5315 11.3184C25.5389 11.3153 25.5482 11.3116 25.5568 11.3085Z" fill="#D9460C"/>
<path d="M16.4178 7.62379L27.3095 12.0073L22.9291 13.8461L12.0374 9.46265L16.4178 7.62379ZM22.9285 13.8184L27.2422 12.0073L25.5608 11.3305L25.5571 11.3083C25.5484 11.312 25.5398 11.3151 25.5312 11.3188L18.1344 8.34192C18.143 8.33822 18.151 8.33451 18.1591 8.33081L18.1276 8.31908L16.4184 7.65096L12.1047 9.46203L21.2168 13.1292L21.2267 13.1502L22.9285 13.8184Z" fill="#D9460C"/>
<path d="M13.5283 8.87013C13.9636 9.06526 14.2335 9.28384 14.3082 9.5012C14.3928 9.74819 14.2057 9.99642 13.8204 10.1533C13.813 10.1563 13.8056 10.1594 13.7975 10.1625L13.7685 10.1496C13.7759 10.1465 13.7827 10.144 13.7901 10.1409C14.1674 9.98839 14.3489 9.74572 14.2668 9.50367C14.1742 9.23321 13.7975 9.01586 13.498 8.88186L13.5283 8.87013Z" fill="#D9460C"/>
<path d="M24.3424 13.2227L24.3146 13.2357C23.9812 13.1153 23.4452 12.9653 22.7857 12.9332C22.1948 12.9041 21.6088 12.9844 21.2451 13.1425C21.2383 13.1456 21.2315 13.1487 21.2247 13.1511L21.1938 13.1394C21.2006 13.1363 21.208 13.1332 21.2155 13.1301C21.5872 12.9683 22.1874 12.8862 22.7907 12.9159C23.3211 12.9418 23.8577 13.048 24.3424 13.2227Z" fill="#D9460C"/>
<path d="M22.939 14.2022L22.9371 15.3594L11.1704 10.6245L11.1723 9.46674L22.939 14.2022Z" fill="#D9460C"/>
<path d="M21.6674 10.9856C21.555 11.1208 21.3432 11.2523 21.0382 11.3764C20.5152 11.5888 19.8934 11.6821 19.3734 11.6271C19.1647 11.6049 18.977 11.5604 18.8054 11.5153C18.5559 11.4499 18.3614 11.3888 18.2045 11.3258C18.1267 11.2943 18.0576 11.2628 17.9958 11.2295C17.3889 10.904 17.3401 10.5626 17.8612 10.2934C18.3552 10.0377 18.9968 9.8747 19.5772 9.85618C19.9952 9.84321 20.3787 9.90187 20.7177 10.0297C20.7751 10.0513 20.8332 10.0741 20.8893 10.0964C21.476 10.3323 21.9693 10.6206 21.6674 10.9856ZM21.0005 11.3604C21.3 11.2387 21.5074 11.1103 21.6167 10.9781C21.91 10.6243 21.4266 10.3434 20.8517 10.1118C20.7955 10.089 20.7387 10.0674 20.6819 10.0457C20.354 9.92163 19.9835 9.86544 19.5809 9.87779C19.0153 9.8957 18.3879 10.0556 17.9032 10.3063C17.3981 10.5675 17.4469 10.8985 18.0378 11.2153C18.0983 11.2474 18.165 11.2789 18.241 11.3091C18.396 11.3715 18.5868 11.4314 18.8338 11.4962C19.0017 11.54 19.1857 11.5833 19.3864 11.6049C19.8878 11.6592 20.4905 11.5672 21.0005 11.3604Z" fill="#D9460C"/>
<path d="M17.7774 12.1248V13.2962L16.3115 12.7059L16.3356 11.5456L17.7774 12.1248Z" fill="#873B1D"/>
<path d="M23.0045 9.92451L17.7763 12.1246L16.3345 11.5454L21.5707 9.34779L23.0045 9.92451Z" fill="#FA6F4F"/>
<path d="M9.7052 15.6817L21.4719 20.4172L16.2381 22.6148L4.47144 17.8793L9.7052 15.6817Z" fill="#FAB89E"/>
<path d="M21.4686 20.4155L21.4668 21.5468L16.2361 23.7728V22.6156L21.4686 20.4155Z" fill="#F46F3B"/>
<path d="M11.4574 16.7438C11.4493 16.7475 11.4407 16.7512 11.4327 16.7549C11.0603 16.9155 10.462 16.9976 9.86057 16.9679C9.33015 16.942 8.79418 16.8358 8.30884 16.6611L8.33663 16.6481C8.67006 16.7685 9.20542 16.9186 9.86551 16.9507C10.4533 16.9797 11.0387 16.9 11.4018 16.7426C11.4098 16.7389 11.4179 16.7358 11.4253 16.7321L11.4574 16.7438Z" fill="#D9460C"/>
<path d="M18.8544 19.7212L18.8828 19.7335C18.8742 19.7366 18.8662 19.7403 18.8581 19.7434C18.4839 19.8965 18.3024 20.138 18.3858 20.3794C18.4778 20.6499 18.8544 20.8666 19.1545 21.0012L19.1236 21.0129C18.6883 20.8172 18.4185 20.5992 18.3444 20.3819C18.2604 20.1355 18.4457 19.8879 18.8291 19.731C18.8371 19.728 18.8458 19.7242 18.8544 19.7212Z" fill="#D9460C"/>
<path d="M16.2118 21.7545C16.284 21.7835 16.2853 21.8316 16.2143 21.8613C16.1433 21.8909 16.0278 21.8915 15.9555 21.8625L15.8981 21.8397L15.8561 21.8576C15.8333 21.8668 15.795 21.8662 15.7703 21.8563C15.7456 21.8465 15.7438 21.8304 15.7666 21.8211L15.8092 21.8039L15.6863 21.7545C15.6616 21.7446 15.6616 21.7285 15.6857 21.718C15.7098 21.7081 15.7487 21.7075 15.7734 21.7174L15.8963 21.7674L15.9778 21.7335L15.9216 21.7106C15.8493 21.6816 15.8487 21.6334 15.9191 21.6038L15.929 21.5995C16 21.5698 16.1155 21.5692 16.1877 21.5982L16.2451 21.6217L16.2871 21.6038C16.3094 21.5945 16.3476 21.5945 16.373 21.605C16.3977 21.6149 16.3989 21.631 16.3767 21.6402L16.3347 21.6581L16.4576 21.7075C16.4823 21.7174 16.4823 21.7341 16.4582 21.744C16.4341 21.7545 16.394 21.7545 16.3693 21.7446L16.247 21.6946L16.1556 21.7328L16.2118 21.7545ZM16.0661 21.6958L16.1568 21.6581L16.1007 21.6353C16.0778 21.626 16.0408 21.626 16.0185 21.6353L16.0087 21.6396C15.9858 21.6489 15.987 21.6637 16.0093 21.6736L16.0661 21.6958ZM16.042 21.8255C16.0648 21.8347 16.1019 21.8347 16.1241 21.8255C16.1463 21.8162 16.1463 21.8008 16.1235 21.7915L16.0673 21.7687L15.9858 21.8026L16.042 21.8255Z" fill="#D9460C"/>
<path d="M9.71585 16.0367L20.6076 20.4202L16.2272 22.2596L5.33545 17.8762L9.71585 16.0367ZM16.2266 22.2312L20.5403 20.4202L18.8589 19.7434L18.8552 19.7212C18.8465 19.7249 18.8379 19.728 18.8292 19.7317L11.4331 16.7548C11.4417 16.7511 11.4497 16.7474 11.4578 16.7437L11.4263 16.732L9.71709 16.0639L5.40337 17.8749L14.5155 21.5421L14.5254 21.5631L16.2266 22.2312Z" fill="#D9460C"/>
<path d="M9.70012 16.4521C9.6427 16.4761 9.6322 16.5126 9.66925 16.5404C9.67789 16.5471 9.68901 16.5527 9.70259 16.5583L9.75878 16.5811L9.67728 16.6151L9.55502 16.5657C9.54575 16.562 9.53402 16.5595 9.52229 16.5589C9.51858 16.5583 9.51426 16.5583 9.51056 16.5583C9.49882 16.5583 9.48647 16.5595 9.47659 16.5626C9.47289 16.5638 9.4698 16.5644 9.46672 16.5657C9.44263 16.5762 9.44263 16.5922 9.46733 16.6021L9.58959 16.6521L9.54761 16.6694C9.54452 16.6706 9.54205 16.6719 9.5402 16.6731C9.52599 16.6824 9.5297 16.696 9.55193 16.7046C9.57663 16.7145 9.61491 16.7151 9.63714 16.7052L9.67913 16.6873L9.73532 16.7102C9.75323 16.7176 9.77422 16.7231 9.79645 16.7262C9.80262 16.7275 9.8088 16.7281 9.81497 16.7287C9.82547 16.7299 9.83597 16.7305 9.84708 16.7312C9.8477 16.7312 9.8477 16.7312 9.84832 16.7312C9.86005 16.7318 9.87178 16.7318 9.8829 16.7312C9.88845 16.7312 9.89463 16.7305 9.90019 16.7299C9.91192 16.7287 9.92303 16.7275 9.93415 16.7256C9.9397 16.7244 9.94526 16.7237 9.9502 16.7225C9.9607 16.72 9.9712 16.7176 9.98046 16.7139C9.9854 16.712 9.98972 16.7108 9.99404 16.7089C10.0249 16.696 10.0422 16.6793 10.0459 16.6626C10.0465 16.6601 10.0465 16.6577 10.0465 16.6552C10.0465 16.6478 10.0434 16.641 10.0385 16.6336C10.0299 16.6219 10.0144 16.6107 9.99157 16.6021L9.93538 16.5793L10.0262 16.5416L10.149 16.591C10.1583 16.5947 10.1694 16.5972 10.1818 16.5978C10.1855 16.5978 10.1898 16.5984 10.1935 16.5984C10.2095 16.5984 10.2256 16.5959 10.2373 16.591C10.2472 16.5867 10.2528 16.5817 10.2546 16.5768C10.2571 16.5706 10.254 16.5638 10.2454 16.5583C10.2429 16.557 10.2404 16.5558 10.2373 16.5539L10.1145 16.5045L10.1564 16.4866C10.1608 16.4848 10.1639 16.4829 10.1663 16.4805C10.1768 16.4712 10.1725 16.4595 10.1521 16.4514C10.1299 16.4428 10.0984 16.4416 10.0762 16.4477C10.0731 16.4484 10.07 16.4496 10.0669 16.4508L10.0243 16.4681L9.96811 16.4453C9.95885 16.4416 9.94959 16.4385 9.93909 16.436C9.93415 16.4348 9.92859 16.4335 9.92365 16.4323C9.91315 16.4298 9.90204 16.428 9.89031 16.4267C9.8619 16.4237 9.83165 16.423 9.80324 16.4255C9.78039 16.4274 9.75755 16.4311 9.73779 16.4366C9.72791 16.4391 9.71803 16.4428 9.70939 16.4465L9.70012 16.4521ZM9.78966 16.4879L9.79954 16.4835C9.82177 16.4743 9.8582 16.4743 9.88104 16.4829H9.88166L9.93785 16.5058L9.84647 16.5441L9.79028 16.5212C9.76743 16.5126 9.76681 16.4971 9.78966 16.4879ZM9.8477 16.6175L9.90451 16.6404C9.92736 16.6497 9.92735 16.6645 9.90513 16.6743C9.8829 16.6836 9.84647 16.6836 9.82362 16.675H9.823L9.76681 16.6521L9.8477 16.6175Z" fill="#D9460C"/>
<path d="M6.77186 17.9559C6.84411 17.9849 6.84534 18.033 6.77433 18.0627C6.70332 18.0923 6.58785 18.0929 6.51561 18.0639L6.45818 18.0411L6.41619 18.059C6.39396 18.0682 6.35506 18.0676 6.33036 18.0577C6.30566 18.0479 6.30381 18.0318 6.32666 18.0225L6.36926 18.0053L6.24638 17.9559C6.22169 17.946 6.22169 17.9299 6.24577 17.9194C6.26985 17.9096 6.30875 17.9089 6.33345 17.9188L6.45633 17.9688L6.53784 17.9349L6.48164 17.912C6.4094 17.883 6.40878 17.8348 6.47918 17.8052L6.48906 17.8009C6.56007 17.7712 6.67554 17.7712 6.74778 17.7996L6.80521 17.8225L6.84781 17.8052C6.87004 17.7959 6.90832 17.7959 6.93364 17.8064C6.95834 17.8163 6.95957 17.8324 6.93735 17.8416L6.89536 17.8595L7.01824 17.9089C7.04293 17.9188 7.04294 17.9355 7.01885 17.9454C6.99477 17.9559 6.95464 17.9559 6.92994 17.946L6.80768 17.896L6.71629 17.9342L6.77186 17.9559ZM6.62614 17.8972L6.71691 17.8595L6.66072 17.8367C6.63787 17.8274 6.60082 17.8274 6.57859 17.8367L6.56871 17.841C6.54586 17.8503 6.5471 17.8651 6.56933 17.875L6.62614 17.8972ZM6.60267 18.0269C6.62552 18.0361 6.66257 18.0361 6.6848 18.0269C6.70703 18.0176 6.70703 18.0022 6.68418 17.9929L6.62799 17.9701L6.5471 18.004L6.60267 18.0269Z" fill="#D9460C"/>
<path d="M6.82713 17.2828C7.26245 17.4779 7.53229 17.6965 7.60701 17.9138C7.6916 18.1608 7.50451 18.409 7.1192 18.5659C7.11179 18.569 7.10438 18.5721 7.09635 18.5751L7.06733 18.5622C7.07474 18.5591 7.08153 18.5566 7.08894 18.5535C7.46622 18.401 7.64776 18.1583 7.56564 17.9163C7.47302 17.6458 7.09635 17.4285 6.79688 17.2945L6.82713 17.2828Z" fill="#D9460C"/>
<path d="M19.4305 20.4023C19.5028 20.4313 19.504 20.4794 19.433 20.5091C19.3626 20.5387 19.2459 20.5387 19.1737 20.5097L19.1175 20.4868L19.0755 20.5048C19.0526 20.514 19.015 20.514 18.9903 20.5041C18.9643 20.4936 18.9631 20.4782 18.9853 20.4683L19.0273 20.451L18.9051 20.401C18.8804 20.3911 18.8797 20.3751 18.9044 20.3646C18.9285 20.3547 18.968 20.3541 18.9927 20.3646L19.115 20.414L19.1965 20.38L19.1403 20.3572C19.0681 20.3282 19.0675 20.28 19.1379 20.2504L19.1477 20.246C19.2187 20.2164 19.3348 20.2164 19.4071 20.2454L19.4633 20.2683L19.5053 20.2504C19.5275 20.2411 19.5658 20.2411 19.5899 20.251C19.6158 20.2615 19.617 20.2769 19.5948 20.2862L19.5528 20.3041L19.6757 20.3535C19.6998 20.3634 19.7004 20.38 19.6757 20.3899C19.6516 20.3998 19.6115 20.3998 19.5874 20.3899L19.4645 20.3405L19.3737 20.3782L19.4305 20.4023ZM19.2854 20.3436L19.3768 20.3053L19.3206 20.2825H19.32C19.2972 20.2732 19.2607 20.2738 19.2385 20.2831L19.2286 20.2874C19.2058 20.2967 19.2064 20.3121 19.2292 20.3214L19.2854 20.3436ZM19.2626 20.4733C19.2854 20.4825 19.3219 20.4819 19.3441 20.4726C19.3663 20.4634 19.3663 20.4479 19.3435 20.4387L19.2873 20.4158L19.2058 20.4498L19.262 20.4726C19.262 20.4733 19.2626 20.4733 19.2626 20.4733Z" fill="#D9460C"/>
<path d="M17.6415 21.635L17.6137 21.648C17.2802 21.5276 16.7443 21.3776 16.0848 21.3455C15.4939 21.3164 14.9079 21.3967 14.5442 21.5548C14.5374 21.5579 14.5306 21.561 14.5238 21.5634L14.4929 21.5517C14.4997 21.5486 14.5071 21.5455 14.5145 21.5424C14.8863 21.3806 15.4864 21.2985 16.0897 21.3282C16.6208 21.3535 17.1573 21.4597 17.6415 21.635Z" fill="#D9460C"/>
<path d="M16.2374 22.614L16.2362 23.7718L4.46948 19.0369L4.47133 17.8792L16.2374 22.614Z" fill="#D9460C"/>
<path d="M14.9655 19.3979C14.8531 19.5331 14.6413 19.6647 14.3363 19.7888C13.8133 20.0012 13.1914 20.0944 12.6715 20.0395C12.4628 20.0172 12.2751 19.9728 12.1034 19.9277C11.854 19.8623 11.6595 19.8011 11.5026 19.7381C11.4248 19.7066 11.3557 19.6752 11.2939 19.6418C10.6869 19.3164 10.6382 18.9749 11.1593 18.7057C11.6533 18.4501 12.2949 18.2871 12.8753 18.2685C13.2933 18.2556 13.6768 18.3142 14.0158 18.442C14.0732 18.4637 14.1313 18.4865 14.1874 18.5087C14.7741 18.7446 15.2674 19.0324 14.9655 19.3979ZM14.298 19.7727C14.5975 19.6511 14.8049 19.5226 14.9142 19.3905C15.2075 19.0367 14.724 18.7557 14.1492 18.5242C14.093 18.5019 14.0362 18.4797 13.9794 18.4581C13.6515 18.334 13.281 18.2778 12.8784 18.2901C12.3128 18.3081 11.6854 18.468 11.2007 18.7187C10.6956 18.9799 10.7444 19.3108 11.3353 19.6276C11.3958 19.6597 11.4625 19.6912 11.5385 19.7215C11.6934 19.7838 11.8842 19.8437 12.1312 19.9086C12.2992 19.9524 12.4832 19.9956 12.6839 20.0172C13.1853 20.071 13.7886 19.9796 14.298 19.7727Z" fill="#D9460C"/>
<path d="M11.0767 20.5374V21.7082L9.61084 21.1185L9.6343 19.9582L11.0767 20.5374Z" fill="#873B1D"/>
<path d="M16.3042 18.3375L11.076 20.5376L9.63354 19.9584L14.8698 17.7607L16.3042 18.3375Z" fill="#FA6F4F"/>
<path d="M9.63879 14.3113L21.4055 19.0468L16.1717 21.2444L4.40503 16.5089L9.63879 14.3113Z" fill="#FAB89E"/>
<path d="M21.4016 19.0445L21.4004 20.1764L16.1697 22.4018V21.2446L21.4016 19.0445Z" fill="#F46F3B"/>
<path d="M11.391 15.3738C11.3829 15.3775 11.3743 15.3812 11.3663 15.385C10.9939 15.5455 10.3956 15.6276 9.79416 15.598C9.26374 15.5721 8.72777 15.4658 8.24243 15.2911L8.27022 15.2781C8.60366 15.3985 9.13901 15.5486 9.7991 15.5807C10.3869 15.6097 10.9723 15.5301 11.3354 15.3726C11.3434 15.3689 11.3514 15.3658 11.3589 15.3621L11.391 15.3738Z" fill="#D9460C"/>
<path d="M18.7875 18.3511L18.8159 18.3634C18.8073 18.3665 18.7993 18.3702 18.7912 18.3733C18.417 18.5264 18.2355 18.7679 18.3189 19.0093C18.4109 19.2797 18.7875 19.4965 19.0876 19.6311L19.0568 19.6428C18.6214 19.4471 18.3516 19.2291 18.2775 19.0118C18.1935 18.7654 18.3788 18.5178 18.7622 18.3609C18.7702 18.3579 18.7789 18.3548 18.7875 18.3511Z" fill="#D9460C"/>
<path d="M16.1437 20.3844C16.2159 20.4134 16.2172 20.4615 16.1462 20.4912C16.0751 20.5208 15.9597 20.5214 15.8874 20.4924L15.83 20.4696L15.788 20.4875C15.7652 20.4967 15.7269 20.4961 15.7022 20.4862C15.6775 20.4764 15.6756 20.4603 15.6985 20.451L15.7411 20.4338L15.6182 20.3844C15.5935 20.3745 15.5935 20.3584 15.6176 20.3479C15.6417 20.338 15.6806 20.3374 15.7053 20.3473L15.8282 20.3973L15.9097 20.3634L15.8535 20.3405C15.7812 20.3115 15.7806 20.2633 15.851 20.2337L15.8609 20.2294C15.9319 20.1997 16.0474 20.1997 16.1196 20.2281L16.177 20.2516L16.219 20.2337C16.2412 20.2244 16.2795 20.2244 16.3049 20.2349C16.3296 20.2448 16.3308 20.2609 16.3086 20.2701L16.2666 20.288L16.3894 20.3374C16.4141 20.3473 16.4141 20.364 16.3901 20.3739C16.366 20.3844 16.3258 20.3844 16.3011 20.3745L16.1789 20.3245L16.0875 20.3627L16.1437 20.3844ZM15.9986 20.3257L16.0893 20.288L16.0332 20.2652C16.0103 20.2559 15.9733 20.2559 15.951 20.2652L15.9412 20.2695C15.9183 20.2788 15.9195 20.2936 15.9418 20.3035L15.9986 20.3257ZM15.9745 20.4554C15.9973 20.4646 16.0344 20.4646 16.0566 20.4554C16.0789 20.4461 16.0789 20.4307 16.056 20.4214L15.9998 20.3986L15.9183 20.4325L15.9745 20.4554Z" fill="#D9460C"/>
<path d="M9.64896 14.6665L20.5407 19.05L16.1603 20.8889L5.26855 16.5054L9.64896 14.6665ZM16.1597 20.8617L20.4734 19.0506L18.792 18.3739L18.7883 18.3516C18.7796 18.3553 18.771 18.3584 18.7624 18.3621L11.3662 15.3853C11.3748 15.3815 11.3828 15.3778 11.3909 15.3741L11.3594 15.3624L9.65019 14.6943L5.33648 16.5054L14.4486 20.1726L14.4585 20.1936L16.1597 20.8617Z" fill="#D9460C"/>
<path d="M9.63225 15.082C9.57483 15.106 9.56433 15.1425 9.60138 15.1703C9.61002 15.177 9.62114 15.1832 9.63472 15.1882L9.69091 15.211L9.6094 15.245L9.48714 15.1956C9.47788 15.1919 9.46615 15.1894 9.45442 15.1888C9.45071 15.1882 9.44639 15.1882 9.44268 15.1882C9.43095 15.1882 9.4186 15.1894 9.40872 15.1925C9.40502 15.1937 9.40193 15.1943 9.39884 15.1956C9.37476 15.2061 9.37476 15.2221 9.39946 15.232L9.52172 15.282L9.47973 15.2993C9.47665 15.3005 9.47418 15.3018 9.47232 15.303C9.45812 15.3123 9.46183 15.3259 9.48406 15.3345C9.50876 15.3444 9.54704 15.345 9.56927 15.3351L9.61126 15.3172L9.66745 15.3401C9.68536 15.3475 9.70635 15.353 9.72858 15.3561C9.73475 15.3574 9.74093 15.358 9.7471 15.3586C9.7576 15.3598 9.7681 15.3604 9.77921 15.3611C9.77983 15.3611 9.77983 15.3611 9.78045 15.3611C9.79218 15.3617 9.80391 15.3617 9.81503 15.3611C9.82058 15.3611 9.82676 15.3604 9.83232 15.3598C9.84405 15.3586 9.85516 15.3574 9.86628 15.3555C9.87183 15.3543 9.87739 15.3536 9.88233 15.3524C9.89283 15.3499 9.90333 15.3475 9.91259 15.3438C9.91753 15.3419 9.92185 15.3407 9.92617 15.3388C9.95705 15.3259 9.97434 15.3092 9.97804 15.2925C9.97866 15.29 9.97866 15.2876 9.97866 15.2851C9.97866 15.2777 9.97557 15.2709 9.97063 15.2635C9.96199 15.2518 9.94655 15.2406 9.9237 15.232L9.86751 15.2092L9.95828 15.1715L10.0812 15.2209C10.0904 15.2246 10.1015 15.2271 10.1139 15.2277C10.1176 15.2277 10.1219 15.2283 10.1256 15.2283C10.1417 15.2283 10.1577 15.2258 10.1695 15.2209C10.1793 15.2166 10.1849 15.2116 10.1867 15.2067C10.1892 15.2005 10.1861 15.1937 10.1775 15.1882C10.175 15.1869 10.1725 15.1857 10.1695 15.1838L10.0466 15.1344L10.0886 15.1165C10.0929 15.1147 10.096 15.1128 10.0985 15.1104C10.1089 15.1011 10.1046 15.0894 10.0842 15.0813C10.062 15.0727 10.0305 15.0715 10.0083 15.0776C10.0052 15.0782 10.0021 15.0795 9.99903 15.0807L9.95643 15.098L9.90024 15.0752C9.89098 15.0715 9.88171 15.0684 9.87122 15.0659C9.86628 15.0647 9.86072 15.0634 9.85578 15.0622C9.84528 15.0597 9.83417 15.0579 9.82244 15.0566C9.79403 15.0535 9.76378 15.0529 9.73537 15.0554C9.71252 15.0573 9.68968 15.061 9.66992 15.0665C9.66004 15.069 9.65016 15.0727 9.64151 15.0764L9.63225 15.082ZM9.72179 15.1184L9.73167 15.1141C9.7539 15.1048 9.79033 15.1048 9.81317 15.1134H9.81379L9.86998 15.1363L9.77859 15.1746L9.7224 15.1517C9.69956 15.1431 9.69894 15.1276 9.72179 15.1184ZM9.77983 15.2474L9.83664 15.2703C9.85948 15.2795 9.85948 15.2944 9.83726 15.3042C9.81503 15.3135 9.77859 15.3135 9.75575 15.3049H9.75513L9.69894 15.282L9.77983 15.2474Z" fill="#D9460C"/>
<path d="M6.70521 16.586C6.77746 16.6151 6.77869 16.6632 6.70768 16.6929C6.63667 16.7225 6.5212 16.7231 6.44896 16.6941L6.39153 16.6712L6.34954 16.6885C6.32731 16.6978 6.28841 16.6972 6.26371 16.6873C6.23901 16.6774 6.23716 16.6614 6.26001 16.6521L6.30261 16.6348L6.17974 16.5854C6.15504 16.5755 6.15504 16.5595 6.17912 16.549C6.2032 16.5391 6.2421 16.5385 6.2668 16.5484L6.38968 16.5984L6.47119 16.5644L6.415 16.5416C6.34275 16.5126 6.34213 16.4644 6.41252 16.4347L6.4224 16.4304C6.49341 16.4008 6.60888 16.4002 6.68113 16.4292L6.73855 16.452L6.78116 16.4347C6.80339 16.4255 6.84167 16.4255 6.86699 16.436C6.89169 16.4459 6.89293 16.4619 6.8707 16.4712L6.82871 16.4885L6.95159 16.5379C6.97629 16.5477 6.97629 16.5644 6.9522 16.5743C6.92812 16.5848 6.88799 16.5848 6.86329 16.5749L6.74102 16.5249L6.64964 16.5632L6.70521 16.586ZM6.55949 16.5268L6.65026 16.4891L6.59406 16.4662C6.57122 16.457 6.53417 16.457 6.51194 16.4662L6.50206 16.4706C6.47921 16.4798 6.47983 16.4946 6.50268 16.5045L6.55949 16.5268ZM6.53602 16.6564C6.55887 16.6657 6.59592 16.6657 6.61815 16.6564C6.64038 16.6472 6.64038 16.6317 6.61753 16.6225L6.56134 16.5996L6.48045 16.6336L6.53602 16.6564Z" fill="#D9460C"/>
<path d="M6.76146 15.913C7.19678 16.1082 7.46662 16.3268 7.54134 16.5441C7.62593 16.7911 7.43883 17.0393 7.05352 17.1962C7.04611 17.1993 7.0387 17.2023 7.03068 17.2054L7.00166 17.1925C7.00907 17.1894 7.01586 17.1869 7.02327 17.1838C7.40055 17.0313 7.58209 16.7886 7.49996 16.5466C7.40734 16.2761 7.03068 16.0588 6.7312 15.9248L6.76146 15.913Z" fill="#D9460C"/>
<path d="M19.3632 19.0327C19.4354 19.0618 19.4366 19.1099 19.3656 19.1396C19.2952 19.1692 19.1785 19.1692 19.1063 19.1402L19.0501 19.1173L19.0081 19.1352C18.9853 19.1445 18.9476 19.1445 18.9229 19.1346C18.897 19.1241 18.8957 19.1087 18.918 19.0988L18.9599 19.0815L18.8377 19.0315C18.813 19.0216 18.8124 19.0056 18.8371 18.9951C18.8611 18.9852 18.9007 18.9846 18.9254 18.9951L19.0476 19.0445L19.1291 19.0105L19.0729 18.9877C19.0007 18.9586 19.0001 18.9105 19.0705 18.8808L19.0804 18.8765C19.1514 18.8469 19.2675 18.8469 19.3397 18.8759L19.3959 18.8988L19.4379 18.8808C19.4601 18.8716 19.4984 18.8716 19.5225 18.8815C19.5484 18.892 19.5496 18.9074 19.5274 18.9167L19.4854 18.9346L19.6083 18.984C19.6324 18.9938 19.633 19.0105 19.6083 19.0204C19.5842 19.0303 19.5441 19.0303 19.52 19.0204L19.3971 18.971L19.3064 19.0087L19.3632 19.0327ZM19.2174 18.9735L19.3088 18.9352L19.2526 18.9123H19.252C19.2292 18.9031 19.1927 18.9037 19.1705 18.913L19.1606 18.9173C19.1378 18.9265 19.1384 18.942 19.1612 18.9512L19.2174 18.9735ZM19.1952 19.1038C19.2181 19.113 19.2545 19.1124 19.2767 19.1031C19.2989 19.0939 19.2989 19.0784 19.2761 19.0692L19.2199 19.0463L19.1384 19.0803L19.1946 19.1031C19.1946 19.1031 19.1946 19.1038 19.1952 19.1038Z" fill="#D9460C"/>
<path d="M17.575 20.265L17.5473 20.278C17.2138 20.1576 16.6778 20.0075 16.0184 19.9754C15.4274 19.9464 14.8415 20.0267 14.4778 20.1847C14.471 20.1878 14.4642 20.1909 14.4574 20.1934L14.4265 20.1816C14.4333 20.1786 14.4407 20.1755 14.4481 20.1724C14.8198 20.0106 15.42 19.9285 16.0233 19.9581C16.5544 19.9841 17.0909 20.0903 17.575 20.265Z" fill="#D9460C"/>
<path d="M16.1705 21.2444L16.1693 22.4022L4.40259 17.6667L4.40382 16.509L16.1705 21.2444Z" fill="#D9460C"/>
<path d="M14.8976 18.0282C14.7852 18.1634 14.5734 18.2949 14.2684 18.419C13.7454 18.6314 13.1236 18.7247 12.6037 18.6697C12.395 18.6475 12.2072 18.603 12.0356 18.558C11.7861 18.4925 11.5916 18.4314 11.4348 18.3684C11.357 18.3369 11.2878 18.3054 11.2261 18.2721C10.6191 17.9467 10.5703 17.6052 11.0915 17.336C11.5854 17.0803 12.227 16.9173 12.8074 16.8988C13.2255 16.8858 13.6089 16.9445 13.9479 17.0723C14.0053 17.0939 14.0634 17.1168 14.1196 17.139C14.7062 17.3755 15.2002 17.6632 14.8976 18.0282ZM14.2307 18.4036C14.5302 18.282 14.7377 18.1535 14.847 18.0214C15.1403 17.6676 14.6568 17.3866 14.0819 17.1551C14.0257 17.1322 13.9689 17.1106 13.9121 17.089C13.5842 16.9649 13.2137 16.9087 12.8111 16.921C12.2455 16.9389 11.6182 17.0989 11.1334 17.3496C10.6283 17.6108 10.6771 17.9417 11.268 18.2591C11.3286 18.2912 11.3953 18.3227 11.4712 18.353C11.6262 18.4153 11.817 18.4752 12.064 18.5401C12.2319 18.5839 12.4159 18.6271 12.6166 18.6487C13.118 18.7018 13.7213 18.6105 14.2307 18.4036Z" fill="#D9460C"/>
<path d="M11.0084 19.1676V20.339L9.54248 19.7487L9.56595 18.5891L11.0084 19.1676Z" fill="#873B1D"/>
<path d="M16.2364 16.9675L11.0088 19.1676L9.56641 18.589L14.8026 16.3914L16.2364 16.9675Z" fill="#FA6F4F"/>
<path d="M9.7384 13.0084L21.5051 17.7439L16.2713 19.9415L4.50464 15.206L9.7384 13.0084Z" fill="#FAB89E"/>
<path d="M21.503 17.7423L21.5012 18.8742L16.2705 21.0996V19.9424L21.503 17.7423Z" fill="#F46F3B"/>
<path d="M11.4903 14.071C11.4823 14.0747 11.4737 14.0784 11.4656 14.0821C11.0933 14.2426 10.495 14.3248 9.89353 14.2951C9.36311 14.2692 8.82714 14.163 8.3418 13.9882L8.36958 13.9753C8.70302 14.0957 9.23838 14.2457 9.89846 14.2778C10.4863 14.3069 11.0717 14.2272 11.4348 14.0697C11.4428 14.066 11.4508 14.0629 11.4582 14.0592L11.4903 14.071Z" fill="#D9460C"/>
<path d="M18.8888 17.0481L18.9173 17.0605C18.9086 17.0636 18.9006 17.0673 18.8926 17.0704C18.5184 17.2235 18.3368 17.4649 18.4202 17.7064C18.5122 17.9768 18.8888 18.1936 19.1889 18.3282L19.1581 18.3399C18.7227 18.1442 18.4529 17.9262 18.3788 17.7089C18.2948 17.4625 18.4801 17.2149 18.8635 17.058C18.8709 17.0549 18.8796 17.0512 18.8888 17.0481Z" fill="#D9460C"/>
<path d="M16.2438 19.0811C16.316 19.1101 16.3173 19.1583 16.2462 19.1879C16.1752 19.2176 16.0598 19.2182 15.9875 19.1892L15.9301 19.1663L15.8881 19.1842C15.8653 19.1935 15.827 19.1929 15.8023 19.183C15.7776 19.1731 15.7757 19.157 15.7986 19.1478L15.8412 19.1305L15.7183 19.0811C15.6936 19.0712 15.693 19.0552 15.7177 19.0447C15.7418 19.0348 15.7807 19.0342 15.8054 19.0441L15.9282 19.0941L16.0097 19.0601L15.9536 19.0373C15.8813 19.0082 15.8807 18.9601 15.9511 18.9304L15.961 18.9261C16.032 18.8965 16.1474 18.8965 16.2197 18.9249L16.2771 18.9483L16.3191 18.9304C16.3413 18.9212 16.3796 18.9212 16.4049 18.9317C16.4296 18.9415 16.4309 18.9576 16.4086 18.9669L16.3667 18.9848L16.4895 19.0342C16.5142 19.0441 16.5142 19.0607 16.4901 19.0706C16.4661 19.0811 16.4259 19.0811 16.4012 19.0712L16.279 19.0212L16.1876 19.0595L16.2438 19.0811ZM16.098 19.0224L16.1888 18.9848L16.1326 18.9619C16.1098 18.9527 16.0727 18.9527 16.0505 18.9619L16.0406 18.9662C16.0178 18.9755 16.019 18.9903 16.0412 19.0002L16.098 19.0224ZM16.0746 19.1521C16.0974 19.1614 16.1345 19.1614 16.1567 19.1521C16.1789 19.1428 16.1789 19.1274 16.1561 19.1181L16.0999 19.0953L16.0184 19.1293L16.0746 19.1521Z" fill="#D9460C"/>
<path d="M9.74979 13.3636L20.6415 17.7471L16.2611 19.5859L5.36938 15.2031L9.74979 13.3636ZM16.2599 19.5581L20.5736 17.7471L18.8922 17.0703L18.8885 17.0481C18.8799 17.0518 18.8712 17.0549 18.8626 17.0586L11.4664 14.0817C11.475 14.078 11.4831 14.0743 11.4911 14.0706L11.4596 14.0589L9.75041 13.3908L5.43669 15.2018L14.5488 18.869L14.5587 18.89L16.2599 19.5581Z" fill="#D9460C"/>
<path d="M9.73308 13.7796C9.67566 13.8037 9.66516 13.8401 9.70221 13.8679C9.71085 13.8747 9.72197 13.8802 9.73555 13.8858L9.79174 13.9086L9.71024 13.9426L9.58798 13.8932C9.57871 13.8895 9.56698 13.887 9.55525 13.8864C9.55154 13.8858 9.54722 13.8858 9.54352 13.8858C9.53178 13.8858 9.51943 13.887 9.50955 13.8901C9.50585 13.8913 9.50276 13.892 9.49967 13.8932C9.47559 13.9037 9.47559 13.9197 9.50029 13.9296L9.62255 13.9796L9.58056 13.9969C9.57748 13.9982 9.57501 13.9994 9.57315 14.0006C9.55895 14.0099 9.56266 14.0235 9.58489 14.0321C9.60959 14.042 9.64787 14.0426 9.6701 14.0327L9.71209 14.0155L9.76828 14.0383C9.78619 14.0457 9.80718 14.0513 9.82941 14.0544C9.83558 14.0556 9.84176 14.0562 9.84793 14.0568C9.85843 14.0581 9.86893 14.0587 9.88004 14.0593C9.88066 14.0593 9.88066 14.0593 9.88128 14.0593C9.89301 14.0599 9.90474 14.0599 9.91586 14.0593C9.92141 14.0593 9.92759 14.0587 9.93315 14.0581C9.94488 14.0568 9.95599 14.0556 9.96711 14.0537C9.97266 14.0525 9.97822 14.0519 9.98316 14.0507C9.99366 14.0482 10.0042 14.0457 10.0134 14.042C10.0184 14.0402 10.0227 14.0389 10.027 14.0371C10.0579 14.0241 10.0752 14.0074 10.0789 13.9908C10.0795 13.9883 10.0795 13.9858 10.0795 13.9833C10.0795 13.9759 10.0764 13.9691 10.0715 13.9617C10.0628 13.95 10.0474 13.9389 10.0245 13.9302L9.96834 13.9074L10.0591 13.8697L10.182 13.9191C10.1913 13.9228 10.2024 13.9253 10.2147 13.9259C10.2184 13.9259 10.2227 13.9265 10.2264 13.9265C10.2425 13.9265 10.2586 13.9241 10.2703 13.9191C10.2802 13.9148 10.2857 13.9099 10.2876 13.9049C10.29 13.8988 10.287 13.892 10.2783 13.8864C10.2758 13.8852 10.2734 13.8839 10.2703 13.8821L10.1474 13.8327L10.1894 13.8148C10.1937 13.8129 10.1968 13.8111 10.1993 13.8086C10.2098 13.7993 10.2055 13.7876 10.1851 13.7796C10.1628 13.7709 10.1314 13.7697 10.1091 13.7759C10.106 13.7765 10.103 13.7777 10.0999 13.779L10.0573 13.7963L10.0011 13.7734C9.99181 13.7697 9.98255 13.7666 9.97205 13.7641C9.96711 13.7629 9.96155 13.7617 9.95661 13.7604C9.94611 13.758 9.935 13.7561 9.92327 13.7549C9.89486 13.7518 9.86461 13.7512 9.8362 13.7536C9.81335 13.7555 9.79051 13.7592 9.77075 13.7648C9.76087 13.7672 9.75099 13.7709 9.74235 13.7746L9.73308 13.7796ZM9.82262 13.816L9.8325 13.8117C9.85473 13.8024 9.89116 13.8024 9.914 13.8111H9.91462L9.97081 13.8339L9.87943 13.8722L9.82323 13.8494C9.80039 13.8401 9.80039 13.8247 9.82262 13.816ZM9.88066 13.9451L9.93747 13.9679C9.96031 13.9772 9.96031 13.992 9.93809 14.0019C9.91586 14.0111 9.87942 14.0111 9.85658 14.0025H9.85596L9.79977 13.9796L9.88066 13.9451Z" fill="#D9460C"/>
<path d="M6.80507 15.2828C6.87731 15.3118 6.87855 15.36 6.80754 15.3896C6.73653 15.4192 6.62106 15.4199 6.54881 15.3908L6.49138 15.368L6.4494 15.3859C6.42717 15.3952 6.38827 15.3946 6.36357 15.3847C6.33887 15.3748 6.33702 15.3587 6.35986 15.3495L6.40247 15.3322L6.27959 15.2828C6.25489 15.2729 6.25489 15.2569 6.27897 15.2464C6.30305 15.2365 6.34195 15.2359 6.36665 15.2457L6.48953 15.2958L6.57104 15.2618L6.51485 15.2389C6.4426 15.2099 6.44199 15.1618 6.51238 15.1321L6.52226 15.1278C6.59327 15.0982 6.70874 15.0975 6.78098 15.1266L6.83841 15.1494L6.88101 15.1321C6.90324 15.1229 6.94153 15.1229 6.96684 15.1334C6.99154 15.1432 6.99278 15.1593 6.97055 15.1686L6.92856 15.1865L7.05144 15.2359C7.07614 15.2457 7.07614 15.2624 7.05206 15.2723C7.02798 15.2828 6.98784 15.2828 6.96314 15.2729L6.84088 15.2229L6.74949 15.2612L6.80507 15.2828ZM6.65934 15.2241L6.75011 15.1865L6.69392 15.1636C6.67107 15.1544 6.63402 15.1544 6.61179 15.1636L6.60191 15.1679C6.57907 15.1772 6.57969 15.192 6.60253 15.2019L6.65934 15.2241ZM6.63587 15.3538C6.65872 15.3631 6.69577 15.3631 6.718 15.3538C6.74023 15.3445 6.74023 15.3291 6.71738 15.3198L6.66119 15.297L6.5803 15.331L6.63587 15.3538Z" fill="#D9460C"/>
<path d="M6.86082 14.6096C7.29676 14.8047 7.56599 15.0233 7.6407 15.2406C7.7253 15.4876 7.5382 15.7359 7.15289 15.8927C7.14548 15.8958 7.13807 15.8989 7.13004 15.902L7.10102 15.889C7.10843 15.8859 7.11522 15.8834 7.12263 15.8803C7.49991 15.7278 7.68145 15.4852 7.59933 15.2431C7.50671 14.9727 7.13004 14.7553 6.83057 14.6213L6.86082 14.6096Z" fill="#D9460C"/>
<path d="M19.465 17.7299C19.5372 17.7589 19.5385 17.8071 19.4674 17.8367C19.3971 17.8663 19.2804 17.8663 19.2081 17.8373L19.1519 17.8145L19.1099 17.8318C19.0871 17.841 19.0494 17.841 19.0247 17.8311C18.9988 17.8206 18.9975 17.8052 19.0198 17.7953L19.0618 17.778L18.9395 17.728C18.9148 17.7181 18.9148 17.7021 18.9389 17.6916C18.963 17.6817 19.0025 17.6811 19.0272 17.6916L19.1494 17.741L19.231 17.707L19.1748 17.6842C19.1025 17.6552 19.1019 17.607 19.1723 17.5774L19.1822 17.573C19.2532 17.5434 19.3693 17.5434 19.4415 17.5724L19.4977 17.5953L19.5397 17.5774C19.5619 17.5681 19.6002 17.5681 19.6243 17.578C19.6502 17.5885 19.6515 17.6039 19.6292 17.6132L19.5872 17.6311L19.7101 17.6805C19.7342 17.6903 19.7348 17.707 19.7101 17.7169C19.686 17.7268 19.6459 17.7268 19.6218 17.7169L19.4989 17.6675L19.4082 17.7052L19.465 17.7299ZM19.3193 17.6706L19.4106 17.6323L19.3544 17.6095H19.3538C19.331 17.6002 19.2946 17.6008 19.2723 17.6101L19.2624 17.6144C19.2396 17.6237 19.2402 17.6391 19.2631 17.6484L19.3193 17.6706ZM19.2964 17.8003C19.3193 17.8095 19.3557 17.8089 19.3779 17.7996C19.4001 17.7904 19.4001 17.7749 19.3773 17.7657L19.3211 17.7428L19.2396 17.7768L19.2958 17.7996C19.2958 17.8003 19.2964 17.8003 19.2964 17.8003Z" fill="#D9460C"/>
<path d="M17.6744 18.9619L17.6466 18.9748C17.3132 18.8544 16.7772 18.7044 16.1177 18.6723C15.5268 18.6432 14.9408 18.7235 14.5771 18.8816C14.5703 18.8847 14.5635 18.8878 14.5568 18.8902L14.5259 18.8785C14.5327 18.8754 14.5401 18.8723 14.5475 18.8692C14.9192 18.7075 15.5194 18.6253 16.1227 18.655C16.6537 18.6809 17.1903 18.7871 17.6744 18.9619Z" fill="#D9460C"/>
<path d="M16.2717 19.9416L16.2699 21.0987L4.50317 16.3639L4.50503 15.2061L16.2717 19.9416Z" fill="#D9460C"/>
<path d="M14.9999 16.7253C14.8875 16.8606 14.6757 16.9921 14.3707 17.1162C13.8477 17.3286 13.2259 17.4219 12.706 17.3669C12.4972 17.3447 12.3095 17.3002 12.1379 17.2551C11.8884 17.1897 11.6939 17.1286 11.5371 17.0656C11.4593 17.0341 11.3901 17.0026 11.3284 16.9693C10.7214 16.6438 10.6726 16.3024 11.1937 16.0332C11.6877 15.7775 12.3293 15.6145 12.9097 15.596C13.3278 15.583 13.7112 15.6417 14.0502 15.7695C14.1076 15.7911 14.1657 15.8139 14.2219 15.8362C14.8085 16.0721 15.3018 16.3604 14.9999 16.7253ZM14.3324 17.1002C14.6319 16.9785 14.8393 16.8501 14.9486 16.7179C15.2419 16.3641 14.7585 16.0832 14.1836 15.8516C14.1274 15.8288 14.0706 15.8072 14.0138 15.7855C13.6859 15.6614 13.3154 15.6052 12.9128 15.6176C12.3472 15.6355 11.7198 15.7954 11.2351 16.0461C10.73 16.3073 10.7788 16.6383 11.3697 16.9551C11.4302 16.9872 11.4969 17.0187 11.5729 17.0489C11.7279 17.1113 11.9187 17.1712 12.1657 17.236C12.3336 17.2798 12.5176 17.3231 12.7183 17.3447C13.2197 17.3984 13.823 17.307 14.3324 17.1002Z" fill="#D9460C"/>
<path d="M11.109 17.8642V19.0355L9.64307 18.4452L9.66715 17.285L11.109 17.8642Z" fill="#873B1D"/>
<path d="M16.3373 15.6641L11.1091 17.8642L9.66724 17.285L14.9035 15.0874L16.3373 15.6641Z" fill="#FA6F4F"/>
<path d="M9.85523 11.7385L21.6219 16.4739L16.3882 18.6715L4.62085 13.9367L9.85523 11.7385Z" fill="#FAB89E"/>
<path d="M21.618 16.4726L21.6168 17.6038L16.3855 19.8298V18.6726L21.618 16.4726Z" fill="#F46F3B"/>
<path d="M11.6065 12.8013C11.5985 12.805 11.5899 12.8087 11.5818 12.8124C11.2095 12.973 10.6112 13.0551 10.0097 13.0255C9.47932 12.9995 8.94335 12.8933 8.45801 12.7186L8.48579 12.7056C8.81923 12.826 9.35459 12.9761 10.0147 13.0082C10.6025 13.0372 11.1879 12.9575 11.551 12.8001C11.559 12.7964 11.567 12.7933 11.5744 12.7896L11.6065 12.8013Z" fill="#D9460C"/>
<path d="M19.0052 15.7779L19.0336 15.7903C19.0249 15.7933 19.0169 15.797 19.0089 15.8001C18.6347 15.9533 18.4532 16.1947 18.5365 16.4361C18.6285 16.7066 19.0052 16.9233 19.3053 17.0579L19.2738 17.0697C18.8385 16.8739 18.5686 16.656 18.4945 16.4386C18.4106 16.1922 18.5958 15.9446 18.9793 15.7878C18.9879 15.7853 18.9965 15.7816 19.0052 15.7779Z" fill="#D9460C"/>
<path d="M9.866 12.0936L20.7577 16.4771L16.3773 18.316L5.4856 13.9325L9.866 12.0936ZM16.3767 18.2882L20.6904 16.4771L19.009 15.8004L19.0053 15.7781C18.9967 15.7818 18.988 15.7849 18.9794 15.7886L11.5832 12.8118C11.5919 12.8081 11.5999 12.8043 11.6079 12.8006L11.5764 12.7889L9.86724 12.1208L5.55352 13.9319L14.6657 17.5991L14.6756 17.6201L16.3767 18.2882Z" fill="#D9460C"/>
<path d="M6.97728 13.3405C7.4126 13.5356 7.68244 13.7542 7.75716 13.9715C7.84175 14.2185 7.65465 14.4668 7.26935 14.6236C7.26194 14.6267 7.25453 14.6298 7.2465 14.6329L7.21748 14.6199C7.22489 14.6168 7.23168 14.6143 7.23909 14.6113C7.61637 14.4587 7.79791 14.2161 7.71579 13.974C7.62316 13.7036 7.2465 13.4862 6.94702 13.3522L6.97728 13.3405Z" fill="#D9460C"/>
<path d="M17.7921 17.6928L17.7643 17.7058C17.4309 17.5854 16.8949 17.4353 16.2354 17.4032C15.6445 17.3742 15.0585 17.4545 14.6948 17.6125C14.688 17.6156 14.6812 17.6187 14.6744 17.6212L14.6436 17.6095C14.6503 17.6064 14.6578 17.6033 14.6652 17.6002C15.0369 17.4384 15.6371 17.3563 16.2404 17.3859C16.7708 17.4112 17.3074 17.5175 17.7921 17.6928Z" fill="#D9460C"/>
<path d="M16.3876 18.6709L16.3857 19.8287L4.61963 15.0933L4.62086 13.9361L16.3876 18.6709Z" fill="#D9460C"/>
<path d="M15.1161 15.4557C15.0037 15.5909 14.7919 15.7224 14.4869 15.8465C13.9639 16.0589 13.3421 16.1522 12.8222 16.0972C12.6135 16.075 12.4257 16.0305 12.2541 15.9855C12.0046 15.92 11.8101 15.8589 11.6533 15.7959C11.5755 15.7644 11.5063 15.7329 11.4446 15.6996C10.8376 15.3742 10.7888 15.0327 11.31 14.7635C11.8039 14.5078 12.4455 14.3448 13.0259 14.3263C13.444 14.3133 13.8274 14.372 14.1664 14.4998C14.2238 14.5214 14.2819 14.5443 14.3381 14.5665C14.9247 14.8024 15.4187 15.0901 15.1161 15.4557ZM14.4492 15.8305C14.7487 15.7088 14.9562 15.5804 15.0655 15.4483C15.3588 15.0944 14.8753 14.8135 14.3004 14.5819C14.2442 14.5591 14.1874 14.5375 14.1306 14.5159C13.8027 14.3917 13.4322 14.3356 13.0296 14.3479C12.464 14.3658 11.8367 14.5257 11.3519 14.7764C10.8468 15.0376 10.8956 15.3686 11.4866 15.6854C11.5471 15.7175 11.6138 15.749 11.6897 15.7792C11.8447 15.8416 12.0355 15.9015 12.2825 15.9663C12.4504 16.0102 12.6345 16.0534 12.8351 16.075C13.3365 16.1287 13.9392 16.0373 14.4492 15.8305Z" fill="#D9460C"/>
<path d="M11.2266 16.595V17.7658L9.76074 17.1761L9.78421 16.0158L11.2266 16.595Z" fill="#873B1D"/>
<path d="M16.4544 14.3949L11.2262 16.595L9.78442 16.0158L15.0207 13.8182L16.4544 14.3949Z" fill="#FA6F4F"/>
</svg>
