<svg width="32" height="32" viewBox="0 0 32 32" fill="none" xmlns="http://www.w3.org/2000/svg">
<circle cx="15.9047" cy="16.3339" r="15.4618" fill="#F6F7FF"/>
<path d="M19.0622 22.7803H12.7486C11.6534 22.7803 10.7515 21.8848 10.7515 20.7832V11.8927C10.7515 10.7975 11.647 9.89551 12.7486 9.89551H19.0622C20.1574 9.89551 21.0593 10.791 21.0593 11.8927V20.7832C21.0593 21.8848 20.1638 22.7803 19.0622 22.7803Z" stroke="#5466F9" stroke-width="1.15964" stroke-linecap="round" stroke-linejoin="round"/>
<path d="M20.093 16.98H11.7178C11.1831 16.98 10.7515 16.5484 10.7515 16.0136V14.7252C10.7515 14.1904 11.1831 13.7588 11.7178 13.7588H20.093C20.6277 13.7588 21.0593 14.1904 21.0593 14.7252V16.0136C21.0593 16.5484 20.6277 16.98 20.093 16.98Z" stroke="#5466F9" stroke-width="1.15964" stroke-linecap="round" stroke-linejoin="round"/>
<path d="M13.6462 20.0106H13.652" stroke="#5466F9" stroke-width="1.93273" stroke-linecap="round" stroke-linejoin="round"/>
<path d="M18.156 20.0106H18.1618" stroke="#5466F9" stroke-width="1.93273" stroke-linecap="round" stroke-linejoin="round"/>
<path d="M14.2925 11.8252H17.5137" stroke="#5466F9" stroke-width="1.15964" stroke-linecap="round" stroke-linejoin="round"/>
</svg>
