<svg width="39" height="54" viewBox="0 0 39 54" fill="none" xmlns="http://www.w3.org/2000/svg">
<g filter="url(#filter0_f_9_8637)">
<path d="M18.8351 15.838C17.0741 15.838 15.3853 17.1749 14.1401 19.5546C12.8949 21.9343 12.1953 25.1619 12.1953 28.5274C12.1953 31.8928 12.8949 35.1204 14.1401 37.5002C15.3853 39.8799 17.0741 41.2168 18.8351 41.2168H25.4749V28.5274C25.4749 25.1619 24.7754 21.9343 23.5302 19.5546C22.285 17.1749 20.5961 15.838 18.8351 15.838V15.838Z" fill="#F26F43"/>
<path d="M26.1223 25.9697C26.1223 25.9697 25.4746 26.9292 20.749 26.2235C20.0622 26.1295 19.3798 25.9433 18.7068 25.6664C17.9424 25.3569 16.6679 25.2362 16.9254 28.2879C17.0125 29.2899 17.2219 30.2387 17.5364 31.0576C17.8509 31.8764 18.2618 32.5424 18.736 33.0015C19.9684 34.2179 22.2243 35.4497 26.1223 34.9731V25.9697Z" fill="#FCB5A4"/>
</g>
<path d="M16.7664 2.64552C12.8459 3.22436 9.31603 5.33689 6.95318 8.51836C4.59032 11.6998 3.58807 15.6896 4.16692 19.6101C4.74577 23.5305 6.85829 27.0604 10.0398 29.4233C13.2212 31.7861 17.211 32.7884 21.1315 32.2095L35.9135 30.027L33.7309 15.245C33.1521 11.3245 31.0396 7.79463 27.8581 5.43177C24.6766 3.06891 20.6868 2.06667 16.7664 2.64552V2.64552Z" fill="#F26F43"/>
<path d="M34.7337 12.0533C34.7337 12.0533 33.4565 13.3839 22.8147 14.1152C21.2697 14.2313 19.7185 14.2388 18.1725 14.1375C16.4176 14.0282 13.5594 14.3065 14.6575 17.7768C15.0239 18.9154 15.653 19.9519 16.4941 20.8024C17.3352 21.6529 18.3646 22.2936 19.499 22.6726C22.4519 23.6844 27.6861 24.3778 36.2822 22.5413L34.7337 12.0533Z" fill="#FCB5A4"/>
<defs>
<filter id="filter0_f_9_8637" x="0.0739117" y="3.71655" width="38.1698" height="49.6216" filterUnits="userSpaceOnUse" color-interpolation-filters="sRGB">
<feFlood flood-opacity="0" result="BackgroundImageFix"/>
<feBlend mode="normal" in="SourceGraphic" in2="BackgroundImageFix" result="shape"/>
<feGaussianBlur stdDeviation="6.0607" result="effect1_foregroundBlur_9_8637"/>
</filter>
</defs>
</svg>
