<svg width="31" height="31" viewBox="0 0 31 31" fill="none" xmlns="http://www.w3.org/2000/svg">
<circle cx="15.7808" cy="15.209" r="15.0469" fill="#F6F7FF"/>
<path d="M15.7808 21.4786C19.2434 21.4786 22.0503 18.6716 22.0503 15.209C22.0503 11.7464 19.2434 8.93945 15.7808 8.93945C12.3182 8.93945 9.51123 11.7464 9.51123 15.209C9.51123 18.6716 12.3182 21.4786 15.7808 21.4786Z" stroke="#5466F9" stroke-width="1.00313" stroke-linecap="round" stroke-linejoin="round"/>
<path d="M13.2729 9.56641H13.8998C12.6773 13.2278 12.6773 17.1902 13.8998 20.8516H13.2729" stroke="#5466F9" stroke-width="1.00313" stroke-linecap="round" stroke-linejoin="round"/>
<path d="M17.6616 9.56641C18.8842 13.2278 18.8842 17.1902 17.6616 20.8516" stroke="#5466F9" stroke-width="1.00313" stroke-linecap="round" stroke-linejoin="round"/>
<path d="M10.1382 17.7168V17.0898C13.7996 18.3124 17.762 18.3124 21.4234 17.0898V17.7168" stroke="#5466F9" stroke-width="1.00313" stroke-linecap="round" stroke-linejoin="round"/>
<path d="M10.1382 13.3281C13.7996 12.1055 17.762 12.1055 21.4234 13.3281" stroke="#5466F9" stroke-width="1.00313" stroke-linecap="round" stroke-linejoin="round"/>
</svg>
