<svg width="32" height="32" viewBox="0 0 32 32" fill="none" xmlns="http://www.w3.org/2000/svg">
<rect x="0.600586" y="0.809784" width="30.7253" height="30.7253" rx="2.04835" fill="#FEF8F5"/>
<path d="M15.0189 17.3093L22.7355 21.7641L23.3311 21.425V10.8992L22.7355 9.87331L15.0189 5.41858L14.425 5.75768V16.2834L15.0189 17.3093Z" fill="#DDA60D"/>
<path d="M7.85337 21.4474L15.5717 25.9021L16.1655 25.563V15.0372L15.5717 14.0096L7.85337 9.55487L7.25952 9.89397V20.4197L7.85337 21.4474Z" fill="#F46F3B"/>
<path d="M8.07884 12.92L7.71736 12.7117C7.67261 12.6859 7.63818 12.7065 7.63818 12.7564C7.63818 12.8064 7.67433 12.8683 7.71736 12.8941L8.07884 13.1024C8.12359 13.1282 8.15802 13.1076 8.15802 13.0577C8.15802 13.006 8.12187 12.9441 8.07884 12.92Z" fill="#B05A21"/>
<path d="M8.90184 13.3951L8.54036 13.1868C8.49561 13.161 8.46118 13.1817 8.46118 13.2316C8.46118 13.2815 8.49733 13.3435 8.54036 13.3693L8.90184 13.5776C8.94659 13.6034 8.98102 13.5827 8.98102 13.5328C8.98274 13.4812 8.94659 13.4209 8.90184 13.3951Z" fill="#B05A21"/>
<path d="M9.7263 13.8701L9.36482 13.6618C9.32007 13.636 9.28564 13.6566 9.28564 13.7065C9.28564 13.7565 9.32179 13.8184 9.36482 13.8443L9.7263 14.0525C9.77105 14.0784 9.80548 14.0577 9.80548 14.0078C9.80548 13.9579 9.76933 13.8959 9.7263 13.8701Z" fill="#B05A21"/>
<path d="M10.5491 14.3453L10.1876 14.137C10.1428 14.1112 10.1084 14.1318 10.1084 14.1817C10.1084 14.2317 10.1445 14.2936 10.1876 14.3194L10.5491 14.5277C10.5938 14.5535 10.6282 14.5329 10.6282 14.483C10.63 14.433 10.5938 14.3711 10.5491 14.3453Z" fill="#B05A21"/>
<path d="M11.3733 14.8219L11.0118 14.6136C10.967 14.5878 10.9326 14.6084 10.9326 14.6584C10.9326 14.7083 10.9688 14.7702 11.0118 14.7961L11.3733 15.0043C11.418 15.0302 11.4525 15.0095 11.4525 14.9596C11.4525 14.9079 11.418 14.846 11.3733 14.8219Z" fill="#B05A21"/>
<path d="M12.1982 15.2971L11.8367 15.0888C11.792 15.063 11.7576 15.0836 11.7576 15.1336C11.7576 15.1835 11.7937 15.2454 11.8367 15.2713L12.1982 15.4795C12.243 15.5054 12.2774 15.4847 12.2774 15.4348C12.2774 15.3831 12.2413 15.3229 12.1982 15.2971Z" fill="#B05A21"/>
<path d="M13.0207 15.772L12.6593 15.5638C12.6145 15.538 12.5801 15.5586 12.5801 15.6085C12.5801 15.6584 12.6162 15.7204 12.6593 15.7462L13.0207 15.9545C13.0655 15.9803 13.0999 15.9597 13.0999 15.9098C13.0999 15.8598 13.0655 15.7979 13.0207 15.772Z" fill="#B05A21"/>
<path d="M13.8454 16.2489L13.484 16.0406C13.4392 16.0148 13.4048 16.0354 13.4048 16.0853C13.4048 16.1353 13.4409 16.1972 13.484 16.223L13.8454 16.4313C13.8902 16.4571 13.9246 16.4365 13.9246 16.3866C13.9246 16.3349 13.8885 16.273 13.8454 16.2489Z" fill="#B05A21"/>
<path d="M14.6684 16.724L14.307 16.5158C14.2622 16.4899 14.2278 16.5106 14.2278 16.5605C14.2278 16.6104 14.2639 16.6724 14.307 16.6982L14.6684 16.9065C14.7132 16.9323 14.7476 16.9117 14.7476 16.8618C14.7493 16.8101 14.7132 16.7499 14.6684 16.724Z" fill="#B05A21"/>
<path d="M15.4927 17.199L15.1312 16.9907C15.0864 16.9649 15.052 16.9856 15.052 17.0355C15.052 17.0854 15.0881 17.1474 15.1312 17.1732L15.4927 17.3815C15.5374 17.4073 15.5718 17.3866 15.5718 17.3367C15.5718 17.2868 15.5357 17.2248 15.4927 17.199Z" fill="#B05A21"/>
<path d="M8.07884 20.4026L7.71736 20.1944C7.67261 20.1685 7.63818 20.1892 7.63818 20.2391C7.63818 20.289 7.67433 20.351 7.71736 20.3768L8.07884 20.5851C8.12359 20.6109 8.15802 20.5903 8.15802 20.5403C8.15802 20.4904 8.12187 20.4285 8.07884 20.4026Z" fill="#B05A21"/>
<path d="M8.90184 20.8796L8.54036 20.6713C8.49561 20.6455 8.46118 20.6661 8.46118 20.716C8.46118 20.766 8.49733 20.8279 8.54036 20.8537L8.90184 21.062C8.94659 21.0878 8.98102 21.0672 8.98102 21.0173C8.98274 20.9656 8.94659 20.9037 8.90184 20.8796Z" fill="#B05A21"/>
<path d="M9.7263 21.3545L9.36482 21.1463C9.32007 21.1204 9.28564 21.1411 9.28564 21.191C9.28564 21.2409 9.32179 21.3029 9.36482 21.3287L9.7263 21.537C9.77105 21.5628 9.80548 21.5422 9.80548 21.4922C9.80548 21.4406 9.76933 21.3804 9.7263 21.3545Z" fill="#B05A21"/>
<path d="M10.5491 21.8297L10.1876 21.6214C10.1428 21.5956 10.1084 21.6163 10.1084 21.6662C10.1084 21.7161 10.1445 21.7781 10.1876 21.8039L10.5491 22.0122C10.5938 22.038 10.6282 22.0174 10.6282 21.9674C10.63 21.9175 10.5938 21.8555 10.5491 21.8297Z" fill="#B05A21"/>
<path d="M11.3733 22.3063L11.0118 22.098C10.967 22.0722 10.9326 22.0929 10.9326 22.1428C10.9326 22.1927 10.9688 22.2547 11.0118 22.2805L11.3733 22.4888C11.418 22.5146 11.4525 22.4939 11.4525 22.444C11.4525 22.3924 11.418 22.3304 11.3733 22.3063Z" fill="#B05A21"/>
<path d="M12.1982 22.7815L11.8367 22.5732C11.792 22.5474 11.7576 22.5681 11.7576 22.618C11.7576 22.6679 11.7937 22.7299 11.8367 22.7557L12.1982 22.964C12.243 22.9898 12.2774 22.9691 12.2774 22.9192C12.2774 22.8676 12.2413 22.8073 12.1982 22.7815Z" fill="#B05A21"/>
<path d="M13.0207 23.2565L12.6593 23.0482C12.6145 23.0224 12.5801 23.043 12.5801 23.093C12.5801 23.1429 12.6162 23.2048 12.6593 23.2307L13.0207 23.4389C13.0655 23.4648 13.0999 23.4441 13.0999 23.3942C13.0999 23.3443 13.0655 23.2823 13.0207 23.2565Z" fill="#B05A21"/>
<path d="M13.8454 23.7333L13.484 23.525C13.4392 23.4992 13.4048 23.5199 13.4048 23.5698C13.4048 23.6197 13.4409 23.6817 13.484 23.7075L13.8454 23.9158C13.8902 23.9416 13.9246 23.9209 13.9246 23.871C13.9246 23.8211 13.8885 23.7574 13.8454 23.7333Z" fill="#B05A21"/>
<path d="M14.6684 24.2085L14.307 24.0002C14.2622 23.9744 14.2278 23.9951 14.2278 24.045C14.2278 24.0949 14.2639 24.1569 14.307 24.1827L14.6684 24.391C14.7132 24.4168 14.7476 24.3961 14.7476 24.3462C14.7493 24.2946 14.7132 24.2343 14.6684 24.2085Z" fill="#B05A21"/>
<path d="M15.4927 24.6835L15.1312 24.4752C15.0864 24.4494 15.052 24.47 15.052 24.5199C15.052 24.5699 15.0881 24.6318 15.1312 24.6576L15.4927 24.8659C15.5374 24.8917 15.5718 24.8711 15.5718 24.8212C15.5718 24.7712 15.5357 24.7093 15.4927 24.6835Z" fill="#B05A21"/>
<path d="M15.5718 14.0096L7.85349 9.55487L7.82251 9.57381L15.157 13.8082L15.7526 14.8358V25.3616L15.1897 25.6818L15.5718 25.9021L16.1657 25.563V15.0372L15.5718 14.0096Z" fill="#C76C26"/>
<path d="M15.0191 5.41858L7.85327 9.55487L15.5716 14.0096L22.7357 9.87331L15.0191 5.41858Z" fill="#FF835F"/>
<path d="M8.15794 9.3793L15.0191 5.41858L7.85327 9.55487L15.5716 14.0096L15.8745 13.8358L8.15794 9.3793Z" fill="#E4B140"/>
<path d="M16.1653 25.5631L23.3311 21.4251V10.8993L16.1653 15.0373V25.5631Z" fill="#FFAB91"/>
<path d="M20.0645 21.9827L19.8992 21.8726C19.8201 21.8209 17.9783 20.5678 17.9783 18.9016C17.9783 17.6795 18.8441 16.1836 19.9096 15.5691C20.4621 15.2507 20.9906 15.2042 21.3968 15.4383C21.7996 15.6707 22.0233 16.1458 22.0233 16.7758C22.0233 18.3921 20.2366 21.6694 20.1609 21.8089L20.0645 21.9827ZM20.0903 15.8841C19.1247 16.4418 18.3397 17.7948 18.3397 18.9016C18.3397 20.1048 19.5016 21.1152 19.9371 21.4526C20.3141 20.7348 21.6584 18.0926 21.6584 16.7775C21.6584 16.2835 21.5001 15.9203 21.2143 15.755C20.9251 15.5864 20.5258 15.6328 20.0903 15.8841Z" fill="#FFF7F3"/>
<path d="M16.5285 15.5554L23.3311 11.6274V10.8993L16.1653 15.0373V25.5631L16.5285 25.3531V15.5554Z" fill="#C46D33"/>
<path d="M16.5942 16.5088L22.9045 12.8666V12.1539L16.5942 15.7962V16.5088Z" fill="#FFF7F3"/>
<path d="M16.1656 15.0372L15.5718 14.0096L22.7358 9.87329L23.3314 10.8992L16.1656 15.0372Z" fill="#FFAB91"/>
<path d="M16.336 14.6326L15.8747 13.8356L15.5718 14.0095L16.1656 15.0371L23.3314 10.8991L23.1989 10.6702L16.336 14.6326Z" fill="#E49A40"/>
<path d="M16.1653 25.563L23.3311 21.4267V10.9009L16.1653 15.0372V25.563V25.563ZM16.408 15.4985L23.0901 11.6411V21.2855L16.408 25.1395V15.4985V15.4985Z" fill="#683E3E"/>
<path d="M15.5717 25.9021L16.1673 25.563V15.0372L15.5717 14.0113L7.85338 9.55487L7.25781 9.89397V20.4197L7.85338 21.4456L15.5717 25.9021ZM7.50052 10.0351L7.76904 9.88192L7.85338 9.83372L15.3944 14.1869L15.9246 15.1009V25.4184L15.5717 25.6215L8.0324 21.2683L7.50224 20.3543V10.0351H7.50052Z" fill="#613635"/>
<path d="M7.85327 9.55487L15.5716 14.0096L15.7799 13.8891L15.7472 13.8323L8.33696 9.55487L15.0191 5.69743L22.4947 10.0127L22.7357 9.87331L15.0191 5.41858L7.85327 9.55487Z" fill="#997171"/>
<path d="M17.5423 12.7961L10.1321 8.51862L9.83434 8.4119L9.64844 8.51862L17.3668 12.9734L17.575 12.8529L17.5423 12.7961Z" fill="#997171"/>
<path d="M23.3314 10.8992L22.7358 9.87329L22.4949 10.0127L22.5603 10.0506L23.0009 10.8114L21.7754 11.5189L21.302 10.7012L21.092 10.8234L21.5654 11.6393L18.0505 13.6705L17.5754 12.8529L17.3671 12.9734L17.8405 13.791L16.2551 14.7067L15.7801 13.8891L15.5718 14.0096L16.1656 15.0372L17.9609 14.001L18.2364 13.8409L21.6876 11.8493L21.963 11.691L23.3314 10.8992Z" fill="#7D5252"/>
<path d="M21.2689 10.6462L13.8587 6.36707L13.5609 6.26035L13.375 6.36707L21.0916 10.8235L21.3016 10.7013L21.2689 10.6462Z" fill="#997171"/>
<path d="M17.9684 8.86794L18.6035 8.5013C18.7533 8.41523 18.7343 8.26204 18.5622 8.1622L18.2937 8.00728C18.1198 7.90745 17.8582 7.8954 17.7067 7.98319L17.0716 8.34982C16.9218 8.43589 16.9407 8.58736 17.1129 8.68892L17.3814 8.84384C17.557 8.94367 17.8186 8.954 17.9684 8.86794Z" fill="#EB8638"/>
<path d="M13.4361 11.5033L14.0713 11.1366C14.2211 11.0506 14.2021 10.8974 14.03 10.7975L13.7615 10.6426C13.5876 10.5428 13.326 10.5307 13.1745 10.6185L12.5393 10.9852C12.3896 11.0712 12.4085 11.2227 12.5806 11.3243L12.8492 11.4792C13.023 11.579 13.2864 11.5911 13.4361 11.5033Z" fill="#EB8638"/>
<path d="M17.9684 8.74748L18.6035 8.38085C18.7533 8.29478 18.7343 8.14331 18.5622 8.04175L18.2937 7.88683C18.1198 7.787 17.8582 7.77495 17.7067 7.86273L17.0716 8.22937C16.9218 8.31544 16.9407 8.46863 17.1129 8.56847L17.3814 8.72338C17.557 8.82322 17.8186 8.83355 17.9684 8.74748Z" fill="#FFE254"/>
<path d="M13.4361 11.3828L14.0713 11.0162C14.2211 10.9301 14.2021 10.7786 14.03 10.6771L13.7615 10.5221C13.5876 10.4223 13.326 10.4103 13.1745 10.498L12.5393 10.8647C12.3896 10.9508 12.4085 11.1039 12.5806 11.2038L12.8492 11.3587C13.023 11.4585 13.2864 11.4689 13.4361 11.3828Z" fill="#FFE254"/>
<path d="M18.5536 8.16746C18.5536 8.16746 18.2816 8.3241 17.9752 8.50139C17.896 8.54787 17.8134 8.59434 17.7325 8.64082C17.6034 8.71655 17.4777 8.78885 17.3762 8.84737C16.9648 9.08491 16.7703 8.58745 15.8804 9.09696C15.8666 9.10385 15.8425 9.11934 15.7943 9.14688C14.8941 9.66499 14.6996 10.3914 14.2882 10.6306C14.1436 10.7133 13.9577 10.8217 13.7752 10.9267C13.6926 10.9732 13.61 11.0231 13.5325 11.0661C13.295 11.2038 13.1073 11.3123 13.1073 11.3123L12.6064 11.0214C12.6064 11.0214 12.7923 10.9129 13.0299 10.7752C13.1073 10.7322 13.1882 10.684 13.2726 10.6358C13.455 10.5308 13.6409 10.4224 13.7855 10.3415C14.1987 10.1039 14.3932 9.37581 15.2917 8.8577C15.3364 8.83188 15.3623 8.81811 15.3743 8.81123C15.3777 8.8095 15.3812 8.80778 15.3829 8.80606C15.3846 8.80606 15.3846 8.80434 15.3846 8.80434C15.3864 8.80262 15.3864 8.80262 15.3864 8.80262C16.2677 8.30172 16.4622 8.79229 16.8718 8.55819C16.9751 8.49967 17.099 8.42565 17.2299 8.35164C17.309 8.30516 17.3917 8.25696 17.4726 8.21221C17.779 8.03492 18.0509 7.87656 18.0509 7.87656L18.5536 8.16746Z" fill="#997171"/>
<path d="M13.7751 10.9268C13.6925 10.9732 13.6099 11.0232 13.5324 11.0662L13.0298 10.7753C13.1072 10.7323 13.1881 10.6841 13.2725 10.6359L13.7751 10.9268Z" fill="#FFCC54"/>
<path d="M17.975 8.50137C17.8959 8.54784 17.8132 8.59432 17.7323 8.64079L17.2314 8.35161C17.3106 8.30514 17.3932 8.25694 17.4741 8.21219L17.975 8.50137Z" fill="#FFCC54"/>
<path d="M7.50049 10.0351L7.96008 10.1918L15.1121 14.3315L15.9245 15.1027L15.3944 14.1869L7.85336 9.83374L7.50049 10.0351Z" fill="#9F5238"/>
<path d="M10.131 11.9302L10.1361 12.6635C10.1379 12.8373 9.99671 12.8976 9.82286 12.7977L9.55433 12.6446C9.38048 12.5447 9.23761 12.3244 9.23589 12.1505L9.23073 11.419C9.22901 11.2451 9.37015 11.1849 9.54401 11.2847L9.81253 11.4379C9.9881 11.536 10.1292 11.7564 10.131 11.9302Z" fill="#D46B2A"/>
<path d="M10.026 11.9903L10.0312 12.7236C10.0329 12.8974 9.89173 12.9577 9.71788 12.8579L9.44935 12.7047C9.2755 12.6048 9.13263 12.3845 9.13091 12.2106L9.12575 11.4774C9.12403 11.3035 9.26517 11.2433 9.43903 11.3431L9.70755 11.4963C9.88312 11.5961 10.026 11.8182 10.026 11.9903Z" fill="#B05A21"/>
<path d="M14.0536 14.1302L14.0587 14.8634C14.0605 15.0373 13.9193 15.0975 13.7455 14.9977L13.4769 14.8445C13.3031 14.7447 13.1602 14.5244 13.1585 14.3505L13.1533 13.6172C13.1516 13.4434 13.2928 13.3831 13.4666 13.483L13.7351 13.6362C13.9107 13.736 14.0519 13.958 14.0536 14.1302Z" fill="#D46B2A"/>
<path d="M13.9503 14.1921L13.9555 14.9253C13.9572 15.0992 13.816 15.1594 13.6422 15.0596L13.3737 14.9064C13.1998 14.8066 13.0569 14.5862 13.0552 14.4124L13.0501 13.6791C13.0483 13.5053 13.1895 13.445 13.3633 13.5449L13.6319 13.6981C13.8057 13.7979 13.9486 14.0182 13.9503 14.1921Z" fill="#B05A21"/>
<path d="M13.6631 14.0682C13.5358 14.1939 13.5478 14.3608 13.5478 14.4985V18.1012C13.5478 18.6142 13.3068 19.0703 12.9075 19.3216C12.8989 19.3268 12.892 19.3302 12.8834 19.3337C12.8817 19.3354 12.8817 19.3354 12.8799 19.3354C11.7439 19.8363 10.4839 19.0066 10.4736 18.9998C9.08274 18.0926 9.2979 16.1562 9.2979 16.1355V12.3521C9.2979 12.1128 9.36159 11.9372 9.48725 11.8305C9.637 11.7014 9.82118 11.729 9.82634 11.7307L9.75749 11.8133C9.74888 11.8116 9.80397 11.8873 9.80397 11.8873C9.68003 11.9941 9.62667 12.3022 9.62667 12.5431V16.3266C9.62667 16.3335 9.62151 16.5521 9.66798 16.8757C9.66798 16.8826 9.6697 16.8894 9.67143 16.898C9.70757 17.2526 9.80397 17.683 10.0329 18.0703C10.2171 18.3784 10.4977 18.6452 10.8712 18.8672C10.8781 18.8724 10.8884 18.8758 10.8953 18.881C11.5511 19.2614 12.2069 19.2029 12.6544 18.9223C13.009 18.6985 13.2225 18.2923 13.2225 17.8327L13.2259 14.3144C13.2586 14.1749 13.3946 13.9116 13.6683 13.9116C13.67 13.9116 13.67 13.9116 13.67 13.9116L13.6631 14.0682Z" fill="#EDE4D8"/>
<path d="M9.39567 16.6517C9.39395 16.6431 9.39223 16.6362 9.39223 16.6294C9.34748 16.3075 9.35092 16.0871 9.35092 16.0803V12.2968C9.35092 12.0868 9.40256 11.9302 9.49723 11.8217C9.49207 11.8252 9.4869 11.8286 9.48174 11.8321C9.3578 11.9388 9.29412 12.1126 9.29412 12.3536V16.1371C9.29412 16.1439 9.28895 16.2696 9.33543 16.5915C9.33543 16.5984 9.33715 16.6053 9.33887 16.6139C9.37502 16.9684 9.55231 17.6208 9.70034 17.879C9.87764 18.1906 10.1823 18.4264 10.5558 18.6484C10.5627 18.6536 10.573 18.657 10.5799 18.6622C11.2357 19.0426 11.8744 19.0116 12.3219 18.7311C12.4166 18.6725 12.4992 18.5985 12.5732 18.5159C12.513 18.5744 12.4527 18.6347 12.3787 18.6743C12.0172 18.8688 11.3614 18.9686 10.7056 18.5882C10.6987 18.5848 10.6884 18.5796 10.6815 18.5744C10.308 18.3524 9.99641 18.1062 9.81911 17.7947C9.67108 17.5365 9.43182 17.0063 9.39567 16.6517Z" fill="#FFCC54"/>
<path d="M10.5818 18.6639C10.5749 18.6604 10.5646 18.6553 10.5577 18.6501C10.1842 18.428 9.88637 18.1888 9.70219 17.8807C9.49219 17.4676 9.38891 16.946 9.34071 16.6155C9.33899 16.6069 9.33727 16.6 9.33727 16.5931C9.29252 16.2712 9.29596 16.1439 9.29596 16.1387V12.3553C9.29596 12.1143 9.35965 11.9404 9.48358 11.8337C9.63506 11.7046 9.81751 11.7304 9.8244 11.7322L9.8003 11.8871C9.79514 11.8871 9.67981 11.8716 9.58342 11.9542C9.49735 12.03 9.4526 12.1625 9.4526 12.3553V16.1404C9.4526 16.1611 9.50079 17.7585 10.5818 18.6639Z" fill="#D46B2A"/>
<path d="M13.6627 13.9113C13.3873 13.9113 13.2531 14.173 13.2204 14.3124V17.9151C13.2204 18.428 12.9794 18.8842 12.58 19.1355C12.5714 19.1406 12.5646 19.1441 12.5559 19.1475C12.5542 19.1492 12.5542 19.1492 12.5525 19.1492C12.5146 19.1665 12.475 19.1802 12.4355 19.194C12.2788 19.2474 11.2374 19.5486 10.2735 18.817C9.19252 17.996 8.96875 16.5862 8.96875 15.9511V12.1676C8.96875 11.9284 9.03244 11.7528 9.15809 11.6461C9.30785 11.517 9.49203 11.5445 9.49719 11.5462L9.82424 11.7339C9.81563 11.7321 9.63489 11.7063 9.48342 11.8354C9.35949 11.9421 9.2958 12.116 9.2958 12.357V16.1404C9.2958 16.1473 9.29063 16.2729 9.33711 16.5948C9.33711 16.6017 9.33883 16.6086 9.34055 16.6172C9.3767 16.9718 9.68653 17.6982 9.83457 17.9581C10.0119 18.2697 10.1857 18.4315 10.5592 18.6535C10.5661 18.6587 10.5764 18.6621 10.5833 18.6673C11.2392 19.0477 11.8778 19.0167 12.3253 18.7361C12.6799 18.5124 12.8933 18.1061 12.8933 17.6465L12.8968 14.1282C12.9295 13.9888 13.0655 13.7254 13.3391 13.7254C13.3409 13.7254 13.3409 13.7254 13.3409 13.7254L13.6627 13.9113Z" fill="#FFEEE9"/>
<path d="M13.6644 13.9112L13.6627 14.0678C13.5629 14.0678 13.494 14.1246 13.4493 14.1866C13.4045 14.2503 13.3804 14.3174 13.3735 14.3398V17.8306C13.3735 18.3435 13.1343 18.7997 12.7332 19.051C12.6764 19.0872 12.6162 19.1181 12.5559 19.1457C12.5645 19.1422 12.5714 19.1371 12.58 19.1336C12.9811 18.8823 13.2203 18.4245 13.2203 17.9132V14.3105C13.253 14.1728 13.3873 13.9112 13.6644 13.9112C13.6627 13.9112 13.6627 13.9112 13.6644 13.9112Z" fill="#D46B2A"/>
<path d="M11.2715 19.3182C11.163 19.2906 11.046 19.2407 10.8652 19.1547C11.0029 19.2201 11.1389 19.2769 11.2715 19.3182Z" fill="#F5A13A"/>
<path d="M12.5882 19.2525C12.5538 19.2732 12.5159 19.287 12.4729 19.2956C12.5125 19.2835 12.5521 19.2697 12.5882 19.2525Z" fill="#F5A13A"/>
</svg>
