<svg width="16" height="4" viewBox="0 0 16 4" fill="none" xmlns="http://www.w3.org/2000/svg">
<path d="M1.6145 3.16455C2.44495 3.16455 3.11816 2.49134 3.11816 1.66089C3.11816 0.830438 2.44495 0.157227 1.6145 0.157227C0.784051 0.157227 0.11084 0.830438 0.11084 1.66089C0.11084 2.49134 0.784051 3.16455 1.6145 3.16455Z" fill="#9D9DB0"/>
<path d="M7.62915 3.16455C8.4596 3.16455 9.13281 2.49134 9.13281 1.66089C9.13281 0.830438 8.4596 0.157227 7.62915 0.157227C6.7987 0.157227 6.12549 0.830438 6.12549 1.66089C6.12549 2.49134 6.7987 3.16455 7.62915 3.16455Z" fill="#9D9DB0"/>
<path d="M13.6438 3.16455C14.4742 3.16455 15.1475 2.49134 15.1475 1.66089C15.1475 0.830438 14.4742 0.157227 13.6438 0.157227C12.8133 0.157227 12.1401 0.830438 12.1401 1.66089C12.1401 2.49134 12.8133 3.16455 13.6438 3.16455Z" fill="#9D9DB0"/>
</svg>
