<svg width="36" height="36" viewBox="0 0 36 36" fill="none" xmlns="http://www.w3.org/2000/svg">
<rect x="0.412842" y="0.0784912" width="35.1701" height="35.1701" rx="2.34467" fill="#FEF8F5"/>
<path d="M16.9168 18.9649L25.7497 24.0641L26.4314 23.6759V11.6275L25.7497 10.4532L16.9168 5.354L16.2371 5.74216V17.7906L16.9168 18.9649Z" fill="#DDA60D"/>
<path d="M8.71491 23.7015L17.5498 28.8007L18.2295 28.4125V16.3641L17.5498 15.1878L8.71491 10.0886L8.03516 10.4768V22.5252L8.71491 23.7015Z" fill="#F46F3B"/>
<path d="M8.97315 13.9405L8.55938 13.7021C8.50816 13.6725 8.46875 13.6962 8.46875 13.7533C8.46875 13.8105 8.51013 13.8814 8.55938 13.911L8.97315 14.1494C9.02438 14.1789 9.06378 14.1553 9.06378 14.0981C9.06378 14.039 9.02241 13.9681 8.97315 13.9405Z" fill="#B05A21"/>
<path d="M9.91504 14.4845L9.50128 14.246C9.45005 14.2165 9.41064 14.2401 9.41064 14.2973C9.41064 14.3544 9.45202 14.4253 9.50128 14.4549L9.91504 14.6933C9.96627 14.7229 10.0057 14.6992 10.0057 14.6421C10.0076 14.583 9.96627 14.514 9.91504 14.4845Z" fill="#B05A21"/>
<path d="M10.8586 15.028L10.4449 14.7896C10.3937 14.7601 10.3542 14.7837 10.3542 14.8409C10.3542 14.898 10.3956 14.9689 10.4449 14.9985L10.8586 15.2369C10.9099 15.2664 10.9493 15.2428 10.9493 15.1857C10.9493 15.1285 10.9079 15.0576 10.8586 15.028Z" fill="#B05A21"/>
<path d="M11.8005 15.572L11.3868 15.3336C11.3355 15.304 11.2961 15.3277 11.2961 15.3848C11.2961 15.4419 11.3375 15.5129 11.3868 15.5424L11.8005 15.7808C11.8518 15.8104 11.8912 15.7867 11.8912 15.7296C11.8931 15.6725 11.8518 15.6015 11.8005 15.572Z" fill="#B05A21"/>
<path d="M12.7441 16.1175L12.3304 15.8791C12.2792 15.8496 12.2397 15.8732 12.2397 15.9303C12.2397 15.9875 12.2811 16.0584 12.3304 16.088L12.7441 16.3264C12.7954 16.3559 12.8348 16.3323 12.8348 16.2751C12.8348 16.216 12.7954 16.1451 12.7441 16.1175Z" fill="#B05A21"/>
<path d="M13.6882 16.6615L13.2745 16.4231C13.2232 16.3935 13.1838 16.4171 13.1838 16.4743C13.1838 16.5314 13.2252 16.6023 13.2745 16.6319L13.6882 16.8703C13.7395 16.8999 13.7789 16.8762 13.7789 16.8191C13.7789 16.76 13.7375 16.691 13.6882 16.6615Z" fill="#B05A21"/>
<path d="M14.6296 17.2052L14.2159 16.9668C14.1647 16.9372 14.1252 16.9608 14.1252 17.018C14.1252 17.0751 14.1666 17.1461 14.2159 17.1756L14.6296 17.414C14.6809 17.4436 14.7203 17.4199 14.7203 17.3628C14.7203 17.3056 14.6809 17.2347 14.6296 17.2052Z" fill="#B05A21"/>
<path d="M15.5737 17.7509L15.16 17.5125C15.1087 17.483 15.0693 17.5066 15.0693 17.5638C15.0693 17.6209 15.1107 17.6918 15.16 17.7214L15.5737 17.9598C15.625 17.9893 15.6644 17.9657 15.6644 17.9086C15.6644 17.8495 15.623 17.7785 15.5737 17.7509Z" fill="#B05A21"/>
<path d="M16.5159 18.2949L16.1021 18.0565C16.0509 18.0269 16.0115 18.0506 16.0115 18.1077C16.0115 18.1648 16.0529 18.2358 16.1021 18.2653L16.5159 18.5037C16.5671 18.5333 16.6065 18.5096 16.6065 18.4525C16.6085 18.3934 16.5671 18.3244 16.5159 18.2949Z" fill="#B05A21"/>
<path d="M17.4592 18.8386L17.0455 18.6002C16.9942 18.5706 16.9548 18.5943 16.9548 18.6514C16.9548 18.7085 16.9962 18.7795 17.0455 18.809L17.4592 19.0474C17.5105 19.077 17.5499 19.0533 17.5499 18.9962C17.5499 18.9391 17.5085 18.8681 17.4592 18.8386Z" fill="#B05A21"/>
<path d="M8.97315 22.5057L8.55938 22.2673C8.50816 22.2377 8.46875 22.2614 8.46875 22.3185C8.46875 22.3757 8.51013 22.4466 8.55938 22.4761L8.97315 22.7145C9.02438 22.7441 9.06378 22.7205 9.06378 22.6633C9.06378 22.6062 9.02241 22.5352 8.97315 22.5057Z" fill="#B05A21"/>
<path d="M9.91504 23.0516L9.50128 22.8132C9.45005 22.7836 9.41064 22.8073 9.41064 22.8644C9.41064 22.9216 9.45202 22.9925 9.50128 23.022L9.91504 23.2605C9.96627 23.29 10.0057 23.2664 10.0057 23.2092C10.0076 23.1501 9.96627 23.0792 9.91504 23.0516Z" fill="#B05A21"/>
<path d="M10.8586 23.5953L10.4449 23.3569C10.3937 23.3273 10.3542 23.351 10.3542 23.4081C10.3542 23.4653 10.3956 23.5362 10.4449 23.5657L10.8586 23.8042C10.9099 23.8337 10.9493 23.8101 10.9493 23.7529C10.9493 23.6938 10.9079 23.6248 10.8586 23.5953Z" fill="#B05A21"/>
<path d="M11.8005 24.1391L11.3868 23.9007C11.3355 23.8712 11.2961 23.8948 11.2961 23.9519C11.2961 24.0091 11.3375 24.08 11.3868 24.1096L11.8005 24.348C11.8518 24.3775 11.8912 24.3539 11.8912 24.2967C11.8931 24.2396 11.8518 24.1687 11.8005 24.1391Z" fill="#B05A21"/>
<path d="M12.7441 24.6848L12.3304 24.4464C12.2792 24.4168 12.2397 24.4405 12.2397 24.4976C12.2397 24.5547 12.2811 24.6257 12.3304 24.6552L12.7441 24.8936C12.7954 24.9232 12.8348 24.8995 12.8348 24.8424C12.8348 24.7833 12.7954 24.7124 12.7441 24.6848Z" fill="#B05A21"/>
<path d="M13.6882 25.2286L13.2745 24.9902C13.2232 24.9606 13.1838 24.9843 13.1838 25.0414C13.1838 25.0986 13.2252 25.1695 13.2745 25.199L13.6882 25.4374C13.7395 25.467 13.7789 25.4434 13.7789 25.3862C13.7789 25.3271 13.7375 25.2582 13.6882 25.2286Z" fill="#B05A21"/>
<path d="M14.6296 25.7724L14.2159 25.534C14.1647 25.5045 14.1252 25.5281 14.1252 25.5852C14.1252 25.6424 14.1666 25.7133 14.2159 25.7429L14.6296 25.9813C14.6809 26.0108 14.7203 25.9872 14.7203 25.93C14.7203 25.8729 14.6809 25.802 14.6296 25.7724Z" fill="#B05A21"/>
<path d="M15.5737 26.3181L15.16 26.0797C15.1087 26.0501 15.0693 26.0738 15.0693 26.1309C15.0693 26.188 15.1107 26.259 15.16 26.2885L15.5737 26.5269C15.625 26.5565 15.6644 26.5328 15.6644 26.4757C15.6644 26.4186 15.623 26.3457 15.5737 26.3181Z" fill="#B05A21"/>
<path d="M16.5159 26.862L16.1021 26.6236C16.0509 26.5941 16.0115 26.6177 16.0115 26.6748C16.0115 26.732 16.0529 26.8029 16.1021 26.8325L16.5159 27.0709C16.5671 27.1004 16.6065 27.0768 16.6065 27.0196C16.6085 26.9605 16.5671 26.8916 16.5159 26.862Z" fill="#B05A21"/>
<path d="M17.4592 27.4057L17.0455 27.1673C16.9942 27.1378 16.9548 27.1614 16.9548 27.2185C16.9548 27.2757 16.9962 27.3466 17.0455 27.3762L17.4592 27.6146C17.5105 27.6441 17.5499 27.6205 17.5499 27.5633C17.5499 27.5062 17.5085 27.4353 17.4592 27.4057Z" fill="#B05A21"/>
<path d="M17.5498 15.1878L8.71491 10.0886L8.67944 10.1103L17.0749 14.9573L17.7567 16.1335V28.182L17.1124 28.5485L17.5498 28.8007L18.2295 28.4125V16.3641L17.5498 15.1878Z" fill="#C76C26"/>
<path d="M16.917 5.354L8.7146 10.0887L17.5495 15.1878L25.7499 10.4532L16.917 5.354Z" fill="#FF835F"/>
<path d="M9.06334 9.88769L16.917 5.354L8.7146 10.0887L17.5495 15.1878L17.8962 14.9888L9.06334 9.88769Z" fill="#E4B140"/>
<path d="M18.2292 28.4126L26.4317 23.676V11.6276L18.2292 16.3642V28.4126Z" fill="#FFAB91"/>
<path d="M22.6925 24.3143L22.5033 24.1882C22.4127 24.1291 20.3044 22.6947 20.3044 20.7875C20.3044 19.3885 21.2955 17.6763 22.5151 16.9729C23.1476 16.6084 23.7525 16.5552 24.2175 16.8232C24.6785 17.0892 24.9347 17.633 24.9347 18.3541C24.9347 20.2042 22.8895 23.9557 22.8028 24.1153L22.6925 24.3143ZM22.722 17.3335C21.6167 17.9719 20.7182 19.5205 20.7182 20.7875C20.7182 22.1647 22.0482 23.3213 22.5467 23.7075C22.9782 22.8858 24.517 19.8614 24.517 18.3561C24.517 17.7906 24.3357 17.3749 24.0086 17.1857C23.6776 16.9926 23.2205 17.0458 22.722 17.3335Z" fill="#FFF7F3"/>
<path d="M18.645 16.9573L26.4317 12.461V11.6276L18.2292 16.3642V28.4126L18.645 28.1723V16.9573Z" fill="#C46D33"/>
<path d="M18.7202 18.0486L25.9434 13.8794V13.0637L18.7202 17.2329V18.0486Z" fill="#FFF7F3"/>
<path d="M18.2293 16.3641L17.5496 15.1878L25.75 10.4531L26.4317 11.6274L18.2293 16.3641Z" fill="#FFAB91"/>
<path d="M18.4244 15.9009L17.8963 14.9886L17.5496 15.1876L18.2293 16.3639L26.4317 11.6273L26.28 11.3652L18.4244 15.9009Z" fill="#E49A40"/>
<path d="M18.2292 28.4125L26.4317 23.6778V11.6294L18.2292 16.3641V28.4125V28.4125ZM18.5071 16.8921L26.1558 12.4766V23.5163L18.5071 27.9278V16.8921V16.8921Z" fill="#683E3E"/>
<path d="M17.5496 28.8007L18.2313 28.4125V16.3641L17.5496 15.1898L8.71469 10.0886L8.03296 10.4768V22.5252L8.71469 23.6995L17.5496 28.8007ZM8.31077 10.6383L8.61814 10.463L8.71469 10.4078L17.3466 15.3907L17.9535 16.437V28.247L17.5496 28.4795L8.9196 23.4966L8.31274 22.4504V10.6383H8.31077Z" fill="#613635"/>
<path d="M8.7146 10.0887L17.5495 15.1878L17.7879 15.0499L17.7504 14.9849L9.26826 10.0887L16.917 5.67319L25.4741 10.6128L25.7499 10.4532L16.917 5.354L8.7146 10.0887Z" fill="#997171"/>
<path d="M19.8054 13.7988L11.3232 8.90255L10.9823 8.7804L10.7695 8.90255L19.6044 14.0017L19.8428 13.8638L19.8054 13.7988Z" fill="#997171"/>
<path d="M26.4317 11.6274L25.75 10.4531L25.4742 10.6127L25.549 10.6561L26.0534 11.5269L24.6506 12.3367L24.1087 11.4008L23.8683 11.5407L24.4102 12.4747L20.3868 14.7996L19.843 13.8637L19.6046 14.0017L20.1464 14.9376L18.3318 15.9858L17.788 15.0499L17.5496 15.1878L18.2293 16.3641L20.2844 15.1779L20.5996 14.9947L24.5501 12.715L24.8653 12.5338L26.4317 11.6274Z" fill="#7D5252"/>
<path d="M24.071 11.3379L15.5888 6.43966L15.248 6.3175L15.0352 6.43966L23.8681 11.5408L24.1084 11.4009L24.071 11.3379Z" fill="#997171"/>
<path d="M20.2931 9.3024L21.0202 8.88272C21.1916 8.78421 21.1699 8.60885 20.9729 8.49457L20.6655 8.31724C20.4665 8.20296 20.167 8.18917 19.9937 8.28966L19.2666 8.70934C19.0952 8.80785 19.1169 8.98124 19.3139 9.09749L19.6213 9.27481C19.8222 9.38909 20.1217 9.40091 20.2931 9.3024Z" fill="#EB8638"/>
<path d="M15.1052 12.319L15.8322 11.8993C16.0036 11.8008 15.9819 11.6254 15.7849 11.5112L15.4775 11.3338C15.2785 11.2196 14.9791 11.2058 14.8057 11.3063L14.0786 11.7259C13.9072 11.8244 13.9289 11.9978 14.1259 12.1141L14.4333 12.2914C14.6323 12.4057 14.9337 12.4195 15.1052 12.319Z" fill="#EB8638"/>
<path d="M20.2931 9.16446L21.0202 8.74478C21.1916 8.64627 21.1699 8.47288 20.9729 8.35663L20.6655 8.1793C20.4665 8.06502 20.167 8.05123 19.9937 8.15172L19.2666 8.5714C19.0952 8.66991 19.1169 8.84527 19.3139 8.95955L19.6213 9.13687C19.8222 9.25115 20.1217 9.26297 20.2931 9.16446Z" fill="#FFE254"/>
<path d="M15.1052 12.1809L15.8322 11.7613C16.0036 11.6627 15.9819 11.4894 15.7849 11.3731L15.4775 11.1958C15.2785 11.0815 14.9791 11.0677 14.8057 11.1682L14.0786 11.5879C13.9072 11.6864 13.9289 11.8617 14.1259 11.976L14.4333 12.1534C14.6323 12.2676 14.9337 12.2795 15.1052 12.1809Z" fill="#FFE254"/>
<path d="M20.9629 8.50059C20.9629 8.50059 20.6516 8.67988 20.3009 8.88283C20.2103 8.93602 20.1157 8.98922 20.0231 9.04242C19.8753 9.12911 19.7315 9.21187 19.6152 9.27886C19.1443 9.55076 18.9217 8.98134 17.903 9.56455C17.8873 9.57243 17.8597 9.59017 17.8045 9.62169C16.7741 10.2148 16.5514 11.0462 16.0805 11.3201C15.915 11.4147 15.7022 11.5388 15.4934 11.659C15.3988 11.7122 15.3042 11.7693 15.2155 11.8186C14.9436 11.9762 14.7289 12.1003 14.7289 12.1003L14.1555 11.7674C14.1555 11.7674 14.3683 11.6432 14.6402 11.4856C14.7289 11.4363 14.8215 11.3812 14.918 11.326C15.1269 11.2058 15.3397 11.0817 15.5052 10.9891C15.9781 10.7172 16.2007 9.88374 17.2292 9.29068C17.2804 9.26112 17.31 9.24536 17.3238 9.23748C17.3277 9.23551 17.3317 9.23354 17.3336 9.23157C17.3356 9.23157 17.3356 9.2296 17.3356 9.2296C17.3376 9.22763 17.3376 9.22763 17.3376 9.22763C18.3464 8.65427 18.569 9.21581 19.0379 8.94785C19.1562 8.88086 19.298 8.79613 19.4478 8.71141C19.5384 8.65821 19.633 8.60304 19.7256 8.55181C20.0763 8.34887 20.3876 8.1676 20.3876 8.1676L20.9629 8.50059Z" fill="#997171"/>
<path d="M15.4933 11.659C15.3987 11.7122 15.3041 11.7694 15.2155 11.8186L14.6401 11.4856C14.7288 11.4364 14.8214 11.3812 14.918 11.326L15.4933 11.659Z" fill="#FFCC54"/>
<path d="M20.3009 8.88277C20.2102 8.93597 20.1157 8.98917 20.0231 9.04237L19.4497 8.71135C19.5403 8.65815 19.6349 8.60299 19.7275 8.55176L20.3009 8.88277Z" fill="#FFCC54"/>
<path d="M8.31104 10.6385L8.83711 10.8178L17.0238 15.5564L17.9537 16.4391L17.3469 15.3909L8.71495 10.408L8.31104 10.6385Z" fill="#9F5238"/>
<path d="M11.322 12.8076L11.3279 13.647C11.3299 13.846 11.1683 13.9149 10.9693 13.8006L10.6619 13.6253C10.4629 13.511 10.2994 13.2588 10.2974 13.0598L10.2915 12.2224C10.2896 12.0234 10.4511 11.9545 10.6501 12.0687L10.9575 12.2441C11.1585 12.3564 11.32 12.6086 11.322 12.8076Z" fill="#D46B2A"/>
<path d="M11.2019 12.8765L11.2078 13.7158C11.2098 13.9148 11.0482 13.9838 10.8492 13.8695L10.5418 13.6941C10.3428 13.5799 10.1793 13.3277 10.1773 13.1287L10.1714 12.2893C10.1694 12.0903 10.331 12.0214 10.53 12.1356L10.8374 12.311C11.0383 12.4253 11.2019 12.6794 11.2019 12.8765Z" fill="#B05A21"/>
<path d="M15.812 15.3258L15.8179 16.1652C15.8199 16.3642 15.6583 16.4331 15.4593 16.3188L15.1519 16.1435C14.9529 16.0292 14.7894 15.777 14.7874 15.578L14.7815 14.7387C14.7795 14.5397 14.9411 14.4707 15.1401 14.585L15.4475 14.7603C15.6484 14.8746 15.81 15.1288 15.812 15.3258Z" fill="#D46B2A"/>
<path d="M15.6938 15.3966L15.6997 16.236C15.7017 16.435 15.5401 16.5039 15.3411 16.3896L15.0338 16.2143C14.8348 16.1 14.6712 15.8478 14.6693 15.6488L14.6633 14.8095C14.6614 14.6105 14.8229 14.5415 15.0219 14.6558L15.3293 14.8311C15.5283 14.9454 15.6918 15.1976 15.6938 15.3966Z" fill="#B05A21"/>
<path d="M15.365 15.2549C15.2191 15.3987 15.2329 15.5898 15.2329 15.7475V19.8713C15.2329 20.4585 14.9571 20.9806 14.5 21.2683C14.4901 21.2742 14.4823 21.2781 14.4724 21.2821C14.4704 21.284 14.4704 21.284 14.4685 21.284C13.1681 21.8574 11.7258 20.9077 11.714 20.8998C10.122 19.8615 10.3682 17.6449 10.3682 17.6212V13.2905C10.3682 13.0166 10.4411 12.8156 10.585 12.6935C10.7564 12.5457 10.9672 12.5772 10.9731 12.5792L10.8943 12.6738C10.8845 12.6718 10.9475 12.7585 10.9475 12.7585C10.8057 12.8807 10.7446 13.2333 10.7446 13.5092V17.8399C10.7446 17.8478 10.7387 18.098 10.7919 18.4685C10.7919 18.4763 10.7938 18.4842 10.7958 18.4941C10.8372 18.9 10.9475 19.3925 11.2096 19.8359C11.4204 20.1885 11.7416 20.4939 12.1691 20.7481C12.177 20.754 12.1888 20.758 12.1967 20.7639C12.9474 21.1993 13.6981 21.1323 14.2104 20.8112C14.6162 20.555 14.8606 20.09 14.8606 19.564L14.8645 15.5366C14.9019 15.377 15.0576 15.0756 15.3709 15.0756C15.3728 15.0756 15.3728 15.0756 15.3728 15.0756L15.365 15.2549Z" fill="#EDE4D8"/>
<path d="M10.4802 18.2122C10.4782 18.2023 10.4763 18.1944 10.4763 18.1866C10.425 17.8181 10.429 17.5659 10.429 17.558V13.2273C10.429 12.9869 10.4881 12.8076 10.5965 12.6835C10.5906 12.6874 10.5846 12.6914 10.5787 12.6953C10.4369 12.8175 10.364 13.0165 10.364 13.2923V17.623C10.364 17.6309 10.3581 17.7748 10.4113 18.1432C10.4113 18.1511 10.4132 18.159 10.4152 18.1688C10.4566 18.5747 10.6595 19.3215 10.829 19.617C11.0319 19.9736 11.3806 20.2436 11.8082 20.4977C11.8161 20.5036 11.8279 20.5076 11.8358 20.5135C12.5865 20.9489 13.3175 20.9135 13.8297 20.5923C13.9381 20.5253 14.0327 20.4406 14.1174 20.346C14.0484 20.413 13.9795 20.482 13.8948 20.5273C13.481 20.7499 12.7303 20.8642 11.9796 20.4288C11.9717 20.4248 11.9599 20.4189 11.952 20.413C11.5245 20.1588 11.1679 19.8771 10.9649 19.5205C10.7955 19.2249 10.5216 18.6181 10.4802 18.2122Z" fill="#FFCC54"/>
<path d="M11.8379 20.5153C11.83 20.5113 11.8182 20.5054 11.8103 20.4995C11.3827 20.2453 11.0419 19.9715 10.831 19.6188C10.5907 19.1459 10.4724 18.5489 10.4173 18.1706C10.4153 18.1608 10.4133 18.1529 10.4133 18.145C10.3621 17.7766 10.366 17.6307 10.366 17.6248V13.2941C10.366 13.0182 10.4389 12.8192 10.5808 12.6971C10.7542 12.5493 10.963 12.5789 10.9709 12.5808L10.9433 12.7582C10.9374 12.7582 10.8054 12.7404 10.6951 12.835C10.5966 12.9217 10.5453 13.0734 10.5453 13.2941V17.6268C10.5453 17.6505 10.6005 19.4789 11.8379 20.5153Z" fill="#D46B2A"/>
<path d="M15.3647 15.0754C15.0495 15.0754 14.8958 15.3748 14.8584 15.5344V19.6583C14.8584 20.2454 14.5825 20.7676 14.1254 21.0552C14.1156 21.0612 14.1077 21.0651 14.0978 21.069C14.0959 21.071 14.0959 21.071 14.0939 21.071C14.0505 21.0907 14.0052 21.1065 13.9599 21.1222C13.7806 21.1833 12.5886 21.5281 11.4852 20.6907C10.2478 19.7509 9.9917 18.1372 9.9917 17.4102V13.0794C9.9917 12.8056 10.0646 12.6046 10.2084 12.4824C10.3799 12.3346 10.5907 12.3662 10.5966 12.3681L10.9709 12.5829C10.9611 12.5809 10.7542 12.5514 10.5808 12.6992C10.439 12.8213 10.3661 13.0203 10.3661 13.2962V17.6269C10.3661 17.6348 10.3601 17.7786 10.4133 18.1471C10.4133 18.1549 10.4153 18.1628 10.4173 18.1727C10.4587 18.5786 10.8133 19.41 10.9828 19.7076C11.1857 20.0642 11.3847 20.2494 11.8123 20.5036C11.8201 20.5095 11.832 20.5134 11.8399 20.5193C12.5905 20.9548 13.3215 20.9193 13.8338 20.5981C14.2397 20.342 14.484 19.877 14.484 19.3509L14.488 15.3236C14.5254 15.164 14.681 14.8626 14.9943 14.8626C14.9963 14.8626 14.9963 14.8626 14.9963 14.8626L15.3647 15.0754Z" fill="#FFEEE9"/>
<path d="M15.3665 15.0752L15.3646 15.2545C15.2503 15.2545 15.1715 15.3195 15.1202 15.3904C15.069 15.4633 15.0414 15.5402 15.0336 15.5658V19.5616C15.0336 20.1487 14.7597 20.6709 14.3006 20.9585C14.2356 20.9999 14.1666 21.0354 14.0977 21.0669C14.1075 21.063 14.1154 21.0571 14.1252 21.0531C14.5843 20.7655 14.8582 20.2414 14.8582 19.6562V15.5323C14.8956 15.3747 15.0493 15.0752 15.3665 15.0752C15.3646 15.0752 15.3646 15.0752 15.3665 15.0752Z" fill="#D46B2A"/>
<path d="M12.6276 21.2643C12.5035 21.2328 12.3695 21.1757 12.1626 21.0771C12.3202 21.152 12.4759 21.217 12.6276 21.2643Z" fill="#F5A13A"/>
<path d="M14.1347 21.1892C14.0953 21.2129 14.0519 21.2286 14.0027 21.2385C14.048 21.2247 14.0933 21.2089 14.1347 21.1892Z" fill="#F5A13A"/>
</svg>
