<svg width="8" height="7" viewBox="0 0 8 7" fill="none" xmlns="http://www.w3.org/2000/svg">
<path d="M3.95898 6.1416C2.26757 6.1416 0.896484 4.77052 0.896484 3.0791C0.896484 1.38768 2.26757 0.0166016 3.95898 0.0166016C5.6504 0.0166016 7.02148 1.38768 7.02148 3.0791C7.02148 4.77052 5.6504 6.1416 3.95898 6.1416ZM3.95898 4.3041C4.28387 4.3041 4.59546 4.17504 4.82519 3.94531C5.05492 3.71558 5.18398 3.40399 5.18398 3.0791C5.18398 2.75421 5.05492 2.44263 4.82519 2.2129C4.59546 1.98316 4.28387 1.8541 3.95898 1.8541C3.63409 1.8541 3.32251 1.98316 3.09278 2.2129C2.86305 2.44263 2.73398 2.75421 2.73398 3.0791C2.73398 3.40399 2.86305 3.71558 3.09278 3.94531C3.32251 4.17504 3.63409 4.3041 3.95898 4.3041Z" fill="#5466F9"/>
<circle cx="3.95898" cy="3.0791" r="2.29688" fill="white"/>
</svg>
