<svg width="63" height="63" viewBox="0 0 63 63" fill="none" xmlns="http://www.w3.org/2000/svg">
<circle cx="31.1634" cy="31.8709" r="30.9236" fill="#F6F7FF"/>
<g clip-path="url(#clip0_10_15992)">
<path d="M46.9361 16.4859L35.0305 9.60544C33.9481 8.98697 32.7885 8.67773 31.6289 8.67773H31.5516C30.3146 8.67773 29.155 8.98697 28.0727 9.60544L16.0897 16.4859C13.9251 17.7229 12.6108 20.0422 12.6108 22.5161V32.1797C12.6108 42.3072 19.0275 51.3523 28.6138 54.5993C29.5415 54.9085 30.5465 55.0632 31.5516 55.0632H31.6289C32.5566 55.0632 33.5616 54.9085 34.412 54.5993C39.2052 52.8985 43.2252 49.8835 46.0084 45.9407C48.7915 41.9979 50.415 37.2048 50.415 32.1797V22.5161C50.415 20.0422 49.1007 17.7229 46.9361 16.4859ZM47.6318 32.257C47.6318 41.1475 41.9883 49.1104 33.4843 52.0481C32.8658 52.28 32.2473 52.3573 31.5516 52.3573H31.4743C30.7785 52.3573 30.0827 52.28 29.4642 52.0481C21.1148 49.1104 15.394 41.1475 15.394 32.257V22.5161C15.394 21.0472 16.1671 19.6556 17.4813 18.8825L29.3869 12.002C29.6961 11.8474 30.0827 11.6928 30.4692 11.5382C30.8558 11.4609 31.2423 11.3836 31.6289 11.3836C31.7835 11.3836 31.9381 11.3836 32.17 11.3836C32.2473 11.3836 32.3246 11.3836 32.402 11.4609C32.4793 11.4609 32.5566 11.4609 32.6339 11.5382C32.7112 11.5382 32.7885 11.6155 32.8658 11.6155C33.0977 11.6928 33.407 11.8474 33.6389 11.9247L45.5445 18.8052C46.8588 19.5783 47.6318 20.9699 47.6318 22.4387V32.257Z" fill="#5466F9"/>
<path d="M46.8592 22.5184V32.1821C46.8592 40.7634 41.3702 48.417 33.2528 51.2774C32.9435 51.432 32.557 51.5093 32.1705 51.5093C32.0931 51.5093 32.0158 51.5093 31.9385 51.5093C31.8612 51.5093 31.7839 51.5093 31.7066 51.5093H31.552C30.9335 51.5093 30.315 51.432 29.6966 51.2001C21.6564 48.4943 16.1675 40.8407 16.1675 32.2594V22.5184C16.1675 21.2815 16.786 20.1992 17.8683 19.5807L29.7739 12.7002C30.315 12.3909 30.8562 12.2363 31.4747 12.2363H31.552C31.6293 12.2363 31.7066 12.2363 31.7066 12.2363C31.7839 12.2363 31.8612 12.2363 31.9385 12.2363C32.0158 12.2363 32.0931 12.2363 32.1705 12.2363C32.2478 12.2363 32.3251 12.2363 32.4024 12.3136C32.557 12.3909 32.7116 12.4683 32.8662 12.5456C32.9435 12.5456 33.0209 12.6229 33.0982 12.6229C33.1755 12.6229 33.2528 12.7002 33.2528 12.7002L45.1584 19.5807C46.2407 20.1992 46.8592 21.3588 46.8592 22.5184Z" fill="#5466F9"/>
<path d="M31.6309 11.4629C31.7855 11.4629 31.9401 11.4629 32.1721 11.5402C31.9401 11.5402 31.7855 11.4629 31.6309 11.4629ZM17.8699 19.5803L29.7755 12.6998C30.3166 12.3906 30.8578 12.236 31.4763 12.236H31.5536V11.4629C31.167 11.4629 30.7805 11.4629 30.394 11.6175C30.0074 11.6948 29.6209 11.8494 29.3116 12.0041L17.4833 18.8846C16.1691 19.6577 15.396 21.0492 15.396 22.5181V32.1817C15.396 41.1496 21.1169 49.1124 29.5436 52.0501C30.162 52.2821 30.8578 52.3594 31.5536 52.3594H31.6309V51.5863C31.0124 51.5863 30.394 51.509 29.7755 51.2771C21.658 48.4939 16.1691 40.8403 16.1691 32.259V22.5181C16.1691 21.3584 16.8649 20.1988 17.8699 19.5803Z" fill="white"/>
<path d="M47.6325 22.5181V32.1817C47.6325 41.1496 41.989 49.1124 33.485 51.9728C32.8665 52.2048 32.248 52.2821 31.5522 52.2821V51.509C31.6296 51.509 31.6296 51.509 31.7069 51.509C31.7842 51.509 31.8615 51.509 31.9388 51.509C32.0161 51.509 32.0934 51.509 32.1707 51.509C32.5573 51.4317 32.8665 51.3544 33.253 51.2771C41.3705 48.4939 46.8594 40.763 46.8594 32.1817V22.5181C46.8594 21.2811 46.241 20.1988 45.1586 19.5803L33.253 12.6998C33.1757 12.6225 33.0984 12.6225 33.0211 12.6225C32.9438 12.5452 32.8665 12.5452 32.8665 12.5452C32.7119 12.4679 32.6346 12.4679 32.48 12.3906C32.4026 12.3906 32.3253 12.3133 32.248 12.3133C32.1707 12.3133 32.0934 12.3133 32.0161 12.236C31.9388 12.236 31.8615 12.236 31.7842 12.236C31.7069 12.236 31.6296 12.236 31.6296 12.236V11.4629C31.7842 11.4629 31.9388 11.4629 32.1707 11.5402C32.248 11.5402 32.3253 11.5402 32.4026 11.6175C32.48 11.6175 32.5573 11.6175 32.6346 11.6948C32.7119 11.6948 32.7892 11.7721 32.8665 11.7721C33.0984 11.8494 33.4077 12.0041 33.6396 12.0814L45.5452 18.9619C46.8594 19.6577 47.6325 21.0492 47.6325 22.5181Z" fill="white"/>
<path d="M32.1715 11.5402C32.0169 11.5402 31.8623 11.4629 31.6304 11.4629C31.785 11.4629 31.9396 11.5402 32.1715 11.5402Z" fill="#421E96"/>
</g>
<path fill-rule="evenodd" clip-rule="evenodd" d="M31.5368 25.5427C35.1505 25.6448 38.0949 28.4131 38.3868 31.997C37.2963 31.4655 35.9705 31.4869 34.8864 32.0843C33.8945 31.5454 32.6445 31.5214 31.6288 31.975L31.7443 37.6724C31.7435 38.4452 31.0836 39.1491 30.2956 39.2089C29.3638 39.2004 28.9631 38.3591 28.9412 37.5484C28.9113 37.1544 29.5249 37.1474 29.5322 37.5035C29.5316 38.0187 29.7129 38.5795 30.2887 38.5953C30.7433 38.5806 31.1301 38.1946 31.1533 37.7173L31.0378 32.0198C29.9927 31.5642 28.7881 31.616 27.7799 32.1681C26.6894 31.6366 25.3409 31.6201 24.2569 32.2176C24.4802 28.6342 27.3318 25.743 30.9231 25.5496L30.9386 25.2314C30.9313 24.8754 31.5223 24.8305 31.5143 25.2472L31.5368 25.5427Z" fill="white"/>
<defs>
<clipPath id="clip0_10_15992">
<rect width="37.8814" height="47.1585" fill="white" transform="translate(12.6108 8.67773)"/>
</clipPath>
</defs>
</svg>
