<svg width="31" height="31" viewBox="0 0 31 31" fill="none" xmlns="http://www.w3.org/2000/svg">
<circle cx="15.6098" cy="15.0793" r="15.0319" fill="#F6F7FF"/>
<path d="M15.6119 10.6197C14.7698 10.6197 14.0848 9.93476 14.0848 9.09283C14.0848 8.2509 14.7698 7.56592 15.6119 7.56592C16.454 7.56592 17.139 8.2509 17.139 9.09283C17.139 9.93476 16.454 10.6197 15.6119 10.6197ZM15.6119 8.25494C15.1497 8.25494 14.7739 8.63074 14.7739 9.09283C14.7739 9.55492 15.1497 9.93072 15.6119 9.93072C16.0742 9.93072 16.45 9.55492 16.45 9.09283C16.45 8.63074 16.0742 8.25494 15.6119 8.25494Z" fill="#5466F9"/>
<path d="M17.4522 13.7381H13.7686C13.2824 13.7381 12.8454 13.4879 12.5991 13.0691C12.3512 12.6468 12.3458 12.1388 12.585 11.7102C13.1963 10.6131 14.3557 9.93164 15.6106 9.93164C16.8655 9.93164 18.0248 10.6131 18.6361 11.7102C18.8753 12.1388 18.8699 12.6468 18.622 13.0689C18.3757 13.4879 17.9387 13.7381 17.4522 13.7381ZM15.6106 10.6207C14.6053 10.6207 13.6767 11.1667 13.1865 12.0456C13.0678 12.2588 13.0705 12.5108 13.1933 12.72C13.3144 12.9261 13.5294 13.0491 13.7686 13.0491H17.4522C17.6917 13.0491 17.9067 12.9261 18.0278 12.72C18.1506 12.5108 18.1533 12.2586 18.0346 12.0456C17.5444 11.1667 16.6158 10.6207 15.6106 10.6207Z" fill="#5466F9"/>
<path d="M10.5432 19.482C9.70146 19.482 9.01648 18.7971 9.01648 17.9551C9.01648 17.1132 9.70146 16.4282 10.5432 16.4282C11.3853 16.4282 12.0703 17.1132 12.0703 17.9551C12.0703 18.7971 11.3853 19.482 10.5432 19.482ZM10.5432 17.1172C10.0813 17.1172 9.7055 17.493 9.7055 17.9551C9.7055 18.4172 10.0813 18.793 10.5432 18.793C11.0055 18.793 11.3813 18.4172 11.3813 17.9551C11.3813 17.493 11.0055 17.1172 10.5432 17.1172Z" fill="#5466F9"/>
<path d="M12.3842 22.6009H8.70055C8.21407 22.6009 7.77704 22.3507 7.53077 21.9317C7.28281 21.5096 7.27743 21.0016 7.51663 20.573C8.12794 19.4759 9.28729 18.7944 10.5422 18.7944C11.7971 18.7944 12.9565 19.4759 13.5678 20.573C13.807 21.0016 13.8016 21.5096 13.5536 21.9319C13.3074 22.3507 12.8703 22.6009 12.3842 22.6009ZM10.5422 19.4835C9.53693 19.4835 8.60837 20.0295 8.11818 20.9084C7.99942 21.1214 8.00211 21.3735 8.12491 21.5828C8.24603 21.7889 8.46101 21.9118 8.70055 21.9118H12.3842C12.6234 21.9118 12.8384 21.7889 12.9595 21.5828C13.0823 21.3735 13.085 21.1216 12.9662 20.9084C12.476 20.0295 11.5475 19.4835 10.5422 19.4835Z" fill="#5466F9"/>
<path d="M20.6782 19.482C19.8361 19.482 19.1511 18.7971 19.1511 17.9551C19.1511 17.1132 19.8361 16.4282 20.6782 16.4282C21.52 16.4282 22.2049 17.1132 22.2049 17.9551C22.2049 18.7971 21.52 19.482 20.6782 19.482ZM20.6782 17.1172C20.2159 17.1172 19.8401 17.493 19.8401 17.9551C19.8401 18.4172 20.2159 18.793 20.6782 18.793C21.1401 18.793 21.5159 18.4172 21.5159 17.9551C21.5159 17.493 21.1401 17.1172 20.6782 17.1172Z" fill="#5466F9"/>
<path d="M22.5195 22.6009H18.8358C18.3497 22.6009 17.9127 22.3507 17.6664 21.9319C17.4184 21.5096 17.413 21.0016 17.6523 20.573C18.2636 19.4759 19.4229 18.7944 20.6778 18.7944C21.9327 18.7944 23.0921 19.4759 23.7034 20.573C23.9423 21.0018 23.9369 21.5098 23.6889 21.932C23.4426 22.3509 23.0056 22.6009 22.5195 22.6009ZM20.6778 19.4835C19.6725 19.4835 18.744 20.0295 18.2538 20.9084C18.135 21.1216 18.1377 21.3735 18.2605 21.5828C18.3816 21.7889 18.5966 21.9118 18.8358 21.9118H22.5195C22.7587 21.9118 22.9737 21.7889 23.0948 21.5828C23.2179 21.3735 23.2203 21.1214 23.1015 20.9084C22.6116 20.0295 21.6831 19.4835 20.6778 19.4835Z" fill="#5466F9"/>
<path d="M12.3338 20.0505C12.2501 20.0505 12.166 20.02 12.0997 19.9586C11.9601 19.8291 11.952 19.6113 12.0812 19.4716L15.2662 16.0375V13.4104C15.2662 13.2202 15.4203 13.0659 15.6107 13.0659C15.8011 13.0659 15.9552 13.2202 15.9552 13.4104V16.1727C15.9552 16.2597 15.9223 16.3433 15.8634 16.4071L12.5865 19.9403C12.5185 20.0135 12.4264 20.0505 12.3338 20.0505Z" fill="#5466F9"/>
<path d="M18.8664 20.0573C18.7739 20.0573 18.6817 20.0203 18.6138 19.9471L15.3228 16.3984C15.1936 16.2588 15.2016 16.0408 15.3413 15.9114C15.4805 15.7819 15.6986 15.79 15.8281 15.9297L19.1191 19.4785C19.2483 19.6181 19.2402 19.8361 19.1006 19.9655C19.0343 20.0269 18.9502 20.0573 18.8664 20.0573Z" fill="#5466F9"/>
</svg>
