<svg width="8" height="7" viewBox="0 0 8 7" fill="none" xmlns="http://www.w3.org/2000/svg">
<path d="M4.02148 6.42285C2.33007 6.42285 0.958984 5.05177 0.958984 3.36035C0.958984 1.66893 2.33007 0.297852 4.02148 0.297852C5.7129 0.297852 7.08398 1.66893 7.08398 3.36035C7.08398 5.05177 5.7129 6.42285 4.02148 6.42285ZM4.02148 4.58535C4.34637 4.58535 4.65796 4.45629 4.88769 4.22656C5.11742 3.99683 5.24648 3.68524 5.24648 3.36035C5.24648 3.03546 5.11742 2.72388 4.88769 2.49415C4.65796 2.26441 4.34637 2.13535 4.02148 2.13535C3.69659 2.13535 3.38501 2.26441 3.15528 2.49415C2.92555 2.72388 2.79648 3.03546 2.79648 3.36035C2.79648 3.68524 2.92555 3.99683 3.15528 4.22656C3.38501 4.45629 3.69659 4.58535 4.02148 4.58535Z" fill="#5466F9"/>
<circle cx="4.02148" cy="3.36035" r="2.29688" fill="white"/>
</svg>
