<svg width="7" height="7" viewBox="0 0 7 7" fill="none" xmlns="http://www.w3.org/2000/svg">
<path d="M3.55273 6.92285C1.86132 6.92285 0.490234 5.55177 0.490234 3.86035C0.490234 2.16893 1.86132 0.797852 3.55273 0.797852C5.24415 0.797852 6.61523 2.16893 6.61523 3.86035C6.61523 5.55177 5.24415 6.92285 3.55273 6.92285ZM3.55273 5.08535C3.87762 5.08535 4.18921 4.95629 4.41894 4.72656C4.64867 4.49683 4.77773 4.18524 4.77773 3.86035C4.77773 3.53546 4.64867 3.22388 4.41894 2.99415C4.18921 2.76441 3.87762 2.63535 3.55273 2.63535C3.22784 2.63535 2.91626 2.76441 2.68653 2.99415C2.4568 3.22388 2.32773 3.53546 2.32773 3.86035C2.32773 4.18524 2.4568 4.49683 2.68653 4.72656C2.91626 4.95629 3.22784 5.08535 3.55273 5.08535Z" fill="#5466F9"/>
<circle cx="3.55273" cy="3.86035" r="2.29688" fill="white"/>
</svg>
