<svg width="7" height="7" viewBox="0 0 7 7" fill="none" xmlns="http://www.w3.org/2000/svg">
<path d="M3.49023 7.00098C1.79882 7.00098 0.427734 5.6299 0.427734 3.93848C0.427734 2.24706 1.79882 0.875977 3.49023 0.875977C5.18165 0.875977 6.55273 2.24706 6.55273 3.93848C6.55273 5.6299 5.18165 7.00098 3.49023 7.00098ZM3.49023 5.16348C3.81512 5.16348 4.12671 5.03441 4.35644 4.80468C4.58617 4.57495 4.71523 4.26337 4.71523 3.93848C4.71523 3.61359 4.58617 3.302 4.35644 3.07227C4.12671 2.84254 3.81512 2.71348 3.49023 2.71348C3.16534 2.71348 2.85376 2.84254 2.62403 3.07227C2.3943 3.302 2.26523 3.61359 2.26523 3.93848C2.26523 4.26337 2.3943 4.57495 2.62403 4.80468C2.85376 5.03441 3.16534 5.16348 3.49023 5.16348Z" fill="#5466F9"/>
<circle cx="3.49023" cy="3.93848" r="2.29688" fill="white"/>
</svg>
