<svg width="161" height="191" viewBox="0 0 161 191" fill="none" xmlns="http://www.w3.org/2000/svg">
<circle cx="15.8297" cy="16.3224" r="15.633" fill="#F6F7FF"/>
<rect x="103.375" y="4.59961" width="57.0603" height="3.90824" rx="1.95412" fill="#EAEAEA"/>
<rect x="0.196777" y="45.2441" width="57.0603" height="3.90824" rx="1.95412" fill="#EAEAEA"/>
<rect x="0.196777" y="53.0605" width="42.9907" height="2.34494" rx="1.17247" fill="#EAEAEA"/>
<rect x="0.196777" y="89.7988" width="35.1742" height="1.5633" rx="0.781648" fill="#EAEAEA"/>
<rect x="0.196777" y="104.65" width="35.1742" height="2.34494" rx="1.17247" fill="#EAEAEA"/>
<rect x="70.1538" y="104.65" width="15.633" height="2.34494" rx="1.17247" fill="#EAEAEA"/>
<rect x="118.226" y="104.65" width="25.4036" height="2.34494" rx="1.17247" fill="#EAEAEA"/>
<rect x="0.196777" y="119.502" width="35.1742" height="2.34494" rx="1.17247" fill="#EAEAEA"/>
<rect x="70.1538" y="119.502" width="15.633" height="2.34494" rx="1.17247" fill="#EAEAEA"/>
<rect x="118.226" y="119.502" width="25.4036" height="2.34494" rx="1.17247" fill="#EAEAEA"/>
<rect x="0.196777" y="134.354" width="35.1742" height="2.34494" rx="1.17247" fill="#EAEAEA"/>
<rect x="0.196777" y="149.205" width="35.1742" height="2.34494" rx="1.17247" fill="#EAEAEA"/>
<rect x="70.1538" y="134.354" width="15.633" height="2.34494" rx="1.17247" fill="#EAEAEA"/>
<rect x="118.226" y="134.354" width="25.4036" height="2.34494" rx="1.17247" fill="#EAEAEA"/>
<rect x="118.226" y="148.029" width="25.4036" height="2.34494" rx="1.17247" fill="#EAEAEA"/>
<rect x="68.2007" y="89.7988" width="35.1742" height="1.5633" rx="0.781648" fill="#EAEAEA"/>
<rect x="118.226" y="89.7988" width="35.1742" height="1.5633" rx="0.781648" fill="#EAEAEA"/>
<line x1="0.196777" y1="76.8476" x2="160.435" y2="76.8475" stroke="#EAEAEA" stroke-width="0.886915" stroke-dasharray="3.1 3.1"/>
<line x1="0.196777" y1="165.172" x2="160.435" y2="165.172" stroke="#EAEAEA" stroke-width="0.886915" stroke-dasharray="3.1 3.1"/>
<rect x="111.927" y="175.678" width="48.4622" height="14.8513" rx="3.54766" fill="#F6F7FF"/>
<rect x="122.525" y="182.424" width="25.4036" height="2.34494" rx="1.17247" fill="#B1BAFF"/>
</svg>
