<svg width="7" height="7" viewBox="0 0 7 7" fill="none" xmlns="http://www.w3.org/2000/svg">
<path d="M3.36523 6.8916C1.67382 6.8916 0.302734 5.52052 0.302734 3.8291C0.302734 2.13768 1.67382 0.766602 3.36523 0.766602C5.05665 0.766602 6.42773 2.13768 6.42773 3.8291C6.42773 5.52052 5.05665 6.8916 3.36523 6.8916ZM3.36523 5.0541C3.69012 5.0541 4.00171 4.92504 4.23144 4.69531C4.46117 4.46558 4.59023 4.15399 4.59023 3.8291C4.59023 3.50421 4.46117 3.19263 4.23144 2.9629C4.00171 2.73316 3.69012 2.6041 3.36523 2.6041C3.04034 2.6041 2.72876 2.73316 2.49903 2.9629C2.2693 3.19263 2.14023 3.50421 2.14023 3.8291C2.14023 4.15399 2.2693 4.46558 2.49903 4.69531C2.72876 4.92504 3.04034 5.0541 3.36523 5.0541Z" fill="#5466F9"/>
<circle cx="3.36523" cy="3.8291" r="2.29688" fill="white"/>
</svg>
