<svg width="63" height="63" viewBox="0 0 63 63" fill="none" xmlns="http://www.w3.org/2000/svg">
<circle cx="31.6087" cy="31.0974" r="30.9236" fill="#F6F7FF"/>
<path d="M51.2445 18.1094V32.7208C51.2445 40.761 47.3018 48.3373 40.7305 52.9758C38.0247 54.8312 34.9323 55.8363 31.7626 55.8363V53.1304C31.9946 53.1304 32.3038 53.1304 32.5357 53.1304C32.9223 53.1304 33.3861 53.0531 33.7727 52.9758C34.0046 52.9758 34.3138 52.8985 34.5458 52.8212C36.1693 52.4347 37.7927 51.7389 39.1843 50.8112C45.0598 46.7138 48.5387 39.9879 48.5387 32.7982V19.8102L31.7626 11.6928L14.9866 19.8102V32.7208C14.9866 39.8333 18.4655 46.6365 24.341 50.7339C26.5056 52.28 29.0568 53.0531 31.7626 53.0531V55.8363C30.2165 55.8363 28.593 55.6043 27.1241 55.1405C25.5779 54.6766 24.1864 53.9808 22.7948 52.9758C16.2235 48.3373 12.2808 40.8383 12.2808 32.7208V18.1094L31.7626 8.67773L51.2445 18.1094Z" fill="#5466F9"/>
<path d="M47.7652 20.3531V32.7999C47.7652 39.6804 44.3636 46.1744 38.7201 50.1944C38.4881 50.349 38.3335 50.5037 38.1016 50.581C36.4781 51.586 34.6227 52.2045 32.69 52.3591C32.3807 52.3591 32.2261 52.3591 31.9169 52.3591H31.6849C29.2111 52.3591 26.7372 51.586 24.7271 50.1944C19.1609 46.0971 15.7593 39.6804 15.7593 32.7226V20.3531L31.7623 12.5449V22.4405V12.5449L47.7652 20.3531Z" fill="#5466F9"/>
<path d="M31.7619 12.5438V11.6934L14.9858 19.8108V32.7214C14.9858 39.9112 18.4647 46.6371 24.3402 50.7344C26.5049 52.2806 29.0561 53.0537 31.7619 53.0537V52.2806C29.288 52.2806 26.8141 51.5075 24.8041 50.0387C19.1605 46.1732 15.7589 39.6792 15.7589 32.7214V20.352L31.7619 12.5438Z" fill="white"/>
<path d="M48.5384 19.8108V32.7214C48.5384 39.9112 45.0595 46.6371 39.184 50.7344C37.7925 51.7394 36.2463 52.4352 34.5455 52.7445C34.3136 52.8218 34.0816 52.8218 33.7724 52.8991C33.3859 52.9764 32.922 52.9764 32.5355 53.0537C32.3035 53.0537 31.9943 53.0537 31.7624 53.0537H31.6851V52.2806H31.7624C32.0716 52.2806 32.3808 52.2806 32.6128 52.2033C34.5455 52.0487 36.3236 51.4302 38.0244 50.4252C38.2563 50.2706 38.4883 50.1933 38.6429 50.0387C44.2864 46.0959 47.6107 39.6019 47.6107 32.6441V20.352L31.6851 12.6211V11.6934L48.5384 19.8108Z" fill="white"/>
<path d="M39.1765 25.6855L31.3833 35.0261L26.7759 30.8405L24.6499 32.7732L31.7355 39.2146L41.6579 27.6183L39.1765 25.6855Z" fill="white"/>
</svg>
