<svg width="254" height="161" viewBox="0 0 254 161" fill="none" xmlns="http://www.w3.org/2000/svg">
<g filter="url(#filter0_ddd_10_15697)">
<rect x="18.8101" y="6.2793" width="216.465" height="123.694" rx="6.18472" fill="white"/>
</g>
<path d="M132.503 121.472C164.578 121.472 190.58 119.922 190.58 118.01C190.58 116.099 164.578 114.549 132.503 114.549C100.427 114.549 74.4253 116.099 74.4253 118.01C74.4253 119.922 100.427 121.472 132.503 121.472Z" fill="#F6F7FF"/>
<path d="M134.458 115.57H130.549C130.424 115.57 130.324 114.438 130.324 113.042V85.5343C130.324 84.1382 130.424 83.0059 130.549 83.0059H134.458C134.582 83.0059 134.683 84.1382 134.683 85.5343V113.042C134.683 114.438 134.582 115.57 134.458 115.57Z" fill="#F6F7FF" stroke="#F6F7FF" stroke-width="1.02565"/>
<path d="M105.886 115.759L104.406 114.279C104.358 114.231 105.266 113.247 106.433 112.081L129.412 89.101C130.579 87.9345 131.563 87.0268 131.61 87.074L133.091 88.5548C133.138 88.6017 132.23 89.5858 131.064 90.7522L108.084 113.732C106.917 114.899 105.934 115.806 105.886 115.759Z" fill="#F6F7FF" stroke="#F6F7FF" stroke-width="1.02565"/>
<path d="M159.758 116.042L161.238 114.561C161.286 114.514 160.368 113.52 159.19 112.341L135.971 89.1227C134.793 87.9443 133.799 87.0268 133.752 87.074L132.271 88.5548C132.224 88.6017 133.141 89.5958 134.32 90.7743L157.538 113.993C158.717 115.171 159.711 116.089 159.758 116.042Z" fill="#F6F7FF" stroke="#F6F7FF" stroke-width="1.02565"/>
<path d="M184.582 96.599H80.4249C77.3936 96.599 74.939 94.1518 74.939 91.1392V26.1609C74.939 23.1484 77.3936 20.7012 80.4249 20.7012H184.582C187.613 20.7012 190.068 23.1484 190.068 26.1609V91.1392C190.068 94.1518 187.613 96.599 184.582 96.599ZM145.264 117.625H119.743C119.367 117.625 119.044 117.585 118.831 117.53C118.816 117.526 118.8 117.522 118.785 117.518V113.886C118.799 113.882 118.815 113.878 118.831 113.873C119.044 113.818 119.367 113.779 119.743 113.779H145.264C145.64 113.779 145.962 113.818 146.176 113.873C146.192 113.878 146.208 113.882 146.221 113.886V117.518C146.206 117.522 146.191 117.526 146.176 117.53C145.962 117.585 145.64 117.625 145.264 117.625ZM118.655 117.468C118.644 117.462 118.646 117.462 118.656 117.469L118.655 117.468ZM118.655 113.935L118.656 113.934C118.646 113.941 118.644 113.941 118.655 113.935ZM146.352 113.935C146.363 113.941 146.36 113.941 146.351 113.934L146.352 113.935ZM146.352 117.468L146.351 117.469C146.36 117.462 146.363 117.462 146.352 117.468ZM110.58 113.779V117.625H101.862V113.779H110.58ZM163.145 113.779V117.625H154.427V113.779H163.145Z" fill="#F6F7FF" stroke="white" stroke-width="1.02565"/>
<path d="M74.939 20.7012H190.068V25.0602H74.939V20.7012Z" fill="#F6F7FF" stroke="white" stroke-width="1.54618"/>
<path d="M140.452 18.6504H124.042C122.98 18.6504 122.119 19.5114 122.119 20.5735C122.119 21.6356 122.98 22.4966 124.042 22.4966H140.452C141.514 22.4966 142.375 21.6356 142.375 20.5735C142.375 19.5114 141.514 18.6504 140.452 18.6504Z" fill="#F6F7FF" stroke="#F6F7FF" stroke-width="1.02565"/>
<path d="M65.7257 54.5943C63.5847 56.5623 59.8003 55.9317 59.8003 55.9317C59.8003 55.9317 59.4901 52.1102 61.6329 50.1435C63.7739 48.1753 67.5562 48.8048 67.5562 48.8048C67.5562 48.8048 67.8668 52.6261 65.7257 54.5943Z" fill="#F6F7FF"/>
<path d="M64.6811 69.6739C65.6724 69.6739 66.476 70.4775 66.476 71.4688C66.476 72.4601 65.6724 73.2637 64.6811 73.2637C63.6898 73.2637 62.8862 72.4601 62.8862 71.4688C62.8862 70.4775 63.6898 69.6739 64.6811 69.6739Z" fill="#F6F7FF"/>
<path d="M66.4785 27.8812C67.6114 27.8812 68.5298 28.857 68.5298 30.0607C68.5298 31.2644 67.6114 32.2402 66.4785 32.2402C65.3456 32.2402 64.4272 31.2644 64.4272 30.0607C64.4272 28.857 65.3456 27.8812 66.4785 27.8812Z" fill="#F6F7FF"/>
<path d="M190.581 83.7786C191.997 83.7786 193.145 82.6306 193.145 81.2145C193.145 79.7984 191.997 78.6504 190.581 78.6504C189.165 78.6504 188.017 79.7984 188.017 81.2145C188.017 82.6306 189.165 83.7786 190.581 83.7786Z" fill="#F6F7FF"/>
<path d="M193.691 36.6468C193.571 37.0934 193.836 37.5524 194.283 37.6721C194.729 37.7918 195.189 37.5268 195.308 37.0801C195.428 36.6335 195.163 36.1745 194.716 36.0548C194.27 35.9351 193.811 36.2002 193.691 36.6468Z" fill="#F6F7FF"/>
<path d="M198.53 52.7497C199.238 52.7497 199.812 52.1757 199.812 51.4676C199.812 50.7595 199.238 50.1855 198.53 50.1855C197.822 50.1855 197.248 50.7595 197.248 51.4676C197.248 52.1757 197.822 52.7497 198.53 52.7497Z" fill="#F6F7FF"/>
<path fill-rule="evenodd" clip-rule="evenodd" d="M117.491 56.2079C117.491 66.3305 109.287 74.5349 99.1644 74.5349C89.0418 74.5349 80.8374 66.3305 80.8374 56.2079C80.8374 46.0853 89.0418 37.8809 99.1644 37.8809C109.287 37.8809 117.491 46.0853 117.491 56.2079Z" fill="#5466F9" stroke="white" stroke-width="1.02565" stroke-linecap="round" stroke-linejoin="round"/>
<path d="M112.123 69.1672L99.7602 56.8045C99.571 56.6156 99.421 56.3911 99.3186 56.1441C99.2162 55.897 99.1635 55.6322 99.1636 55.3648V37.8809" stroke="#F6F7FF" stroke-width="1.02565" stroke-linecap="round" stroke-linejoin="round"/>
<path d="M99.2789 56.3239L112.113 69.1653M115.035 47.0449L99.8936 55.7865C99.6619 55.9201 99.4588 56.098 99.296 56.3101C99.1332 56.5222 99.0138 56.7644 98.9446 57.0227L94.4194 73.911L115.035 47.0449Z" stroke="#F6F7FF" stroke-width="1.02565" stroke-linecap="round" stroke-linejoin="round"/>
<path d="M125.851 65.4629H138.941H125.851ZM155.308 65.4724H170.104H155.308ZM155.308 75.1011H170.104H155.308ZM125.851 69.6703H147.589H125.851ZM155.303 69.6703H176.967H155.303ZM155.303 79.2991H176.967H155.303ZM125.851 75.2801H138.941H125.851ZM125.851 79.4876H147.589H125.851Z" fill="#CCD4D9"/>
<path d="M125.851 79.4876H147.589M125.851 65.4629H138.941H125.851ZM155.308 65.4724H170.104H155.308ZM155.308 75.1011H170.104H155.308ZM125.851 69.6703H147.589H125.851ZM155.303 69.6703H176.967H155.303ZM155.303 79.2991H176.967H155.303ZM125.851 75.2801H138.941H125.851Z" stroke="#EAEAEA" stroke-width="1.41026" stroke-linecap="round" stroke-linejoin="round"/>
<path d="M141.286 37.8809H138.7C137.284 37.8809 136.136 39.0289 136.136 40.445V58.2238C136.136 59.6399 137.284 60.7879 138.7 60.7879H141.286C142.702 60.7879 143.85 59.6399 143.85 58.2238V40.445C143.85 39.0289 142.702 37.8809 141.286 37.8809Z" fill="#5466F9"/>
<path d="M164.192 37.8809H161.607C160.19 37.8809 159.042 39.0289 159.042 40.445V58.2238C159.042 59.6399 160.19 60.7879 161.607 60.7879H164.192C165.608 60.7879 166.756 59.6399 166.756 58.2238V40.445C166.756 39.0289 165.608 37.8809 164.192 37.8809Z" fill="#5466F9"/>
<path d="M129.831 47.2285H127.245C125.829 47.2285 124.681 48.3765 124.681 49.7926V58.2217C124.681 59.6378 125.829 60.7858 127.245 60.7858H129.831C131.247 60.7858 132.395 59.6378 132.395 58.2217V49.7926C132.395 48.3765 131.247 47.2285 129.831 47.2285Z" fill="#EAEAEA"/>
<path d="M152.739 47.2285H150.153C148.737 47.2285 147.589 48.3765 147.589 49.7926V58.2217C147.589 59.6378 148.737 60.7858 150.153 60.7858H152.739C154.155 60.7858 155.303 59.6378 155.303 58.2217V49.7926C155.303 48.3765 154.155 47.2285 152.739 47.2285Z" fill="#EAEAEA"/>
<path d="M175.645 47.2285H173.06C171.644 47.2285 170.496 48.3765 170.496 49.7926V58.2217C170.496 59.6378 171.644 60.7858 173.06 60.7858H175.645C177.061 60.7858 178.209 59.6378 178.209 58.2217V49.7926C178.209 48.3765 177.061 47.2285 175.645 47.2285Z" fill="#EAEAEA"/>
<defs>
<filter id="filter0_ddd_10_15697" x="0.255886" y="0.094573" width="253.574" height="160.803" filterUnits="userSpaceOnUse" color-interpolation-filters="sRGB">
<feFlood flood-opacity="0" result="BackgroundImageFix"/>
<feColorMatrix in="SourceAlpha" type="matrix" values="0 0 0 0 0 0 0 0 0 0 0 0 0 0 0 0 0 0 127 0" result="hardAlpha"/>
<feOffset/>
<feGaussianBlur stdDeviation="0.386545"/>
<feColorMatrix type="matrix" values="0 0 0 0 0 0 0 0 0 0 0 0 0 0 0 0 0 0 0.04 0"/>
<feBlend mode="normal" in2="BackgroundImageFix" result="effect1_dropShadow_10_15697"/>
<feColorMatrix in="SourceAlpha" type="matrix" values="0 0 0 0 0 0 0 0 0 0 0 0 0 0 0 0 0 0 127 0" result="hardAlpha"/>
<feOffset dy="1.54618"/>
<feGaussianBlur stdDeviation="2.31927"/>
<feColorMatrix type="matrix" values="0 0 0 0 0 0 0 0 0 0 0 0 0 0 0 0 0 0 0.04 0"/>
<feBlend mode="normal" in2="effect1_dropShadow_10_15697" result="effect2_dropShadow_10_15697"/>
<feColorMatrix in="SourceAlpha" type="matrix" values="0 0 0 0 0 0 0 0 0 0 0 0 0 0 0 0 0 0 127 0" result="hardAlpha"/>
<feOffset dy="12.3694"/>
<feGaussianBlur stdDeviation="9.27709"/>
<feColorMatrix type="matrix" values="0 0 0 0 0 0 0 0 0 0 0 0 0 0 0 0 0 0 0.06 0"/>
<feBlend mode="normal" in2="effect2_dropShadow_10_15697" result="effect3_dropShadow_10_15697"/>
<feBlend mode="normal" in="SourceGraphic" in2="effect3_dropShadow_10_15697" result="shape"/>
</filter>
</defs>
</svg>
