<svg width="32" height="32" viewBox="0 0 32 32" fill="none" xmlns="http://www.w3.org/2000/svg">
<circle cx="15.6781" cy="16.2284" r="15.4618" fill="#F6F7FF"/>
<path d="M12.2855 21.1892C12.8138 20.6223 13.6191 20.6674 14.0829 21.2859L14.7336 22.1556C15.2554 22.8449 16.0994 22.8449 16.6212 22.1556L17.2719 21.2859C17.7358 20.6674 18.5411 20.6223 19.0694 21.1892C20.2161 22.4133 21.1503 22.0074 21.1503 20.2937V13.0331C21.1567 10.4368 20.5511 9.78613 18.1159 9.78613H13.2454C10.8102 9.78613 10.2046 10.4368 10.2046 13.0331V20.2873C10.2046 22.0074 11.1452 22.4068 12.2855 21.1892Z" stroke="#5466F9" stroke-width="1.15964" stroke-linecap="round" stroke-linejoin="round"/>
<path d="M13.1638 15.5848H13.1696" stroke="#5466F9" stroke-width="1.54618" stroke-linecap="round" stroke-linejoin="round"/>
<path d="M14.9702 15.583H18.5135" stroke="#5466F9" stroke-width="1.15964" stroke-linecap="round" stroke-linejoin="round"/>
<path d="M13.1638 13.0067H13.1696" stroke="#5466F9" stroke-width="1.54618" stroke-linecap="round" stroke-linejoin="round"/>
<path d="M14.9702 13.0088H18.5135" stroke="#5466F9" stroke-width="1.15964" stroke-linecap="round" stroke-linejoin="round"/>
</svg>
