<svg width="31" height="31" viewBox="0 0 31 31" fill="none" xmlns="http://www.w3.org/2000/svg">
<circle cx="15.6098" cy="15.5754" r="15.0319" fill="#F6F7FF"/>
<path d="M20.0718 23.088H11.727C11.3818 23.088 11.1007 22.8071 11.1007 22.4617V10.2914C11.1007 9.94594 11.3818 9.66504 11.727 9.66504H14.9397C15.1128 9.66504 15.2529 9.80526 15.2529 9.9782V11.287H16.5459V9.9782C16.5459 9.80526 16.686 9.66504 16.8591 9.66504H20.0718C20.4171 9.66504 20.6981 9.94594 20.6981 10.2914V22.4617C20.6981 22.8071 20.4171 23.088 20.0718 23.088ZM11.727 10.2914V22.4617H20.0718V10.2909L17.1723 10.2914V11.6001C17.1723 11.7731 17.0322 11.9133 16.8591 11.9133H14.9397C14.7666 11.9133 14.6266 11.7731 14.6266 11.6001V10.2914H11.727Z" fill="#5466F9"/>
<path d="M16.8586 11.9129H14.9393C14.7662 11.9129 14.6261 11.7727 14.6261 11.5997V8.68199C14.6261 8.33656 14.9072 8.05566 15.2524 8.05566H16.5455C16.8907 8.05566 17.1718 8.33656 17.1718 8.68199V11.5997C17.1718 11.7727 17.0317 11.9129 16.8586 11.9129ZM15.2524 11.2866H16.5455V8.68154L15.2524 8.68199V11.2866Z" fill="#5466F9"/>
<path d="M17.6585 11.913H14.1393C13.9662 11.913 13.8262 11.7727 13.8262 11.5998C13.8262 11.4268 13.9662 11.2866 14.1393 11.2866H17.6585C17.8316 11.2866 17.9716 11.4268 17.9716 11.5998C17.9716 11.7727 17.8316 11.913 17.6585 11.913Z" fill="#5466F9"/>
<path d="M15.8971 15.3593C15.2062 15.3593 14.6444 14.7974 14.6444 14.1067C14.6444 13.416 15.2062 12.854 15.8971 12.854C16.5879 12.854 17.1497 13.416 17.1497 14.1067C17.1497 14.7974 16.5879 15.3593 15.8971 15.3593ZM15.8971 13.4803C15.5518 13.4803 15.2707 13.7612 15.2707 14.1067C15.2707 14.4521 15.5518 14.733 15.8971 14.733C16.2423 14.733 16.5234 14.4521 16.5234 14.1067C16.5234 13.7612 16.2423 13.4803 15.8971 13.4803Z" fill="#5466F9"/>
<path d="M17.4846 17.8148H14.309C13.9569 17.8148 13.6319 17.6379 13.4392 17.3416C13.2505 17.0512 13.2208 16.6903 13.3603 16.3765C13.805 15.3748 14.8007 14.7275 15.8968 14.7275C16.9929 14.7275 17.9886 15.3748 18.4333 16.3767C18.5728 16.6903 18.5431 17.0512 18.3544 17.3416C18.1617 17.6379 17.8366 17.8148 17.4846 17.8148ZM15.8968 15.3539C15.0481 15.3539 14.2771 15.8551 13.9328 16.6308C13.879 16.752 13.8906 16.8867 13.9643 17.0003C14.041 17.1182 14.1698 17.1885 14.309 17.1885H17.4846C17.6238 17.1885 17.7525 17.1182 17.8293 17.0003C17.903 16.8867 17.9146 16.752 17.8608 16.631C17.5164 15.8551 16.7455 15.3539 15.8968 15.3539Z" fill="#5466F9"/>
<path d="M17.779 19.534H14.0211C13.848 19.534 13.7079 19.3938 13.7079 19.2209C13.7079 19.0479 13.848 18.9077 14.0211 18.9077H17.779C17.9521 18.9077 18.0922 19.0479 18.0922 19.2209C18.0922 19.3938 17.9521 19.534 17.779 19.534Z" fill="#5466F9"/>
<path d="M17.779 21.2601H14.0211C13.848 21.2601 13.7079 21.1199 13.7079 20.947C13.7079 20.774 13.848 20.6338 14.0211 20.6338H17.779C17.9521 20.6338 18.0922 20.774 18.0922 20.947C18.0922 21.1199 17.9521 21.2601 17.779 21.2601Z" fill="#5466F9"/>
</svg>
