<svg width="13" height="13" viewBox="0 0 13 13" fill="none" xmlns="http://www.w3.org/2000/svg">
<g clip-path="url(#clip0_9_10067)">
<path d="M3.83187 10.0566H5.78576C5.78576 10.5939 5.34613 11.0335 4.80881 11.0335C4.27149 11.0335 3.83187 10.5939 3.83187 10.0566ZM2.85492 9.5681H6.7627V8.59115H2.85492V9.5681ZM8.47236 4.9276C8.47236 6.79357 7.17302 7.79006 6.63082 8.10268H2.98681C2.4446 7.79006 1.14526 6.79357 1.14526 4.9276C1.14526 2.90532 2.78653 1.26406 4.80881 1.26406C6.83109 1.26406 8.47236 2.90532 8.47236 4.9276ZM10.8512 3.88716L10.182 4.19489L10.8512 4.50263L11.159 5.17184L11.4667 4.50263L12.1359 4.19489L11.4667 3.88716L11.159 3.21795L10.8512 3.88716ZM9.69354 3.21795L10.1527 2.21169L11.159 1.75253L10.1527 1.29336L9.69354 0.287109L9.23438 1.29336L8.22812 1.75253L9.23438 2.21169L9.69354 3.21795Z" fill="#F46F3B"/>
</g>
<defs>
<clipPath id="clip0_9_10067">
<rect width="11.7234" height="11.7234" fill="white" transform="translate(0.412842 0.287109)"/>
</clipPath>
</defs>
</svg>
