<svg width="62" height="62" viewBox="0 0 62 62" fill="none" xmlns="http://www.w3.org/2000/svg">
<path d="M14.0551 9.80786C11.9368 9.80786 10.2195 11.5251 10.2195 13.6434V48.1636C10.2195 50.2819 11.9368 51.9991 14.0551 51.9991H48.5753C50.6936 51.9991 52.4108 50.2819 52.4108 48.1636V13.6434C52.4108 11.5251 50.6936 9.80786 48.5753 9.80786H14.0551ZM14.0551 17.479C14.0551 15.3607 15.7724 13.6434 17.8907 13.6434H44.7397C46.858 13.6434 48.5753 15.3607 48.5753 17.479V44.328C48.5753 46.4463 46.858 48.1636 44.7397 48.1636H17.8907C15.7724 48.1636 14.0551 46.4463 14.0551 44.328V17.479ZM31.7946 15.5612C27.7193 15.5612 27.7193 26.1186 27.7193 26.2299C27.7193 26.7464 27.7275 27.2524 27.7425 27.7458C27.7704 28.661 26.838 29.3513 25.9224 29.3443C21.732 29.3463 19.8085 32.8884 19.8085 36.6569C19.8085 40.2009 21.8087 44.328 26.3405 44.328C27.2119 44.328 28.0354 44.1014 28.8043 43.6948C30.7068 42.6887 33.2422 42.7094 35.3943 42.7094C38.5778 42.7094 40.6874 37.144 41.443 34.7391C41.6674 33.9816 41.2551 33.1051 40.4841 32.8807C40.3032 32.8233 40.1127 32.8026 39.9237 32.82C39.7347 32.8373 39.5511 32.8922 39.3836 32.9816C39.2162 33.0709 39.0683 33.1929 38.9487 33.3402C38.8291 33.4876 38.7402 33.6574 38.6872 33.8396C37.9097 36.3023 36.5464 38.8669 35.7179 39.5833C35.5254 39.7498 35.3917 39.8009 35.1437 39.7435C33.7668 39.4251 33.6908 37.4243 34.1797 36.0983C35.4174 32.7407 36.0502 29.0448 36.0502 26.4082C36.0502 17.4406 33.7278 15.5612 31.7946 15.5612ZM30.645 24.6856C30.8228 21.8471 33.0131 21.8357 33.1373 24.677C33.1607 25.2118 33.1735 25.7881 33.1735 26.4082C33.1735 29.0487 30.601 28.9554 30.5961 26.3149C30.596 26.286 30.596 26.257 30.596 26.2279C30.596 25.7069 30.6134 25.1904 30.645 24.6856ZM25.3816 32.2824C25.5542 32.244 25.7268 32.2824 25.9205 32.2824C27.0082 32.2824 27.8595 32.983 28.0431 33.1462C28.0682 33.1686 28.0866 33.1892 28.1072 33.2158C28.2197 33.3611 28.3365 33.5235 28.3732 33.7035C28.5606 34.6226 28.8188 35.5249 29.1453 36.4023C29.6048 37.6372 29.6471 39.0785 28.7571 40.0501C27.9791 40.8993 27.155 41.3957 26.3405 41.3957C23.061 41.3957 22.7446 38.4615 22.7446 37.1958C22.7446 37.0001 22.7887 32.8002 25.3816 32.2824Z" fill="black"/>
</svg>
