<svg width="62" height="62" viewBox="0 0 62 62" fill="none" xmlns="http://www.w3.org/2000/svg">
<path d="M15.014 10.0435C13.7452 10.0525 12.531 10.5605 11.6338 11.4577C10.7366 12.3549 10.2286 13.5691 10.2195 14.8379V47.4403C10.2195 50.0619 12.3924 52.2347 15.014 52.2347H47.6164C50.238 52.2347 52.4108 50.0619 52.4108 47.4403V14.8379C52.4108 12.2163 50.238 10.0435 47.6164 10.0435H15.014ZM15.014 13.879H47.6164C48.1629 13.879 48.5753 14.2914 48.5753 14.8379V47.4403C48.5779 47.5669 48.5549 47.6928 48.5076 47.8103C48.4603 47.9278 48.3898 48.0346 48.3002 48.1241C48.2107 48.2137 48.1039 48.2842 47.9864 48.3315C47.8689 48.3788 47.743 48.4018 47.6164 48.3992H15.014C14.8873 48.4021 14.7613 48.3792 14.6437 48.3321C14.526 48.2849 14.4192 48.2144 14.3295 48.1247C14.2399 48.0351 14.1694 47.9283 14.1222 47.8106C14.0751 47.693 14.0522 47.567 14.0551 47.4403V14.8379C14.0551 14.2914 14.4674 13.879 15.014 13.879ZM20.6485 17.1757C20.209 17.1651 19.7718 17.2425 19.3627 17.4034C18.9535 17.5642 18.5807 17.8053 18.2661 18.1124C17.9516 18.4195 17.7016 18.7864 17.5309 19.1915C17.3602 19.5966 17.2723 20.0318 17.2723 20.4714C17.2723 20.911 17.3602 21.3462 17.5309 21.7513C17.7016 22.1565 17.9516 22.5234 18.2661 22.8305C18.5807 23.1375 18.9535 23.3786 19.3627 23.5395C19.7718 23.7003 20.209 23.7777 20.6485 23.7671C21.5088 23.7464 22.3269 23.39 22.928 22.7742C23.5291 22.1584 23.8656 21.332 23.8656 20.4714C23.8656 19.6109 23.5291 18.7844 22.928 18.1686C22.3269 17.5528 21.5088 17.1965 20.6485 17.1757ZM37.9661 25.9246C35.2179 25.9246 33.3902 27.4301 32.6346 28.8608H32.5138V26.3446H27.1191V44.5636H32.7535V35.573C32.7535 33.1988 33.2253 30.8994 36.1691 30.8994C39.0688 30.8994 39.1071 33.5804 39.1071 35.6938V44.5636H44.7397V34.5547C44.7397 29.6567 43.6964 25.9246 37.9661 25.9246ZM17.8907 26.3446V44.5636H23.5846V26.3446H17.8907Z" fill="black"/>
</svg>
