<svg width="16" height="16" viewBox="0 0 16 16" fill="none" xmlns="http://www.w3.org/2000/svg">
<path d="M0.960449 7.95243C0.960449 9.38273 1.38458 10.7809 2.17921 11.9702C2.97385 13.1594 4.10329 14.0863 5.42471 14.6337C6.74614 15.181 8.2002 15.3242 9.60301 15.0452C11.0058 14.7662 12.2944 14.0774 13.3058 13.066C14.3172 12.0547 15.0059 10.7661 15.2849 9.36327C15.564 7.96045 15.4208 6.50639 14.8734 5.18497C14.3261 3.86354 13.3992 2.7341 12.2099 1.93947C11.0207 1.14484 9.62247 0.720703 8.19217 0.720703C6.2742 0.720703 4.43478 1.48261 3.07857 2.83883C1.72236 4.19504 0.960449 6.03446 0.960449 7.95243ZM13.3157 11.8142C12.717 12.6065 11.9428 13.2491 11.0538 13.6916C10.1647 14.1341 9.18522 14.3644 8.19217 14.3644C7.19913 14.3644 6.21961 14.1341 5.3306 13.6916C4.44159 13.2491 3.66732 12.6065 3.06864 11.8142C3.66732 11.0219 4.44159 10.3792 5.3306 9.93672C6.21961 9.49421 7.19913 9.2639 8.19217 9.2639C9.18522 9.2639 10.1647 9.49421 11.0538 9.93672C11.9428 10.3792 12.717 11.0219 13.3157 11.8142ZM1.78082 7.95243C1.79687 6.26266 2.47939 4.64755 3.67995 3.45833C4.88052 2.26912 6.50204 1.60197 8.19188 1.60197C9.88173 1.60197 11.5033 2.26912 12.7038 3.45833C13.9044 4.64755 14.5869 6.26266 14.603 7.95243C14.6094 9.05262 14.3275 10.1353 13.7855 11.0927C13.1081 10.2636 12.2549 9.59538 11.2875 9.13652C10.3201 8.67766 9.26285 8.43962 8.19217 8.43962C7.1215 8.43962 6.06422 8.67766 5.09685 9.13652C4.12949 9.59538 3.27624 10.2636 2.59887 11.0927C2.06603 10.1316 1.78464 9.05139 1.78082 7.95243ZM5.62751 5.25991C5.62751 5.76715 5.77793 6.263 6.05974 6.68476C6.34155 7.10652 6.74209 7.43524 7.21072 7.62935C7.67935 7.82346 8.19502 7.87425 8.69251 7.77529C9.19001 7.67633 9.64699 7.43207 10.0057 7.0734C10.3643 6.71473 10.6086 6.25775 10.7076 5.76025C10.8065 5.26276 10.7557 4.74709 10.5616 4.27846C10.3675 3.80983 10.0388 3.40928 9.61702 3.12748C9.19527 2.84567 8.69942 2.69525 8.19217 2.69525C7.51255 2.69709 6.86128 2.96788 6.38071 3.44845C5.90014 3.92902 5.62935 4.58029 5.62751 5.25991ZM6.44788 5.25991C6.44788 4.91504 6.55015 4.57791 6.74175 4.29116C6.93335 4.0044 7.20568 3.78091 7.5243 3.64893C7.84293 3.51695 8.19353 3.48242 8.53178 3.5497C8.87002 3.61699 9.18072 3.78306 9.42459 4.02692C9.66845 4.27078 9.83452 4.58148 9.9018 4.91973C9.96909 5.25798 9.93455 5.60858 9.80258 5.9272C9.6706 6.24582 9.4471 6.51816 9.16035 6.70976C8.8736 6.90136 8.53647 7.00363 8.1916 7.00363C7.72966 7.0021 7.28708 6.81788 6.96049 6.49118C6.63391 6.16449 6.44983 5.72185 6.44846 5.25991H6.44788Z" fill="#9D9DB0" stroke="#9D9DB0" stroke-width="0.0867807"/>
</svg>
