<svg width="47" height="47" viewBox="0 0 47 47" fill="none" xmlns="http://www.w3.org/2000/svg">
<path d="M14.6854 21.6027C15.7027 21.6027 16.6782 21.1986 17.3976 20.4792C18.1169 19.7599 18.521 18.7843 18.521 17.7671C18.521 16.7498 18.1169 15.7742 17.3976 15.0549C16.6782 14.3356 15.7027 13.9315 14.6854 13.9315H6.05536V21.6027H14.6854ZM16.6032 25.4382H6.05536V33.1094H16.6032C17.6204 33.1094 18.596 32.7053 19.3153 31.986C20.0346 31.2667 20.4388 30.2911 20.4388 29.2738C20.4388 28.2565 20.0346 27.281 19.3153 26.5616C18.596 25.8423 17.6204 25.4382 16.6032 25.4382ZM20.5596 22.6996C21.997 23.564 23.1116 24.8756 23.7325 26.4337C24.3535 27.9918 24.4467 29.7105 23.9979 31.3266C23.549 32.9428 22.5829 34.3672 21.2473 35.3819C19.9118 36.3966 18.2805 36.9457 16.6032 36.9449H2.21979V10.0959H14.6854C16.1461 10.0958 17.5765 10.5127 18.8083 11.2976C20.0402 12.0826 21.0224 13.2029 21.6394 14.5269C22.2563 15.8509 22.4825 17.3235 22.2912 18.7716C22.0999 20.2198 21.4992 21.5832 20.5596 22.7016M30.0277 12.0137H40.5755V14.8904H30.0277V12.0137ZM44.4111 28.3149H30.0277V28.7944C30.0272 29.979 30.4257 31.1294 31.1588 32.06C31.892 32.9906 32.9171 33.6472 34.0689 33.9241C35.2208 34.201 36.4324 34.082 37.5084 33.5863C38.5843 33.0906 39.4621 32.247 40.0002 31.1916H44.0927C43.5084 33.317 42.1736 35.1587 40.3354 36.3753C38.4973 37.5919 36.2805 38.1011 34.0958 37.8086C31.911 37.516 29.9063 36.4414 28.4531 34.784C26.9998 33.1266 26.1966 30.9986 26.1921 28.7944V25.9177C26.1921 23.5017 27.1519 21.1847 28.8602 19.4763C30.5686 17.7679 32.8856 16.8082 35.3016 16.8082C37.7176 16.8082 40.0346 17.7679 41.743 19.4763C43.4513 21.1847 44.4111 23.5017 44.4111 25.9177V28.3149ZM40.376 24.4793C40.062 23.3756 39.3968 22.4044 38.481 21.7129C37.5653 21.0213 36.4491 20.6472 35.3016 20.6472C34.1541 20.6472 33.0379 21.0213 32.1221 21.7129C31.2064 22.4044 30.5411 23.3756 30.2271 24.4793H40.376Z" fill="black"/>
</svg>
