<svg width="15" height="16" viewBox="0 0 15 16" fill="none" xmlns="http://www.w3.org/2000/svg">
<rect width="14.8768" height="14.8768" transform="translate(0.0107422 0.571533)" fill="white"/>
<path d="M2.49023 4.78665C2.49023 3.74517 2.49023 3.22443 2.69292 2.82664C2.87121 2.47673 3.15569 2.19225 3.5056 2.01396C3.90339 1.81128 4.42413 1.81128 5.4656 1.81128H7.45648C7.91132 1.81128 8.13875 1.81128 8.35276 1.86266C8.54251 1.90821 8.7239 1.98335 8.89029 2.08531C9.07795 2.20031 9.23876 2.36112 9.56039 2.68274L11.5367 4.65903C11.8583 4.98065 12.0191 5.14146 12.1341 5.32912C12.2361 5.49551 12.3112 5.6769 12.3568 5.86665C12.4081 6.08067 12.4081 6.30809 12.4081 6.76293V11.2333C12.4081 12.2748 12.4081 12.7955 12.2054 13.1933C12.0272 13.5432 11.7427 13.8277 11.3928 14.006C10.995 14.2087 10.4742 14.2087 9.43276 14.2087H5.4656C4.42413 14.2087 3.90339 14.2087 3.5056 14.006C3.15569 13.8277 2.87121 13.5432 2.69292 13.1933C2.49023 12.7955 2.49023 12.2748 2.49023 11.2333V4.78665Z" stroke="#71748C" stroke-width="1.48768" stroke-linecap="round" stroke-linejoin="round"/>
<path d="M4.96971 9.12573C4.96971 8.95215 4.96971 8.86536 5.00349 8.79906C5.0332 8.74074 5.08062 8.69333 5.13894 8.66362C5.20523 8.62983 5.29202 8.62983 5.4656 8.62983H9.43276C9.60634 8.62983 9.69313 8.62983 9.75943 8.66362C9.81775 8.69333 9.86516 8.74074 9.89488 8.79906C9.92866 8.86536 9.92866 8.95215 9.92866 9.12573V11.2333C9.92866 11.4069 9.92866 11.4937 9.89488 11.56C9.86516 11.6183 9.81775 11.6657 9.75943 11.6954C9.69313 11.7292 9.60634 11.7292 9.43276 11.7292H5.4656C5.29202 11.7292 5.20523 11.7292 5.13894 11.6954C5.08062 11.6657 5.0332 11.6183 5.00349 11.56C4.96971 11.4937 4.96971 11.4069 4.96971 11.2333V9.12573Z" stroke="#71748C" stroke-width="1.48768" stroke-linecap="round" stroke-linejoin="round"/>
</svg>
