<svg width="23" height="24" viewBox="0 0 23 24" fill="none" xmlns="http://www.w3.org/2000/svg">
<path d="M11.6263 0.615234C9.38505 0.615234 7.19415 1.27983 5.33064 2.52499C3.46713 3.77015 2.0147 5.53994 1.15702 7.61056C0.299343 9.68118 0.0749354 11.9596 0.512177 14.1578C0.949418 16.356 2.02867 18.3751 3.61346 19.9599C5.19824 21.5447 7.21738 22.6239 9.41554 23.0612C11.6137 23.4984 13.8922 23.274 15.9628 22.4163C18.0334 21.5586 19.8032 20.1062 21.0483 18.2427C22.2935 16.3792 22.9581 14.1883 22.9581 11.9471C22.9581 8.94168 21.7642 6.05938 19.6391 3.93425C17.514 1.80912 14.6317 0.615234 11.6263 0.615234ZM19.0274 8.14382L9.72111 17.443L4.22517 11.9471C4.03733 11.7592 3.93181 11.5045 3.93181 11.2388C3.93181 10.9732 4.03733 10.7184 4.22517 10.5306C4.413 10.3428 4.66777 10.2372 4.93341 10.2372C5.19905 10.2372 5.45381 10.3428 5.64165 10.5306L9.73527 14.6242L17.6251 6.74151C17.7181 6.6485 17.8285 6.57472 17.95 6.52439C18.0715 6.47405 18.2018 6.44814 18.3333 6.44814C18.4648 6.44814 18.5951 6.47405 18.7166 6.52439C18.8381 6.57472 18.9485 6.6485 19.0415 6.74151C19.1345 6.83451 19.2083 6.94493 19.2587 7.06645C19.309 7.18797 19.3349 7.31821 19.3349 7.44975C19.3349 7.58128 19.309 7.71152 19.2587 7.83304C19.2083 7.95456 19.1345 8.06498 19.0415 8.15798L19.0274 8.14382Z" fill="#5466F9"/>
</svg>
