<svg width="13" height="11" viewBox="0 0 13 11" fill="none" xmlns="http://www.w3.org/2000/svg">
<path d="M7.6685 4.51289L5.28308 6.77276C4.97666 6.48246 4.78809 6.08497 4.78809 5.64283C4.78809 4.75853 5.54237 4.04395 6.47579 4.04395C6.9425 4.04395 7.36207 4.22259 7.6685 4.51289Z" stroke="#41415A" stroke-width="0.861328" stroke-linecap="round" stroke-linejoin="round"/>
<path d="M9.21989 2.86129C8.3949 2.27176 7.45204 1.9502 6.47619 1.9502C4.81205 1.9502 3.26106 2.87915 2.18149 4.48697C1.75721 5.11669 1.75721 6.17517 2.18149 6.8049C2.55392 7.3587 2.98763 7.83658 3.45906 8.22066" stroke="#41415A" stroke-width="0.861328" stroke-linecap="round" stroke-linejoin="round"/>
<path d="M4.78809 9.00592C5.32551 9.2203 5.89594 9.33642 6.47579 9.33642C8.13993 9.33642 9.69092 8.40746 10.7705 6.79965C11.1948 6.16992 11.1948 5.11145 10.7705 4.48172C10.6149 4.24948 10.4452 4.03064 10.2708 3.8252" stroke="#41415A" stroke-width="0.861328" stroke-linecap="round" stroke-linejoin="round"/>
<path d="M8.1302 5.9541C8.00763 6.58383 7.46549 7.09744 6.80078 7.21356" stroke="#41415A" stroke-width="0.861328" stroke-linecap="round" stroke-linejoin="round"/>
<path d="M5.28327 6.77441L1.76172 10.1106" stroke="#41415A" stroke-width="0.861328" stroke-linecap="round" stroke-linejoin="round"/>
<path d="M11.1905 1.18066L7.66895 4.51687" stroke="#41415A" stroke-width="0.861328" stroke-linecap="round" stroke-linejoin="round"/>
</svg>
