<svg width="13" height="13" viewBox="0 0 13 13" fill="none" xmlns="http://www.w3.org/2000/svg">
<path d="M5.22798 6.14406C5.17785 6.13905 5.11771 6.13905 5.06257 6.14406C3.86967 6.10397 2.92236 5.12659 2.92236 3.92366C2.92236 2.69567 3.91478 1.69824 5.14778 1.69824C6.37577 1.69824 7.3732 2.69567 7.3732 3.92366C7.36819 5.12659 6.42088 6.10397 5.22798 6.14406Z" stroke="#41415A" stroke-width="0.75183" stroke-linecap="round" stroke-linejoin="round"/>
<path d="M8.86179 2.70117C9.83416 2.70117 10.6161 3.48809 10.6161 4.45544C10.6161 5.40275 9.86423 6.17463 8.92695 6.20971C8.88685 6.2047 8.84174 6.2047 8.79663 6.20971" stroke="#41415A" stroke-width="0.75183" stroke-linecap="round" stroke-linejoin="round"/>
<path d="M2.72173 7.99359C1.50877 8.80557 1.50877 10.1288 2.72173 10.9358C4.10008 11.858 6.36058 11.858 7.73894 10.9358C8.95189 10.1238 8.95189 8.80055 7.73894 7.99359C6.3656 7.07636 4.10509 7.07636 2.72173 7.99359Z" stroke="#41415A" stroke-width="0.75183" stroke-linecap="round" stroke-linejoin="round"/>
<path d="M9.8291 10.7202C10.19 10.645 10.5308 10.4997 10.8115 10.2841C11.5934 9.69772 11.5934 8.73037 10.8115 8.14394C10.5358 7.93343 10.2 7.79309 9.84414 7.71289" stroke="#41415A" stroke-width="0.75183" stroke-linecap="round" stroke-linejoin="round"/>
</svg>
