<svg width="5" height="6" viewBox="0 0 5 6" fill="none" xmlns="http://www.w3.org/2000/svg">
<path d="M4.20977 4.1024C4.20977 4.16527 4.1958 4.22989 4.16611 4.29276C4.13642 4.35563 4.098 4.41501 4.04736 4.47089C3.96178 4.5652 3.86748 4.63331 3.76094 4.67697C3.65616 4.72063 3.54264 4.74333 3.42039 4.74333C3.24226 4.74333 3.0519 4.70142 2.85106 4.61585C2.65022 4.53027 2.44938 4.41501 2.25029 4.27005C2.04945 4.12335 1.85909 3.96094 1.67746 3.78106C1.49758 3.59943 1.33516 3.40907 1.19021 3.20997C1.047 3.01088 0.931739 2.81179 0.84791 2.61444C0.764082 2.41535 0.722168 2.22499 0.722168 2.04336C0.722168 1.92461 0.743125 1.81109 0.785039 1.7063C0.826953 1.59977 0.893317 1.50197 0.985878 1.41465C1.09765 1.30463 1.2199 1.25049 1.34913 1.25049C1.39803 1.25049 1.44693 1.26097 1.49059 1.28192C1.536 1.30288 1.57617 1.33432 1.6076 1.37972L2.01277 1.9508C2.04421 1.99446 2.06691 2.03463 2.08263 2.07305C2.09835 2.10973 2.10708 2.1464 2.10708 2.17959C2.10708 2.2215 2.09486 2.26341 2.07041 2.30358C2.0477 2.34375 2.01452 2.38566 1.97261 2.42758L1.83988 2.56554C1.82067 2.58476 1.81194 2.60746 1.81194 2.6354C1.81194 2.64937 1.81368 2.6616 1.81718 2.67557C1.82241 2.68954 1.82765 2.70002 1.83115 2.7105C1.86258 2.76813 1.91672 2.84323 1.99356 2.93404C2.07215 3.02485 2.15598 3.11741 2.2468 3.20997C2.3411 3.30254 2.43192 3.38811 2.52448 3.4667C2.61529 3.54354 2.69039 3.59593 2.74976 3.62737C2.7585 3.63086 2.76898 3.6361 2.7812 3.64134C2.79517 3.64658 2.80914 3.64833 2.82486 3.64833C2.85455 3.64833 2.87725 3.63785 2.89646 3.61864L3.02919 3.48766C3.07285 3.444 3.11477 3.41081 3.15494 3.38986C3.1951 3.36541 3.23527 3.35318 3.27893 3.35318C3.31211 3.35318 3.34704 3.36017 3.38546 3.37589C3.42388 3.3916 3.46405 3.41431 3.50771 3.444L4.08578 3.8544C4.13119 3.88584 4.16262 3.92252 4.18183 3.96618C4.1993 4.00984 4.20977 4.0535 4.20977 4.1024Z" stroke="#5466F9" stroke-width="0.261963" stroke-miterlimit="10"/>
</svg>
