<svg width="13" height="13" viewBox="0 0 13 13" fill="none" xmlns="http://www.w3.org/2000/svg">
<path d="M6.02661 8.87305V9.89054C6.02661 10.7526 5.22465 11.4493 4.23725 11.4493C3.24984 11.4493 2.44287 10.7526 2.44287 9.89054V8.87305C2.44287 9.73515 3.24483 10.3466 4.23725 10.3466C5.22465 10.3466 6.02661 9.73013 6.02661 8.87305Z" stroke="#292D32" stroke-width="0.75183" stroke-linecap="round" stroke-linejoin="round"/>
<path d="M6.02573 7.49615C6.02573 7.74676 5.95556 7.97732 5.83527 8.1778C5.53955 8.66399 4.93307 8.96974 4.23136 8.96974C3.52965 8.96974 2.92317 8.65898 2.62745 8.1778C2.50715 7.97732 2.43701 7.74676 2.43701 7.49615C2.43701 7.0651 2.63749 6.67916 2.95827 6.39848C3.28406 6.11278 3.73013 5.94238 4.22634 5.94238C4.72255 5.94238 5.16865 6.1178 5.49444 6.39848C5.82525 6.67415 6.02573 7.0651 6.02573 7.49615Z" stroke="#292D32" stroke-width="0.75183" stroke-linecap="round" stroke-linejoin="round"/>
<path d="M6.02661 7.49531V8.87367C6.02661 9.73576 5.22465 10.3473 4.23725 10.3473C3.24984 10.3473 2.44287 9.73075 2.44287 8.87367V7.49531C2.44287 6.63321 3.24483 5.93652 4.23725 5.93652C4.73346 5.93652 5.17956 6.11194 5.50535 6.39262C5.82613 6.6733 6.02661 7.06426 6.02661 7.49531Z" stroke="#292D32" stroke-width="0.75183" stroke-linecap="round" stroke-linejoin="round"/>
<path d="M11.6627 5.92138V6.95392C11.6627 7.22959 11.4422 7.45512 11.1615 7.46515H10.1791C9.6378 7.46515 9.1416 7.06919 9.09649 6.52787C9.06642 6.2121 9.1867 5.91638 9.39721 5.71088C9.58266 5.52041 9.83829 5.41016 10.119 5.41016H11.1615C11.4422 5.42018 11.6627 5.64571 11.6627 5.92138Z" stroke="#292D32" stroke-width="0.75183" stroke-linecap="round" stroke-linejoin="round"/>
<path d="M1.63818 5.6853V4.68286C1.63818 3.31954 2.46019 2.36722 3.7383 2.20683C3.86861 2.18678 4.00394 2.17676 4.14428 2.17676H8.65527C8.78558 2.17676 8.91089 2.18176 9.03118 2.20181C10.3243 2.35218 11.1614 3.30952 11.1614 4.68286V5.40963H10.1188C9.83814 5.40963 9.58251 5.51989 9.39706 5.71035C9.18655 5.91585 9.06627 6.21158 9.09634 6.52734C9.14145 7.06866 9.63765 7.46462 10.179 7.46462H11.1614V8.1914C11.1614 9.69506 10.1589 10.6975 8.65527 10.6975H7.40221" stroke="#292D32" stroke-width="0.75183" stroke-linecap="round" stroke-linejoin="round"/>
</svg>
