<svg width="12" height="11" viewBox="0 0 12 11" fill="none" xmlns="http://www.w3.org/2000/svg">
<path d="M6.05615 2.37549H10.2897" stroke="white" stroke-width="0.508031" stroke-miterlimit="10" stroke-linecap="round" stroke-linejoin="round"/>
<path d="M6.99601 0.868164H9.34989C10.1035 0.868164 10.2897 1.05444 10.2897 1.79955V3.53956C10.2897 4.28467 10.1035 4.47095 9.34989 4.47095H6.99601C6.24243 4.47095 6.05615 4.28467 6.05615 3.53956V1.79955C6.05615 1.05444 6.24243 0.868164 6.99601 0.868164Z" stroke="white" stroke-width="0.508031" stroke-linecap="round" stroke-linejoin="round"/>
<path d="M1.82275 7.24414H6.05635" stroke="white" stroke-width="0.508031" stroke-miterlimit="10" stroke-linecap="round" stroke-linejoin="round"/>
<path d="M2.76261 5.73682H5.11649C5.87007 5.73682 6.05635 5.92309 6.05635 6.66821V8.40821C6.05635 9.15333 5.87007 9.3396 5.11649 9.3396H2.76261C2.00903 9.3396 1.82275 9.15333 1.82275 8.40821V6.66821C1.82275 5.92309 2.00903 5.73682 2.76261 5.73682Z" stroke="white" stroke-width="0.508031" stroke-linecap="round" stroke-linejoin="round"/>
<path d="M10.2902 6.37207C10.2902 8.01047 8.96506 9.33558 7.32666 9.33558L7.77118 8.59471" stroke="white" stroke-width="0.508031" stroke-linecap="round" stroke-linejoin="round"/>
<path d="M1.82275 3.83168C1.82275 2.19328 3.14787 0.868164 4.78627 0.868164L4.34175 1.60904" stroke="white" stroke-width="0.508031" stroke-linecap="round" stroke-linejoin="round"/>
</svg>
