<svg width="13" height="13" viewBox="0 0 13 13" fill="none" xmlns="http://www.w3.org/2000/svg">
<path d="M4.64646 11.7226H8.65622C10.6711 11.7226 11.032 10.9157 11.1373 9.93329L11.5132 5.92353C11.6485 4.70055 11.2976 3.70312 9.15744 3.70312H4.14524C2.00503 3.70312 1.65417 4.70055 1.7895 5.92353L2.16542 9.93329C2.27067 10.9157 2.63155 11.7226 4.64646 11.7226Z" stroke="#41415A" stroke-width="0.75183" stroke-miterlimit="10" stroke-linecap="round" stroke-linejoin="round"/>
<path d="M4.64648 3.70312V3.30215C4.64648 2.41499 4.64648 1.69824 6.25039 1.69824H7.05234C8.65625 1.69824 8.65625 2.41499 8.65625 3.30215V3.70312" stroke="#41415A" stroke-width="0.75183" stroke-miterlimit="10" stroke-linecap="round" stroke-linejoin="round"/>
<path d="M7.65381 7.21216V7.71338C7.65381 7.71839 7.65381 7.71839 7.65381 7.7234C7.65381 8.26973 7.64879 8.71582 6.65137 8.71582C5.65895 8.71582 5.64893 8.27474 5.64893 7.72841V7.21216C5.64893 6.71094 5.64893 6.71094 6.15015 6.71094H7.15259C7.65381 6.71094 7.65381 6.71094 7.65381 7.21216Z" stroke="#41415A" stroke-width="0.75183" stroke-miterlimit="10" stroke-linecap="round" stroke-linejoin="round"/>
<path d="M11.4881 6.20898C10.3303 7.05103 9.0071 7.55225 7.65381 7.72267" stroke="#41415A" stroke-width="0.75183" stroke-miterlimit="10" stroke-linecap="round" stroke-linejoin="round"/>
<path d="M1.94983 6.3457C3.07757 7.11758 4.35067 7.58372 5.64883 7.72907" stroke="#41415A" stroke-width="0.75183" stroke-miterlimit="10" stroke-linecap="round" stroke-linejoin="round"/>
</svg>
