<svg width="13" height="13" viewBox="0 0 13 13" fill="none" xmlns="http://www.w3.org/2000/svg">
<path d="M11.6636 3.9541H8.65625" stroke="#41415A" stroke-width="0.75183" stroke-miterlimit="10" stroke-linecap="round" stroke-linejoin="round"/>
<path d="M3.64404 3.9541H1.63916" stroke="#41415A" stroke-width="0.75183" stroke-miterlimit="10" stroke-linecap="round" stroke-linejoin="round"/>
<path d="M5.64892 5.70874C6.61778 5.70874 7.40319 4.92332 7.40319 3.95447C7.40319 2.98561 6.61778 2.2002 5.64892 2.2002C4.68007 2.2002 3.89465 2.98561 3.89465 3.95447C3.89465 4.92332 4.68007 5.70874 5.64892 5.70874Z" stroke="#41415A" stroke-width="0.75183" stroke-miterlimit="10" stroke-linecap="round" stroke-linejoin="round"/>
<path d="M11.6636 9.46777H9.65869" stroke="#41415A" stroke-width="0.75183" stroke-miterlimit="10" stroke-linecap="round" stroke-linejoin="round"/>
<path d="M4.64648 9.46777H1.63916" stroke="#41415A" stroke-width="0.75183" stroke-miterlimit="10" stroke-linecap="round" stroke-linejoin="round"/>
<path d="M7.65381 11.2214C8.62266 11.2214 9.40808 10.436 9.40808 9.46716C9.40808 8.4983 8.62266 7.71289 7.65381 7.71289C6.68495 7.71289 5.89954 8.4983 5.89954 9.46716C5.89954 10.436 6.68495 11.2214 7.65381 11.2214Z" stroke="#41415A" stroke-width="0.75183" stroke-miterlimit="10" stroke-linecap="round" stroke-linejoin="round"/>
</svg>
