<svg width="21" height="21" viewBox="0 0 21 21" fill="none" xmlns="http://www.w3.org/2000/svg">
<path d="M10.1796 3.03223C7.37999 3.03223 5.10476 5.30745 5.10476 8.10708V10.5515C5.10476 11.0674 4.88485 11.854 4.62265 12.2938L3.64997 13.9093C3.04945 14.9074 3.4639 16.0154 4.56345 16.3876C8.20888 17.6055 12.1419 17.6055 15.7873 16.3876C16.8108 16.0492 17.259 14.8397 16.7008 13.9093L15.7281 12.2938C15.4744 11.854 15.2545 11.0674 15.2545 10.5515V8.10708C15.2545 5.31591 12.9708 3.03223 10.1796 3.03223Z" stroke="#9D9DB0" stroke-width="1.17473" stroke-miterlimit="10" stroke-linecap="round"/>
<path d="M11.7445 3.27861C11.4823 3.20249 11.2116 3.14328 10.9325 3.10945C10.1205 3.00795 9.34239 3.06716 8.61499 3.27861C8.86027 2.65271 9.46926 2.21289 10.1797 2.21289C10.8902 2.21289 11.4992 2.65271 11.7445 3.27861Z" stroke="#9D9DB0" stroke-width="1.17473" stroke-miterlimit="10" stroke-linecap="round" stroke-linejoin="round"/>
<path d="M12.7169 16.6914C12.7169 18.087 11.5751 19.2288 10.1795 19.2288C9.48595 19.2288 8.84314 18.9413 8.3864 18.4845C7.92966 18.0278 7.64209 17.385 7.64209 16.6914" stroke="#9D9DB0" stroke-width="1.17473" stroke-miterlimit="10"/>
</svg>
