<svg width="13" height="13" viewBox="0 0 13 13" fill="none" xmlns="http://www.w3.org/2000/svg">
<path d="M11.6636 3.90722V5.12018C11.6636 5.9121 11.1624 6.41332 10.3704 6.41332H8.65625V2.9098C8.65625 2.35344 9.11236 1.90234 9.66871 1.90234C10.215 1.90736 10.7163 2.12789 11.0771 2.48877C11.438 2.85466 11.6636 3.35588 11.6636 3.90722Z" stroke="#41415A" stroke-width="0.7" stroke-miterlimit="10" stroke-linecap="round" stroke-linejoin="round"/>
<path d="M1.63916 4.40844V11.4255C1.63916 11.8415 2.11031 12.0771 2.44111 11.8265L3.2982 11.1849C3.49869 11.0346 3.77937 11.0546 3.95981 11.2351L4.79183 12.0721C4.98731 12.2676 5.30809 12.2676 5.50357 12.0721L6.34562 11.2301C6.52104 11.0546 6.80173 11.0346 6.9972 11.1849L7.85429 11.8265C8.18509 12.0721 8.65624 11.8365 8.65624 11.4255V2.90478C8.65624 2.35344 9.10734 1.90234 9.65868 1.90234H4.14526H3.64404C2.14038 1.90234 1.63916 2.79953 1.63916 3.90722V4.40844Z" stroke="#41415A" stroke-width="0.7" stroke-miterlimit="10" stroke-linecap="round" stroke-linejoin="round"/>
<path d="M5.14771 7.42188H6.65137" stroke="#41415A" stroke-width="0.7" stroke-linecap="round" stroke-linejoin="round"/>
<path d="M5.14771 5.41699H6.65137" stroke="#41415A" stroke-width="0.7" stroke-linecap="round" stroke-linejoin="round"/>
<path d="M3.64209 7.41602H3.64659" stroke="#41415A" stroke-width="0.7" stroke-linecap="round" stroke-linejoin="round"/>
<path d="M3.64209 5.41113H3.64659" stroke="#41415A" stroke-width="0.7" stroke-linecap="round" stroke-linejoin="round"/>
</svg>
