<svg width="13" height="13" viewBox="0 0 13 13" fill="none" xmlns="http://www.w3.org/2000/svg">
<path d="M11.6636 6.06242V2.65412C11.6636 1.90229 11.3428 1.60156 10.5458 1.60156H8.52092C7.72398 1.60156 7.4032 1.90229 7.4032 2.65412V6.06242C7.4032 6.81425 7.72398 7.11498 8.52092 7.11498H10.5458C11.3428 7.11498 11.6636 6.81425 11.6636 6.06242Z" stroke="#41415A" stroke-width="0.75183" stroke-linecap="round" stroke-linejoin="round"/>
<path d="M11.6636 10.5739V9.6717C11.6636 8.91987 11.3428 8.61914 10.5458 8.61914H8.52092C7.72398 8.61914 7.4032 8.91987 7.4032 9.6717V10.5739C7.4032 11.3257 7.72398 11.6265 8.52092 11.6265H10.5458C11.3428 11.6265 11.6636 11.3257 11.6636 10.5739Z" stroke="#41415A" stroke-width="0.75183" stroke-linecap="round" stroke-linejoin="round"/>
<path d="M5.89953 7.16584V10.5741C5.89953 11.326 5.57875 11.6267 4.78181 11.6267H2.75688C1.95994 11.6267 1.63916 11.326 1.63916 10.5741V7.16584C1.63916 6.41401 1.95994 6.11328 2.75688 6.11328H4.78181C5.57875 6.11328 5.89953 6.41401 5.89953 7.16584Z" stroke="#41415A" stroke-width="0.75183" stroke-linecap="round" stroke-linejoin="round"/>
<path d="M5.89953 2.65412V3.55632C5.89953 4.30815 5.57875 4.60888 4.78181 4.60888H2.75688C1.95994 4.60888 1.63916 4.30815 1.63916 3.55632V2.65412C1.63916 1.90229 1.95994 1.60156 2.75688 1.60156H4.78181C5.57875 1.60156 5.89953 1.90229 5.89953 2.65412Z" stroke="#41415A" stroke-width="0.75183" stroke-linecap="round" stroke-linejoin="round"/>
</svg>
